<svg width="40" height="40" viewBox="0 0 40 40" fill="none" xmlns="http://www.w3.org/2000/svg">
<path d="M39.9958 5.9626C39.9958 14.9845 39.9958 24.007 39.9958 33.0299C39.9958 34.881 39.1881 36.0143 37.4434 36.5975C34.2401 37.6682 31.0347 38.7361 27.8272 39.801C25.8094 40.4663 23.8135 39.3377 23.4002 37.3089C23.3543 37.0265 23.3341 36.7404 23.34 36.4542C23.3306 35.9846 23.34 35.5212 23.34 35.0031H22.8931C21.3965 35.0031 19.8992 35.0078 18.4027 35.0031C15.5459 34.9929 13.3653 32.8209 13.3426 29.9625C13.334 28.8425 13.3293 27.7224 13.3496 26.6032C13.3612 26.2092 13.5134 25.8324 13.7786 25.5408C14.0438 25.2492 14.4045 25.062 14.7956 25.0132C15.1867 24.9643 15.5824 25.0569 15.9112 25.2743C16.24 25.4917 16.4802 25.8195 16.5884 26.1985C16.6401 26.4132 16.6632 26.6337 16.6573 26.8544C16.6643 27.8437 16.6573 28.8331 16.6612 29.8224C16.6667 30.9918 17.3351 31.6602 18.5052 31.6633C19.9757 31.6665 21.4466 31.6665 22.9181 31.6633C23.0441 31.6633 23.1709 31.6524 23.34 31.6438V31.1186C23.34 23.1898 23.3635 15.2611 23.3228 7.33233C23.3126 5.41863 23.9591 4.05673 25.8227 3.35935C25.703 3.35308 25.5824 3.34134 25.4627 3.34134C23.1584 3.34134 20.8544 3.34134 18.5506 3.34134C17.3077 3.34134 16.6636 3.99646 16.6604 5.25348C16.6604 5.7231 16.669 6.19272 16.6604 6.66234C16.6377 7.61645 15.927 8.33418 15.0113 8.34123C14.7923 8.3443 14.5749 8.30336 14.3721 8.22085C14.1692 8.13834 13.985 8.01594 13.8303 7.8609C13.6756 7.70586 13.5536 7.52133 13.4716 7.31827C13.3896 7.11521 13.3492 6.89775 13.3527 6.67877C13.3582 5.73171 13.2846 4.7502 13.5014 3.8454C14.0024 1.75559 15.4026 0.504841 17.5175 0.0735737C17.5905 0.0530612 17.6624 0.0284986 17.7327 0L37.0278 0C37.2141 0.0508755 37.4012 0.0994028 37.5875 0.15654C38.2691 0.349278 38.8707 0.756054 39.3035 1.31683C39.7363 1.8776 39.9774 2.56266 39.9911 3.2709C40.0076 4.16553 39.9958 5.06406 39.9958 5.9626Z" fill="white"/>
<path d="M17.7031 17.9851C15.5507 20.1406 13.3964 22.2938 11.2403 24.4447C10.2737 25.4051 8.75841 25.0497 8.40541 23.7896C8.35369 23.5614 8.33211 23.3275 8.34123 23.0937C8.33575 21.6747 8.34123 20.2565 8.34123 18.8374V18.3678C8.16747 18.3584 8.01876 18.3435 7.87161 18.3435C5.95869 18.3435 4.04499 18.3146 2.13286 18.3537C1.09578 18.3741 0.36239 18.0328 0 17.0333V16.3289C0.337343 15.3411 1.03708 14.9693 2.06633 14.9905C3.99177 15.0296 5.91877 15.0014 7.845 15.0014H8.33888V14.5748C8.33888 13.1167 8.34984 11.6593 8.33418 10.2011C8.32557 9.40668 8.61282 8.804 9.35169 8.47135C10.0303 8.16688 10.6995 8.34455 11.3288 8.97384C13.4562 11.0986 15.582 13.2249 17.7062 15.3528C18.55 16.2021 18.55 17.135 17.7031 17.9851Z" fill="white"/>
</svg>
