<svg width="41" height="38" viewBox="0 0 41 38" fill="none" xmlns="http://www.w3.org/2000/svg">
<path d="M36.2208 25.2375C36.0689 25.762 35.8844 26.2764 35.6683 26.7779C34.3701 29.9032 32.1595 32.5643 29.3253 34.4136C26.491 36.2629 23.1649 37.2143 19.7814 37.1437C11.5037 36.9501 4.73347 31.1717 3.25209 23.0285C3.18726 22.6714 3.14372 22.3096 3.07889 21.8625C2.82829 22.0928 2.64058 22.2796 2.44125 22.4547C1.80942 23.0111 0.950197 22.9878 0.409315 22.4063C-0.131568 21.8248 -0.104475 20.9665 0.506074 20.3744C1.47366 19.4319 2.44867 18.4966 3.4311 17.5684C4.05229 16.9801 4.88248 16.9985 5.49497 17.6245C6.38418 18.534 7.25888 19.4542 8.12874 20.3811C8.70059 20.9898 8.73833 21.7619 8.25646 22.3463C7.77461 22.9307 7.01698 23.013 6.30387 22.5689C6.26323 22.5437 6.22162 22.5224 6.18002 22.4992L6.02133 22.5515C6.30097 23.4668 6.52061 24.4044 6.86604 25.2926C7.97348 28.1405 9.97495 30.5521 12.5699 32.1655C15.1648 33.7788 18.2131 34.5067 21.257 34.2399C26.9348 33.7561 31.6489 30.0232 33.4351 24.5776C33.6383 23.9603 33.976 23.5132 34.6388 23.4107C35.7002 23.2491 36.511 24.1799 36.2208 25.2375Z" fill="white"/>
<path d="M39.5745 16.7463C38.5888 17.7139 37.589 18.6708 36.575 19.6171C35.9634 20.188 35.1507 20.1416 34.5508 19.5204C33.6896 18.6386 32.8343 17.7461 31.9847 16.843C31.4371 16.2625 31.3742 15.5436 31.8038 14.9572C32.2334 14.3709 32.9813 14.2131 33.6974 14.5779C33.7651 14.6118 33.8338 14.6437 33.9992 14.7231C33.8541 14.1144 33.7515 13.5803 33.5996 13.0617C32.6825 9.91431 30.7017 7.18262 27.9953 5.33267C25.2888 3.48272 22.0243 2.62912 18.7587 2.9175C16.0083 3.14509 13.387 4.1825 11.2258 5.89876C9.06453 7.61501 7.46025 9.93316 6.61549 12.5605C6.41133 13.1914 6.09203 13.6616 5.4002 13.7758C4.41036 13.9403 3.54533 13.0772 3.79594 12.1019C3.9943 11.3576 4.25552 10.6316 4.57678 9.93155C5.93168 6.91195 8.14818 4.35975 10.9482 2.59516C13.7482 0.830577 17.0069 -0.0677848 20.3156 0.012795C28.5662 0.221794 35.3161 6.00604 36.7907 14.1338C36.8556 14.4908 36.8981 14.8527 36.963 15.2949C37.2116 15.0636 37.4013 14.8769 37.6025 14.7008C38.2305 14.1493 39.0994 14.1735 39.6345 14.7531C40.1696 15.3326 40.1589 16.1754 39.5745 16.7463Z" fill="white"/>
<path d="M27.4447 23.5609C27.1651 25.3161 25.7195 26.7907 23.9856 27.0732C23.6522 27.127 23.3151 27.1548 22.9774 27.1564C21.1138 27.1651 19.2493 27.1642 17.3837 27.1632C15.1215 27.1632 13.1051 25.6276 12.6542 23.5686C12.2875 21.8947 13.0199 20.2372 14.6639 19.0664C17.6634 22.2459 22.4259 22.2004 25.3538 19.0887C26.8245 19.8831 27.7234 21.8066 27.4447 23.5609Z" fill="white"/>
<path d="M24.2992 14.3145C24.2917 15.1592 24.0343 15.9828 23.5593 16.6814C23.0844 17.3799 22.4132 17.9222 21.6304 18.2398C20.8476 18.5573 19.9883 18.636 19.1609 18.4658C18.3335 18.2956 17.575 17.8842 16.9811 17.2834C16.3873 16.6827 15.9846 15.9195 15.8239 15.0902C15.6633 14.2609 15.7518 13.4025 16.0783 12.6235C16.4049 11.8444 16.9548 11.1795 17.6588 10.7126C18.3628 10.2457 19.1893 9.99775 20.034 10C20.5981 10.0008 21.1564 10.1132 21.6768 10.3309C22.1972 10.5486 22.6692 10.8672 23.0658 11.2684C23.4623 11.6695 23.7755 12.1452 23.9872 12.668C24.1989 13.1909 24.3049 13.7505 24.2992 14.3145Z" fill="white"/>
</svg>
