<svg width="40" height="40" viewBox="0 0 40 40" fill="none" xmlns="http://www.w3.org/2000/svg">
<path d="M2.07267 36.038L1.008 37.1027L2.89733 38.992L3.96267 37.9267C4.38467 38.1753 4.844 38.3667 5.33067 38.492V40H8.00267V38.4907C8.48215 38.3666 8.94194 38.1761 9.36867 37.9247L10.436 38.992L12.3253 37.1027L11.2573 36.0347C11.5087 35.6083 11.6988 35.1487 11.822 34.6693H13.3333V31.9973H11.822C11.6985 31.5181 11.5085 31.0585 11.2573 30.632L12.3253 29.564L10.436 27.6747L9.368 28.7427C8.94145 28.4914 8.4819 28.3009 8.00267 28.1767V26.6667H5.33067V28.1747C4.85048 28.2982 4.38999 28.4885 3.96267 28.74L2.89733 27.6747L1.008 29.564L2.07267 30.6287C1.82064 31.0561 1.62989 31.5168 1.506 31.9973H0V34.6693H1.506C1.632 35.156 1.82333 35.6153 2.07267 36.038ZM6.66667 30.6667C7.37391 30.6667 8.05219 30.9476 8.55229 31.4477C9.05238 31.9478 9.33333 32.6261 9.33333 33.3333C9.33333 34.0406 9.05238 34.7189 8.55229 35.219C8.05219 35.719 7.37391 36 6.66667 36C5.95942 36 5.28115 35.719 4.78105 35.219C4.28095 34.7189 4 34.0406 4 33.3333C4 32.6261 4.28095 31.9478 4.78105 31.4477C5.28115 30.9476 5.95942 30.6667 6.66667 30.6667ZM37.236 2.63333L36 0L34.764 2.63333L32 3.056L34 5.10533L33.528 8L36 6.63333L38.472 8L38 5.10533L40 3.056L37.236 2.63333ZM38.6667 16.6667L32.6667 20L35.3333 20.6667C33.7593 22.864 29.3393 28.4133 21.3333 31.3333C19.3915 32.0415 17.3804 32.5428 15.3333 32.8287L13.3333 38.6667C27.8473 37.8693 36.25 24.656 38 22L40 22.6667L38.6667 16.6667Z" fill="white"/>
<path d="M13.7921 22.459L13.7967 22.4603C14.0524 22.5209 14.3204 22.5022 14.5651 22.4066C14.8099 22.3111 15.0197 22.1434 15.1667 21.9256L18.8867 16.4176L19.2794 21.0676L17.7294 31.6983C18.8561 31.4383 19.9674 31.1176 21.0507 30.725L22.6574 21.4516L25.9154 23.0503C26.0647 23.1236 26.1807 23.2496 26.2421 23.4043L27.6347 27.313C28.4521 26.7441 29.24 26.134 29.9954 25.485L28.7227 21.2163C28.6952 21.131 28.6508 21.0521 28.5922 20.9843C28.5335 20.9165 28.4618 20.8612 28.3814 20.8216L25.3334 19.2336L24.8094 15.2476L30.7187 10.7456C30.9903 10.5389 31.1721 10.2358 31.2267 9.89884C31.2813 9.56192 31.2045 9.21689 31.0121 8.93497L30.9981 8.91431C30.8953 8.76343 30.7627 8.63525 30.6084 8.53772C30.4541 8.4402 30.2814 8.3754 30.101 8.34733C29.9206 8.31927 29.7364 8.32855 29.5598 8.37458C29.3831 8.42062 29.2178 8.50244 29.0741 8.61497L23.9207 12.6463L21.2634 12.871C21.9682 12.8116 22.6205 12.4746 23.0768 11.9343C23.5331 11.3939 23.7561 10.6944 23.6967 9.98964C23.6373 9.28487 23.3004 8.63257 22.76 8.17623C22.2197 7.71989 21.5202 7.4969 20.8154 7.55631C20.1106 7.61563 19.4583 7.95249 19.0019 8.49278C18.5455 9.03307 18.3224 9.73254 18.3817 10.4373C18.4411 11.1421 18.7779 11.7944 19.3182 12.2508C19.8585 12.7072 20.5586 12.9303 21.2634 12.871L19.1861 13.0463C18.7965 13.0792 18.4189 13.1974 18.0801 13.3924C17.7413 13.5875 17.4495 13.8546 17.2254 14.175L13.0141 20.4816C12.8984 20.6553 12.8264 20.8544 12.8042 21.0619C12.782 21.2694 12.8104 21.4792 12.8868 21.6734C12.9632 21.8676 13.0854 22.0405 13.243 22.1773C13.4007 22.3141 13.589 22.4107 13.7921 22.459Z" fill="white"/>
</svg>
