<svg width="193" height="119" viewBox="0 0 193 119" fill="none" xmlns="http://www.w3.org/2000/svg">
<g opacity="0.6" clip-path="url(#clip0_2202_33011)">
<path d="M16.0011 110.22C16.1088 108.891 16.6455 107.634 17.5292 106.641C17.8116 106.39 18.0415 106.085 18.2055 105.744C18.3694 105.402 18.4642 105.031 18.4843 104.653C18.4448 103.931 18.155 103.202 18.3131 102.486C18.5691 101.789 18.9005 101.122 19.3011 100.498C19.5914 99.7928 20.1312 99.2214 20.8161 98.8939C22.1335 98.3571 23.6287 99.1192 24.979 99.1789C25.8527 99.2958 26.737 99.3091 27.6138 99.2186C28.3251 99.0662 28.885 98.7481 29.6425 99.1325C29.794 98.2511 30.9599 97.701 31.8096 97.6745C32.7174 97.7044 33.615 97.4746 34.3983 97.0118C35.2019 96.5545 36.0318 96.1502 36.8947 95.7394C37.7182 95.394 38.4968 94.9489 39.2133 94.4139C39.9642 93.8241 40.6953 93.1481 41.4857 92.5981C44.0689 90.8743 46.7548 89.3117 49.5283 87.9193C50.2891 87.532 50.983 87.024 51.5835 86.4149C52.2817 85.7986 53.441 85.8052 54.3302 85.8914C54.2907 85.1226 54.0601 83.9033 54.2775 83.1809C54.5051 82.3488 54.581 81.4821 54.5014 80.6228C54.429 78.9594 54.8901 77.0375 54.8901 75.3211C54.6409 74.9277 54.4522 74.4987 54.3302 74.0487C54.2511 73.4456 54.8506 73.048 54.8769 72.531C54.9164 71.802 53.441 71.0664 52.9535 70.5031C51.8566 69.1097 51.0318 67.5199 50.523 65.8177C50.2266 64.9363 50.2397 63.9621 49.9301 63.1006C49.6206 62.2391 49.9762 60.2509 50.108 59.2635C50.1747 58.6835 50.2759 58.1081 50.411 57.5404C50.6532 56.6915 50.6961 55.7977 50.5361 54.9293C50.4782 54.5129 50.3835 54.1026 50.2529 53.7033C50.0553 53.3719 49.4164 53.2924 49.0738 53.1665C48.3229 52.8881 48.0463 52.1525 47.4996 51.5826C46.9529 51.0126 46.9858 50.0186 46.6038 49.2631C46.0439 48.163 44.8187 46.6586 44.2654 45.4988C43.7938 44.2572 43.3935 42.9893 43.0666 41.7015C42.9283 41.2773 42.5989 40.9327 42.4079 40.5351C42.184 40.0182 42.3091 39.6868 41.9007 39.2097C41.2893 38.6193 40.7816 37.9292 40.3989 37.1685C40.2277 36.7709 40.3265 36.3997 40.1881 36.0618C39.9846 35.7307 39.7338 35.4315 39.4438 35.1737C38.8964 34.5023 38.3926 33.7962 37.9354 33.0597C36.921 31.4294 35.7222 29.64 35.3007 27.7579C35.0622 26.9066 34.7628 26.0739 34.4048 25.2661C34.1579 24.4022 34.1397 23.4884 34.3521 22.6152C34.754 20.6271 35.6695 19.5402 37.1713 18.2214C37.9351 17.7323 38.7963 17.4178 39.6941 17.3003C40.1561 17.2509 40.622 17.2509 41.084 17.3003C41.578 17.3003 42.7702 17.34 43.2971 17.4195C43.0139 16.2333 42.072 14.159 42.263 12.0184C42.454 9.87784 42.566 8.59217 43.7516 7.31312C44.9826 6.07451 46.5125 5.17926 48.1912 4.71528C49.9321 4.07077 51.8196 3.93972 53.632 4.33753C54.9785 4.58608 56.18 5.3422 56.9913 6.45159C57.4905 7.13629 57.8509 7.91319 58.0518 8.73796C58.1177 9.0163 58.2428 9.18861 58.8093 9.21512C59.5283 9.19046 60.2444 9.31919 60.9105 9.59287C61.2118 9.73456 61.4698 9.95506 61.6575 10.2313C61.8452 10.5076 61.9558 10.8296 61.9776 11.1635C61.9852 11.507 61.8958 11.8457 61.7197 12.1402C61.5437 12.4346 61.2882 12.6728 60.9829 12.8269C60.1635 13.4107 59.2561 13.8582 58.2955 14.1524C58.4256 14.4728 58.5752 14.7849 58.7434 15.0868C58.7698 15.1354 58.7864 15.1889 58.792 15.244C58.7977 15.2991 58.7924 15.3548 58.7765 15.4079C58.7606 15.4609 58.7343 15.5102 58.6992 15.553C58.6641 15.5957 58.6209 15.631 58.5722 15.6567C58.3614 15.7959 58.1045 15.7893 58.0518 15.9549C57.9912 16.1104 57.9912 16.2832 58.0518 16.4387C58.1242 16.6309 58.2889 16.9623 58.1242 17.1545C58.2109 17.2136 58.2775 17.298 58.3152 17.3963C58.3529 17.4946 58.3598 17.6021 58.335 17.7045C58.8751 17.4726 59.7578 16.949 60.232 16.79C60.8512 16.5779 61.3716 16.3393 61.9512 16.1273C63.1673 15.6014 64.4173 15.1586 65.6926 14.8018C65.3369 13.7083 68.0046 14.3909 68.5118 14.4705C69.6289 14.5798 70.7539 14.5798 71.8711 14.4705C71.8711 13.0721 74.6903 14.0463 75.1645 14.5699C75.4741 13.9072 77.0352 12.6546 77.2723 14.0861C77.5632 13.8763 77.8951 13.7311 78.2461 13.6602C78.597 13.5894 78.9589 13.5945 79.3077 13.6752C79.6765 13.198 80.5526 12.6546 81.0861 13.0788C81.4023 13.3306 81.376 13.7415 81.4287 14.0596C81.6981 14.2517 81.9229 14.5004 82.0873 14.7886H82.1862C85.664 13.9668 92.0006 12.6414 96.2162 11.3955C100.432 10.1495 106.169 8.30057 109.621 7.37277C113.072 6.44497 122.261 4.28451 123.466 4.08569C123.903 3.97464 124.36 3.97148 124.798 4.07649C125.236 4.1815 125.642 4.39156 125.982 4.68877C126.437 5.09104 126.755 5.62637 126.891 6.21964C127.068 6.82374 127.028 7.47101 126.779 8.04874C126.594 8.43265 126.316 8.76394 125.971 9.0127C125.626 9.26146 125.224 9.41985 124.803 9.47358C123.624 9.77843 114.357 11.5346 110.819 12.0847C107.282 12.6347 101.308 13.145 96.9671 13.8343C92.6264 14.5235 86.0856 15.8224 82.7987 16.5315L82.1927 16.6641C82.1927 16.8098 82.14 16.9623 82.1005 17.1412C81.9293 17.9762 82.0149 18.7251 81.343 19.3083C81.0269 19.5866 80.5658 19.7457 80.5526 20.203C80.5526 20.4879 80.9215 21.0048 81.0005 21.3097C81.2245 22.158 81.4748 23.0526 81.6197 23.9208C81.6823 24.9028 81.6823 25.8879 81.6197 26.8699C81.634 27.7994 81.5367 28.7273 81.3299 29.6334C81.2508 30.0377 81.0664 30.4287 80.9676 30.8263C80.8688 31.2239 80.9676 31.6348 80.7239 31.9662C80.1969 32.7415 79.2221 32.5361 78.3592 32.7681C77.4963 33 76.8903 33.4904 75.9879 33.6495C75.0855 33.8085 74.2753 33.782 73.9328 34.6966C73.6166 34.7628 73.3136 35.1472 73.0172 35.3261C72.7208 35.5051 72.2202 35.6509 71.8316 35.8563C71.0918 36.1675 70.4612 36.6936 70.0202 37.3673C70.5537 38.9313 70.5669 41.0984 71.1268 42.669C71.8447 44.6572 71.5944 46.4399 71.7854 48.3353C71.7474 48.8155 71.7695 49.2987 71.8513 49.7734C71.9106 49.886 72.2531 50.0053 72.3585 50.1577C72.4441 50.4884 72.4752 50.8309 72.4507 51.1717C72.4968 52.0597 72.8064 53.5045 72.3387 53.7828C73.9545 55.2638 75.4056 56.917 76.6663 58.7134C77.5951 59.9195 78.6622 61.1853 79.5712 62.4312C80.6838 63.9843 81.679 65.6192 82.5484 67.3221C83.4047 69.0054 84.0898 70.6887 84.9856 72.3786C85.2995 72.968 85.6942 73.5101 86.158 73.989C86.6718 74.5324 86.6125 75.0825 87.1 75.5464C87.9365 76.3483 88.0287 77.6207 89.1353 78.1973C89.1946 78.5816 89.8599 78.9196 90.0838 79.2444C90.4559 79.7895 90.6827 80.4215 90.7425 81.0801C90.7425 81.4313 91.1114 81.8091 91.2761 82.147C91.4407 82.485 91.533 82.9224 91.7371 83.3002C92.0731 83.9231 92.9294 84.3141 93.2917 85.0763C93.4507 85.493 93.5805 85.9204 93.6803 86.3553C93.8478 86.8122 94.1004 87.2328 94.4246 87.5946C94.9612 88.3078 95.4603 89.0489 95.9198 89.8147C96.9737 91.4383 99.6282 94.8182 100.583 96.528C101.031 97.3299 101.446 98.1516 101.901 98.9734C102.355 99.7952 102.941 100.259 103.337 100.962C103.495 101.247 103.89 101.956 103.765 102.254C103.932 102.629 104.135 102.986 104.371 103.321C105.029 103.984 106.083 103.984 106.762 104.646C107.078 104.931 107.315 105.276 107.631 105.548C108.065 105.845 108.459 106.197 108.804 106.595C109.259 107.178 109.817 107.672 110.451 108.053C110.787 108.261 111.082 108.53 111.32 108.848C111.537 109.179 111.524 109.59 111.728 109.935C112.868 109.359 114.15 109.129 115.417 109.272C116.359 109.325 117.149 109.391 117.782 110.114C118.398 110.711 118.76 111.526 118.79 112.387C118.658 113.825 116.813 115.773 115.575 116.429C113.562 117.372 111.337 117.758 109.127 117.549C106.94 117.443 104.977 118 102.829 118C100.853 118 99.9312 117.397 99.042 115.429C98.6929 114.633 98.2713 113.957 98.6007 113.083C98.8839 112.327 98.9498 111.558 99.569 111.055C97.9749 110.77 97.7839 109.232 96.6707 108.232C96.3658 107.941 96.0921 107.619 95.854 107.271C95.5048 106.82 94.9318 106.608 94.5366 106.177C93.7573 105.514 93.0567 104.762 92.4485 103.937C91.4473 102.154 89.6754 100.942 88.2 99.4373C86.5467 97.7607 83.1478 94.3013 81.7778 92.333C80.5263 90.5437 78.8202 89.1122 77.4699 87.4355C76.3699 86.0637 75.3753 84.5461 74.3214 83.0947C73.7781 82.4982 73.178 81.9566 72.5298 81.4777C71.9435 80.9277 71.2717 79.6817 70.5537 79.7613C70.1437 80.0119 69.8162 80.3783 69.6118 80.815C69.4292 81.2871 69.2817 81.7722 69.1705 82.2663C68.874 83.1345 68.5908 84.0756 68.2219 84.9172C67.4974 86.5872 66.8321 88.1844 65.9824 89.8081C65.1522 91.3923 64.1822 92.8983 63.0842 94.3079C61.7668 96.0044 59.9488 96.19 58.0847 96.7666C57.156 97.1239 56.2516 97.5423 55.3775 98.0191C54.4158 98.4698 53.4014 98.8276 52.4529 99.212C50.4373 100.001 48.6786 101.074 46.6433 101.757C45.6553 102.088 42.0325 104.408 41.0708 104.838C40.2869 105.223 39.5755 105.66 38.7917 106.031C38.0079 106.402 37.4216 106.833 36.7037 107.158C35.9857 107.483 35.0504 107.761 34.2599 108.086C33.8581 108.258 33.8318 108.523 33.5485 108.748C33.2167 108.925 32.8432 109.008 32.4683 108.987C31.5756 109.099 30.6942 109.287 29.8335 109.55C29.0168 109.776 28.2724 110.061 27.4491 110.213C26.7509 110.339 26.1317 110.578 25.5718 110.153C25.0409 110.745 24.5501 111.371 24.1029 112.029C23.655 112.559 23.8065 113.156 23.5233 113.798C23.3718 114.136 23.1413 114.395 23.1874 114.693C23.2335 114.991 23.4377 115.256 23.4706 115.568C23.516 115.856 23.4977 116.152 23.4168 116.432C23.336 116.713 23.1947 116.972 23.0029 117.191C22.4557 117.604 21.7896 117.825 21.1059 117.821C20.2382 117.892 19.3653 117.779 18.5436 117.49C17.3514 117.052 16.752 115.502 16.4292 114.401C16.2933 113.747 16.2205 113.082 16.2118 112.413C16.061 111.692 15.9903 110.957 16.0011 110.22ZM65.2051 23.8545C65.574 24.1064 65.9495 24.3847 66.292 24.6564C66.6345 24.9281 66.6477 25.3655 66.9507 25.7499C67.3239 25.5816 67.7151 25.4571 68.1166 25.3788C69.2261 25.2112 70.3473 25.1336 71.4693 25.1468C72.5364 25.1468 73.3268 25.5577 74.3478 25.6439C76.1196 25.7963 75.5795 22.2441 75.2831 21.197C75.107 20.8615 74.8277 20.5924 74.4869 20.4299C74.1462 20.2674 73.7622 20.2204 73.3927 20.2957C72.7281 20.6213 72.0971 21.012 71.5088 21.4621C71.3004 21.5974 71.0666 21.6884 70.8219 21.7294C70.5773 21.7705 70.3268 21.7607 70.086 21.7007C69.704 21.5947 69.48 21.2235 69.0848 21.1573C68.6896 21.091 68.2285 21.5284 67.8399 21.3561C67.4513 21.1838 67.4447 20.5343 67.4315 20.2162C66.5159 19.7192 65.1393 20.3819 64.3554 20.8259C63.3938 21.3693 62.3794 21.6411 61.365 22.1513C62.3925 22.655 64.2303 23.1984 65.2051 23.8545Z" fill="#042365"/>
<path fill-rule="evenodd" clip-rule="evenodd" d="M130.36 24.1445C209.113 27.7457 201.914 94.7943 119.318 113.413C187.292 90.2024 202.062 32.3572 130.36 24.1445Z" fill="#042365"/>
<path fill-rule="evenodd" clip-rule="evenodd" d="M134.075 21.9492C212.8 25.5521 213.225 93.3258 130.661 111.949C203.844 88.9322 211.587 30.3937 134.075 21.9492Z" fill="#C3001D"/>
<path fill-rule="evenodd" clip-rule="evenodd" d="M152.61 117.621C96.2126 120.791 48.3985 120.791 -8 117.621C48.3985 114.449 96.2126 114.449 152.61 117.621Z" fill="#042365"/>
</g>
<defs>
<clipPath id="clip0_2202_33011">
<rect width="200.856" height="120" fill="white" transform="translate(-8)"/>
</clipPath>
</defs>
</svg>
