<svg width="193" height="119" viewBox="0 0 193 119" fill="none" xmlns="http://www.w3.org/2000/svg">
<g opacity="0.6" clip-path="url(#clip0_2202_28886)">
<path fill-rule="evenodd" clip-rule="evenodd" d="M85.0653 14.957L84.7731 13.6794C84.3003 13.5829 83.8683 13.3439 83.5354 12.9945C83.2025 12.6451 82.9846 12.202 82.9111 11.725C82.6008 10.028 83.223 9.02438 83.4591 8.78671C83.6953 8.54904 84.0798 8.63533 84.0798 8.63533C84.0798 8.63533 83.441 6.21321 83.8421 4.74783C84.2433 3.28245 85.577 0.736205 88.4971 0.165495C91.4173 -0.405216 93.573 0.619641 94.6856 1.42499C95.7983 2.23035 96.6536 4.01666 96.8216 5.7515C96.9897 7.48634 96.6945 8.19783 96.9306 9.0925C97.1668 9.98717 97.1138 11.3193 97.1138 12.1777C97.1138 13.036 96.7899 15.3037 96.7899 15.3037C96.7899 15.3037 99.327 15.066 99.5829 15.4551C99.8387 15.8441 101.371 18.2299 102.047 18.6144C102.524 18.8939 102.966 19.2305 103.361 19.6166C103.525 19.7816 106.866 22.8123 107.559 23.1953C108.253 23.5783 110.791 25.7506 111.374 27.6308C111.957 29.5109 112.137 33.3182 112.137 33.3182C112.137 33.3182 114.072 39.7625 114.638 45.3849C115.204 51.0072 115.806 53.7109 115.952 55.5895C116.097 57.4682 115.952 64.6074 114.984 68.9884C114.225 72.4579 113.779 75.9888 113.652 79.5382C113.598 81.6197 113.415 88.1367 113.269 88.9027C113.111 89.9497 113.007 91.0042 112.959 92.062C112.959 92.6449 112.85 93.1929 112.656 93.2292C112.462 93.2655 112.145 93.0112 111.943 92.5359C111.742 92.0605 111.852 90.3454 111.852 90.3454C111.852 90.3454 111.288 91.131 111.159 91.9334C111.03 92.7357 110.776 92.993 110.593 92.993C110.41 92.993 110.045 92.4814 110.027 92.0847C110.009 91.6881 110.319 89.9306 110.466 89.4552C110.594 89.0844 110.668 88.6968 110.685 88.3047C110.686 88.1889 110.679 88.0731 110.666 87.9581C110.666 87.9581 109.863 89.2357 109.771 89.6021C109.679 89.9684 109.607 90.7692 109.333 90.8797C109.059 90.9902 108.767 90.2954 108.785 90.0396C108.804 89.7837 106.724 90.3862 106.212 90.7511C105.7 91.1159 103.802 92.3406 102.798 92.7781C101.795 93.2156 98.8835 94.855 98.2083 95.3849C97.8064 95.7006 97.4557 96.0764 97.1683 96.499C97.3449 96.8938 97.4083 97.3298 97.3515 97.7585C97.2767 98.2598 97.1421 98.7503 96.9503 99.2194C98.3767 100.077 99.7318 101.047 101.003 102.121C102.971 103.787 103.776 104.713 103.758 105.918C103.74 107.123 103.028 108.838 100.546 108.838C98.063 108.838 94.5585 107.597 93.3172 106.611C92.0758 105.626 90.9253 103.584 89.5568 103.454C88.1883 103.323 83.5878 103.105 82.1815 101.209C80.7751 99.3117 81.744 96.9698 82.4373 96.4627C82.8354 96.15 83.3188 95.9653 83.824 95.9329C83.824 95.9329 84.6641 95.3667 84.9926 95.3273C85.3211 95.288 85.6133 95.235 85.6133 95.235C85.6133 95.235 86.5806 94.3419 87.2558 94.2495C87.6001 94.1909 87.9513 94.1853 88.2973 94.2329C88.2973 94.2329 88.6258 93.8483 89.027 93.8483C89.3253 93.8518 89.6212 93.9029 89.9035 93.9997C89.9035 93.9997 94.4132 90.1834 94.7946 89.5642C95.1761 88.9451 96.0557 86.2959 96.9503 85.2922C97.845 84.2886 99.3043 83.0215 99.3043 82.7187C99.3043 82.416 98.0085 80.8386 97.6058 80.2724C97.2031 79.7062 96.3478 78.3044 95.8906 78.1909C95.4335 78.0773 93.6638 77.9729 92.863 78.2817C92.0622 78.5905 90.9268 79.0386 89.905 79.0856C89.3636 79.1102 88.8213 79.1041 88.2807 79.0674L82.9672 68.9732C82.9672 68.9732 82.1285 68.8809 81.9635 69.0459C81.7985 69.2109 81.7637 70.0496 81.5623 70.2327C81.361 70.4159 80.8145 70.3054 80.654 70.1586C80.4936 70.0117 80.2892 69.9224 80.2529 70.2327C80.2165 70.5431 80.4724 71.0532 80.6359 71.2727C80.7994 71.4922 81.5124 72.7517 81.2747 73.2074C81.037 73.663 77.752 75.1981 77.6249 75.4539C77.4977 75.7097 77.4735 76.3834 77.2585 76.7119C77.1287 76.9174 76.9619 77.097 76.7665 77.2417C76.7665 77.2417 74.2596 81.4395 73.1455 82.366C72.0313 83.2925 71.1381 84.284 70.7915 84.7881C70.4448 85.2922 68.6373 86.741 67.9152 87.18C67.1931 87.619 65.7565 88.3759 64.9496 89.9351C64.5356 90.7882 64.0532 91.6063 63.507 92.3814C63.5837 92.5532 63.6074 92.7439 63.575 92.9292C63.5426 93.1145 63.4557 93.2859 63.3253 93.4214C62.8712 93.9316 53.9971 100.942 52.8103 102.639C51.6235 104.336 51.734 104.939 51.2586 105.633C50.7833 106.328 50.3503 106.875 50.2368 107.258C50.1403 107.576 50.061 107.899 49.9991 108.225C49.9452 108.608 49.8435 108.982 49.6964 109.339C49.545 109.686 49.7327 110.599 49.5132 111.61C49.2937 112.621 49.2407 113.089 49.4966 113.578C49.7524 114.067 50.9014 114.619 50.8832 115.276C50.865 115.933 48.0357 118.088 47.1229 118.325C46.21 118.563 43.1067 118.616 42.0667 118.269C41.0267 117.923 39.1905 114.692 39.0724 114.162C38.9543 113.632 39.145 107.956 39.419 107.336C39.693 106.717 40.4045 106.295 40.7694 106.186C41.1342 106.077 42.3771 105.912 42.3771 105.912C42.3771 105.912 42.8509 105.108 43.1794 105.004C43.3943 104.946 43.6155 104.916 43.8379 104.913C43.8379 104.913 47.2682 100.674 47.7617 99.9839C48.2552 99.2936 51.7052 91.7517 53.5142 89.2494C55.3233 86.747 57.4032 84.5398 59.5574 83.0805C61.7116 81.6212 63.2981 79.411 64.0656 77.9502C64.8331 76.4893 64.9057 76.1427 64.9057 76.1427C64.9057 76.1427 62.9514 75.03 62.9514 73.442C62.9514 71.854 65.3024 67.5306 65.6051 66.0319C65.9079 64.5332 66.1713 63.1844 66.5543 62.5274C66.7395 62.1823 66.9869 61.8743 67.284 61.6191C67.3771 60.9648 67.5178 60.3183 67.7048 59.6844C67.9425 58.9184 68.4526 56.9823 68.4526 56.9823C68.4526 56.9823 68.4345 55.4124 68.7811 54.9568C68.9513 54.7513 69.1032 54.5315 69.2353 54.2998C69.2353 54.2998 68.6146 53.4051 68.9325 52.7859C69.2504 52.1668 70.1738 51.4901 70.2828 50.9784C70.3918 50.4668 69.8635 48.5139 70.1193 47.7479C70.3752 46.9819 72.437 44.6991 72.437 44.6991C72.437 44.6991 72.5097 43.7499 72.711 43.3488C72.9123 42.9476 73.6193 42.3981 73.6193 42.3981C73.6193 42.3981 73.6571 36.6849 73.4013 36.2474C73.1455 35.8099 72.5793 35.2619 72.599 34.9698C72.6187 34.6776 72.708 32.8883 72.926 32.4508C73.144 32.0133 73.3105 31.7196 73.2923 31.4834C73.2742 31.2473 72.708 31.2276 72.3613 31.4638C72.0147 31.6999 62.85 37.2693 59.3091 38.8028C55.7683 40.3363 53.0661 41.2249 51.7521 41.5049C51.1026 41.6303 50.4449 41.7092 49.7842 41.7411C50.9942 42.7576 51.9476 44.0449 52.5673 45.4987C53.1869 46.9524 53.4554 48.5317 53.3508 50.1085C53.2463 51.6854 52.7717 53.2154 51.9656 54.5746C51.1594 55.9339 50.0444 57.084 48.7108 57.9319C47.3772 58.7798 45.8627 59.3016 44.2898 59.455C42.717 59.6083 41.1301 59.389 39.6579 58.8147C38.1856 58.2404 36.8694 57.3273 35.8158 56.1494C34.7623 54.9715 34.001 53.562 33.5939 52.0351L33.4652 52.1274C33.4652 52.1274 32.8597 52.4181 32.5902 51.5976C32.3207 50.7771 31.7636 47.1939 32.1103 44.7294C32.457 42.2649 33.1321 41.0599 34.9215 39.764C38.535 37.136 40.3243 38.0474 44.121 37.1542C44.4676 37.0816 45.2715 36.2459 45.5091 36.1869C46.5128 35.9492 49.2135 34.5217 51.4055 34.2189C53.5975 33.9161 55.0735 32.3024 55.0735 32.3024C55.0735 32.3024 64.3835 28.0637 65.3145 27.6096C66.2455 27.1554 67.1946 26.2229 67.4338 25.6416C67.673 25.0603 70.5917 21.9721 72.325 21.3333C74.0583 20.6944 75.4662 20.0919 76.9982 20.0193C78.5301 19.9466 79.5913 19.7271 80.0107 19.4894C80.43 19.2518 81.7076 15.9244 82.2178 15.4551C82.728 14.9858 83.1851 14.9631 83.6605 14.9631C84.1358 14.9631 84.8307 15.0009 84.8307 15.0009L85.0653 14.957ZM109.636 75.2874C109.636 75.2874 108.87 74.0097 108.76 73.4617C108.649 72.9137 108.486 71.9645 108.249 71.471C108.013 70.9775 104.105 64.2244 104.105 64.2244C104.105 64.2244 103.794 63.257 103.538 62.8619C103.283 62.4668 103.01 62.2231 103.01 61.8583C103.01 61.4934 102.974 60.9636 102.627 60.5246C102.438 60.2724 102.231 60.0345 102.006 59.8131C102.3 59.3257 102.407 58.749 102.309 58.1888C102.128 57.2578 101.799 56.8566 101.799 56.8566C101.799 56.8566 102.128 55.1399 101.726 54.3376C101.485 53.854 101.217 53.3845 100.923 52.9313C100.923 52.9313 101.872 51.0874 102.146 50.1201C102.42 49.1528 102.327 47.8388 102.309 47.2908C102.28 46.9295 102.168 46.5799 101.982 46.2689C101.982 46.2689 103.149 45.1366 103.168 44.8989C103.186 44.6613 102.986 43.9906 103.095 43.3306C103.204 42.6706 103.77 42.0151 103.953 41.6321C104.136 41.2491 104.135 40.7374 104.209 40.4634C104.299 40.2302 104.429 40.0141 104.592 39.8246C104.592 39.8246 106.144 47.5451 106.837 49.4813C107.26 50.656 107.819 51.7772 108.502 52.8223C108.502 52.8223 108.351 58.8458 108.847 61.1483C109.344 63.4508 109.962 68.5039 109.816 71.0048C109.671 73.5056 109.633 75.295 109.633 75.295L109.636 75.2874Z" fill="#042365"/>
<path fill-rule="evenodd" clip-rule="evenodd" d="M130.359 24.1445C209.112 27.7457 201.914 94.7943 119.318 113.413C187.292 90.2024 202.061 32.3572 130.359 24.1445Z" fill="#042365"/>
<path fill-rule="evenodd" clip-rule="evenodd" d="M134.075 21.9492C212.799 25.5521 213.224 93.3258 130.661 111.949C203.843 88.9322 211.587 30.3937 134.075 21.9492Z" fill="#C3001D"/>
<path fill-rule="evenodd" clip-rule="evenodd" d="M152.61 117.621C96.2126 120.791 48.3985 120.791 -8 117.621C48.3985 114.449 96.2126 114.449 152.61 117.621Z" fill="#042365"/>
</g>
<defs>
<clipPath id="clip0_2202_28886">
<rect width="200.856" height="120" fill="white" transform="translate(-8)"/>
</clipPath>
</defs>
</svg>
