<svg width="145" height="273" viewBox="0 0 145 273" fill="none" xmlns="http://www.w3.org/2000/svg">
<path d="M133.106 61.0385C132.372 58.6818 132.414 56.1947 131.863 53.7989C125.589 26.5347 109.034 8.70013 81.8613 1.95995C47.0017 -6.68966 12.3412 14.0857 2.47738 48.5928C1.42583 52.3446 0.706062 56.1815 0.326401 60.0593C0.290497 60.3857 0.499393 60.8459 0 61.0385V62.3441C0.672385 62.7651 0.385153 63.4408 0.326401 63.9761C0.127296 65.9345 0.731137 67.9255 0 69.8513V72.1361C0.855169 74.3034 0.763777 76.6404 1.224 78.8828C5.14081 97.9968 15.3789 112.715 31.9383 123.038C41.4039 128.956 51.8194 132.037 62.9692 132.674C63.2956 132.693 63.7558 132.481 63.9484 133H68.8444C70.2316 132.285 71.782 132.582 73.2247 132.439C103.492 129.449 128.027 106.078 132.404 76.0137C132.594 74.7081 132.457 73.3568 133.113 72.1426V69.5314C132.588 67.6137 132.588 65.5902 133.113 63.6725L133.106 61.0385ZM97.1531 9.5455C106.819 14.7226 115.007 22.277 120.944 31.4959C121.014 31.6874 121.058 31.8871 121.075 32.09C119.688 31.8582 118.372 31.6004 117.047 31.4176C108.159 30.1838 99.7839 32.0704 91.6696 35.5564C90.9776 35.8534 90.2596 36.0982 89.5545 36.3658C80.1183 40.8669 71.5829 47.062 61.8594 51.0114C58.6542 52.317 55.3314 53.0808 51.852 52.317C48.0168 51.4651 47.9352 51.253 50.0209 48.1195C56.9899 37.6708 65.7791 28.5588 75.9697 21.2176C82.1114 16.5617 88.7626 12.6196 95.7953 9.46717C96.0083 9.35902 96.2463 9.30929 96.4848 9.32305C96.7233 9.33682 96.9539 9.41357 97.1531 9.5455ZM40.7772 9.01347C41.43 7.35862 42.3342 6.47734 43.9857 5.88329C56.6588 1.32456 69.5233 0.648913 82.5793 3.85634C82.9057 3.93141 83.1962 4.05871 83.5063 4.16316C85.6719 4.69051 87.7951 5.37896 89.8581 6.22275C85.1285 8.52713 80.9147 11.2101 76.6617 13.8311C71.3087 17.7218 66.0602 21.7366 61.2687 26.3225C55.0866 32.2369 49.5607 38.6865 44.9486 45.9065C44.2208 47.0457 43.8323 47.1273 42.9576 46.0436C39.1877 41.3532 37.2292 36.0133 36.8833 30.063C36.4263 22.7256 38.0746 15.7895 40.7772 9.01347ZM11.7504 32.028C17.061 23.7146 24.1737 16.7023 32.5617 11.5104C32.9697 11.2558 33.4202 11.0665 33.851 10.8576L34.1513 10.7238L34.0827 11.0829C32.3332 16.8112 31.1451 22.6178 31.2888 28.6497C31.514 37.332 34.2851 44.9698 40.3529 51.3313C40.8164 51.8176 41.182 52.1734 40.7478 52.9633C39.563 55.1502 38.4924 57.3991 37.4153 59.6447C37.1085 60.2812 36.8669 60.5946 36.1097 60.1572C25.7856 54.2559 16.9043 46.9314 11.5154 36.0264C10.7712 34.5445 10.8626 33.4217 11.7504 32.028ZM29.8689 84.2129C27.9986 95.6141 27.8681 107.061 29.141 118.583C28.8734 118.583 28.6808 118.645 28.5829 118.583C19.1956 111.709 12.0213 103.056 7.41256 92.3435C5.54555 88.541 4.38356 84.5099 3.40762 80.4071C3.26401 79.7934 3.21505 79.3822 4.06042 79.3136C11.6329 78.7 19.1205 78.8599 26.3079 81.7127C27.3939 82.2017 28.4539 82.7465 29.4838 83.3447C29.8265 83.5013 30.1268 83.7298 29.8689 84.2129ZM31.5336 76.6763C31.3247 77.6229 31.0603 77.8742 30.055 77.3911C23.1744 74.0586 15.8206 73.3895 8.32321 73.5592C6.69379 73.5713 5.06653 73.6803 3.45005 73.8856C2.42842 74.0357 2.30112 73.6669 2.21626 72.8183C1.59994 66.5585 1.89238 60.2425 3.08449 54.0665C3.99289 49.3479 5.43733 44.7485 7.38971 40.3577C10.4922 45.9567 14.5267 50.9857 19.3197 55.2285C23.656 59.0915 28.4223 62.4428 33.5246 65.2164C34.5658 65.7876 34.7192 66.2641 34.321 67.3445C33.1837 70.3847 32.2524 73.4979 31.5336 76.6633V76.6763ZM77.6017 129.958C63.3903 132.295 49.837 130.239 36.942 123.789C35.7082 123.169 35.1338 122.428 34.9542 121.018C33.6486 110.596 33.381 100.171 34.6278 89.7258C34.6866 89.246 34.8106 88.776 35.026 87.6923C48.9601 105.351 65.2801 119.223 86.3623 127.693C83.5342 128.767 80.5963 129.527 77.6017 129.958ZM128.827 83.9877C123.25 102.342 111.891 115.849 94.7508 124.507C93.5007 125.14 92.7206 124.507 91.7675 124.122C85.1211 121.451 78.6886 118.275 72.5262 114.624C62.0814 108.373 53.1152 100.386 45.1967 91.1913C43.5353 89.2623 41.8511 87.3529 40.1734 85.4369C39.0147 84.301 37.8886 83.1292 36.6809 82.0521C36.0673 81.507 36.1358 80.9228 36.286 80.2863C37.1379 76.6567 38.1432 73.0728 39.3476 69.5412C39.6479 68.6599 39.9025 68.4706 40.8099 68.8884C54.2412 74.979 68.4201 78.354 82.9808 80.283C86.4178 80.74 89.8613 81.1513 93.3016 81.5886C96.879 81.8062 100.457 82.0238 104.037 82.2414C111.913 82.731 119.796 82.6494 127.678 82.5254C128.977 82.4862 129.202 82.7474 128.827 83.9877ZM130.596 75.4001C130.459 76.4087 130.162 76.7351 129.124 76.771C118.264 77.1325 107.391 76.86 96.5623 75.955C89.742 75.48 82.9519 74.6411 76.2211 73.4417C65.0157 71.4833 54.1237 68.5098 43.6691 63.9761C42.2199 63.3461 41.7532 62.7684 42.6475 61.2898C43.5418 59.8112 44.2795 58.1106 45.0433 56.5015C45.3175 55.9401 45.5623 55.6692 46.2673 56.0478C51.6921 58.9854 57.2278 58.4958 62.8125 56.5374C69.0533 54.3538 74.5989 50.8189 80.3174 47.6169C84.4268 45.3157 88.4611 42.8645 92.8642 41.1215C102.695 36.5062 112.758 34.9427 123.324 38.5364C124.848 39.0554 125.547 39.842 126.115 41.19C130.678 51.9775 132.227 63.8013 130.596 75.4001Z" fill="white"/>
<path d="M0 62.3438C0.672385 62.7615 0.385153 63.4372 0.326401 63.9758C0.127296 65.9342 0.731137 67.9219 0 69.851V62.3438Z" fill="white"/>
<path d="M133.106 69.5054C132.581 67.5877 132.581 65.5642 133.106 63.6465V69.5054Z" fill="#303030"/>
<path d="M93.3021 81.5781C96.8925 81.7935 100.46 82.0024 104.037 82.2309C111.913 82.7205 119.796 82.6357 127.679 82.5149C128.984 82.4953 129.203 82.7564 128.827 83.9968C123.25 102.351 111.892 115.857 94.7513 124.513C93.5012 125.149 92.7211 124.513 91.768 124.128C85.121 121.458 78.6884 118.282 72.5267 114.629C62.0818 108.382 53.1156 100.392 45.1971 91.1972C43.5358 89.2681 41.8515 87.3619 40.1738 85.4427C40.6631 85.4228 41.1532 85.4425 41.6394 85.5015C47.536 86.6797 53.2903 88.4829 58.8048 90.8805C62.5845 92.5517 66.4295 93.9911 70.6009 94.2359C75.6807 94.5925 80.7343 93.2452 84.9625 90.4073C88.393 88.1094 91.3632 85.3154 93.3021 81.5781Z" fill="#012778"/>
<path d="M92.8638 41.1273C102.695 36.512 112.758 34.9453 123.323 38.5423C124.848 39.0612 125.546 39.8479 126.114 41.1926C130.676 51.9792 132.225 63.8017 130.596 75.3994C130.459 76.4047 130.162 76.7344 129.124 76.767C118.263 77.1296 107.391 76.8582 96.5619 75.9543C96.578 75.685 96.6218 75.4182 96.6924 75.1579C100.178 66.159 100.165 57.1079 96.8165 48.1188C95.8895 45.6251 94.9038 43.0401 92.8638 41.1273Z" fill="#012778"/>
<path d="M92.8643 41.1289C94.9043 43.0481 95.89 45.6332 96.817 48.1204C100.166 57.1095 100.179 66.1606 96.693 75.1594C96.6223 75.4197 96.5786 75.6866 96.5624 75.9558C89.7422 75.4793 82.9522 74.6404 76.2211 73.4426C65.0158 71.4842 54.1238 68.5107 43.6692 63.9769C42.22 63.3503 41.7532 62.7725 42.6476 61.2939C43.5419 59.8153 44.2796 58.1115 45.0433 56.5056C45.3175 55.941 45.5623 55.6701 46.2673 56.0519C51.6921 58.9732 57.2279 58.4967 62.8126 56.5415C69.0534 54.3547 74.5989 50.8197 80.3175 47.621C84.4268 45.3134 88.4546 42.8621 92.8643 41.1289Z" fill="#042365"/>
<path d="M76.6549 13.8352C71.3019 17.7227 66.0534 21.7374 61.2618 26.3266C55.0798 32.241 49.5538 38.6874 44.9418 45.8943C44.2139 47.0367 43.8255 47.115 42.9507 46.0347C39.1873 41.3573 37.2289 36.0174 36.883 30.0671C36.439 22.7297 38.0874 15.7904 40.7998 9.0143C41.4526 7.35945 42.3567 6.48143 44.0083 5.88738C56.6661 1.3243 69.523 0.647568 82.579 3.85717C82.9054 3.93551 83.1959 4.06281 83.506 4.16725C82.5007 5.20521 81.4497 6.20399 80.5031 7.29091C78.8091 9.22646 77.2 11.224 76.6549 13.8352Z" fill="#042365"/>
<path d="M35.0263 87.6953C48.9604 105.35 65.2804 119.226 86.3626 127.692C83.5348 128.772 80.597 129.538 77.602 129.977C63.3905 132.314 49.8373 130.257 36.9423 123.805C35.7085 123.188 35.134 122.447 34.9545 121.037C33.6489 110.612 33.3813 100.19 34.6281 89.7451C34.6869 89.249 34.8109 88.7822 35.0263 87.6953Z" fill="#012778"/>
<path d="M93.3017 81.5778C91.3628 85.3151 88.4056 88.1058 84.9523 90.3906C80.7242 93.2286 75.6705 94.5759 70.5907 94.2193C66.4193 93.9745 62.5743 92.5351 58.7946 90.8639C53.2801 88.4663 47.5258 86.6631 41.6292 85.4848C41.143 85.4259 40.6529 85.4062 40.1636 85.4261C39.0049 84.2935 37.8788 83.1217 36.6711 82.0413C36.0575 81.4962 36.1261 80.9152 36.2762 80.2755C37.1281 76.6459 38.1334 73.062 39.3378 69.5304C39.6381 68.6524 39.8927 68.4598 40.8001 68.8776C54.2315 74.9682 68.4103 78.3432 82.9711 80.2755C86.4179 80.7357 89.8614 81.147 93.3017 81.5778Z" fill="#042365"/>
<path d="M34.0833 11.0722C32.3338 16.7973 31.1457 22.604 31.2893 28.6391C31.5145 37.3181 34.2856 44.9591 40.3534 51.3174C40.8169 51.807 41.1825 52.1595 40.7484 52.9494C39.5635 55.1363 38.4929 57.3852 37.4158 59.6276C37.109 60.2804 36.8675 60.5807 36.1102 60.14C25.7862 54.255 16.9048 46.9306 11.5159 36.0288C10.7815 34.5437 10.8631 33.4176 11.764 32.0304C17.0699 23.7177 24.1782 16.7053 32.5622 11.5129C32.9702 11.2583 33.4207 11.0657 33.8515 10.8438C33.9266 10.9221 34.0049 10.9972 34.0833 11.0722Z" fill="#042365"/>
<path d="M75.9692 21.2165C82.1023 16.5164 88.7805 12.6942 95.7948 9.46612C96.0068 9.35588 96.2444 9.30412 96.483 9.31616C96.7217 9.32821 96.9528 9.40363 97.1526 9.53467C106.821 14.7145 115.009 22.2737 120.944 31.4982C121.013 31.6897 121.057 31.8894 121.075 32.0922C119.687 31.8572 118.372 31.6026 117.047 31.4166C108.159 30.1828 99.7834 32.0694 91.6691 35.5553C90.9771 35.8556 90.2591 36.0971 89.554 36.3648C88.0656 35.1441 86.6164 33.8874 85.0823 32.7058C81.1068 29.6148 77.3075 26.3998 75.9692 21.2165Z" fill="#012778"/>
<path d="M7.38961 40.3574C10.4921 45.9574 14.5265 50.9875 19.3195 55.2315C23.6567 59.0935 28.4228 62.4447 33.5245 65.2194C34.5657 65.7906 34.7191 66.2638 34.3209 67.3475C33.1836 70.3865 32.2524 73.4987 31.5335 76.663C31.3246 77.6095 31.0602 77.8641 30.0549 77.3778C23.1743 74.0583 15.8205 73.3892 8.32311 73.5622C6.69357 73.571 5.06611 73.68 3.44995 73.8886C2.42832 74.0387 2.30102 73.6666 2.21616 72.8212C1.59989 66.5604 1.89232 60.2434 3.08438 54.0662C3.99279 49.3476 5.43723 44.7482 7.38961 40.3574Z" fill="#042365"/>
<path d="M75.9697 21.2188C77.3079 26.3889 81.1072 29.604 85.0828 32.695C86.6038 33.8766 88.0661 35.1332 89.5544 36.3539C80.1182 40.8583 71.5828 47.0501 61.8594 50.9995C58.6541 52.3051 55.3313 53.0689 51.8519 52.3051C48.0167 51.45 47.9351 51.2378 50.0208 48.1076C56.9904 37.6631 65.7796 28.5555 75.9697 21.2188Z" fill="#042365"/>
<path d="M29.869 84.2126C27.9987 95.6138 27.8681 107.061 29.1411 118.583C28.8734 118.583 28.6809 118.645 28.5829 118.583C19.1957 111.709 12.0214 103.052 7.4126 92.34C7.92831 92.34 8.11436 91.9418 8.36895 91.5827C9.56684 89.892 10.9802 88.4427 12.8733 87.4929C18.2393 84.8001 23.9807 84.1375 29.869 84.2126Z" fill="#012778"/>
<path d="M29.8686 84.2134C23.9934 84.1514 18.2389 84.814 12.8729 87.4774C10.9667 88.4272 9.56648 89.8765 8.36859 91.5672C8.114 91.9263 7.92795 92.3147 7.41223 92.3245C5.54522 88.5252 4.38324 84.4908 3.4073 80.388C3.26368 79.7776 3.21472 79.3631 4.0601 79.2978C11.6326 78.6809 19.1202 78.8409 26.3076 81.6969C27.3942 82.1846 28.4543 82.7293 29.4834 83.3289C29.8262 83.5019 30.1265 83.7303 29.8686 84.2134Z" fill="#042365"/>
<path d="M76.6543 13.836C77.1994 11.2248 78.8085 9.22718 80.496 7.29162C81.4426 6.20471 82.4936 5.20592 83.4989 4.16797C85.6645 4.69418 87.7876 5.38153 89.8507 6.22429C85.1211 8.52868 80.9073 11.215 76.6543 13.836Z" fill="#012778"/>
<path d="M33.8516 10.8448L34.1519 10.7109L34.0833 11.0732C34.005 10.9982 33.9266 10.9231 33.8516 10.8448Z" fill="#F28801"/>
<path d="M144.993 196.114C144.21 193.6 144.255 190.947 143.666 188.391C136.974 159.306 119.314 140.281 90.3268 133.091C53.1398 123.864 16.1652 146.026 5.64278 182.837C4.52102 186.839 3.7532 190.932 3.34819 195.069C3.30989 195.417 3.53273 195.908 3 196.114V197.506C3.71728 197.956 3.41087 198.676 3.34819 199.247C3.1358 201.337 3.77995 203.461 3 205.515V207.952C3.91227 210.264 3.81477 212.757 4.30572 215.149C8.48404 235.54 19.4057 251.241 37.0707 262.253C47.1683 268.566 58.2791 271.853 70.1734 272.532C70.5216 272.552 71.0125 272.326 71.2179 272.88H76.4408C77.9206 272.117 79.5746 272.434 81.1136 272.281C113.401 269.091 139.575 244.161 144.244 212.089C144.446 210.696 144.3 209.255 145 207.959V205.174C144.44 203.128 144.44 200.969 145 198.924L144.993 196.114ZM106.64 141.183C116.951 146.706 125.686 154.764 132.019 164.599C132.093 164.803 132.14 165.016 132.159 165.232C130.679 164.985 129.276 164.71 127.862 164.515C118.381 163.199 109.446 165.212 100.79 168.93C100.052 169.247 99.2858 169.508 98.5337 169.794C88.4674 174.595 79.3622 181.204 68.9895 185.417C65.5703 186.81 62.0256 187.625 58.3139 186.81C54.2226 185.901 54.1356 185.675 56.3605 182.332C63.7949 171.186 73.1709 161.466 84.0419 153.634C90.5935 148.667 97.6889 144.462 105.191 141.099C105.418 140.984 105.672 140.931 105.927 140.946C106.181 140.96 106.427 141.042 106.64 141.183ZM46.4997 140.615C47.1961 138.85 48.1606 137.91 49.9225 137.276C63.4416 132.413 77.1651 131.692 91.0928 135.114C91.441 135.194 91.7509 135.33 92.0816 135.441C94.3918 136.004 96.6567 136.738 98.8575 137.638C93.8122 140.096 89.317 142.959 84.78 145.755C79.0697 149.905 73.4707 154.188 68.3593 159.08C61.7645 165.389 55.8696 172.269 50.9496 179.971C50.1732 181.187 49.7588 181.274 48.8257 180.118C44.804 175.114 42.7149 169.418 42.3458 163.07C41.8583 155.243 43.6167 147.844 46.4997 140.615ZM15.5349 165.166C21.2001 156.298 28.7877 148.817 37.7357 143.279C38.171 143.007 38.6515 142.805 39.1111 142.583L39.4314 142.44L39.3583 142.823C37.492 148.934 36.2246 155.128 36.3778 161.563C36.618 170.824 39.5742 178.972 46.0471 185.758C46.5415 186.277 46.9315 186.657 46.4684 187.499C45.2044 189.832 44.0624 192.231 42.9133 194.627C42.586 195.306 42.3284 195.64 41.5206 195.174C30.5072 188.878 21.0329 181.065 15.2842 169.432C14.4904 167.851 14.5879 166.653 15.5349 165.166ZM34.8631 220.835C32.868 232.998 32.7287 245.209 34.0867 257.5C33.8011 257.5 33.5957 257.566 33.4912 257.5C23.4772 250.167 15.8239 240.937 10.9075 229.509C8.9158 225.452 7.67623 221.152 6.63513 216.775C6.48193 216.121 6.4297 215.682 7.33152 215.609C15.4096 214.954 23.3971 215.125 31.0643 218.168C32.2228 218.69 33.3536 219.271 34.4523 219.909C34.8179 220.076 35.1382 220.32 34.8631 220.835ZM36.6389 212.796C36.4161 213.805 36.134 214.074 35.0616 213.558C27.7217 210.003 19.8769 209.289 11.8789 209.47C10.1407 209.483 8.4048 209.6 6.6804 209.819C5.59055 209.979 5.45476 209.585 5.36423 208.68C4.70676 202.002 5.01872 195.265 6.29042 188.676C7.25948 183.643 8.80035 178.736 10.8831 174.052C14.1927 180.025 18.4966 185.39 23.6095 189.916C28.2354 194.037 33.3199 197.612 38.7629 200.571C39.8736 201.18 40.0373 201.688 39.6125 202.841C38.3992 206.084 37.4058 209.405 36.6389 212.782V212.796ZM85.7828 269.635C70.6225 272.128 56.1644 269.934 42.4085 263.054C41.0923 262.392 40.4795 261.602 40.288 260.098C38.8952 248.98 38.6097 237.859 39.9398 226.716C40.0024 226.205 40.1348 225.703 40.3646 224.547C55.2289 243.384 72.6386 258.183 95.1283 267.218C92.1114 268.365 88.9773 269.175 85.7828 269.635ZM140.428 220.595C134.479 240.175 122.362 254.583 104.077 263.82C102.743 264.495 101.911 263.82 100.894 263.409C93.8043 260.559 86.9423 257.172 80.3684 253.277C69.2263 246.609 59.6614 238.088 51.2143 228.28C49.442 226.222 47.6453 224.185 45.8556 222.141C44.6195 220.929 43.4182 219.679 42.1299 218.53C41.4753 217.949 41.5484 217.326 41.7086 216.647C42.6174 212.775 43.6898 208.952 44.9746 205.184C45.295 204.244 45.5666 204.042 46.5345 204.488C60.8627 210.985 75.9882 214.585 91.5211 216.643C95.1875 217.131 98.861 217.569 102.531 218.036C106.347 218.268 110.164 218.5 113.983 218.732C122.385 219.255 130.794 219.168 139.203 219.035C140.588 218.993 140.829 219.272 140.428 220.595ZM142.315 211.434C142.169 212.51 141.852 212.858 140.745 212.897C129.159 213.282 117.561 212.992 106.009 212.026C98.7337 211.519 91.4902 210.625 84.31 209.345C72.3565 207.256 60.7373 204.084 49.5847 199.247C48.0387 198.575 47.5408 197.959 48.4949 196.382C49.4489 194.805 50.2358 192.99 51.0506 191.274C51.3431 190.675 51.6042 190.386 52.3563 190.79C58.1433 193.924 64.0486 193.401 70.0062 191.312C76.6637 188.983 82.5795 185.212 88.6798 181.796C93.0636 179.341 97.3672 176.726 102.064 174.867C112.552 169.944 123.287 168.276 134.558 172.109C136.184 172.663 136.929 173.502 137.535 174.94C142.402 186.448 144.055 199.061 142.315 211.434Z" fill="white"/>
<path d="M3 197.506C3.71728 197.952 3.41087 198.672 3.34819 199.247C3.1358 201.336 3.77995 203.456 3 205.514V197.506Z" fill="white"/>
<path d="M144.994 205.147C144.434 203.101 144.434 200.942 144.994 198.896V205.147Z" fill="#303030"/>
<path d="M102.531 218.025C106.361 218.255 110.167 218.478 113.983 218.722C122.385 219.244 130.794 219.154 139.203 219.025C140.596 219.004 140.829 219.282 140.429 220.606C134.479 240.186 122.362 254.593 104.077 263.827C102.744 264.506 101.912 263.827 100.895 263.416C93.804 260.568 86.942 257.18 80.3688 253.283C69.2267 246.619 59.6618 238.095 51.2146 228.287C49.4423 226.229 47.6457 224.195 45.856 222.148C46.3779 222.127 46.9007 222.148 47.4193 222.211C53.7097 223.468 59.8481 225.391 65.7308 227.949C69.7629 229.732 73.8646 231.267 78.3145 231.528C83.7334 231.909 89.1245 230.471 93.635 227.444C97.2945 224.993 100.463 222.012 102.531 218.025Z" fill="#012778"/>
<path d="M102.063 174.874C112.551 169.95 123.286 168.279 134.557 172.116C136.183 172.669 136.928 173.509 137.534 174.943C142.4 186.45 144.053 199.062 142.315 211.434C142.168 212.506 141.851 212.858 140.744 212.893C129.159 213.279 117.56 212.99 106.008 212.026C106.026 211.738 106.072 211.454 106.148 211.176C109.866 201.576 109.853 191.921 106.28 182.332C105.291 179.672 104.24 176.914 102.063 174.874Z" fill="#012778"/>
<path d="M102.065 174.875C104.241 176.922 105.293 179.68 106.282 182.333C109.854 191.923 109.868 201.578 106.15 211.178C106.074 211.455 106.028 211.74 106.01 212.027C98.7348 211.519 91.4914 210.624 84.3109 209.346C72.3575 207.257 60.7383 204.085 49.5857 199.248C48.0397 198.58 47.5418 197.964 48.4958 196.386C49.4499 194.809 50.2368 192.991 51.0516 191.278C51.344 190.676 51.6052 190.387 52.3573 190.794C58.1442 193.911 64.0496 193.402 70.0072 191.317C76.6646 188.984 82.5804 185.213 88.6808 181.801C93.0645 179.339 97.3612 176.724 102.065 174.875Z" fill="#042365"/>
<path d="M84.7721 145.759C79.0617 149.906 73.4628 154.189 68.3513 159.085C61.7565 165.394 55.8616 172.271 50.9417 179.959C50.1652 181.177 49.7508 181.261 48.8177 180.108C44.803 175.119 42.7139 169.422 42.3448 163.075C41.8712 155.247 43.6296 147.845 46.5231 140.616C47.2195 138.851 48.184 137.914 49.9458 137.281C63.4488 132.413 77.1641 131.691 91.0918 135.115C91.44 135.198 91.7499 135.334 92.0806 135.446C91.0082 136.553 89.887 137.618 88.8773 138.778C87.0702 140.843 85.3536 142.974 84.7721 145.759Z" fill="#042365"/>
<path d="M40.3636 224.551C55.228 243.385 72.6376 258.186 95.1274 267.218C92.1107 268.37 88.9768 269.187 85.7819 269.656C70.6216 272.149 56.1635 269.954 42.4075 263.071C41.0914 262.413 40.4785 261.623 40.287 260.119C38.8943 248.997 38.6087 237.88 39.9388 226.737C40.0015 226.208 40.1338 225.71 40.3636 224.551Z" fill="#012778"/>
<path d="M102.531 218.024C100.463 222.011 97.3085 224.988 93.6246 227.425C89.1141 230.452 83.7231 231.89 78.3041 231.509C73.8542 231.248 69.7525 229.713 65.7204 227.93C59.8378 225.372 53.6993 223.449 47.409 222.192C46.8904 222.129 46.3675 222.108 45.8456 222.129C44.6095 220.921 43.4082 219.671 42.1199 218.518C41.4653 217.937 41.5384 217.317 41.6986 216.635C42.6074 212.763 43.6798 208.94 44.9646 205.172C45.285 204.235 45.5566 204.03 46.5246 204.476C60.8527 210.973 75.9782 214.573 91.5111 216.635C95.188 217.126 98.8614 217.564 102.531 218.024Z" fill="#042365"/>
<path d="M39.3579 142.812C37.4916 148.919 36.2242 155.114 36.3774 161.552C36.6176 170.81 39.5738 178.961 46.0467 185.744C46.5411 186.267 46.9311 186.643 46.468 187.485C45.2041 189.818 44.062 192.217 42.913 194.609C42.5857 195.306 42.328 195.626 41.5202 195.156C30.5069 188.878 21.0325 181.065 15.2839 169.435C14.5004 167.851 14.5875 166.649 15.5485 165.17C21.2086 156.302 28.7915 148.821 37.7353 143.282C38.1706 143.011 38.6511 142.805 39.1107 142.568C39.1908 142.652 39.2744 142.732 39.3579 142.812Z" fill="#042365"/>
<path d="M84.041 153.632C90.5836 148.618 97.7076 144.541 105.19 141.097C105.416 140.98 105.67 140.925 105.924 140.937C106.179 140.95 106.426 141.031 106.639 141.17C116.953 146.696 125.688 154.76 132.019 164.6C132.092 164.805 132.139 165.018 132.158 165.234C130.678 164.983 129.275 164.712 127.861 164.513C118.38 163.197 109.445 165.21 100.789 168.928C100.051 169.249 99.2849 169.506 98.5328 169.792C96.945 168.49 95.3991 167.149 93.7626 165.889C89.5216 162.591 85.4686 159.162 84.041 153.632Z" fill="#012778"/>
<path d="M10.8829 174.053C14.1925 180.027 18.4963 185.392 23.6094 189.92C28.236 194.04 33.3205 197.615 38.7627 200.575C39.8735 201.184 40.0371 201.689 39.6123 202.845C38.3991 206.087 37.4056 209.407 36.6387 212.782C36.4159 213.792 36.1339 214.064 35.0614 213.545C27.7215 210.004 19.8767 209.29 11.8788 209.474C10.1404 209.484 8.4043 209.6 6.68023 209.823C5.59039 209.983 5.45459 209.586 5.36406 208.684C4.70665 202.005 5.01861 195.266 6.29026 188.677C7.25931 183.643 8.80019 178.737 10.8829 174.053Z" fill="#042365"/>
<path d="M84.0407 153.635C85.4683 159.15 89.5213 162.58 93.7623 165.877C95.3849 167.138 96.9448 168.478 98.5325 169.78C88.4663 174.586 79.361 181.191 68.9884 185.404C65.5691 186.797 62.0245 187.611 58.3128 186.797C54.2215 185.884 54.1344 185.658 56.3594 182.319C63.7943 171.177 73.1704 161.461 84.0407 153.635Z" fill="#042365"/>
<path d="M34.8624 220.836C32.8673 232.998 32.728 245.21 34.0859 257.501C33.8004 257.501 33.595 257.567 33.4905 257.501C23.4765 250.168 15.8232 240.934 10.9067 229.506C11.4569 229.506 11.6554 229.081 11.9269 228.698C13.2048 226.895 14.7125 225.349 16.732 224.335C22.4563 221.463 28.581 220.756 34.8624 220.836Z" fill="#012778"/>
<path d="M34.8625 220.837C28.595 220.77 22.4564 221.477 16.7321 224.319C14.6986 225.332 13.2049 226.878 11.927 228.681C11.6554 229.064 11.457 229.479 10.9068 229.489C8.91516 225.436 7.67559 221.133 6.63449 216.756C6.48129 216.105 6.42906 215.662 7.33088 215.593C15.409 214.935 23.3965 215.105 31.0637 218.152C32.2229 218.672 33.3538 219.253 34.4516 219.893C34.8172 220.078 35.1376 220.321 34.8625 220.837Z" fill="#042365"/>
<path d="M84.772 145.759C85.3535 142.973 87.07 140.842 88.8702 138.778C89.88 137.618 91.0011 136.553 92.0736 135.445C94.3837 136.007 96.6486 136.74 98.8494 137.639C93.8041 140.097 89.3089 142.963 84.772 145.759Z" fill="#012778"/>
<path d="M39.1118 142.569L39.4322 142.426L39.359 142.812C39.2755 142.732 39.1919 142.652 39.1118 142.569Z" fill="#F28801"/>
</svg>
