<svg width="128" height="131" viewBox="0 0 128 131" fill="none" xmlns="http://www.w3.org/2000/svg">
<path d="M100.704 64.473C100.212 64.5231 99.7511 64.7372 99.3955 65.0807C97.2093 67.1408 95.0668 69.2266 92.9089 71.3073L83.9837 79.9054L77.9014 73.2102L86.9347 64.455C84.8747 64.455 83.2189 64.3855 81.5657 64.491C80.8723 64.541 80.2117 64.8056 79.6756 65.2481C77.837 66.8884 76.0937 68.6317 73.9744 70.6558C73.0345 69.5511 72.1306 68.5725 71.3246 67.5193C69.4036 65.0035 66.947 63.8807 63.7822 64.4292C63.1591 64.54 62.4793 64.3494 61.8638 64.473C61.2484 64.5966 60.5377 64.8052 60.087 65.2121C58.2536 66.8704 56.5025 68.6189 54.6794 70.3622C52.8021 68.5597 51.0202 66.8369 49.2176 65.1374C48.9215 64.8567 48.5378 64.4859 48.1876 64.4756C46.2486 64.4112 44.307 64.4447 42.0255 64.4447C45.3138 67.6378 48.3395 70.5656 50.9378 73.0866L44.8941 79.8513C39.9293 75.0566 35.0702 70.4137 30.2806 65.6884C29.3535 64.7769 28.442 64.3494 27.139 64.4009C24.9502 64.4988 22.7613 64.4267 20.5957 64.4267C21.8446 66.8446 23.1708 69.0618 24.1673 71.3794C27.7879 79.8385 29.4771 88.7946 30.7981 97.8073C32.2762 107.909 32.6908 118.089 32.7809 128.281C32.7964 130.264 33.4144 131.646 35.1809 132.512H36.726C37.55 131.863 38.4693 131.301 39.1826 130.544C41.1113 128.484 42.9525 126.362 44.9301 124.148C45.8597 125.106 46.7456 126.007 47.6211 126.919C48.9086 128.276 50.1781 129.679 51.5275 130.985C52.1558 131.59 52.9618 132.015 53.6854 132.512H55.7454C57.1695 131.255 58.6012 130.003 60.0201 128.739C61.5831 127.346 63.1359 125.94 64.4363 124.771C65.9608 126.143 67.753 127.776 69.5684 129.383C70.7684 130.446 72.0019 131.471 73.2199 132.512H75.2799C76.5958 131.389 77.9709 130.328 79.2095 129.128C80.8318 127.557 82.3434 125.878 84.0172 124.125C85.9794 126.316 87.8412 128.469 89.7905 130.539C90.5038 131.296 91.4205 131.86 92.2419 132.512H93.787C95.6282 131.628 96.1767 130.163 96.1767 128.149C96.1767 114.079 97.2582 100.097 100.243 86.3199C101.868 78.8162 104.09 71.5004 108.29 64.9468C108.347 64.7812 108.375 64.6069 108.372 64.4318C105.753 64.4473 103.227 64.4164 100.704 64.473ZM84.0815 85.9929L89.9089 92.4898L84.1124 98.9275L78.2619 92.3997L84.0815 85.9929ZM58.6862 92.2658L64.4749 85.8435L70.4388 92.4486L64.5934 98.8863L58.6862 92.2658ZM60.4887 102.01L54.5944 108.496L48.7721 101.974L54.6304 95.428L60.4887 102.01ZM74.2473 95.4537L79.964 101.817L74.0748 108.342L68.3478 102.002L74.2473 95.4537ZM74.3375 76.411C76.5263 78.8393 78.4988 81.0256 80.1906 82.9054L74.2679 89.4795L68.4715 82.9311L74.3375 76.411ZM64.4827 67.079L70.274 73.5167L64.4569 79.993C62.3428 77.6419 60.3729 75.4531 58.6604 73.5553L64.4827 67.079ZM54.5789 76.5089L60.4656 83.1294L54.7128 89.4898L48.7567 82.8977L54.5789 76.5089ZM50.7163 92.4022L44.7782 98.8811L38.9688 92.3713L44.858 85.8925L50.7163 92.4022ZM33.5432 86.8427C32.0574 81.5457 30.6436 76.2308 29.2376 71.0446L41.2426 82.6453C39.1826 84.9474 37.2023 87.1414 34.9363 89.6572C34.3595 88.501 33.7955 87.7156 33.5509 86.8427H33.5432ZM36.4453 106.866C36.0024 103.102 35.5878 99.5635 35.1706 96.0279L35.4281 95.8451L40.9208 101.927C39.659 103.315 38.1294 105.018 36.453 106.866H36.4453ZM37.5474 125.6L37.2023 125.495V116.587L41.3585 121.341L37.5474 125.6ZM44.8889 117.831C42.7774 115.472 40.8203 113.284 38.9946 111.247C40.6813 109.4 42.6538 107.235 44.7653 104.92L50.5901 111.504L44.8889 117.831ZM54.6871 127.753L48.3885 121.174L54.5429 114.288L60.8029 121.372L54.6871 127.753ZM58.7119 111.272C60.3419 109.439 62.2964 107.24 64.39 104.889L70.2508 111.491L64.5573 117.798L58.7119 111.272ZM74.2937 127.753L68.0311 121.212L74.1881 114.288L80.4146 121.333L74.2937 127.753ZM78.2336 111.308C79.9408 109.413 81.9108 107.222 83.9734 104.927L89.927 111.427L84.079 117.893L78.2336 111.308ZM91.7707 125.487L91.4231 125.598L87.5811 121.302L91.7707 116.667V125.487ZM92.5046 106.908L88.0678 102.038L93.8359 95.6005C93.3672 99.53 92.9501 103.058 92.4969 106.908H92.5046ZM97.217 79.5681C96.5397 81.9011 96.1046 84.3062 95.4582 86.6495C95.2007 87.5766 94.6728 88.4263 94.1166 89.634L87.818 82.5346L99.7895 70.9854L99.9646 71.0729C99.0324 73.9003 98.041 76.7098 97.2093 79.5681H97.217Z" fill="#042365"/>
<path d="M127.966 54.6325C127.89 55.9039 127.381 57.1109 126.524 58.0527C125.666 58.9945 124.512 59.6141 123.254 59.8084C122.489 59.9028 121.719 59.9433 120.949 59.9294C102.103 59.9294 83.2575 59.9294 64.4132 59.9294C45.5688 59.9294 26.7227 59.9294 7.87486 59.9294C6.93393 59.9593 5.99291 59.8728 5.07318 59.6719C2.50068 59.0204 0.855209 56.6076 0.981388 53.8626C1.05886 52.5922 1.56808 51.3864 2.42465 50.4451C3.28123 49.5037 4.43374 48.8833 5.6912 48.6867C6.24177 48.6042 6.798 48.5654 7.35469 48.5708C45.4297 48.5708 83.5056 48.5708 121.582 48.5708C125.574 48.5682 128.144 51.0248 127.966 54.6325Z" fill="#042365"/>
<path d="M61.3309 25.5127C58.949 17.2493 54.1052 10.858 46.7199 6.45718C46.3491 6.23573 45.5663 6.33358 45.1749 6.58594C37.8385 11.2211 32.7759 17.6587 30.0747 25.899C29.2738 28.3376 28.8438 30.8972 28.2412 33.4002L28.6275 33.5907C39.0771 29.0818 50.0521 26.8955 61.3772 26.1385C61.3817 25.9289 61.3662 25.7193 61.3309 25.5127ZM47.2942 16.0802C43.8919 18.9066 41.1979 22.4895 39.4273 26.5427C38.7836 27.9977 37.5424 28.505 36.3218 27.9333C35.1012 27.3616 34.684 26.1307 35.3072 24.681C37.3258 19.9837 40.4475 15.8427 44.4075 12.609C45.2058 11.9524 46.1302 11.6357 46.9955 12.2099C47.6341 12.6348 48.0461 13.4022 48.6538 14.1335C48.1053 14.9498 47.8092 15.6631 47.2942 16.0802Z" fill="#042365"/>
<path d="M59.4485 43.5357C59.3121 43.8113 58.7816 44.0507 58.434 44.0507C48.8933 44.0765 39.3501 44.0507 29.8094 44.0868C29.0369 44.0868 28.8258 43.7855 28.7047 43.0568C27.9786 38.7126 27.9811 38.7693 32.0086 37.1135C41.3612 33.2689 51.1233 31.3505 61.1738 30.7041C61.4313 30.6887 61.6888 30.7041 62.1369 30.7041C62.3788 35.1429 61.4518 39.5674 59.4485 43.5357Z" fill="#042365"/>
<path d="M73.4545 25.6107H66.0949C63.8907 16.4743 58.859 9.13021 50.8428 3.63501C55.3139 1.80757 60.1092 0.90614 64.9387 0.98526C65.2183 1.00817 65.4893 1.09337 65.7317 1.23462C65.9741 1.37587 66.1818 1.56958 66.3396 1.80156C67.7018 4.50023 69.1721 7.17831 70.2022 10.0083C72.0099 14.9731 72.8262 20.1824 73.4545 25.6107Z" fill="#042365"/>
<path d="M88.5518 10.1278C85.7726 15.0321 84.1074 20.4883 83.6747 26.1087L78.0352 25.7971C77.3852 17.432 75.2104 9.25631 71.6182 1.67383C78.1357 3.04634 83.6669 5.81197 88.5518 10.1278Z" fill="#042365"/>
<path d="M100.56 33.9692C100.488 37.1236 100.346 40.2755 100.163 43.4274C100.15 43.6514 99.6867 44.03 99.4266 44.0351C96.7331 44.078 94.0379 44.078 91.3409 44.0351C91.1666 44.0162 90.9991 43.9571 90.8517 43.8624C90.7042 43.7676 90.5808 43.6399 90.4911 43.4892C88.9242 39.4742 88.1115 35.2045 88.0938 30.8945C92.1418 31.6362 95.9657 32.3185 99.7743 33.0705C100.096 33.1374 100.567 33.6653 100.56 33.9692Z" fill="#042365"/>
<path d="M73.951 30.3613V44.0092H64.3691C66.0326 39.6316 66.9442 35.1587 66.7279 30.3742L73.951 30.3613Z" fill="#042365"/>
<path d="M99.6272 28.2614L88.2402 26.4151C88.5338 21.9035 89.8033 17.6753 91.8814 13.4805C95.5918 17.7283 98.2459 22.7929 99.6272 28.2614Z" fill="#042365"/>
<path d="M85.4128 43.9703H78.6455V30.3945L83.1339 30.652C83.9141 35.2099 84.6712 39.5618 85.4128 43.9703Z" fill="#042365"/>
</svg>
