<svg width="40" height="40" viewBox="0 0 40 40" fill="none" xmlns="http://www.w3.org/2000/svg">
<path d="M28.8851 19.8047C27.941 20.4943 26.9759 21.1636 26.0984 21.9323C25.5285 22.4309 25.0643 23.0658 24.6181 23.6865C23.9809 24.5719 23.2271 25.3038 22.2384 25.7719C21.9574 25.9057 21.8572 26.0725 21.8572 26.3926C21.8608 30.7408 21.8551 35.0895 21.84 39.4387V39.9702H10.3767V39.5177C10.3767 35.3642 10.3721 31.2107 10.3861 27.0572C10.3861 26.7065 10.2812 26.5359 9.96813 26.3825C7.34343 25.0955 5.76062 23.0165 5.28077 20.1201C5.21203 19.6697 5.17957 19.2145 5.1837 18.7588C5.1764 14.4879 5.1764 10.217 5.1837 5.94609C5.1837 5.12259 5.5524 4.56446 6.20759 4.38051C7.15947 4.10888 8.02759 4.79147 8.03307 5.83807C8.04324 7.59622 8.03307 9.35359 8.03307 11.1117V11.5485H10.3767V11.0843C10.3767 7.97196 10.394 4.86036 10.3658 1.74876C10.358 0.879859 10.6679 0.299027 11.4844 0H12.1106C12.9427 0.313117 13.2292 0.921347 13.2199 1.79573C13.1885 4.4627 13.2081 7.13124 13.2081 9.79821V10.2546H15.5518V9.81465C15.5518 7.15942 15.5721 4.50497 15.5408 1.85052C15.5299 0.971446 15.796 0.334252 16.6407 0.00313117H17.2669C18.0959 0.288068 18.4113 0.874379 18.4051 1.74015C18.3824 4.85175 18.3965 7.96413 18.3965 11.0757V11.5532H20.7401V11.0836C20.7401 8.77902 20.7401 6.47422 20.7401 4.16915C20.7401 3.42315 21.072 2.90651 21.6654 2.68654C22.5593 2.35621 23.4995 2.96913 23.5801 3.93901C23.5919 4.08148 23.5864 4.22551 23.5864 4.36877V19.9158C23.7476 19.8133 23.8557 19.7499 23.9582 19.681C25.051 18.9284 26.1438 18.1744 27.2365 17.4187C28.0092 16.8872 28.8914 17.007 29.3728 17.7044C29.8542 18.4019 29.6428 19.2567 28.8851 19.8047Z" fill="white"/>
<path d="M8.03302 39.4779V39.9711H5.17974V39.5053C5.17974 37.1099 5.16956 34.7146 5.18913 32.3185C5.18913 31.9138 5.07406 31.7079 4.7038 31.5255C2.33116 30.3615 0.824281 28.4859 0.205874 25.9105C0.122116 25.5583 0.068103 25.1998 0 24.8444V10.6249C0.255973 9.96818 0.670853 9.51338 1.43408 9.51573C1.78965 9.51143 2.13307 9.64501 2.39228 9.88846C2.65149 10.1319 2.80633 10.4663 2.82432 10.8214C2.8478 11.2496 2.83293 11.6825 2.83527 12.1099C2.85015 14.6485 2.757 17.1934 2.90494 19.7233C3.10847 23.1629 4.78365 25.8291 7.63692 27.7548C7.93047 27.9521 8.04241 28.1462 8.04163 28.5024C8.02832 32.1603 8.03302 35.8191 8.03302 39.4779Z" fill="white"/>
<path d="M39.7581 25.7931C39.628 25.9709 39.4693 26.1259 39.2885 26.2518C38.89 26.5446 38.4775 26.8185 38.0665 27.0925C36.8564 27.8907 35.8169 28.9212 35.0081 30.1243C34.3772 31.0636 33.5756 31.8057 32.5494 32.2879C32.3013 32.4046 32.223 32.5588 32.2238 32.828C32.2238 35.0543 32.212 37.2798 32.2034 39.5061C32.2034 39.6587 32.2034 39.8106 32.2034 39.982H24.1821C24.1821 39.8505 24.1821 39.7143 24.1821 39.5781C24.19 35.6344 24.196 31.6901 24.2001 27.7454C24.2001 27.4706 24.2956 27.3148 24.4984 27.1309C25.1113 26.5728 25.7861 26.0412 26.2518 25.3704C27.1785 24.0284 28.3731 22.893 29.7603 22.0357C30.0831 21.839 30.3896 21.6167 30.677 21.3711C32.1337 20.1038 32.3858 17.9511 31.2899 16.3448C31.1862 16.2012 31.1249 16.0314 31.113 15.8548C31.1004 14.0841 31.0989 12.3137 31.1083 10.5435C31.1122 9.78028 31.6022 9.21276 32.3208 9.08673C32.646 9.03644 32.9785 9.10253 33.2598 9.27337C33.541 9.44421 33.753 9.70883 33.8582 10.0206C33.9295 10.2837 33.9615 10.556 33.9529 10.8284C33.9576 15.8383 33.9589 20.85 33.9569 25.8635V26.4115C34.1299 26.298 34.2449 26.2252 34.3569 26.1485C35.4817 25.3727 36.6003 24.5892 37.7323 23.8244C38.0123 23.6278 38.3534 23.5379 38.694 23.571C39.0345 23.604 39.352 23.7577 39.5891 24.0044C39.8199 24.2369 39.963 24.5423 39.9938 24.8685C40.0246 25.1947 39.9414 25.5215 39.7581 25.7931Z" fill="white"/>
<path d="M28.7574 14.611C28.7503 14.6655 28.7391 14.7194 28.7237 14.7722C27.7241 14.6603 26.8168 14.8583 25.9597 15.4517C25.9464 15.3311 25.9315 15.2615 25.9315 15.1918C25.9315 12.7722 25.9252 10.3526 25.9315 7.93295C25.9354 6.89653 26.9037 6.2108 27.8407 6.57559C28.3981 6.7932 28.7441 7.21435 28.7488 7.82023C28.7668 10.0841 28.7582 12.3479 28.7574 14.611Z" fill="white"/>
</svg>
