<svg width="138" height="137" viewBox="0 0 138 137" fill="none" xmlns="http://www.w3.org/2000/svg">
<path d="M0.000793457 16.0504V21.3474C0.23497 22.326 0.452423 23.2989 0.706131 24.283C1.99413 29.1897 5.03571 32.8307 9.10881 35.6548C12.4905 38.0022 16.098 40.0457 19.3794 42.5214C25.8082 47.3695 28.493 54.0577 27.8768 61.9752C27.5562 66.1125 26.6362 70.1995 26.1093 74.3256C23.5696 94.1502 31.0941 114.279 53.5783 123.024C58.5677 124.94 63.7601 126.279 69.0539 127.014C60.1187 116.648 56.3997 104.861 58.5296 91.4822C60.1048 81.5769 64.7745 73.2299 72.3575 66.6422C80.9582 59.1734 91.0364 55.6718 102.414 56.2796C113.73 56.8818 123.245 61.5348 131.408 69.5527C131.174 67.0018 131.056 64.4314 130.688 61.8972C129.261 52.0309 125.67 43.0483 119.208 35.3816C110.878 25.4958 100.181 19.3764 87.7439 16.1619C86.3081 15.7911 85.193 16.3125 84.733 17.4499C84.273 18.5874 84.6967 19.6329 86.0405 20.4413C88.5496 21.9607 90.8719 23.7227 92.6115 26.1342C95.8315 30.5948 95.5527 35.9336 91.9034 40.0374C88.2122 44.1858 82.458 45.2117 77.78 42.5465C73.3612 40.0179 71.0695 36.1594 71.2814 31.1161C71.5881 23.7896 66.5643 14.8684 56.8374 13.4242C52.282 12.7496 47.9886 13.5999 44.08 16.1118C40.5478 18.3588 36.8538 20.1988 32.619 20.8177C26.2459 21.7516 21.0493 19.5186 16.8285 14.8739C13.6475 11.3751 11.5315 7.34665 11.0492 2.51524C10.9823 1.81827 10.2128 0.967967 9.55487 0.605542C8.69899 0.142753 7.73438 0.51633 7.09038 1.33597C3.85644 5.45646 1.29996 9.91986 0.26564 15.1332C0.193436 15.4434 0.105042 15.7495 0.000793457 16.0504Z" fill="#042365"/>
<path d="M62.933 91.491C63.6089 87.6393 64.9284 83.9289 66.836 80.5151C68.23 82.0178 69.4148 83.4564 70.792 84.6663C71.397 85.1988 72.4648 85.603 73.2314 85.4748C74.9042 85.196 75.2917 83.0939 73.9814 81.7641C72.37 80.122 70.6861 78.5497 68.9799 76.8937L71.7037 73.4785L125.089 126.855L121.894 129.381C121.679 129.289 121.576 129.275 121.518 129.214C119.968 127.683 118.431 126.147 116.87 124.619C115.788 123.568 114.771 123.46 113.773 124.226C112.697 125.063 112.63 126.518 113.706 127.63C115.044 129.024 116.452 130.335 118.091 131.938C115.599 132.908 113.502 133.889 111.311 134.53C108.847 135.258 106.293 135.685 103.784 136.242H96.5437C94.8292 135.908 93.0951 135.651 91.4029 135.23C71.5476 130.293 59.4119 111.661 62.933 91.491ZM101.662 115.511C103.235 117.265 104.944 118.899 106.65 120.53C106.982 120.85 107.548 120.926 108.267 121.224C108.824 120.778 109.661 120.418 109.887 119.83C110.132 119.172 110.09 118.051 109.672 117.566C108.108 115.8 106.45 114.12 104.704 112.534C103.803 111.698 102.722 111.781 101.838 112.64C100.954 113.499 100.876 114.636 101.662 115.511ZM90.1818 104.095C91.5757 105.57 93.0226 107.006 94.4863 108.419C95.6014 109.501 96.8504 109.509 97.7815 108.519C98.643 107.602 98.5789 106.37 97.5474 105.313C96.0949 103.825 94.6898 102.272 93.0867 100.953C92.4985 100.468 91.3443 100.281 90.6027 100.493C89.981 100.669 89.5824 101.625 89.0443 102.286C89.5099 103.033 89.7692 103.649 90.1818 104.095ZM77.9987 91.8479C79.6352 93.6154 81.3637 95.2965 83.1033 96.9609C83.4407 97.2843 84.0038 97.3735 84.6869 97.6662C85.2444 97.2118 86.1059 96.8466 86.3261 96.2444C86.5715 95.5809 86.5129 94.4546 86.0864 93.9611C84.5167 92.1953 82.8566 90.512 81.1128 88.9178C80.2123 88.0675 79.1613 88.1372 78.2357 88.9652C77.4244 89.6873 77.2237 91.0255 77.9987 91.8479Z" fill="#042365"/>
<path d="M78.6349 67.2607C80.2602 68.9334 81.7936 70.5309 83.3743 72.0977C84.5926 73.3076 85.8026 73.3829 86.7811 72.3765C87.7067 71.4258 87.5924 70.1239 86.4215 68.9557C85.1418 67.6872 83.8232 66.4466 82.3958 65.0889C95.9588 57.5449 115.204 59.0476 127.838 72.5326C139.968 85.4684 140.462 103.952 133.414 116.169C132.72 115.399 132.093 114.671 131.432 113.974C130.771 113.278 130.085 112.567 129.366 111.911C127.927 110.601 125.864 111.109 125.614 112.921C125.519 113.612 125.937 114.56 126.433 115.106C127.947 116.779 129.609 118.312 131.279 119.966L128.624 123.297L75.242 69.9399L78.6349 67.2607ZM114.49 103.194C115.956 104.736 117.458 106.244 118.995 107.716C120.035 108.711 121.298 108.689 122.193 107.758C123.001 106.921 122.996 105.597 122.079 104.643C120.573 103.077 119.087 101.474 117.428 100.077C116.871 99.6113 115.739 99.4524 115.036 99.6754C114.412 99.8734 114.019 100.791 113.478 101.46C113.902 102.201 114.102 102.784 114.49 103.194ZM102.429 91.0107C104.046 92.8452 105.767 94.585 107.584 96.2212C108.437 97.0046 109.505 96.8318 110.336 96.0289C111.114 95.2761 111.406 94.214 110.676 93.4055C108.948 91.493 107.069 89.7143 105.22 87.9161C104.98 87.6819 104.548 87.6373 103.929 87.4199C103.425 87.799 102.558 88.1336 102.307 88.7274C102.036 89.3658 102.02 90.5228 102.429 91.0107ZM90.6479 79.257C92.2189 81.0181 93.8799 82.6968 95.6243 84.2863C96.02 84.6541 96.5443 84.8519 97.0843 84.8373C97.6244 84.8227 98.1372 84.5968 98.5125 84.2082C99.2764 83.4667 99.4492 82.1229 98.6909 81.3061C97.0823 79.5776 95.3929 77.9216 93.6727 76.2879C93.341 75.9673 92.7778 75.8836 92.0614 75.5825C91.5038 76.0286 90.6674 76.3827 90.4304 76.9765C90.1935 77.6288 90.2297 78.7579 90.6479 79.243V79.257Z" fill="#042365"/>
<path d="M13.2898 101.027C16.2087 103.313 19.6071 105.006 22.8689 106.815C24.4887 107.713 25.6066 107.4 26.3343 106.335C27.0201 105.332 26.8138 104.303 25.6457 102.99C21.0624 97.8853 18.8098 91.8718 18.5979 83.6141C18.9157 82.0919 19.2503 79.1172 20.1758 76.3433C23.8726 65.2559 18.2522 55.5261 7.68613 51.8991C6.95849 51.651 5.70951 51.8433 5.19933 52.3396C4.68915 52.8358 4.54976 54.0123 4.66406 54.8236C4.91776 56.5967 5.56176 58.314 5.82103 60.0871C6.20297 62.7161 5.61194 65.2308 4.53024 67.6451C-0.596678 79.081 2.75436 92.7779 13.2898 101.027Z" fill="#042365"/>
<path d="M93.6197 10.0217C93.9793 10.6935 94.8017 11.4156 95.521 11.5494C102.39 12.8151 108.805 15.1402 114.479 19.2802C117.735 21.6051 120.471 24.5837 122.511 28.0258C123.11 29.0518 123.966 29.6205 125.153 29.3501C126.269 29.0964 126.826 28.2907 126.901 27.1198C126.946 26.3364 127.046 25.5558 127.116 24.7724C127.133 24.5884 127.116 24.4016 127.116 24.2148C126.862 16.3529 124.139 9.82094 117.247 5.40771C109.817 0.662735 100.489 2.5808 94.3585 7.56275C93.5528 8.20954 93.1569 9.16299 93.6197 10.0217Z" fill="#042365"/>
<path d="M75.6805 31.6287C75.6832 32.949 76.0774 34.2389 76.8131 35.3353C77.5488 36.4316 78.5931 37.2853 79.8139 37.7883C81.0346 38.2912 82.3772 38.421 83.6717 38.1611C84.9662 37.9012 86.1546 37.2634 87.0867 36.3282C88.0187 35.393 88.6526 34.2025 88.9082 32.9071C89.1637 31.6117 89.0295 30.2697 88.5224 29.0506C88.0154 27.8315 87.1583 26.7901 86.0594 26.058C84.9606 25.326 83.6694 24.9361 82.3491 24.9378C81.4693 24.9299 80.5968 25.0978 79.7827 25.4315C78.9686 25.7653 78.2293 26.2582 77.6082 26.8814C76.9871 27.5045 76.4967 28.2454 76.1656 29.0606C75.8346 29.8758 75.6697 30.7489 75.6805 31.6287Z" fill="#042365"/>
<path d="M71.2302 9.30652C71.1962 9.61287 71.2261 9.92294 71.3179 10.2172C71.4098 10.5114 71.5616 10.7834 71.7639 11.016C71.9661 11.2486 72.2144 11.4367 72.493 11.5686C72.7716 11.7004 73.0745 11.7731 73.3826 11.782C73.6907 11.7908 73.9973 11.7358 74.283 11.6202C74.5688 11.5047 74.8275 11.3312 75.0428 11.1106C75.2581 10.8901 75.4254 10.6273 75.5341 10.3388C75.6427 10.0504 75.6904 9.74256 75.6741 9.43477C75.6446 8.87554 75.4057 8.34791 75.005 7.9567C74.6043 7.5655 74.071 7.33935 73.5113 7.32319C72.9515 7.30704 72.4061 7.50206 71.9835 7.86951C71.5609 8.23695 71.292 8.74993 71.2302 9.30652Z" fill="#042365"/>
<path d="M17.8121 120.598C17.7976 121.042 17.9164 121.481 18.1531 121.857C18.3899 122.234 18.7338 122.531 19.1406 122.711C19.5475 122.89 19.9988 122.944 20.4365 122.865C20.8742 122.786 21.2783 122.578 21.597 122.268C21.9157 121.958 22.1343 121.559 22.2248 121.124C22.3153 120.689 22.2736 120.236 22.105 119.825C21.9363 119.413 21.6485 119.061 21.2785 118.815C20.9085 118.568 20.4732 118.437 20.0284 118.44C19.7408 118.434 19.4549 118.486 19.1873 118.592C18.9197 118.697 18.6758 118.855 18.4696 119.056C18.2635 119.257 18.0992 119.496 17.9863 119.761C17.8734 120.026 17.8142 120.31 17.8121 120.598Z" fill="#042365"/>
</svg>
