<svg width="128" height="148" viewBox="0 0 128 148" fill="none" xmlns="http://www.w3.org/2000/svg">
<path d="M48.2027 12.9206L49.41 17.2205L15.0284 27.8365C14.5437 26.3854 14.1006 25.0532 13.6159 23.5961L5.15286 26.1713C4.26076 23.3374 3.3984 20.5451 2.47656 17.5684L10.9485 14.907C10.5352 13.4707 10.1367 12.088 9.7115 10.616C14.4961 9.12917 19.141 7.68991 23.7889 6.25958C30.0018 4.34453 36.2128 2.43345 42.4219 0.52634C42.8284 0.374646 43.2256 0.198889 43.6113 0H44.2061L45.452 4.24937L53.9805 1.65931C54.8726 4.54079 55.7499 7.33902 56.6568 10.2562L48.2027 12.9206Z" fill="#042365"/>
<path d="M124.453 17.5466C123.561 20.4549 122.698 23.2561 121.806 26.1702C119.311 25.406 116.906 24.7191 114.536 23.9281C113.578 23.6069 113.087 23.7199 112.861 24.7845C112.662 25.7391 112.296 26.6579 111.931 27.8236L77.5462 17.1927L78.7713 12.8958L70.2964 10.2403C71.1706 7.39152 72.0271 4.59033 72.94 1.61666L81.4804 4.21564L82.7739 0.00195312H83.3686C88.3793 1.58989 93.3899 3.18973 98.4095 4.75983C104.42 6.64117 110.435 8.50962 116.454 10.3652C116.677 10.4366 116.897 10.5258 117.209 10.6388C116.802 12.0126 116.412 13.3151 115.957 14.8495L124.453 17.5466Z" fill="#042365"/>
<path d="M20.6878 68.3984L2.86067 70.932C2.49491 68.4193 2.13807 66.0195 1.79907 63.5841C1.27868 59.8759 0.773154 56.1677 0.249788 52.4596C0.192851 52.2756 0.108653 52.1012 0 51.9422L0 50.4553L13.7532 48.5492L17.7885 47.9961C18.752 54.7671 19.7035 61.4668 20.6878 68.3984Z" fill="#042365"/>
<path d="M120.269 97.8029C117.703 115.847 115.154 133.784 112.582 151.876H94.3682C97.0445 133.002 99.7208 114.218 102.427 95.2812L120.269 97.8029Z" fill="#042365"/>
<path d="M32.5593 151.851H14.3545C11.8715 134.383 9.38549 116.868 6.86084 99.0798L24.7029 96.5254C27.3346 115.034 29.9395 133.387 32.5593 151.851Z" fill="#042365"/>
<path d="M72.3606 96.9453V151.896H54.5513V96.9721C60.4093 98.3461 66.5067 98.3369 72.3606 96.9453Z" fill="#042365"/>
<path d="M83.4278 44.1847C77.9087 50.5543 71.5361 55.443 63.3377 57.5454C53.926 59.963 45.793 64.5424 39.1766 71.6911C38.9994 71.8557 38.8116 72.0087 38.6146 72.1491C34.2225 62.9812 36.3219 48.0445 48.3088 39.8669C59.7931 32.0313 75.2324 34.55 83.4278 44.1847Z" fill="#042365"/>
<path d="M79.1013 84.1264C67.278 92.5776 51.4462 89.6515 43.5303 80.1447C49.1981 73.4599 55.9721 68.6693 64.4738 66.5044C73.5108 64.2028 81.2007 59.5907 87.5911 52.8018C87.7904 52.5877 88.0223 52.4063 88.2483 52.207C92.4828 60.45 91.112 75.5503 79.1013 84.1264Z" fill="#042365"/>
<path d="M127.018 50.4701C126.099 56.9081 125.195 63.2569 124.279 69.686L106.437 67.1405C107.35 60.7263 108.242 54.4459 109.17 47.9336L127.018 50.4701Z" fill="#042365"/>
<path d="M23.426 87.7274L5.584 90.264C5.08145 86.7223 4.59972 83.3294 4.09717 79.7669L21.9154 77.2363C22.412 80.6828 22.8967 84.1144 23.426 87.7274Z" fill="#042365"/>
<path d="M122.949 78.4637C122.458 82.0084 121.986 85.4073 121.489 88.9727L103.647 86.4451C104.144 82.9124 104.616 79.5551 105.134 75.9629L122.949 78.4637Z" fill="#042365"/>
</svg>
