<svg width="40" height="40" viewBox="0 0 40 40" fill="none" xmlns="http://www.w3.org/2000/svg">
<path d="M26.9387 31.5543C26.9895 31.0902 27.1043 30.5934 26.9949 30.1605C26.7996 29.3855 27.1316 29.0395 27.7699 28.7543C28.2957 28.5199 28.7777 28.1855 29.2879 27.8902L26.9441 23.834C26.2207 24.2512 25.5379 24.6246 24.873 25.0371C24.6152 25.198 24.4566 25.1613 24.2301 24.9855C23.9027 24.7316 23.5605 24.4387 23.177 24.3301C22.4082 24.1113 22.2527 23.6402 22.3293 22.9238C22.3902 22.3512 22.3418 21.766 22.3418 21.1934H17.6566C17.6566 21.9746 17.6426 22.7434 17.6629 23.5074C17.6715 23.8199 17.5848 23.9707 17.2855 24.1105C16.7463 24.3654 16.2303 24.6668 15.7434 25.0113C15.509 25.177 15.3582 25.1676 15.1301 25.0332C14.4543 24.6262 13.7652 24.241 13.0535 23.8316C12.2723 25.1918 11.4988 26.5262 10.7098 27.8879C11.4012 28.2879 12.0535 28.6879 12.7285 29.0457C13.0207 29.202 13.073 29.3793 13.041 29.6895C12.9934 30.2043 12.9504 30.7348 13.0254 31.241C13.0941 31.7051 12.9801 31.9387 12.5637 32.1449C11.9285 32.4574 11.3293 32.848 10.7051 33.2082C11.5012 34.5863 12.273 35.9207 13.0488 37.2629C13.8012 36.8293 14.5137 36.4262 15.2176 36.0074C15.3902 35.9051 15.498 35.9293 15.6652 36.034C16.2238 36.3863 16.7926 36.7262 17.3793 37.0285C17.5879 37.1363 17.6574 37.2387 17.6543 37.4621C17.6426 38.3082 17.6496 39.1543 17.6496 40.0004H22.3371C22.3371 39.1543 22.3441 38.3082 22.3324 37.4621C22.3324 37.2395 22.398 37.1363 22.6074 37.0293C23.1887 36.734 23.7504 36.4066 24.2973 36.0574C24.4879 35.9355 24.6098 35.9012 24.8113 36.0215C25.509 36.4402 26.2176 36.8402 26.9473 37.2613L29.291 33.2027C28.5613 32.7809 27.8691 32.3723 27.1668 31.9809C26.9785 31.8754 26.9145 31.7754 26.9387 31.5543ZM19.977 34.0629C19.281 34.0582 18.6021 33.8471 18.0262 33.4562C17.4504 33.0653 17.0035 32.5123 16.7422 31.8673C16.4809 31.2222 16.4169 30.5141 16.5584 29.8327C16.6999 29.1512 17.0404 28.5271 17.5369 28.0394C18.0334 27.5517 18.6635 27.2223 19.3474 27.0929C20.0312 26.9636 20.7381 27.0402 21.3784 27.3129C22.0187 27.5857 22.5636 28.0424 22.9442 28.6251C23.3247 29.2078 23.5237 29.8904 23.516 30.5863C23.5033 31.5152 23.1243 32.4016 22.4616 33.0526C21.7989 33.7036 20.9059 34.0667 19.977 34.0629Z" fill="white"/>
<path d="M25.2674 7.10312H22.3494V18.8062H17.6697V7.10938H14.7236C16.5049 4.70937 18.2354 2.37734 20.0002 0L25.2674 7.10312Z" fill="white"/>
<path d="M32.8833 19.4172V16.5117C32.3528 16.5117 31.8411 16.4516 31.3489 16.5234C30.1864 16.6922 29.3841 17.6562 29.3747 18.8352C29.3646 20.1633 29.3747 21.4914 29.3747 22.8195V23.1906L29.2966 23.2102L27.8005 20.632L24.7653 22.3773C24.7302 22.35 24.695 22.3359 24.6958 22.3219C24.7138 20.8266 24.6349 19.3211 24.7739 17.8367C25.0599 14.8336 27.7231 12.2117 30.7208 11.875C31.4161 11.7969 32.1208 11.7969 32.8638 11.7594V8.85156L39.9997 14.1406L32.8833 19.4172Z" fill="white"/>
<path d="M15.2953 22.4141L13.7328 21.5102L12.1953 20.6242L10.6508 23.2906C10.6375 23.0906 10.6234 22.9836 10.6234 22.8766C10.6234 21.5617 10.6234 20.2469 10.6234 18.932C10.618 17.4789 9.62031 16.4883 8.16484 16.4805C7.82812 16.4805 7.49219 16.4805 7.1125 16.4805V19.4133L0 14.1398L7.09844 8.875V11.7961C7.5125 11.7961 7.89688 11.7961 8.28203 11.7961C9.85701 11.796 11.3862 12.3258 12.6236 13.3002C13.861 14.2746 14.7346 15.6369 15.1039 17.168C15.2081 17.5442 15.2694 17.9311 15.2867 18.3211C15.3125 19.6594 15.2953 21 15.2953 22.4141Z" fill="white"/>
<path d="M21.1719 30.5469C21.1719 30.7792 21.1028 31.0062 20.9735 31.1992C20.8442 31.3922 20.6605 31.5423 20.4457 31.6307C20.2309 31.719 19.9947 31.7415 19.767 31.6954C19.5394 31.6492 19.3306 31.5364 19.1672 31.3713C19.0038 31.2063 18.8931 30.9964 18.8492 30.7683C18.8053 30.5402 18.8302 30.3042 18.9207 30.0903C19.0112 29.8764 19.1632 29.6942 19.3575 29.5668C19.5517 29.4395 19.7795 29.3727 20.0117 29.3751C20.3195 29.3811 20.6129 29.5069 20.8295 29.7257C21.0461 29.9445 21.1689 30.2391 21.1719 30.5469Z" fill="white"/>
</svg>
