<svg width="41" height="26" viewBox="0 0 41 26" fill="none" xmlns="http://www.w3.org/2000/svg">
<path d="M40.0051 14.126V25.2429H36.846V14.5844H35.3647V25.2282H26.4812V14.5864H24.9542V25.2286H21.8064V25.0106C21.8064 21.5112 21.8308 18.0119 21.7981 14.5129C21.777 12.2839 23.2306 10.3599 25.6372 9.89257C26.0352 9.81209 26.4398 9.76906 26.8458 9.76404C29.561 9.75313 32.2762 9.75313 34.9915 9.76404C36.1866 9.77072 37.304 10.0772 38.2631 10.824C39.2907 11.6252 39.8579 12.6838 39.9787 13.9818C39.9849 14.0303 39.9938 14.0784 40.0051 14.126Z" fill="white"/>
<path d="M23.4402 9.76248C22.9394 10.0613 22.481 10.3908 22.0934 10.8117C21.149 11.838 20.7491 13.0675 20.7477 14.4429C20.7464 17.052 20.7464 19.661 20.7477 22.2698V25.2287H15.4674V14.5841H13.9454V25.229H10.7943V25.0077C10.7943 21.5083 10.8136 18.0094 10.7873 14.5104C10.7702 12.2636 12.2278 10.3581 14.6291 9.89335C15.0934 9.80549 15.5647 9.76079 16.0372 9.75981C18.4509 9.74679 20.8656 9.7538 23.2816 9.75413C23.3333 9.75514 23.3864 9.75981 23.4402 9.76248Z" fill="white"/>
<path d="M12.3996 9.76061C12.0237 10.0487 11.615 10.3128 11.2645 10.6396C10.4019 11.4452 9.94016 12.4651 9.7926 13.6282C9.75766 13.9264 9.74138 14.2266 9.74386 14.5269C9.74053 18.0153 9.73986 21.5037 9.74186 24.9921V25.2291H4.68984V14.5846H3.16987V25.2291H0.0123986V25.0085C0.0123986 21.5145 0.032763 18.0202 0.00505415 14.5259C-0.0133071 12.2601 1.44524 10.3652 3.83254 9.89515C4.30198 9.80554 4.7788 9.76027 5.25671 9.75994C7.59359 9.74659 9.93048 9.75393 12.2674 9.75427C12.3208 9.75493 12.3742 9.75961 12.3996 9.76061Z" fill="white"/>
<path d="M12.3653 4.35151C12.368 4.83778 12.2747 5.31981 12.0908 5.76996C11.9069 6.22012 11.636 6.62955 11.2935 6.97479C10.9511 7.32003 10.5438 7.5943 10.0952 7.78186C9.64655 7.96943 9.16529 8.06661 8.67902 8.06783C6.65761 8.08018 4.99408 6.43201 4.98006 4.39959C4.96671 2.35581 6.60453 0.688943 8.63996 0.675924C9.12619 0.671655 9.60847 0.763449 10.0591 0.94604C10.5098 1.12863 10.92 1.39842 11.2661 1.73993C11.6122 2.08144 11.8875 2.48794 12.0761 2.9361C12.2648 3.38427 12.363 3.86527 12.3653 4.35151Z" fill="white"/>
<path d="M23.8145 4.3643L19.4536 8.73261L15.0869 4.36497L19.4505 0L23.8145 4.3643Z" fill="white"/>
<path d="M35.6654 1.41797C34.0176 3.88405 32.3804 6.33545 30.7269 8.81021C29.0764 6.33979 27.4396 3.88806 25.7891 1.41797H35.6654Z" fill="white"/>
</svg>
