<svg width="41" height="33" viewBox="0 0 41 33" fill="none" xmlns="http://www.w3.org/2000/svg">
<path d="M14.4664 23.7288H14.8821C16.2308 23.7288 17.4908 24.4523 18.1716 25.6158C18.2001 25.6637 18.2402 25.7037 18.2882 25.732C18.3363 25.7603 18.3907 25.7759 18.4464 25.7775H22.0447C22.2908 25.7775 22.5229 25.7201 22.7464 25.6393C22.7525 25.6306 22.7638 25.6262 22.769 25.6166C23.1729 24.9312 23.781 24.3891 24.5082 24.0662C24.8377 23.854 25.2203 23.7253 25.6273 23.7253H38.0099V3.82099C38.0099 1.95143 36.4882 0.429688 34.6186 0.429688H6.31425C4.44468 0.429688 2.93164 1.95143 2.93164 3.8123V23.7253H14.4447C14.4525 23.7253 14.4595 23.7279 14.4664 23.7288ZM6.4099 3.90795H34.5316V20.2471H6.4099V3.90795Z" fill="white"/>
<path d="M40.0357 25.4684H26.0592C25.3227 25.4684 24.6418 25.8588 24.2705 26.4945C23.8992 27.1301 23.2183 27.5206 22.4827 27.5206H18.4583C17.7227 27.5206 17.0409 27.1293 16.6705 26.4945C16.3001 25.8597 15.6183 25.4684 14.8818 25.4684H1.77484C1.54422 25.4684 1.32304 25.56 1.15996 25.7231C0.996888 25.8862 0.905273 26.1073 0.905273 26.338V28.1293C0.905273 29.2409 1.34686 30.3069 2.13288 31.093C2.9189 31.879 3.98497 32.3206 5.09658 32.3206H36.714C37.8256 32.3206 38.8916 31.879 39.6777 31.093C40.4637 30.3069 40.9053 29.2409 40.9053 28.1293V26.338C40.9053 26.1073 40.8137 25.8862 40.6506 25.7231C40.4875 25.56 40.2663 25.4684 40.0357 25.4684ZM13.9131 29.8684H4.89919C4.66856 29.8684 4.44739 29.7768 4.28431 29.6137C4.12124 29.4506 4.02962 29.2295 4.02962 28.9988C4.02962 28.7682 4.12124 28.547 4.28431 28.384C4.44739 28.2209 4.66856 28.1293 4.89919 28.1293H13.914C14.1446 28.1293 14.3658 28.2209 14.5288 28.384C14.6919 28.547 14.7835 28.7682 14.7835 28.9988C14.7835 29.2295 14.6919 29.4506 14.5288 29.6137C14.3658 29.7768 14.1437 29.8684 13.9131 29.8684ZM32.4992 29.7641H31.9922C31.7616 29.7641 31.5404 29.6724 31.3774 29.5094C31.2143 29.3463 31.1227 29.1251 31.1227 28.8945C31.1227 28.6639 31.2143 28.4427 31.3774 28.2796C31.5404 28.1165 31.7616 28.0249 31.9922 28.0249H32.4992C32.7298 28.0249 32.951 28.1165 33.1141 28.2796C33.2771 28.4427 33.3688 28.6639 33.3688 28.8945C33.3688 29.1251 33.2771 29.3463 33.1141 29.5094C32.951 29.6724 32.7298 29.7641 32.4992 29.7641ZM36.6514 29.7641H36.1435C35.9129 29.7641 35.6917 29.6724 35.5287 29.5094C35.3656 29.3463 35.274 29.1251 35.274 28.8945C35.274 28.6639 35.3656 28.4427 35.5287 28.2796C35.6917 28.1165 35.9129 28.0249 36.1435 28.0249H36.6514C36.882 28.0249 37.1032 28.1165 37.2662 28.2796C37.4293 28.4427 37.5209 28.6639 37.5209 28.8945C37.5209 29.1251 37.4293 29.3463 37.2662 29.5094C37.1032 29.6724 36.882 29.7641 36.6514 29.7641ZM30.9905 6.91797H25.2905C25.0599 6.91797 24.8387 7.00958 24.6756 7.17266C24.5125 7.33573 24.4209 7.55691 24.4209 7.78753C24.4209 8.01816 24.5125 8.23933 24.6756 8.40241C24.8387 8.56548 25.0599 8.6571 25.2905 8.6571H30.9896C31.2202 8.6571 31.4414 8.56548 31.6045 8.40241C31.7676 8.23933 31.8592 8.01816 31.8592 7.78753C31.8592 7.55691 31.7676 7.33573 31.6045 7.17266C31.4414 7.00958 31.2211 6.91797 30.9905 6.91797ZM30.9905 11.2119H25.2905C25.0599 11.2119 24.8387 11.3035 24.6756 11.4666C24.5125 11.6296 24.4209 11.8508 24.4209 12.0814C24.4209 12.3121 24.5125 12.5332 24.6756 12.6963C24.8387 12.8594 25.0599 12.951 25.2905 12.951H30.9896C31.2202 12.951 31.4414 12.8594 31.6045 12.6963C31.7676 12.5332 31.8592 12.3121 31.8592 12.0814C31.8592 11.8508 31.7676 11.6296 31.6045 11.4666C31.4414 11.3035 31.2211 11.2119 30.9905 11.2119ZM30.9905 15.5058H25.2905C25.0599 15.5058 24.8387 15.5974 24.6756 15.7605C24.5125 15.9236 24.4209 16.1447 24.4209 16.3754C24.4209 16.606 24.5125 16.8272 24.6756 16.9902C24.8387 17.1533 25.0599 17.2449 25.2905 17.2449H30.9896C31.2202 17.2449 31.4414 17.1533 31.6045 16.9902C31.7676 16.8272 31.8592 16.606 31.8592 16.3754C31.8592 16.1447 31.7676 15.9236 31.6045 15.7605C31.4414 15.5974 31.2211 15.5058 30.9905 15.5058ZM19.314 13.5084C18.4444 14.4301 17.2183 15.0041 15.8531 15.0041C14.4966 15.0041 13.2618 14.4301 12.4009 13.5084C11.8044 13.7587 11.295 14.1792 10.9362 14.7174C10.5773 15.2556 10.3851 15.8876 10.3835 16.5345V18.5084H21.3314V16.5345C21.3314 15.178 20.5053 14.0128 19.314 13.5084ZM15.8531 13.2649C16.2572 13.2746 16.6591 13.2034 17.0352 13.0554C17.4114 12.9075 17.7541 12.6858 18.0433 12.4035C18.3325 12.1211 18.5624 11.7838 18.7193 11.4113C18.8762 11.0388 18.957 10.6387 18.957 10.2345C18.957 9.8303 18.8762 9.4302 18.7193 9.05771C18.5624 8.68522 18.3325 8.34788 18.0433 8.06552C17.7541 7.78316 17.4114 7.56149 17.0352 7.41354C16.6591 7.2656 16.2572 7.19438 15.8531 7.20406C15.0619 7.22301 14.3096 7.55061 13.7567 8.11686C13.2039 8.68311 12.8944 9.44311 12.8944 10.2345C12.8944 11.0259 13.2039 11.7859 13.7567 12.3521C14.3096 12.9184 15.0619 13.246 15.8531 13.2649Z" fill="white"/>
</svg>
