<svg width="32" height="40" viewBox="0 0 32 40" fill="none" xmlns="http://www.w3.org/2000/svg">
<path d="M8.15982 37.6927C6.56438 34.8585 4.96153 32.0277 3.35128 29.2004C3.05042 28.6704 2.58205 28.5491 2.04786 28.8388C1.59743 29.0815 1.13504 29.3106 0.718803 29.6029C0.44188 29.7969 0.236752 30.0927 0 30.3422V30.6841C1.6282 33.5627 3.24786 36.4448 4.89316 39.3166C5.04615 39.5841 5.33162 39.7756 5.55555 40.0003H6.06837C6.64102 39.6653 7.21538 39.3345 7.78461 38.9935C8.31538 38.6756 8.4564 38.2191 8.15982 37.6927ZM2.26239 31.5978C2.1845 31.5944 2.10806 31.5756 2.03753 31.5423C1.967 31.5091 1.90379 31.4621 1.8516 31.4042C1.79941 31.3463 1.75927 31.2786 1.73354 31.205C1.7078 31.1314 1.69698 31.0534 1.70171 30.9756C1.7282 30.6268 1.9282 30.4354 2.27778 30.4234C2.3558 30.4214 2.43342 30.4353 2.50592 30.4642C2.57842 30.4932 2.64429 30.5365 2.69952 30.5917C2.75475 30.6468 2.7982 30.7126 2.82723 30.7851C2.85625 30.8575 2.87025 30.9351 2.86837 31.0132C2.86368 31.1709 2.79731 31.3205 2.68352 31.4298C2.56973 31.5391 2.41761 31.5994 2.25983 31.5978H2.26239Z" fill="white"/>
<path d="M31.5254 29.0704C31.4561 29.3967 31.2666 29.685 30.9947 29.8781C27.3374 32.1602 23.663 34.414 19.9912 36.6713C19.0092 37.2747 17.9801 37.4337 16.8442 37.1149C14.2853 36.3978 11.7101 35.7268 9.14596 35.0516C8.86989 34.979 8.57331 34.9867 8.18442 34.9473L5.2998 29.8456C6.8545 28.9815 8.37673 28.12 9.91519 27.2969C10.628 26.9191 11.3989 26.9713 12.1588 27.22C13.8058 27.7602 15.4519 28.3021 17.1041 28.8268C17.5229 28.9602 17.9665 29.0106 18.3861 29.1337C19.1784 29.3653 19.4759 30.267 18.963 30.8662C18.6212 31.267 18.1579 31.2687 17.7032 31.1542C16.5314 30.8585 15.3673 30.5371 14.1989 30.226C14.1135 30.2038 14.0348 30.179 13.9519 30.1593C13.4784 30.0422 13.1118 30.226 13.0118 30.6311C12.9186 31.0029 13.1442 31.3345 13.6041 31.4696C14.463 31.7217 15.3195 31.9867 16.1878 32.2029C16.9451 32.3918 17.7143 32.5388 18.4844 32.6704C19.6989 32.8798 20.8203 32.6191 21.8801 31.9909C23.8511 30.8243 25.8357 29.6832 27.816 28.5311C28.5442 28.1038 29.2938 27.7285 30.1502 27.6491C31.0878 27.5627 31.6887 28.155 31.5254 29.0704Z" fill="white"/>
<path d="M25.2571 7.32734C23.3998 5.56324 23.6596 5.96666 23.0665 3.53504C22.8468 2.6359 22.246 2.08205 21.3186 1.94273C20.9661 1.89345 20.6104 1.8706 20.2545 1.87436C19.3653 1.88574 18.5006 1.58308 17.8126 1.01966C17.3092 0.618803 16.7126 0.335897 16.1537 0H15.3844C14.9212 0.269231 14.4041 0.476068 14.0067 0.820512C13.1144 1.58974 12.1067 1.93162 10.946 1.88632C10.6753 1.88091 10.4048 1.9047 10.1391 1.95726C9.36051 2.1 8.83572 2.56239 8.55282 3.29401C8.46969 3.50605 8.4123 3.72729 8.38188 3.95299C8.22376 5.20085 7.67162 6.21794 6.65965 6.97777C6.53904 7.07697 6.42485 7.18374 6.31777 7.29743C5.60495 7.99657 5.43743 8.89999 5.85966 9.79999C5.99897 10.0957 6.13743 10.3983 6.3041 10.6743C6.74348 11.3841 6.90312 12.232 6.75196 13.053C6.69983 13.347 6.68017 13.6461 6.63829 13.9419C6.48444 15.0367 6.94512 15.9538 8.00153 16.3171C9.40666 16.8 10.4802 17.6128 11.134 18.9564C11.1487 18.9808 11.165 19.0042 11.1827 19.0265C11.781 19.9077 12.6502 20.2282 13.6742 19.9282C16.0554 19.2308 15.5058 19.2299 17.8853 19.9282L17.9255 19.9402C18.9032 20.2119 19.7767 19.8983 20.352 19.059C20.5941 18.7068 20.828 18.3496 21.0537 17.9872C21.3797 17.4462 21.8773 17.0298 22.4673 16.8043C22.8904 16.6384 23.3084 16.4555 23.7186 16.2598C24.138 16.0708 24.4839 15.7496 24.7036 15.3453C24.9232 14.9411 25.0044 14.4761 24.9349 14.0214C24.893 13.6974 24.8605 13.3709 24.8066 13.0479C24.6716 12.2316 24.7802 11.4658 25.2143 10.7479C25.3918 10.4395 25.5527 10.122 25.6964 9.79657C26.1049 8.91538 25.9613 7.99572 25.2571 7.32734ZM15.7742 15.9983C14.5904 15.9973 13.4335 15.6451 12.4499 14.9863C11.4663 14.3275 10.7003 13.3917 10.2487 12.2974C9.7972 11.2031 9.68046 9.99942 9.91328 8.83873C10.1461 7.67803 10.718 6.6125 11.5567 5.77697C12.3953 4.94145 13.4629 4.37349 14.6245 4.14499C15.7861 3.91649 16.9893 4.03771 18.0819 4.49331C19.1745 4.94892 20.1075 5.71842 20.7626 6.70444C21.4177 7.69046 21.7656 8.84866 21.7622 10.0325C21.7621 10.8178 21.607 11.5953 21.3057 12.3205C21.0045 13.0457 20.5631 13.7043 20.0068 14.2586C19.4504 14.8128 18.7902 15.2518 18.0639 15.5503C17.3376 15.8489 16.5595 16.0011 15.7742 15.9983Z" fill="white"/>
<path d="M13.5899 21.3663L11.4993 25.868C10.9369 24.8988 10.4087 24.0064 9.90019 23.1039C9.76856 22.8697 9.63694 22.8013 9.36087 22.8552C8.34549 23.0535 7.32241 23.2176 6.2207 23.409L8.69933 18.0723C8.91557 18.2774 9.11643 18.4304 9.26942 18.6227C9.46146 18.8699 9.63488 19.131 9.78822 19.4039C10.6216 20.8389 11.8301 21.5475 13.5899 21.3663Z" fill="white"/>
<path d="M25.3278 22.4674C24.2663 22.2512 23.2663 22.064 22.2757 21.8375C21.9569 21.764 21.7911 21.8298 21.6261 22.111C21.1817 22.8717 20.7047 23.6144 20.2389 24.3631C20.1663 24.4794 20.0834 24.5896 19.9714 24.7503C19.4877 23.6281 19.0312 22.5631 18.5518 21.4572C18.6604 21.4283 18.7706 21.4052 18.8817 21.3879C20.021 21.276 20.8868 20.7187 21.5159 19.776C21.721 19.4683 21.927 19.1597 22.1141 18.8418C22.3885 18.3751 22.7877 18.0854 23.3663 17.9238L25.3278 22.4674Z" fill="white"/>
<path d="M19.0125 8.74226C18.3151 9.39268 17.6031 10.0243 16.8971 10.6696C16.3176 11.1961 15.7399 11.7252 15.1552 12.2465C14.7535 12.6055 14.4202 12.6012 14.0356 12.2252C13.537 11.738 13.0444 11.2442 12.5578 10.744C12.2288 10.4072 12.2014 10.0038 12.4723 9.71833C12.7664 9.40978 13.1604 9.42773 13.5236 9.78414C13.8869 10.1405 14.2373 10.5115 14.6134 10.8952L17.9082 7.91149C17.9715 7.85422 18.0322 7.79354 18.0988 7.74055C18.4475 7.45508 18.8185 7.45935 19.0886 7.75081C19.3587 8.04226 19.3287 8.44739 19.0125 8.74226Z" fill="white"/>
</svg>
