<svg width="193" height="119" viewBox="0 0 193 119" fill="none" xmlns="http://www.w3.org/2000/svg">
<g opacity="0.6" clip-path="url(#clip0_2202_37143)">
<path fill-rule="evenodd" clip-rule="evenodd" d="M79.0413 24.1445C157.795 27.7457 150.596 94.7943 68 113.413C135.974 90.2024 150.744 32.3572 79.0413 24.1445Z" fill="#042365"/>
<path fill-rule="evenodd" clip-rule="evenodd" d="M82.7567 21.9492C161.481 25.5521 161.907 93.3258 79.3428 111.949C152.525 88.9322 160.269 30.3937 82.7567 21.9492Z" fill="#C3001D"/>
<path fill-rule="evenodd" clip-rule="evenodd" d="M152.61 117.621C96.2126 120.791 48.3985 120.791 -8 117.621C48.3985 114.449 96.2126 114.449 152.61 117.621Z" fill="#042365"/>
<path d="M42.9337 24.9358L43.7508 25.3447H54.1654V20.4793H56.0687L57.84 23.6326L65.2449 23.4742V22.6718C65.6019 22.6031 65.9544 22.5126 66.3005 22.4009L66.5695 23.4486H67.5846L67.8993 21.0262L77.9078 20.8217L79.268 23.1522L80.2831 23.2238L80.8261 20.4793C80.8261 20.4793 78.796 19.3141 78.6488 18.5577C78.5016 17.8014 83.0085 14.7196 83.0085 14.7196C83.0085 14.7196 83.0085 11.7759 84.6428 10.4011C86.2771 9.02635 89.8146 8.2802 92.809 9.99227C95.8035 11.7043 96.8287 14.7196 96.8287 15.614C96.8287 16.5084 94.5854 19.8609 94.5854 19.8609C94.5854 19.8609 95.6613 20.8013 95.1893 21.7008C95.1893 21.7008 98.6406 25.3345 100.518 27.8336C100.87 28.3161 101.196 28.8177 101.493 29.3361L102.412 22.4009H103.427L102.665 31.4877C103.965 34.043 105.081 36.7006 105.081 36.7006L103.985 38.2797C103.985 38.2797 106.015 39.2252 106.015 41.2797V46.0122C106.755 47.3606 107.09 48.8964 106.979 50.4329C106.822 53.1211 105.883 58.4873 105.883 58.4873H101.092C101.092 58.4873 100.691 62.1158 100.077 63.0869C99.4628 64.0579 101.092 66.0817 101.092 66.0817C101.092 66.0817 101.965 66.557 102.031 69.8738C102.097 73.1906 100.067 78.8737 99.4374 79.8192C98.808 80.7646 96.1486 81.8634 96.1486 81.8634L95.2046 84.8634C95.2046 84.8634 97.4022 85.9724 97.2347 87.0763C97.0672 88.1802 98.4883 87.2347 98.9603 90.2347C99.4323 93.2346 98.6456 100.492 98.6456 101.759C98.6456 103.027 100.544 108.546 101.082 109.016C101.387 109.421 101.605 109.885 101.723 110.38C101.841 110.874 101.855 111.387 101.766 111.888C101.676 112.388 101.484 112.864 101.202 113.285C100.92 113.707 100.554 114.065 100.128 114.337C98.7167 114.081 97.392 117.071 97.392 117.071C97.392 117.071 90.7941 117.546 90.7941 117.071C90.7941 116.595 89.9364 114.326 91.3016 113.084C92.6669 111.843 94.6513 111.193 93.7733 106.809C93.8291 104.805 92.0477 101.442 90.7941 99.5463C89.5405 97.6502 89.3832 93.7048 89.3832 93.7048C89.3832 93.7048 86.272 91.1648 85.6629 88.1649C85.0539 85.1649 86.6019 79.9571 86.6019 79.9571L86.2923 69.4854L74.6698 79.3234L72.3148 82.4818V85.1496C72.3148 85.1496 73.2588 87.3625 72.3148 87.6742C71.3708 87.986 72.9441 89.8871 72.3148 92.7287C71.6855 95.5702 69.1833 102.04 69.1833 102.04L67.9246 101.729L65.4174 108.372V117.858C65.4174 117.858 60.8496 118.333 59.327 117.546C57.8044 116.759 57.6014 115.65 57.6014 115.65C57.6014 115.65 54.1502 115.967 51.8003 113.606C49.4504 111.245 50.0747 108.556 52.7392 108.715C55.4038 108.873 60.266 106.977 60.266 106.977L61.6566 98.9023C61.6566 98.9023 60.8699 94.8138 61.3419 92.2585C61.8139 89.7032 62.4382 87.6589 62.4382 87.6589L61.4993 85.4511C61.4993 85.4511 60.2457 80.5551 62.4382 78.0304C63.559 76.6868 64.8217 75.4701 66.2041 74.4019C66.2041 74.4019 65.7321 70.1396 66.5137 69.0306C67.2953 67.9215 73.7257 59.7496 73.5684 59.2743C73.4111 58.799 73.8831 55.1858 73.8831 55.1858L71.2185 52.5027L71.0967 50.7753H69.6147C69.6147 50.7753 69.6756 48.2864 69.6147 47.2643C69.5843 46.697 70.239 46.7532 70.8227 46.9321L70.5943 43.6613L73.8831 43.8197C73.8831 43.8197 74.1775 41.9492 74.4515 40.646C74.7256 39.3428 76.3548 38.0447 76.3548 38.0447L75.0047 36.5983L73.6445 36.9408C73.6445 36.9408 73.6445 40.7124 72.9645 41.5403C72.2844 42.3683 68.9143 41.249 68.9143 41.249C68.1364 41.8964 67.3176 42.4922 66.4629 43.0327C66.0569 43.1706 66.534 44.5658 64.3567 45.2251C62.1794 45.8844 58.7738 43.3035 58.4338 41.3155C58.0937 39.3274 60.4081 36.9305 60.4081 36.9305L61.4942 36.6546L62.2656 32.1316C63.6918 30.9 66.0062 30.4656 66.0062 30.4656C66.191 30.1464 66.3295 29.8022 66.4173 29.4434C66.4173 29.1674 66.1432 28.2118 65.8742 28.2782C65.7727 28.2782 64.6155 28.3395 63.1792 28.3702V29.0397H60.134V28.452L57.3882 28.498L57.3223 26.8523L55.348 27.0619L55.0739 28.2935H54.0588V26.9239H43.8473L43.1672 27.1947H41V24.9358H42.9337ZM69.6147 23.4946H75.7407V22.4009H69.6147V23.4946Z" fill="#042365"/>
</g>
<defs>
<clipPath id="clip0_2202_37143">
<rect width="200.856" height="120" fill="white" transform="translate(-8)"/>
</clipPath>
</defs>
</svg>
