<svg width="127" height="127" viewBox="0 0 127 127" fill="none" xmlns="http://www.w3.org/2000/svg">
<path d="M121.704 56.4828C119.732 56.5993 117.75 56.5051 115.85 56.5051C110.768 31.3457 95.7262 16.3215 70.4949 11.1348C70.4949 9.31912 70.4007 7.3025 70.5173 5.2958C70.671 2.69627 69.6714 0.922734 67.2207 0H59.7793C57.3286 0.922734 56.329 2.69627 56.4828 5.2958C56.5993 7.28018 56.5051 9.24967 56.5051 11.1472C31.3482 16.2347 16.3016 31.2663 11.1423 56.5051C9.31912 56.5051 7.3025 56.5993 5.2958 56.4828C2.69627 56.329 0.922734 57.3286 0 59.7793V67.2207C0.922734 69.6714 2.69627 70.671 5.2958 70.5173C7.28018 70.4007 9.24967 70.4949 11.1472 70.4949C16.2347 95.6518 31.2663 110.698 56.5051 115.858C56.5051 117.681 56.5993 119.698 56.4828 121.704C56.329 124.304 57.3286 126.077 59.7793 127H67.2207C69.6714 126.077 70.671 124.304 70.5173 121.704C70.4007 119.732 70.4949 117.75 70.4949 115.853C95.6494 110.763 110.698 95.7461 115.858 70.4949C117.681 70.4949 119.698 70.4007 121.704 70.5173C124.304 70.671 126.077 69.6714 127 67.2207V59.7793C126.077 57.3286 124.304 56.329 121.704 56.4828ZM91.1126 65.8168C91.1647 68.8529 92.7968 70.4676 95.8255 70.49C97.6362 70.5048 99.447 70.49 101.283 70.49C99.1543 85.1991 86.1343 98.8715 70.5048 101.295C70.5048 99.5139 70.5048 97.7528 70.5048 95.9941C70.49 92.7323 68.895 91.1324 65.6282 91.1076C64.1003 91.0952 62.5698 91.0704 61.0419 91.1076C58.162 91.187 56.5522 92.8439 56.5224 95.7238C56.5026 97.5692 56.5224 99.4147 56.5224 101.28C41.2328 98.9757 27.9598 85.5216 25.7324 70.4875C27.4687 70.4875 29.205 70.4875 30.924 70.4875C34.3371 70.4875 35.8849 68.9074 35.9073 65.4596C35.9073 64.0135 35.9321 62.5649 35.9073 61.1187C35.8428 58.1571 34.2057 56.5324 31.2613 56.5051C29.4481 56.4877 27.6349 56.5051 25.6332 56.5051C26.869 49.5321 30.0506 43.0503 34.8109 37.8073C40.6301 31.3333 47.8259 27.2901 56.5274 25.591C56.5274 27.563 56.515 29.3737 56.5274 31.1869C56.5522 34.2057 58.1744 35.8378 61.213 35.8849C62.7831 35.9097 64.3558 35.9197 65.9259 35.8849C68.8702 35.818 70.4825 34.166 70.5073 31.2093C70.5247 29.396 70.5073 27.5853 70.5073 25.7522C84.269 27.5779 98.6433 39.9852 101.33 56.51H96.2744C92.6157 56.51 91.1126 58.0306 91.1076 61.719C91.1051 63.0907 91.0878 64.455 91.1126 65.8168Z" fill="#042365"/>
<path d="M72.0324 63.3741C72.0324 65.0612 71.5321 66.7105 70.5947 68.1133C69.6574 69.5161 68.3251 70.6094 66.7664 71.2551C65.2077 71.9007 63.4926 72.0697 61.8378 71.7405C60.1831 71.4114 58.6631 70.5989 57.4702 69.4059C56.2772 68.2129 55.4647 66.693 55.1356 65.0383C54.8064 63.3835 54.9754 61.6684 55.621 60.1097C56.2667 58.5509 57.36 57.2187 58.7628 56.2814C60.1656 55.344 61.8149 54.8438 63.502 54.8438C65.7614 54.8535 67.9254 55.7554 69.5231 57.353C71.1207 58.9507 72.0226 61.1147 72.0324 63.3741Z" fill="#042365"/>
</svg>
