<svg width="139" height="124" viewBox="0 0 139 124" fill="none" xmlns="http://www.w3.org/2000/svg">
<path d="M121.675 41.1034L125.052 49.2549C125.63 51.3077 126.37 53.3258 126.768 55.4122C127.719 60.3883 128.525 65.3892 129.335 70.3881C129.395 70.7699 129.135 71.4477 128.829 71.6045C126.038 73.0338 123.122 74.0564 119.913 73.8331C116.704 73.6097 114.586 71.9742 113.457 69.0255C111.707 64.5743 111.498 59.6651 112.865 55.0816C113.911 51.469 114.767 47.8181 113.692 44.0753C113.242 42.5232 112.391 41.0861 111.696 39.6082C111.214 38.5827 110.672 37.5767 110.191 36.5616C108.802 33.6282 109.589 31.0507 112.388 29.3484C112.883 29.0479 113.384 28.7557 114.079 28.345C115.574 30.7106 117.064 32.9751 118.457 35.2983C119.583 37.1979 120.601 39.1691 121.675 41.1034Z" fill="#042365"/>
<path d="M42.6512 97.8287C44.4632 102.203 43.3464 105.929 39.362 108.384C37.731 109.387 35.879 110.035 34.1305 110.846C33.4667 111.154 32.9993 110.988 32.5193 110.409C28.1965 105.184 24.3702 99.6364 21.3802 93.5321C21.1781 93.1697 20.9555 92.8192 20.7133 92.4823L17.2398 84.0979C16.6777 82.0823 16.0465 80.0845 15.5525 78.0489C14.9791 75.7296 14.5346 73.3788 13.9874 71.0569C13.8313 70.3903 13.9902 70.0952 14.6349 69.8336C18.2438 68.3685 21.0272 69.5676 22.3188 73.232C23.019 75.2121 23.6764 77.2073 24.3235 79.2041C24.9621 81.1333 26.1595 82.8293 27.7638 84.0767C29.5782 85.5024 31.4825 86.8098 33.4648 87.9909C37.4703 90.3945 40.8135 93.4191 42.6512 97.8287Z" fill="#042365"/>
<path d="M109.585 69.989C107.421 64.6803 107.511 59.2785 109.015 53.8144C109.498 52.035 109.854 50.2235 110.08 48.3937C110.315 46.6744 109.967 44.9257 109.092 43.4274C108.11 41.7166 107.301 39.9072 106.462 38.1207C105.191 35.4139 105.203 32.683 106.441 29.9623C107.463 27.7246 109.212 26.2112 111.447 25.1051C111.155 24.7351 110.911 24.4104 110.651 24.098C106.432 19.0361 101.769 14.3619 96.7168 10.1312C90.4407 4.86169 82.2143 7.24098 79.783 15.0591C78.5334 19.1311 76.3543 22.8569 73.4177 25.9422C73.0065 26.4238 72.795 27.0444 72.8266 27.6769C73.1121 30.724 73.5261 33.7587 73.8746 36.7932C74.2392 39.9985 72.8091 42.6457 69.8584 43.9145C65.2659 45.888 60.6475 47.8013 56.0033 49.6543C53.0007 50.8573 50.1846 50.0402 48.1115 47.5127C46.1129 45.0663 44.1704 42.6102 42.1382 40.2077C41.8099 39.817 41.2091 39.4274 40.7241 39.4291C36.2633 39.4107 32.1337 38.2291 28.2059 36.1316C21.5082 32.5648 13.8155 36.7395 13.1203 44.2695C12.4897 51.0399 12.4855 57.8541 13.1079 64.6253C13.145 65.0574 13.2084 65.4869 13.2677 65.9726C13.5923 65.8736 13.7537 65.8285 13.909 65.7751C19.0173 63.9972 24.054 66.3475 25.9654 71.4223C26.3801 72.5221 26.785 73.6314 27.0785 74.7678C27.9355 77.93 29.2684 80.7587 32.2073 82.5373C33.2129 83.1467 34.2029 83.7843 35.2295 84.3523C40.4133 87.2092 44.243 91.3092 46.6067 96.7315C48.3874 100.813 48.0482 104.763 45.2084 108.209C43.8523 109.863 42.0458 111.173 40.312 112.462C39.2417 113.257 37.9258 113.723 36.6309 114.371C38.462 115.98 40.6485 117.132 43.0109 117.731C47.7533 118.91 52.3176 116.787 54.4862 112.399C55.8942 109.554 56.1465 106.527 55.7776 103.43C55.3539 99.6866 54.8932 95.94 54.4345 92.198C54.1988 90.3118 54.0024 88.4149 53.785 86.4939C54.1491 86.4768 54.3581 86.4611 54.5674 86.459C60.9626 86.3582 66.0676 84.1178 69.0334 78.0375C69.4832 77.1144 70.5347 76.346 71.4853 75.8348C73.0318 75.0031 74.7584 74.5143 76.3492 73.7434C78.167 72.8621 79.9218 72.8363 81.8242 73.5026C84.5691 74.4639 87.3472 74.3198 90.097 73.3498C92.9297 72.3428 95.2647 70.6086 97.3751 68.4246C97.6609 68.7455 97.9184 69.0181 98.1438 69.2986C101.595 73.6781 105.008 78.0955 108.546 82.4065C109.625 83.7418 110.913 84.8936 112.36 85.8172C116.031 88.092 119.949 88.6165 123.808 86.3137C127.667 84.0108 128.719 80.1862 129.285 75.962C127.796 76.4508 126.464 76.9179 125.114 77.3272C118.116 79.4569 112.342 76.7491 109.585 69.989ZM40.7709 62.8193C41.3126 64.2321 40.9367 65.3074 39.7893 65.7718C38.6419 66.2362 37.6577 65.7244 37.0421 64.3176C36.641 63.4087 36.2818 62.4824 35.8496 61.439C34.6851 61.9214 33.7012 62.359 32.6938 62.7464C31.4677 63.2052 30.4162 62.7813 29.978 61.7104C29.5397 60.6394 29.9745 59.5943 31.1671 59.0348C32.1488 58.5789 33.17 58.205 34.3135 57.7313C33.9334 56.8136 33.5996 56.0078 33.2667 55.2043C32.5652 53.5111 32.8307 52.367 34.0178 51.8534C35.2048 51.3398 36.28 51.9722 37.0149 53.7197C37.3333 54.4883 37.6517 55.2569 38.0376 56.1885C39.0949 55.7504 40.0421 55.3362 41.0047 54.9593C42.3597 54.4361 43.5319 54.8482 43.9688 55.9688C44.4058 57.0894 43.8759 58.0893 42.5832 58.6576C41.6357 59.0774 40.6665 59.4517 39.5765 59.9032C40.0138 60.9718 40.4145 61.8864 40.7709 62.8193ZM58.3593 79.3761C56.788 80.0341 55.0567 80.2109 53.3849 79.8839C51.713 79.557 50.1758 78.7412 48.9681 77.5397C47.7604 76.3383 46.9365 74.8054 46.6008 73.1353C46.2651 71.4652 46.4328 69.733 47.0825 68.1583C47.7323 66.5835 48.8349 65.2371 50.2506 64.2896C51.6663 63.3421 53.3314 62.8362 55.0349 62.836C56.7384 62.8357 58.4037 63.3412 59.8197 64.2883C61.2356 65.2355 62.3386 66.5816 62.9887 68.1562C63.861 70.2581 63.8633 72.6202 62.9954 74.7239C62.1274 76.8276 60.46 78.5008 58.3593 79.3761ZM97.3608 30.4115C98.1252 30.0782 98.9907 30.0622 99.7668 30.367C100.543 30.6718 101.166 31.2725 101.5 32.0368C101.833 32.8012 101.849 33.6667 101.544 34.4428C101.239 35.219 100.639 35.8423 99.8743 36.1756C99.0838 36.488 98.2019 36.4757 97.4205 36.1412C96.6391 35.8067 96.0214 35.1772 95.7017 34.3897C95.3976 33.6418 95.4014 32.8041 95.7121 32.059C96.0229 31.3139 96.6155 30.7217 97.3608 30.4115ZM89.2906 66.562C87.7248 67.2382 85.9934 67.434 84.3161 67.1244C82.6388 66.8148 81.0914 66.0138 79.8702 64.8232C78.649 63.6325 77.8091 62.1059 77.4571 60.437C77.1051 58.7681 77.257 57.0323 77.8933 55.4498C78.5296 53.8674 79.6218 52.5097 81.0312 51.5492C82.4406 50.5886 84.1036 50.0684 85.8091 50.0547C87.5146 50.041 89.1858 50.5343 90.6104 51.4721C92.035 52.4099 93.1489 53.7498 93.8106 55.3218C94.7005 57.4119 94.7243 59.7697 93.8768 61.8773C93.0292 63.9849 91.3797 65.6699 89.2906 66.562ZM87.4635 41.3117C86.6806 41.6383 85.8003 41.6423 85.0143 41.323C84.2284 41.0036 83.6004 40.3867 83.2671 39.6065C83.1033 39.2308 83.017 38.8259 83.0136 38.4161C83.0101 38.0062 83.0895 37.5999 83.2469 37.2214C83.4044 36.843 83.6366 36.5003 83.9298 36.2139C84.223 35.9274 84.571 35.7032 84.953 35.5546C85.3294 35.3936 85.7339 35.3085 86.1432 35.3041C86.5526 35.2998 86.9588 35.3763 87.3385 35.5293C87.7183 35.6822 88.0641 35.9087 88.3562 36.1956C88.6482 36.4824 88.8808 36.8242 89.0405 37.2011C89.2121 37.5738 89.3073 37.977 89.3206 38.387C89.334 38.7971 89.2652 39.2057 89.1182 39.5887C88.9713 39.9717 88.7492 40.3215 88.465 40.6174C88.1808 40.9133 87.8403 41.1494 87.4635 41.3117ZM88.5905 26.7156C88.9795 26.5569 89.3963 26.4771 89.8165 26.4809C90.2367 26.4848 90.652 26.5721 91.0381 26.738C91.4242 26.9038 91.7735 27.1448 92.0656 27.4469C92.3577 27.749 92.5868 28.1062 92.7396 28.4976C92.8974 28.8762 92.9773 29.2828 92.9743 29.6929C92.9713 30.1031 92.8855 30.5084 92.7221 30.8847C92.5588 31.2609 92.3211 31.6003 92.0234 31.8825C91.7258 32.1647 91.3742 32.3839 90.9898 32.527C90.2159 32.819 89.3594 32.8025 88.5974 32.4808C87.8354 32.1591 87.2261 31.5569 86.8956 30.7986C86.5831 30.032 86.5858 29.1731 86.9032 28.4085C87.2205 27.6439 87.8269 27.0355 88.5905 26.7156ZM96.1383 45.0008C95.7589 45.1555 95.3527 45.2339 94.943 45.2315C94.5333 45.2291 94.128 45.146 93.7504 44.987C93.3728 44.8279 93.0303 44.596 92.7424 44.3044C92.4544 44.0129 92.2268 43.6675 92.0724 43.288C91.7745 42.5179 91.7866 41.6623 92.1062 40.901C92.4259 40.1397 93.0281 39.5318 93.7865 39.2052C94.1581 39.0318 94.5614 38.9363 94.9714 38.9249C95.3815 38.9134 95.7895 38.9862 96.1702 39.1387C96.551 39.2911 96.8965 39.52 97.1853 39.8113C97.4741 40.1025 97.7002 40.4499 97.8494 40.8319C98.0171 41.2172 98.1058 41.6322 98.1102 42.0524C98.1146 42.4726 98.0346 42.8894 97.8751 43.2781C97.7155 43.6668 97.4796 44.0196 97.1813 44.3155C96.883 44.6114 96.5283 44.8444 96.1383 45.0008Z" fill="#042365"/>
<path d="M68.9807 29.7845C69.294 32.4243 69.6298 35.033 69.8996 37.6472C69.972 38.136 69.8807 38.635 69.6399 39.0664C69.3991 39.4978 69.0224 39.8375 68.5683 40.0324C63.7872 42.0732 58.9937 44.0972 54.1431 45.9703C53.4679 46.2309 52.1581 45.8949 51.6591 45.3621C49.8104 43.3829 48.1774 41.1998 46.4121 39.0332C54.2935 36.4994 61.6777 33.3584 68.9807 29.7845Z" fill="#042365"/>
<path d="M90.1488 56.919C90.4813 57.7515 90.5597 58.6637 90.3743 59.5407C90.1888 60.4177 89.7478 61.2201 89.1068 61.8467C88.4658 62.4733 87.6536 62.896 86.7727 63.0616C85.8917 63.2271 84.9815 63.128 84.1568 62.7768C83.3321 62.4255 82.6299 61.8379 82.1388 61.0881C81.6476 60.3382 81.3896 59.4597 81.3972 58.5634C81.4049 57.667 81.6778 56.793 82.1816 56.0516C82.6854 55.3102 83.3975 54.7346 84.228 54.3975C84.7822 54.1725 85.3753 54.0593 85.9733 54.0644C86.5714 54.0695 87.1625 54.1928 87.7127 54.4271C88.263 54.6614 88.7615 55.0022 89.1795 55.4299C89.5976 55.8575 89.927 56.3636 90.1488 56.919Z" fill="#042365"/>
<path d="M59.2986 69.7348C59.6248 70.569 59.6967 71.4811 59.5055 72.3561C59.3142 73.2312 58.8682 74.03 58.2237 74.6521C57.5793 75.2741 56.7651 75.6915 55.8838 75.8516C55.0026 76.0118 54.0936 75.9076 53.2715 75.5521C52.4494 75.1966 51.7508 74.6057 51.2639 73.8539C50.7769 73.1021 50.5234 72.2231 50.5352 71.3275C50.5469 70.4318 50.8235 69.5597 51.33 68.821C51.8366 68.0823 52.5504 67.51 53.3816 67.1762C54.5056 66.7321 55.7599 66.7521 56.8693 67.2318C57.9786 67.7114 58.8523 68.6116 59.2986 69.7348Z" fill="#042365"/>
</svg>
