<svg width="40" height="40" viewBox="0 0 40 40" fill="none" xmlns="http://www.w3.org/2000/svg">
<path d="M40 10.2349V10.6256C39.793 10.7881 39.6094 11.0115 39.375 11.1013C38.3688 11.492 37.35 11.842 36.3282 12.1951C36.0938 12.2732 36.0157 12.392 36.0297 12.6427C36.0813 13.7091 36.1079 14.7755 36.1485 15.8459C36.1633 16.2091 36.1133 16.5334 35.7266 16.6771C35.3399 16.8209 35.0961 16.5834 34.8797 16.2982C34.25 15.4701 33.6032 14.6537 32.9852 13.817C32.8024 13.5685 32.6508 13.5006 32.3477 13.617C31.354 13.999 30.3446 14.3404 29.3438 14.7052C29.0094 14.8271 28.6969 14.8521 28.4657 14.5365C28.2477 14.2388 28.3477 13.9537 28.5438 13.6771C29.1524 12.8021 29.7383 11.9099 30.3641 11.0474C30.5586 10.7787 30.5204 10.6185 30.3321 10.3818C29.6735 9.55993 29.0399 8.71696 28.3891 7.88805C28.1735 7.61227 28.0305 7.33258 28.2571 7.00368C28.4836 6.67477 28.7852 6.69118 29.1266 6.79743C30.1704 7.11539 31.2196 7.41461 32.2633 7.73493C32.4821 7.80211 32.6055 7.76774 32.7383 7.56618C33.3407 6.65524 33.9688 5.76071 34.575 4.85211C34.7743 4.55289 35.0094 4.35836 35.3821 4.46149C35.7547 4.56461 35.8344 4.88571 35.843 5.2318C35.8704 6.31149 35.9102 7.39118 35.9211 8.47086C35.9211 8.72555 36.0063 8.83102 36.2446 8.89743C37.2602 9.17946 38.2719 9.46383 39.2735 9.78414C39.5375 9.85602 39.7586 10.074 40 10.2349Z" fill="white"/>
<path d="M11.4578 13.6627C11.6516 13.9416 11.7516 14.2275 11.5359 14.5221C11.3016 14.8346 10.9891 14.8127 10.6578 14.69C9.64219 14.3197 8.62656 13.9658 7.61719 13.5877C7.37187 13.4963 7.23125 13.5182 7.06563 13.7439C6.42266 14.6111 5.75313 15.458 5.09844 16.3166C4.88672 16.5947 4.65078 16.8049 4.27578 16.665C3.90078 16.5252 3.83828 16.226 3.85234 15.8728C3.89375 14.8064 3.91797 13.7393 3.97031 12.6697C3.98359 12.3939 3.91484 12.2596 3.63828 12.1666C2.625 11.8322 1.62031 11.4783 0.625 11.0932C0.390625 11.0025 0.205469 10.7807 0 10.6174V10.2268C0.228906 10.0705 0.4375 9.85878 0.689844 9.77831C1.69219 9.45956 2.70469 9.17284 3.71953 8.89628C3.99609 8.81816 4.07656 8.69394 4.07969 8.41503C4.09141 7.33535 4.12578 6.25566 4.16172 5.17597C4.17891 4.6455 4.46484 4.33613 4.88438 4.43691C5.08959 4.50193 5.26756 4.63294 5.39062 4.80956C6.03203 5.71191 6.65234 6.62675 7.26562 7.54863C7.39766 7.74863 7.51953 7.783 7.73984 7.71816C8.79609 7.39628 9.85781 7.09316 10.9141 6.77284C11.2469 6.67128 11.5391 6.68456 11.7469 6.98847C11.9547 7.29238 11.8477 7.57597 11.6391 7.84316C10.982 8.68378 10.3383 9.53456 9.67109 10.3666C9.48125 10.601 9.44531 10.7643 9.63984 11.0322C10.2625 11.8955 10.85 12.7869 11.4578 13.6627Z" fill="white"/>
<path d="M28.5547 35.2462C27.2625 32.661 25.2477 30.9758 22.4524 30.1391C24.1297 29.0665 25.0203 27.5798 24.9828 25.6196C24.9563 24.1993 24.3821 22.993 23.3196 22.0438C22.8134 21.5914 22.2201 21.2472 21.5762 21.0321C20.9323 20.817 20.2513 20.7355 19.5749 20.7928C18.8984 20.8501 18.2408 21.0448 17.6422 21.3651C17.0436 21.6854 16.5167 22.1245 16.0938 22.6555C14.2821 24.9321 14.7219 28.4087 17.5485 30.1368C14.7656 30.9704 12.7344 32.6555 11.4508 35.2337C7.87659 31.6212 6.90002 24.6555 11.3641 19.6751C15.8172 14.7094 23.5328 14.5079 28.2211 19.236C32.9946 24.0508 32.3922 31.2571 28.5547 35.2462Z" fill="white"/>
<path d="M27.3438 36.4495C23.1562 39.9651 16.6617 39.9143 12.5242 36.3253C12.4953 36.2995 12.4633 36.2768 12.3984 36.2261C13.3219 34.0518 14.8344 32.5104 16.9984 31.6589C21.0531 30.0628 25.6609 31.9487 27.4672 35.9003C27.5781 36.1448 27.5531 36.2722 27.3438 36.4495Z" fill="white"/>
<path d="M25.718 5.27266C24.8437 5.90234 23.9703 6.54375 23.0891 7.16719C22.8945 7.30391 22.8547 7.42656 22.9328 7.65156C23.2805 8.67266 23.6016 9.70312 23.9445 10.7258C24.0617 11.0734 24.1047 11.3992 23.7648 11.6352C23.4453 11.857 23.1562 11.7281 22.8726 11.518C22.0266 10.893 21.1617 10.2859 20.3266 9.64297C20.0664 9.44219 19.9055 9.46797 19.6609 9.65312C18.8211 10.2898 17.9586 10.8969 17.1117 11.5281C16.8266 11.7391 16.5351 11.857 16.2187 11.632C15.9023 11.407 15.9266 11.0906 16.0383 10.7547C16.3805 9.73203 16.7008 8.70156 17.0539 7.68281C17.1445 7.42031 17.0859 7.29219 16.8703 7.14062C15.9875 6.51562 15.1203 5.87422 14.243 5.24531C13.9695 5.04922 13.7687 4.82891 13.8789 4.46406C13.993 4.08437 14.2891 3.99531 14.6437 4C15.1906 4.00547 15.7375 4 16.2844 4V4.00625C16.8047 4.00625 17.3273 3.98203 17.8469 4.01484C18.1781 4.03594 18.2891 3.90078 18.3781 3.60938C18.6844 2.60234 19.0258 1.60625 19.3422 0.602344C19.4531 0.264063 19.6094 0 20.0039 0C20.3984 0 20.5508 0.273438 20.6601 0.609375C20.9836 1.64062 21.3281 2.66172 21.6453 3.69141C21.718 3.92578 21.8258 4.01641 22.0812 4.0125C23.1484 3.99609 24.2156 4.00547 25.2844 3.99844C25.643 3.99844 25.9719 4.03828 26.1094 4.43359C26.2469 4.82891 26.0101 5.06328 25.718 5.27266Z" fill="white"/>
<path d="M23.736 25.7927C23.7196 27.8388 22.0071 29.5342 19.986 29.506C18.9916 29.4959 18.0417 29.0923 17.3441 28.3835C16.6466 27.6747 16.2583 26.7184 16.2641 25.724C16.2829 23.6873 17.9914 22.0138 20.0336 22.0334C21.0212 22.0471 21.9635 22.4494 22.6565 23.1531C23.3495 23.8568 23.7373 24.8051 23.736 25.7927Z" fill="white"/>
</svg>
