<svg width="324" height="321" viewBox="0 0 324 321" fill="none" xmlns="http://www.w3.org/2000/svg">
<path d="M266.773 309.659C246.995 319.411 224.571 322.427 202.92 318.248C181.269 314.069 161.578 302.924 146.85 286.513C132.122 270.102 123.165 249.324 121.344 227.349C119.524 205.373 124.939 183.405 136.766 164.794C137.407 163.836 138.068 162.811 138.681 161.843C138.883 161.556 139.065 161.259 139.266 160.981C146.677 150.457 156.016 141.433 166.789 134.388L167.248 134.081C168.273 133.42 169.308 132.788 170.362 132.165L171.78 131.322C172.594 130.853 173.427 130.412 174.251 129.971C175.075 129.531 175.765 129.224 176.512 128.803C177.259 128.381 177.882 128.132 178.562 127.845C179.434 127.423 180.325 127.021 181.206 126.618C181.848 126.331 182.499 126.053 183.122 125.775C184.003 125.411 184.885 125.057 185.776 124.712C186.485 124.434 187.203 124.166 187.912 123.907C188.621 123.649 189.531 123.352 190.326 123.084C191.121 122.815 192.012 122.528 192.855 122.279C193.494 122.074 194.155 121.883 194.838 121.704C195.863 121.417 196.888 121.148 197.923 120.89L199.331 120.554C200.567 120.277 201.822 119.999 203.077 119.759L203.853 119.616C205.338 119.347 206.822 119.108 208.317 118.897H208.432C215.194 117.993 222.03 117.771 228.837 118.236C235.568 118.69 242.239 119.803 248.753 121.56C248.935 121.618 249.117 121.647 249.29 121.704C250.363 122.001 251.426 122.336 252.48 122.662C253.112 122.854 253.744 123.036 254.396 123.246L255.785 123.745C274.529 130.369 290.903 142.377 302.857 158.263C314.81 174.149 321.811 193.209 322.984 213.055C324.157 232.901 319.45 252.653 309.451 269.836C299.452 287.02 284.607 300.873 266.773 309.659ZM298.338 283.018C287.35 284.829 277.205 283.976 267.941 290.394C260.069 295.76 251.46 299.955 242.383 302.848C233.761 305.636 229.469 312.15 223.759 318.272C250.238 319.325 280.472 304.946 298.319 283.018H298.338ZM197.607 289.896C208.93 294.178 220.177 298.7 231.5 302.963C233.155 303.543 234.945 303.62 236.644 303.183C249.769 299.524 261.647 293.201 272.77 285.48C274.052 284.523 274.933 283.123 275.241 281.552C276.726 271.359 277.885 261.128 279.341 250.897C279.734 248.148 279.169 246.462 276.697 244.967C265.144 238.031 253.671 230.974 242.277 223.796C239.959 222.349 238.177 222.196 235.686 223.547C223.552 230.106 211.363 236.534 199.12 242.831C196.697 244.076 195.48 245.475 195.528 248.349C195.624 254.403 195.355 260.467 195.221 266.55H195.126C194.982 272.911 194.982 279.272 194.656 285.633C194.522 288.066 195.422 289.072 197.588 289.896H197.607ZM160.246 297.014C160.629 296.775 160.638 293.374 159.738 292.444C152.927 285.355 145.981 278.381 139.055 271.369C138.796 271.12 138.289 271.11 137.206 270.794C143.166 280.887 150.957 289.779 160.178 297.014H160.246ZM131.018 223.604C131.43 235.483 131.525 247.381 131.976 259.26C132.211 261.184 133.089 262.973 134.466 264.337C142.992 273.122 151.71 281.773 160.332 290.394C161.117 291.18 162.411 292.071 163.388 291.965C173.13 290.94 182.863 289.714 192.855 288.507C193.2 273.955 193.593 259.892 193.813 245.82C193.813 244.689 192.788 243.348 191.897 242.448C181.877 232.322 171.732 222.33 161.769 212.147C159.853 210.183 158.215 210.01 155.781 210.921C148.846 213.536 141.824 215.931 134.821 218.354C132.234 219.274 130.845 220.606 130.951 223.604H131.018ZM156.557 145.232C154.904 145.948 153.417 146.999 152.189 148.317C140.246 160.028 131.5 174.602 126.783 190.65C126.113 193.254 126.044 195.976 126.582 198.611C127.713 204.809 129.303 210.94 130.74 217.358C131.863 217.296 132.979 217.132 134.074 216.87C141.182 214.35 148.338 211.936 155.331 209.11C157.634 208.132 159.623 206.537 161.079 204.502C168.906 193.179 176.407 181.645 184.166 170.264C184.914 169.336 185.398 168.223 185.566 167.043C185.735 165.862 185.582 164.659 185.124 163.558C182.25 155.444 179.76 147.272 176.962 138.564C169.758 140.912 163.1 142.942 156.557 145.232ZM202.464 123.199C195.777 127.637 188.985 131.916 182.087 136.035C179.616 137.501 178.754 138.852 179.807 141.783C182.356 148.891 184.358 156.21 186.992 163.309C187.4 164.177 187.995 164.945 188.733 165.558C189.472 166.17 190.336 166.613 191.265 166.854C204.504 169.057 217.916 171.002 231.213 172.937C232.611 173.128 234.451 173.234 235.476 172.515C244.442 166.355 253.265 160.004 262.347 153.538C258.812 145.711 255.497 138.095 251.876 130.623C251.292 129.435 249.405 128.534 247.948 128.132C238.455 125.507 228.98 122.902 219.41 120.612C213.519 119.194 207.79 119.644 202.464 123.179V123.199ZM227.141 120.957C237.87 123.591 243.657 125.019 254.386 127.663C256.302 127.404 258.055 127.27 259.875 127.078C249.472 122.71 238.675 120.143 227.141 120.938V120.957ZM298.386 175.791C287.724 169.201 277.004 162.696 266.15 156.431C264.895 155.722 262.318 156.038 260.996 156.91C253.332 162.054 245.841 167.448 238.369 172.889C237.333 173.799 236.43 174.85 235.686 176.012C237.047 190.899 238.225 204.617 239.662 218.307C239.796 219.609 241.271 221.123 242.536 221.909C254.032 229.141 265.786 236.115 277.253 243.434C280.069 245.245 281.535 244.785 283.671 242.553C290.684 235.215 298.041 228.183 304.986 220.816C306.427 219.202 307.174 217.086 307.065 214.925C305.341 203.123 303.291 191.359 301.155 179.633C300.748 178.05 299.759 176.678 298.386 175.791ZM303.329 181.702C305.676 192.93 307.161 204.349 309.01 215.672C309.142 217.014 309.465 218.33 309.968 219.581C313.11 225.913 316.358 232.169 319.404 238.108C326.838 224.227 318.791 180.955 305.168 165.235C303.76 170.81 302.084 175.811 303.31 181.702H303.329Z" fill="#042365"/>
<path d="M87.2503 267.761C75.4127 273.599 61.9913 275.405 49.0323 272.903C36.0734 270.401 24.2878 263.728 15.4727 253.901C6.65753 244.075 1.29639 231.634 0.206635 218.475C-0.883118 205.317 2.35832 192.163 9.43674 181.019C9.82091 180.445 10.2165 179.832 10.5835 179.252C10.7039 179.08 10.8129 178.902 10.9333 178.736C15.3688 172.434 20.9586 167.031 27.4065 162.813L27.6817 162.629C28.2952 162.233 28.9145 161.855 29.5452 161.482L30.3938 160.977C30.8812 160.696 31.38 160.432 31.8731 160.168C32.3662 159.904 32.7791 159.721 33.2263 159.468C33.6735 159.216 34.0463 159.067 34.4534 158.895C34.9751 158.642 35.5084 158.401 36.0359 158.161C36.42 157.988 36.8099 157.822 37.1826 157.656C37.7101 157.438 38.2377 157.226 38.7709 157.019C39.1952 156.853 39.6252 156.692 40.0495 156.537C40.4738 156.382 41.0186 156.205 41.4945 156.044C41.9704 155.883 42.5036 155.711 43.0082 155.562C43.3904 155.44 43.7861 155.325 44.1951 155.218C44.8086 155.046 45.4221 154.885 46.0414 154.73L46.8842 154.53C47.6239 154.363 48.375 154.197 49.1262 154.053L49.5906 153.967C50.4793 153.807 51.3681 153.663 52.2626 153.537H52.3314C56.3788 152.996 60.4704 152.863 64.5444 153.141C68.5734 153.413 72.5661 154.08 76.465 155.132C76.5739 155.166 76.6829 155.183 76.7861 155.218C77.4282 155.396 78.0647 155.596 78.6954 155.792C79.0738 155.906 79.4523 156.015 79.8422 156.141L80.6736 156.44C91.8929 160.407 101.693 167.596 108.848 177.108C116.002 186.621 120.193 198.033 120.895 209.917C121.597 221.8 118.779 233.627 112.794 243.916C106.81 254.205 97.9244 262.499 87.2503 267.761ZM106.143 251.809C99.5665 252.893 93.4944 252.382 87.9498 256.225C83.2378 259.438 78.0848 261.95 72.652 263.682C67.4916 265.352 64.9228 269.252 61.5055 272.917C77.3537 273.548 95.4496 264.939 106.132 251.809H106.143ZM45.8521 255.927C52.6295 258.491 59.361 261.199 66.1384 263.751C67.1292 264.098 68.2006 264.144 69.2174 263.883C77.0727 261.692 84.1827 257.906 90.8396 253.283C91.6074 252.71 92.1347 251.871 92.3189 250.931C93.2077 244.828 93.9015 238.701 94.773 232.575C95.0081 230.929 94.6698 229.919 93.1905 229.025C86.2755 224.872 79.4083 220.646 72.5889 216.348C71.2013 215.482 70.1348 215.39 68.644 216.199C61.3812 220.126 54.0859 223.975 46.7581 227.745C45.3074 228.491 44.5793 229.329 44.6079 231.05C44.6653 234.675 44.5047 238.306 44.4244 241.948H44.3671C44.2811 245.757 44.2811 249.566 44.0861 253.375C44.0059 254.831 44.5448 255.434 45.8407 255.927H45.8521ZM23.4903 260.189C23.7197 260.046 23.7254 258.009 23.1864 257.453C19.1097 253.208 14.9527 249.032 10.8071 244.833C10.6523 244.684 10.3484 244.679 9.70049 244.489C13.2676 250.533 17.9307 255.857 23.4502 260.189H23.4903ZM5.99646 216.233C6.24301 223.346 6.30035 230.47 6.56984 237.583C6.71097 238.735 7.23617 239.806 8.06063 240.623C13.1637 245.883 18.3815 251.063 23.5419 256.225C24.0121 256.696 24.7861 257.229 25.371 257.166C31.2023 256.552 37.0278 255.818 43.0082 255.095C43.2146 246.382 43.4497 237.962 43.5816 229.535C43.5816 228.858 42.968 228.055 42.4348 227.516C36.4372 221.453 30.3652 215.47 24.402 209.373C23.2552 208.197 22.2747 208.094 20.8184 208.638C16.6671 210.204 12.4642 211.638 8.27278 213.09C6.72466 213.64 5.89324 214.438 5.95631 216.233H5.99646ZM21.2828 169.306C20.2934 169.735 19.4032 170.364 18.6682 171.153C11.5198 178.165 6.28495 186.892 3.4621 196.501C3.06084 198.06 3.01967 199.69 3.3417 201.268C4.01829 204.979 4.9701 208.65 5.83017 212.493C6.50272 212.456 7.17053 212.358 7.82555 212.201C12.08 210.692 16.3632 209.246 20.5489 207.554C21.9275 206.969 23.1179 206.014 23.9892 204.795C28.6737 198.015 33.1632 191.109 37.8076 184.294C38.2552 183.738 38.5448 183.072 38.6457 182.365C38.7466 181.659 38.6551 180.938 38.381 180.279C36.6609 175.421 35.1701 170.528 33.4958 165.313C29.184 166.719 25.199 167.935 21.2828 169.306ZM48.7592 156.113C44.757 158.77 40.6917 161.333 36.5634 163.799C35.0841 164.677 34.568 165.486 35.1987 167.241C36.7239 171.497 37.9223 175.879 39.4991 180.13C39.7434 180.65 40.0992 181.11 40.5412 181.476C40.9832 181.843 41.5005 182.108 42.0564 182.252C49.9805 183.572 58.0078 184.736 65.9664 185.895C66.8035 186.009 67.9044 186.073 68.5179 185.642C73.8847 181.954 79.1656 178.151 84.6012 174.279C82.4855 169.593 80.5016 165.032 78.3342 160.558C77.9844 159.847 76.8549 159.308 75.9833 159.067C70.3011 157.495 64.6304 155.935 58.9023 154.564C55.376 153.715 51.9472 153.985 48.7592 156.101V156.113ZM63.5295 154.77C69.9514 156.348 73.4146 157.203 79.8365 158.786C80.9832 158.631 82.0325 158.551 83.1219 158.436C76.895 155.82 70.433 154.283 63.5295 154.759V154.77ZM106.172 187.604C99.7901 183.658 93.374 179.763 86.8776 176.011C86.1264 175.587 84.584 175.776 83.7928 176.298C79.2057 179.378 74.7219 182.608 70.2495 185.866C69.6294 186.411 69.089 187.04 68.644 187.736C69.4582 196.65 70.1635 204.864 71.0236 213.061C71.1039 213.841 71.9869 214.747 72.7437 215.218C79.6243 219.549 86.6597 223.724 93.523 228.107C95.2088 229.191 96.0861 228.916 97.3647 227.579C101.562 223.185 105.965 218.975 110.122 214.564C110.985 213.597 111.432 212.33 111.367 211.036C110.335 203.969 109.108 196.925 107.829 189.904C107.586 188.956 106.994 188.135 106.172 187.604ZM109.13 191.143C110.535 197.866 111.424 204.703 112.531 211.484C112.61 212.287 112.803 213.075 113.104 213.824C114.985 217.616 116.928 221.361 118.752 224.918C123.201 216.606 118.385 190.696 110.231 181.283C109.388 184.621 108.385 187.616 109.119 191.143H109.13Z" fill="#042365"/>
<path d="M280.25 114.761C268.413 120.599 254.991 122.405 242.032 119.903C229.073 117.401 217.288 110.728 208.473 100.901C199.658 91.0746 194.296 78.6337 193.207 65.4753C192.117 52.3169 195.358 39.1629 202.437 28.019C202.821 27.4454 203.217 26.8316 203.584 26.2523C203.704 26.0802 203.813 25.9024 203.933 25.736C208.369 19.4342 213.959 14.0309 220.406 9.81253L220.682 9.62897C221.295 9.23318 221.914 8.8546 222.545 8.48175L223.394 7.97697C223.881 7.6959 224.38 7.43204 224.873 7.16818C225.366 6.90431 225.779 6.72076 226.226 6.46837C226.674 6.21598 227.046 6.06684 227.453 5.89476C227.975 5.64237 228.508 5.40145 229.036 5.16053C229.42 4.98845 229.81 4.8221 230.183 4.65575C230.71 4.43778 231.238 4.22554 231.771 4.01904C232.195 3.85269 232.625 3.69208 233.05 3.53721C233.474 3.38233 234.019 3.20451 234.494 3.0439C234.97 2.88329 235.504 2.71121 236.008 2.56207C236.39 2.4397 236.786 2.32497 237.195 2.2179C237.809 2.04582 238.422 1.8852 239.041 1.73033L239.884 1.52956C240.624 1.36322 241.375 1.19687 242.126 1.05346L242.591 0.967423C243.479 0.806812 244.368 0.663408 245.263 0.537214H245.331C249.379 -0.00424058 253.47 -0.136841 257.544 0.141419C261.573 0.412983 265.566 1.07966 269.465 2.13186C269.574 2.16627 269.683 2.18348 269.786 2.2179C270.428 2.39572 271.065 2.59648 271.695 2.79151C272.074 2.90623 272.452 3.01522 272.842 3.14141L273.674 3.43969C284.893 7.40654 294.693 14.5962 301.848 24.1085C309.002 33.6208 313.193 45.033 313.895 56.9165C314.597 68.8 311.779 80.6266 305.794 90.9158C299.81 101.205 290.924 109.499 280.25 114.761ZM299.143 98.8085C292.566 99.8927 286.494 99.3822 280.95 103.225C276.238 106.438 271.085 108.95 265.652 110.682C260.492 112.352 257.923 116.252 254.505 119.917C270.354 120.548 288.45 111.939 299.132 98.8085H299.143ZM238.852 102.927C245.63 105.491 252.361 108.199 259.138 110.751C260.129 111.098 261.201 111.144 262.217 110.883C270.073 108.692 277.183 104.906 283.84 100.283C284.607 99.7097 285.135 98.8714 285.319 97.9309C286.208 91.8277 286.901 85.7015 287.773 79.5753C288.008 77.929 287.67 76.9195 286.19 76.0247C279.276 71.8717 272.408 67.6461 265.589 63.3478C264.201 62.4817 263.135 62.3899 261.644 63.1987C254.381 67.126 247.086 70.9749 239.758 74.7455C238.307 75.4912 237.579 76.3287 237.608 78.0495C237.665 81.6747 237.505 85.3057 237.424 88.9481H237.367C237.281 92.7569 237.281 96.5657 237.086 100.375C237.006 101.831 237.545 102.434 238.841 102.927H238.852ZM216.49 107.189C216.72 107.046 216.725 105.009 216.186 104.453C212.11 100.208 207.953 96.0323 203.807 91.8334C203.652 91.6843 203.348 91.6785 202.7 91.4893C206.268 97.5326 210.931 102.857 216.45 107.189H216.49ZM198.996 63.2331C199.243 70.3459 199.3 77.4702 199.57 84.583C199.711 85.7352 200.236 86.8062 201.061 87.6231C206.164 92.8831 211.381 98.0629 216.542 103.225C217.012 103.696 217.786 104.229 218.371 104.166C224.202 103.552 230.028 102.818 236.008 102.095C236.215 93.3822 236.45 84.9615 236.582 76.5352C236.582 75.8583 235.968 75.0552 235.435 74.516C229.437 68.453 223.365 62.4702 217.402 56.3727C216.255 55.1968 215.275 55.0935 213.818 55.6385C209.667 57.2044 205.464 58.6384 201.273 60.0897C199.725 60.6404 198.893 61.4377 198.956 63.2331H198.996ZM214.283 16.3058C213.293 16.7347 212.403 17.3636 211.668 18.1529C204.52 25.1652 199.285 33.8915 196.462 43.5008C196.061 45.06 196.02 46.6901 196.342 48.2675C197.018 51.9788 197.97 55.6499 198.83 59.4931C199.503 59.4556 200.171 59.3577 200.826 59.2006C205.08 57.692 209.363 56.2465 213.549 54.5543C214.927 53.9687 216.118 53.014 216.989 51.7952C221.674 45.0151 226.163 38.1088 230.808 31.2943C231.255 30.7385 231.545 30.0721 231.646 29.3655C231.747 28.6588 231.655 27.9381 231.381 27.279C229.661 22.4205 228.17 17.5276 226.496 12.3135C222.184 13.7188 218.199 14.9349 214.283 16.3058ZM241.759 3.11273C237.757 5.77047 233.692 8.33261 229.563 10.7991C228.084 11.6768 227.568 12.4856 228.199 14.2408C229.724 18.497 230.922 22.8794 232.499 27.1299C232.743 27.6498 233.099 28.1095 233.541 28.4763C233.983 28.8431 234.5 29.1081 235.056 29.2523C242.98 30.5716 251.008 31.736 258.966 32.8947C259.804 33.0094 260.904 33.0725 261.518 32.6423C266.885 28.954 272.166 25.1509 277.601 21.279C275.485 16.5926 273.502 12.0324 271.334 7.55823C270.984 6.84695 269.855 6.30776 268.983 6.06684C263.301 4.49514 257.63 2.93491 251.902 1.56398C248.376 0.715032 244.947 0.98463 241.759 3.10126V3.11273ZM256.529 1.77048C262.951 3.34791 266.415 4.2026 272.836 5.78577C273.983 5.63089 275.032 5.55059 276.122 5.43586C269.895 2.82019 263.433 1.28291 256.529 1.75901V1.77048ZM299.172 34.6041C292.79 30.6576 286.374 26.7628 279.878 23.0114C279.126 22.5869 277.584 22.7762 276.793 23.2982C272.206 26.3785 267.722 29.6079 263.25 32.866C262.629 33.411 262.089 34.0405 261.644 34.736C262.458 43.6499 263.164 51.8641 264.024 60.061C264.104 60.8411 264.987 61.7474 265.744 62.2178C272.624 66.5486 279.66 70.7245 286.523 75.1069C288.209 76.191 289.086 75.9157 290.365 74.5791C294.562 70.1853 298.965 65.975 303.122 61.5639C303.985 60.5973 304.432 59.33 304.367 58.0362C303.335 50.9692 302.108 43.9253 300.829 36.9043C300.586 35.9562 299.994 35.1349 299.172 34.6041ZM302.13 38.1433C303.535 44.866 304.424 51.7035 305.531 58.4836C305.61 59.287 305.803 60.075 306.104 60.8239C307.985 64.6155 309.928 68.3612 311.752 71.9176C316.201 63.6059 311.385 37.6958 303.231 28.2829C302.388 31.6213 301.385 34.6155 302.119 38.1433H302.13Z" fill="#042365"/>
</svg>
