<svg width="143" height="268" viewBox="0 0 143 268" fill="none" xmlns="http://www.w3.org/2000/svg">
<path d="M92.6421 121.853C80.0731 128.052 65.8223 129.97 52.0624 127.313C38.3026 124.656 25.7888 117.57 16.4289 107.137C7.06896 96.7028 1.37652 83.493 0.219421 69.5215C-0.937683 55.5499 2.50407 41.5831 10.0199 29.7505C10.4278 29.1414 10.8479 28.4898 11.2375 27.8746C11.3654 27.6919 11.4811 27.5031 11.6089 27.3264C16.3186 20.6352 22.2538 14.898 29.1002 10.4189L29.3924 10.224C30.0438 9.80377 30.7013 9.40179 31.371 9.0059L32.2721 8.46993C32.7896 8.17149 33.3193 7.89132 33.8428 7.61115C34.3664 7.33098 34.8048 7.13609 35.2796 6.8681C35.7545 6.60011 36.1502 6.44176 36.5825 6.25904C37.1365 5.99105 37.7027 5.73525 38.2628 5.47944C38.6707 5.29672 39.0847 5.1201 39.4804 4.94347C40.0406 4.71203 40.6007 4.48667 41.1669 4.26741C41.6174 4.09078 42.074 3.92025 42.5245 3.7558C42.975 3.59135 43.5534 3.40254 44.0587 3.23201C44.5641 3.06147 45.1302 2.87875 45.666 2.7204C46.0719 2.59046 46.492 2.46865 46.9263 2.35496C47.5777 2.17224 48.2291 2.0017 48.8866 1.83726L49.7816 1.62409C50.567 1.44746 51.3645 1.27083 52.1621 1.11857L52.6552 1.02721C53.5989 0.856671 54.5425 0.704406 55.4923 0.570412H55.5653C59.8629 -0.00450264 64.2074 -0.145297 68.5331 0.150159C72.8111 0.438504 77.0506 1.14638 81.1903 2.2636C81.306 2.30014 81.4217 2.31842 81.5313 2.35496C82.2132 2.54377 82.8889 2.75694 83.5586 2.96402C83.9604 3.08583 84.3623 3.20155 84.7763 3.33555L85.659 3.65226C97.5717 7.86425 107.978 15.4982 115.574 25.5983C123.171 35.6984 127.62 47.816 128.366 60.4338C129.111 73.0517 126.119 85.6092 119.765 96.5342C113.411 107.459 103.976 116.266 92.6421 121.853ZM112.703 104.915C105.719 106.066 99.2721 105.524 93.3849 109.604C88.3817 113.016 82.9103 115.683 77.1417 117.522C71.6624 119.295 68.9349 123.436 65.3064 127.328C82.134 127.998 101.348 118.856 112.69 104.915H112.703ZM48.6857 109.288C55.8819 112.01 63.0294 114.885 70.2256 117.595C71.2776 117.964 72.4152 118.013 73.4949 117.735C81.8357 115.409 89.385 111.389 96.4533 106.48C97.2686 105.871 97.8285 104.981 98.0241 103.983C98.9677 97.5024 99.7044 90.9977 100.63 84.4929C100.879 82.7449 100.52 81.6729 98.9495 80.7228C91.6072 76.3132 84.3156 71.8265 77.0748 67.2626C75.6014 66.3429 74.469 66.2454 72.8861 67.1042C65.1745 71.2742 57.4283 75.361 49.6477 79.3646C48.1074 80.1564 47.3342 81.0456 47.3646 82.8728C47.4255 86.722 47.255 90.5774 47.1698 94.4449H47.1089C47.0176 98.4891 47.0176 102.533 46.8106 106.577C46.7253 108.124 47.2976 108.764 48.6736 109.288H48.6857ZM24.942 113.813C25.1855 113.661 25.1916 111.499 24.6193 110.908C20.2906 106.401 15.8767 101.967 11.475 97.5085C11.3106 97.3502 10.9879 97.3441 10.3 97.1431C14.0876 103.56 19.0388 109.213 24.8994 113.813H24.942ZM6.36703 67.1407C6.62883 74.6931 6.6897 82.2576 6.97585 89.81C7.1257 91.0334 7.68336 92.1706 8.55877 93.038C13.9772 98.6231 19.5174 104.123 24.9968 109.604C25.496 110.104 26.3179 110.67 26.9389 110.603C33.1305 109.952 39.3161 109.172 45.666 108.405C45.8852 99.153 46.1348 90.212 46.2748 81.2649C46.2748 80.5462 45.6234 79.6935 45.0572 79.121C38.689 72.6832 32.2417 66.3307 25.91 59.8564C24.6924 58.6078 23.6513 58.4982 22.1049 59.0768C17.6971 60.7395 13.2345 62.2622 8.78403 63.8031C7.14023 64.3878 6.25745 65.2344 6.32442 67.1407H6.36703ZM22.598 17.3135C21.5475 17.7689 20.6023 18.4366 19.8218 19.2747C12.2317 26.7203 6.67336 35.986 3.67607 46.1891C3.25 47.8446 3.20628 49.5754 3.54823 51.2504C4.26662 55.191 5.27725 59.089 6.19048 63.1697C6.90458 63.1299 7.61366 63.0259 8.30916 62.8591C12.8266 61.2572 17.3744 59.7224 21.8187 57.9257C23.2825 57.3038 24.5465 56.2901 25.4716 54.9961C30.4457 47.797 35.2127 40.4639 40.1441 33.2282C40.6193 32.638 40.9268 31.9305 41.0339 31.1802C41.141 30.4299 41.044 29.6646 40.7529 28.9648C38.9264 23.8061 37.3435 18.6108 35.5658 13.0744C30.9875 14.5666 26.7562 15.8578 22.598 17.3135ZM51.7724 3.30509C47.5229 6.12707 43.2064 8.84755 38.8229 11.4665C37.2522 12.3984 36.7043 13.2571 37.374 15.1209C38.9934 19.6401 40.2658 24.2933 41.9401 28.8065C42.1995 29.3585 42.5773 29.8466 43.0466 30.2361C43.5159 30.6256 44.0651 30.9069 44.6554 31.06C53.0692 32.4608 61.5926 33.6972 70.0429 34.9275C70.9318 35.0493 72.1007 35.1163 72.7522 34.6595C78.4507 30.7433 84.0579 26.7052 89.8294 22.594C87.5829 17.618 85.4764 12.776 83.1751 8.02531C82.8037 7.27008 81.6043 6.69756 80.6789 6.44176C74.6456 4.77293 68.6244 3.11628 62.5424 1.66063C58.7981 0.759219 55.1574 1.04548 51.7724 3.29291V3.30509ZM67.4555 1.87989C74.2742 3.55481 77.9515 4.46231 84.7702 6.14332C85.9878 5.97887 87.1019 5.8936 88.2587 5.77179C81.6469 2.99447 74.7856 1.36219 67.4555 1.86771V1.87989ZM112.733 36.7425C105.957 32.5522 99.1443 28.4167 92.2464 24.4334C91.4489 23.9827 89.8112 24.1837 88.971 24.7379C84.1005 28.0086 79.3396 31.4376 74.5908 34.8971C73.9324 35.4757 73.3585 36.1441 72.8861 36.8826C73.7506 46.3474 74.4995 55.0692 75.4127 63.7726C75.4979 64.601 76.4355 65.5633 77.2391 66.0627C84.5449 70.6611 92.0151 75.0951 99.3026 79.7483C101.092 80.8994 102.024 80.6071 103.382 79.188C107.838 74.5226 112.514 70.0521 116.928 65.3684C117.843 64.3421 118.318 62.9964 118.249 61.6227C117.153 54.119 115.85 46.6398 114.492 39.1849C114.234 38.1783 113.606 37.3061 112.733 36.7425ZM115.875 40.5004C117.366 47.6386 118.31 54.8986 119.485 62.0977C119.569 62.9508 119.774 63.7875 120.094 64.5827C122.09 68.6086 124.154 72.5858 126.09 76.3619C130.815 67.5366 125.701 40.0254 117.043 30.0307C116.148 33.5754 115.083 36.7547 115.862 40.5004H115.875Z" fill="#042365"/>
<path d="M103.3 259.923C89.6918 266.635 74.2633 268.711 59.3663 265.835C44.4693 262.958 30.9213 255.287 20.7878 243.991C10.6543 232.695 4.49144 218.393 3.23871 203.267C1.98599 188.141 5.71219 173.02 13.8492 160.209C14.2908 159.55 14.7456 158.844 15.1674 158.178C15.3059 157.98 15.4311 157.776 15.5695 157.585C20.6684 150.341 27.0942 144.129 34.5063 139.28L34.8227 139.069C35.5279 138.614 36.2398 138.179 36.9648 137.75L37.9404 137.17C38.5006 136.847 39.0741 136.543 39.6409 136.24C40.2078 135.937 40.6823 135.726 41.1965 135.436C41.7106 135.146 42.139 134.974 42.607 134.776C43.2068 134.486 43.8198 134.209 44.4262 133.932C44.8678 133.734 45.316 133.543 45.7445 133.352C46.3509 133.101 46.9573 132.857 47.5703 132.62C48.058 132.429 48.5524 132.244 49.0401 132.066C49.5279 131.888 50.154 131.684 50.7011 131.499C51.2482 131.314 51.8612 131.117 52.4412 130.945C52.8806 130.805 53.3354 130.673 53.8056 130.55C54.5109 130.352 55.2162 130.167 55.928 129.989L56.8969 129.758C57.7472 129.567 58.6107 129.376 59.4741 129.211L60.008 129.112C61.0297 128.927 62.0513 128.763 63.0796 128.618H63.1587C67.8114 127.995 72.5149 127.843 77.1981 128.163C81.8298 128.475 86.4196 129.241 90.9015 130.451C91.0267 130.49 91.1519 130.51 91.2706 130.55C92.0088 130.754 92.7404 130.985 93.4655 131.209C93.9005 131.341 94.3355 131.466 94.7837 131.611L95.7395 131.954C108.637 136.514 119.903 144.779 128.127 155.714C136.351 166.649 141.168 179.768 141.976 193.428C142.783 207.089 139.544 220.684 132.664 232.512C125.784 244.34 115.57 253.875 103.3 259.923ZM125.018 241.585C117.458 242.832 110.478 242.245 104.104 246.663C98.6871 250.356 92.7636 253.243 86.5182 255.235C80.5861 257.154 77.6332 261.638 73.7048 265.851C91.9231 266.576 112.725 256.679 125.005 241.585H125.018ZM55.7105 246.32C63.5014 249.267 71.2396 252.38 79.0305 255.314C80.1695 255.713 81.4011 255.766 82.57 255.466C91.6001 252.947 99.7733 248.595 107.426 243.28C108.308 242.621 108.915 241.658 109.126 240.576C110.148 233.56 110.946 226.518 111.947 219.476C112.218 217.583 111.829 216.423 110.128 215.394C102.179 210.62 94.285 205.763 86.4457 200.821C84.8506 199.826 83.6246 199.72 81.9109 200.65C73.5619 205.165 65.1756 209.589 56.7519 213.924C55.0843 214.781 54.2472 215.744 54.2802 217.722C54.3461 221.889 54.1615 226.063 54.0693 230.25H54.0033C53.9045 234.629 53.9045 239.007 53.6804 243.385C53.5881 245.06 54.2077 245.753 55.6973 246.32H55.7105ZM30.0044 251.219C30.2681 251.054 30.2747 248.713 29.6551 248.074C24.9687 243.194 20.19 238.394 15.4245 233.567C15.2465 233.396 14.8972 233.389 14.1524 233.171C18.253 240.119 23.6134 246.239 29.9583 251.219H30.0044ZM9.89439 200.69C10.1778 208.866 10.2437 217.056 10.5535 225.232C10.7158 226.557 11.3195 227.788 12.2673 228.727C18.1335 234.774 24.1316 240.728 30.0638 246.663C30.6043 247.203 31.4941 247.817 32.1664 247.744C38.8697 247.039 45.5665 246.195 52.4412 245.364C52.6785 235.347 52.9487 225.668 53.1003 215.981C53.1003 215.203 52.3951 214.28 51.7821 213.66C44.8876 206.69 37.9074 199.813 31.0525 192.803C29.7342 191.451 28.6071 191.333 26.9329 191.959C22.1608 193.759 17.3294 195.408 12.5111 197.076C10.7315 197.709 9.77576 198.626 9.84825 200.69H9.89439ZM27.4668 146.744C26.3294 147.237 25.3061 147.96 24.4612 148.868C16.2438 156.929 10.226 166.96 6.98103 178.006C6.51976 179.799 6.47243 181.673 6.84262 183.486C7.62039 187.752 8.71455 191.972 9.70325 196.39C10.4764 196.347 11.244 196.235 11.997 196.054C16.8878 194.32 21.8115 192.658 26.6231 190.713C28.2079 190.04 29.5763 188.942 30.5779 187.541C35.963 179.747 41.124 171.808 46.4629 163.974C46.9775 163.335 47.3103 162.569 47.4263 161.757C47.5423 160.945 47.4372 160.116 47.122 159.359C45.1446 153.774 43.4309 148.149 41.5063 142.155C36.5496 143.77 31.9687 145.168 27.4668 146.744ZM59.0523 131.578C54.4516 134.633 49.7783 137.579 45.0326 140.414C43.3321 141.423 42.7388 142.353 43.4639 144.371C45.2172 149.263 46.5947 154.301 48.4073 159.187C48.6882 159.785 49.0972 160.313 49.6053 160.735C50.1134 161.157 50.708 161.461 51.3471 161.627C60.4562 163.144 69.6841 164.482 78.8328 165.814C79.7951 165.946 81.0606 166.019 81.7659 165.524C87.9354 161.284 94.006 156.912 100.255 152.461C97.8223 147.074 95.5417 141.832 93.0502 136.689C92.6482 135.871 91.3497 135.251 90.3478 134.974C83.8158 133.167 77.297 131.374 70.7123 129.798C66.6587 128.822 62.7171 129.132 59.0523 131.565V131.578ZM76.0315 130.035C83.4137 131.849 87.3949 132.831 94.7771 134.651C96.0954 134.473 97.3016 134.381 98.5539 134.249C91.3958 131.242 83.9674 129.475 76.0315 130.022V130.035ZM125.051 167.779C117.715 163.242 110.339 158.765 102.871 154.453C102.008 153.965 100.235 154.182 99.3251 154.782C94.0521 158.323 88.8977 162.036 83.7565 165.781C83.0436 166.408 82.4224 167.131 81.9109 167.931C82.8469 178.178 83.6576 187.62 84.6463 197.043C84.7386 197.94 85.7537 198.982 86.6237 199.522C94.5333 204.501 102.621 209.301 110.511 214.339C112.448 215.585 113.457 215.269 114.927 213.732C119.752 208.681 124.814 203.841 129.592 198.771C130.583 197.66 131.097 196.203 131.023 194.715C129.836 186.592 128.426 178.494 126.956 170.423C126.676 169.333 125.996 168.389 125.051 167.779ZM128.452 171.848C130.067 179.576 131.089 187.436 132.361 195.23C132.452 196.153 132.674 197.059 133.02 197.92C135.182 202.279 137.416 206.585 139.512 210.673C144.627 201.118 139.09 171.333 129.718 160.513C128.749 164.35 127.595 167.792 128.439 171.848H128.452Z" fill="#042365"/>
</svg>
