<svg width="40" height="40" viewBox="0 0 40 40" fill="none" xmlns="http://www.w3.org/2000/svg">
<path d="M40 32.9691V40.0004H0V32.9691H4.76016V28.2926H9.4375V23.6191H15.3125V36.3113C15.4867 36.2051 15.607 36.1371 15.7219 36.0605C17.0539 35.1738 18.3883 34.291 19.7117 33.3926C19.9281 33.2457 20.0719 33.2363 20.2914 33.3887C21.625 34.2949 22.9711 35.1855 24.3133 36.0785C24.4172 36.148 24.5266 36.2098 24.675 36.3004V23.6254H30.5344V28.2652H35.2117V32.9691H40Z" fill="white"/>
<path d="M30.547 2.7625V2.34375H25.8595V0H14.1407V2.35313H9.45324V2.64531C9.45324 4.49375 9.44309 6.34219 9.45324 8.19219C9.46731 10.1703 10.9978 11.6922 12.9775 11.718C13.4056 11.7242 13.8368 11.718 14.2587 11.718C14.2892 11.8047 14.3134 11.8641 14.3306 11.925C14.7353 13.3508 15.6095 14.375 16.9532 15C17.5064 15.2604 18.0532 15.5312 18.5939 15.8125C18.6907 15.8633 18.815 15.9867 18.8165 16.0789C18.8337 16.9594 18.8267 17.8406 18.8267 18.7633H14.1603V21.0703H25.8306V18.7398H21.172C21.172 17.8555 21.165 16.9992 21.1822 16.1437C21.1822 16.0523 21.3118 15.9328 21.4103 15.8797C21.8439 15.6453 22.2806 15.4109 22.7314 15.2086C24.2736 14.5211 25.3329 13.4227 25.7251 11.7188H26.8634C29.0384 11.7133 30.5415 10.2117 30.5454 8.03516C30.5465 6.27734 30.547 4.51979 30.547 2.7625ZM14.1111 9.35781C13.665 9.35781 13.2103 9.39688 12.7657 9.34766C12.2618 9.29219 11.8282 8.85 11.8142 8.34922C11.7845 7.14297 11.8048 5.93516 11.8048 4.69609H14.1111V9.35781ZM28.2032 8.08516C28.2032 8.89297 27.7228 9.36797 26.9157 9.37422C26.5798 9.37422 26.2439 9.37422 25.879 9.37422V4.70703H28.1759C28.1853 4.80312 28.2025 4.90156 28.2025 5.00078C28.2032 6.02891 28.2032 7.05703 28.2032 8.08516Z" fill="white"/>
<path d="M22.3266 23.6211V31.9328C21.6297 31.4695 20.9633 31.0477 20.3227 30.5906C20.0789 30.4172 19.9164 30.4258 19.6781 30.5945C19.0422 31.0453 18.3852 31.4648 17.6914 31.9266V23.6211H22.3266Z" fill="white"/>
</svg>
