<svg width="41" height="40" viewBox="0 0 41 40" fill="none" xmlns="http://www.w3.org/2000/svg">
<path d="M20.9649 1.50887e-05C9.97496 -0.00648517 1.11811 8.85986 0.960107 19.6833C0.800101 30.9057 9.80645 39.8376 20.6384 39.9936C31.8833 40.1556 40.8327 31.1122 40.9567 20.2473C41.0842 9.03437 31.9953 -0.0134854 20.9649 1.50887e-05ZM20.9994 6.90029C22.2284 6.90679 23.2155 7.91733 23.211 9.16488C23.2091 9.46097 23.1487 9.75376 23.0333 10.0264C22.9178 10.2991 22.7496 10.5462 22.5383 10.7537C22.327 10.9611 22.0768 11.1247 21.8021 11.2351C21.5273 11.3455 21.2335 11.4005 20.9374 11.397C19.7108 11.3895 18.7108 10.3734 18.7108 9.13738C18.7108 7.88083 19.7238 6.89179 20.9994 6.90029ZM31.1643 14.0771C31.0178 14.1071 30.8673 14.1176 30.7188 14.1346C28.9157 14.3406 27.1111 14.5256 25.3111 14.7606C24.4675 14.8711 24.011 15.3751 24.0065 16.1747C24.0005 17.4072 23.989 18.6403 24.0135 19.8748C24.041 21.2959 24.311 22.6859 24.6055 24.0725C25.0866 26.3371 25.5506 28.6051 26.0226 30.8727C26.1451 31.4603 25.8501 31.9728 25.3061 32.1193C24.762 32.2658 24.245 31.9573 24.069 31.3828C23.8445 30.6502 23.633 29.9137 23.4165 29.1787C22.8768 27.3496 22.3371 25.5204 21.7974 23.6909C21.6549 23.2109 21.4324 23.0354 21.0069 23.0409C20.6149 23.0454 20.3694 23.2284 20.2569 23.6114C19.6718 25.5925 19.0885 27.5738 18.5068 29.5552C18.3233 30.1782 18.1433 30.8022 17.9513 31.4228C17.8853 31.6491 17.7422 31.8452 17.5469 31.9772C17.3516 32.1092 17.1163 32.1689 16.8817 32.1458C16.4342 32.1113 16.0652 31.7503 15.9817 31.2743C15.9502 31.0947 16.0012 30.9267 16.0367 30.7567C16.6012 28.0246 17.1742 25.294 17.7303 22.5604C17.924 21.5794 18.0203 20.5817 18.0178 19.5818C18.0218 18.4652 17.9978 17.3487 18.0253 16.2317C18.0498 15.2351 17.2922 14.8211 16.6527 14.7476C15.138 14.5736 13.6239 14.3984 12.1105 14.2221C11.763 14.1821 11.4165 14.1356 11.0685 14.1016C10.509 14.0466 10.1835 13.7016 10.204 13.1745C10.2235 12.6825 10.604 12.3495 11.146 12.3495H30.8878C31.4153 12.3495 31.7823 12.6595 31.8378 13.1495C31.8868 13.5596 31.5768 13.9911 31.1643 14.0771Z" fill="#F6F6F6"/>
<path d="M20.9649 1.50887e-05C9.97496 -0.00648517 1.11811 8.85986 0.960107 19.6833C0.800101 30.9057 9.80645 39.8376 20.6384 39.9936C31.8833 40.1556 40.8327 31.1122 40.9567 20.2473C41.0842 9.03437 31.9953 -0.0134854 20.9649 1.50887e-05ZM20.9994 6.90029C22.2284 6.90679 23.2155 7.91733 23.211 9.16488C23.2091 9.46097 23.1487 9.75376 23.0333 10.0264C22.9178 10.2991 22.7496 10.5462 22.5383 10.7537C22.327 10.9611 22.0768 11.1247 21.8021 11.2351C21.5273 11.3455 21.2335 11.4005 20.9374 11.397C19.7108 11.3895 18.7108 10.3734 18.7108 9.13738C18.7108 7.88083 19.7238 6.89179 20.9994 6.90029ZM31.1643 14.0771C31.0178 14.1071 30.8673 14.1176 30.7188 14.1346C28.9157 14.3406 27.1111 14.5256 25.3111 14.7606C24.4675 14.8711 24.011 15.3751 24.0065 16.1747C24.0005 17.4072 23.989 18.6403 24.0135 19.8748C24.041 21.2959 24.311 22.6859 24.6055 24.0725C25.0866 26.3371 25.5506 28.6051 26.0226 30.8727C26.1451 31.4603 25.8501 31.9728 25.3061 32.1193C24.762 32.2658 24.245 31.9573 24.069 31.3828C23.8445 30.6502 23.633 29.9137 23.4165 29.1787C22.8768 27.3496 22.3371 25.5204 21.7974 23.6909C21.6549 23.2109 21.4324 23.0354 21.0069 23.0409C20.6149 23.0454 20.3694 23.2284 20.2569 23.6114C19.6718 25.5925 19.0885 27.5738 18.5068 29.5552C18.3233 30.1782 18.1433 30.8022 17.9513 31.4228C17.8853 31.6491 17.7422 31.8452 17.5469 31.9772C17.3516 32.1092 17.1163 32.1689 16.8817 32.1458C16.4342 32.1113 16.0652 31.7503 15.9817 31.2743C15.9502 31.0947 16.0012 30.9267 16.0367 30.7567C16.6012 28.0246 17.1742 25.294 17.7303 22.5604C17.924 21.5794 18.0203 20.5817 18.0178 19.5818C18.0218 18.4652 17.9978 17.3487 18.0253 16.2317C18.0498 15.2351 17.2922 14.8211 16.6527 14.7476C15.138 14.5736 13.6239 14.3984 12.1105 14.2221C11.763 14.1821 11.4165 14.1356 11.0685 14.1016C10.509 14.0466 10.1835 13.7016 10.204 13.1745C10.2235 12.6825 10.604 12.3495 11.146 12.3495H30.8878C31.4153 12.3495 31.7823 12.6595 31.8378 13.1495C31.8868 13.5596 31.5768 13.9911 31.1643 14.0771Z" fill="white"/>
</svg>
