<svg width="93" height="99" viewBox="0 0 93 99" fill="none" xmlns="http://www.w3.org/2000/svg">
<path d="M71.2442 96.3393C71.1974 96.7929 70.9847 97.2132 70.647 97.5196C70.3092 97.8259 69.8702 97.9968 69.4142 97.9993C67.9942 98.1293 66.5742 98.1893 65.1542 98.2993C64.7342 98.2993 64.3242 98.3993 63.9142 98.4593H58.9142C56.6342 98.2493 54.3442 98.1093 52.0742 97.8193C43.7042 96.7593 35.7242 94.5593 28.8242 89.4193C27.8422 88.6707 26.9071 87.8625 26.0242 86.9993C25.6649 86.6572 25.4561 86.1863 25.4439 85.6903C25.4317 85.1942 25.6171 84.7137 25.9592 84.3543C26.3014 83.9949 26.7722 83.7862 27.2683 83.774C27.7643 83.7618 28.2449 83.9472 28.6042 84.2893C35.0142 90.2893 42.9542 92.6593 51.3742 93.8993C57.1324 94.7036 62.9639 94.8446 68.7542 94.3193C69.201 94.2517 69.6569 94.2756 70.0942 94.3893C70.487 94.5237 70.8188 94.7941 71.0297 95.1517C71.2406 95.5093 71.3167 95.9305 71.2442 96.3393Z" fill="#042365"/>
<path d="M92.9335 36.6903V37.9403C91.7535 39.4103 91.1835 39.5103 89.4935 38.5803C84.0085 35.5433 77.9816 33.6102 71.7535 32.8903C71.2359 32.8646 70.7305 32.7246 70.2734 32.4803C69.9016 32.2762 69.6195 31.9404 69.4826 31.5389C69.3457 31.1373 69.3638 30.6991 69.5335 30.3103C69.6822 29.8781 69.984 29.5154 70.382 29.2906C70.78 29.0658 71.2465 28.9946 71.6934 29.0903C76.122 29.5257 80.4695 30.5688 84.6134 32.1903C86.9034 33.1003 89.1134 34.1903 91.3134 35.3103C91.912 35.6968 92.4567 36.1608 92.9335 36.6903Z" fill="#042365"/>
<path d="M52.2139 2.00007C52.2139 3.16007 51.4339 3.92006 49.9539 4.09007H49.5439C41.2824 4.77725 33.2213 6.99853 25.7739 10.6401C22.3454 12.21 19.3089 14.5224 16.8839 17.4101C13.4339 21.7601 13.3539 26.5701 16.6639 31.0401C19.0421 34.0558 22.0176 36.5479 25.4039 38.3601C28.2039 39.9701 31.1039 41.3601 34.0239 42.9301C33.1839 43.6401 32.2739 44.3401 31.4539 45.1201C30.2043 46.2306 29.2123 47.6007 28.5473 49.1345C27.8823 50.6683 27.5603 52.3289 27.6039 54.0001C27.7039 59.1101 27.6039 64.2201 27.6039 69.3301V75.6201C27.4987 75.6049 27.3971 75.571 27.3039 75.5201C17.3039 69.2901 7.56389 62.6201 -0.87611 54.2901C-5.47611 49.7401 -9.60611 44.8301 -12.1561 38.7801C-15.1061 31.7801 -14.6961 25.1001 -9.61611 19.1701C-7.85516 17.1538 -5.87266 15.3424 -3.70611 13.7701C2.80389 9.07007 10.2239 6.31006 17.8939 4.20006C28.2788 1.40122 38.9884 -0.0110414 49.7439 6.49988e-05C51.2239 6.49988e-05 52.1739 0.780065 52.2139 2.00007Z" fill="#042365"/>
<path d="M90.5036 56.8191C89.7317 57.801 88.8455 58.6872 87.8636 59.4591C85.3821 61.3182 82.5929 62.7263 79.6236 63.6191C73.7497 65.4487 67.6254 66.3463 61.4736 66.2791C54.1936 66.1791 46.8836 65.2791 40.0036 62.1491C37.693 61.1705 35.5891 59.7622 33.8036 57.9991C30.6436 54.7491 30.6436 51.3491 33.8036 48.0991C36.5236 45.3091 39.9936 43.8191 43.6036 42.5691C50.7886 40.1896 58.3823 39.2948 65.9236 39.9391C71.8061 40.1878 77.597 41.4848 83.0236 43.7691C85.9205 44.9011 88.4811 46.7527 90.4636 49.1491C91.4048 50.2026 91.9284 51.5638 91.9358 52.9765C91.9431 54.3892 91.4338 55.7559 90.5036 56.8191Z" fill="#042365"/>
<path d="M91.8539 74.3706C91.6885 76.0935 90.8559 77.6834 89.5339 78.8006C86.688 81.4841 83.2266 83.4276 79.4539 84.4606C70.4008 87.2094 60.8337 87.8221 51.5039 86.2506C49.8939 86.0006 48.2939 85.6406 46.5639 85.2506V81.8506C46.5639 81.0906 46.5639 80.3206 46.5639 79.5606C46.5775 79.3028 46.5384 79.045 46.449 78.8028C46.3597 78.5606 46.2219 78.3392 46.0441 78.152C45.8663 77.9648 45.6522 77.8159 45.4149 77.7142C45.1776 77.6125 44.9221 77.5603 44.6639 77.5606C44.4083 77.5613 44.1555 77.6146 43.9214 77.7173C43.6873 77.8201 43.4768 77.9699 43.3032 78.1576C43.1296 78.3453 42.9966 78.5667 42.9124 78.8081C42.8282 79.0495 42.7947 79.3057 42.8139 79.5606C42.8139 80.9906 42.8139 82.4106 42.8139 84.0806C41.5439 83.5306 40.4039 83.0806 39.3139 82.5106C39.1139 82.4106 39.0339 81.9206 39.0339 81.6006C39.0339 79.3106 39.0339 77.0106 39.0339 74.7106C39.0339 74.4406 39.0339 74.1606 39.0339 73.8806C39.0327 73.629 38.9812 73.3802 38.8825 73.1487C38.7838 72.9172 38.6399 72.7078 38.4592 72.5327C38.2785 72.3576 38.0647 72.2203 37.8302 72.129C37.5958 72.0376 37.3455 71.994 37.0939 72.0006C36.8443 71.995 36.5961 72.0405 36.3647 72.1344C36.1332 72.2283 35.9235 72.3685 35.7483 72.5465C35.5731 72.7245 35.4362 72.9364 35.3461 73.1693C35.2559 73.4022 35.2143 73.6511 35.2239 73.9006C35.1739 75.5006 35.2239 77.1006 35.2239 78.7006V80.0006C34.112 79.3015 33.1881 78.3409 32.5327 77.2027C31.8773 76.0645 31.5104 74.7832 31.4639 73.4706C31.3539 69.4706 31.4639 65.5506 31.4639 61.5806C31.4639 61.4506 31.4639 61.3206 31.5239 61.1406C32.8739 62.1406 34.1139 63.0806 35.4639 63.8906C40.1619 66.618 45.3503 68.395 50.7339 69.1206C60.7791 70.879 71.0999 70.193 80.8239 67.1206C82.8358 66.4612 84.7865 65.6281 86.6539 64.6306C88.4739 63.6306 90.1439 62.4006 91.9339 61.2206C91.8839 65.6206 91.9539 70.0006 91.8539 74.3706Z" fill="#042365"/>
</svg>
