<svg width="113" height="114" viewBox="0 0 113 114" fill="none" xmlns="http://www.w3.org/2000/svg">
<path d="M64.176 2.45153C62.4043 1.41956 60.3249 0.923508 58.3872 0.181641H54.8439C54.6839 0.262248 54.5162 0.326785 54.3434 0.374305C46.4021 1.7916 41.3752 8.91354 42.6994 16.8836C43.9307 24.2957 51.1523 29.409 58.8035 28.284C64.5369 27.4403 69.2229 22.9913 70.4652 17.2114C71.6899 11.5466 69.1631 5.36807 64.176 2.45153ZM56.5181 8.28018C53.3912 8.66772 51.4623 10.1625 50.7758 12.7757C50.6727 13.3161 50.5987 13.8616 50.5544 14.41C50.3617 15.6745 49.5512 16.4031 48.4107 16.3211C47.2702 16.2392 46.4996 15.3357 46.5239 14.0335C46.628 8.79395 51.0394 4.3671 56.2989 4.22537C57.6099 4.18994 58.5311 4.92295 58.6219 6.07451C58.7083 7.28364 57.9288 8.10523 56.5181 8.28018Z" fill="#042365"/>
<path d="M101.297 5.36143C94.9678 16.6865 88.6254 28.0043 82.2697 39.3146C82.1776 39.4537 82.0778 39.5875 81.9707 39.7154L75.3271 35.7049C77.0988 32.7995 78.8416 29.9937 80.5269 27.1524C85.3235 19.0635 90.1047 10.959 94.8704 2.83908C95.5347 1.70081 96.2921 0.72863 97.5123 0.181641H99.2839C99.4345 0.272436 99.5829 0.37209 99.7401 0.449599C101.711 1.43064 102.384 3.41928 101.297 5.36143Z" fill="#042365"/>
<path d="M37.8979 35.7116L31.2388 39.7376C31.0173 39.3611 30.7959 39.0267 30.6077 38.6835C24.5251 27.8367 18.4425 16.9899 12.3599 6.14316C10.781 3.3307 11.1818 1.75617 13.9632 0.181641H15.7349C17.0016 0.744131 17.7457 1.77389 18.4344 2.94095C24.6661 13.491 30.9184 24.027 37.1915 34.5489L37.8979 35.7116Z" fill="#042365"/>
<path d="M90.3152 112.905C78.9968 114.705 67.9883 109.771 62.4963 100.14C59.7481 95.3212 57.4582 90.241 54.9071 85.3026C47.8236 71.6124 40.7304 57.9296 33.6277 44.2541C33.4793 43.9662 33.3398 43.6761 33.1582 43.3151L39.9989 39.1895C40.2558 39.577 40.4949 39.9335 40.7253 40.2967C52.1109 58.013 63.4987 75.7211 74.8888 93.4211C77.9582 98.1846 83.8953 100.302 89.3143 98.6873C92.0037 97.8894 94.3595 96.2359 96.0241 93.9778C97.6887 91.7197 98.5712 88.9803 98.5378 86.1752C98.5245 84.1821 98.87 82.3772 100.157 80.8093C101.03 79.7288 102.21 78.9376 103.542 78.5396C104.873 78.1416 106.294 78.1555 107.617 78.5793C108.966 78.9845 110.161 79.7879 111.045 80.8842C111.929 81.9805 112.461 83.3184 112.571 84.7224C113.597 98.1159 103.587 110.787 90.3152 112.905Z" fill="#042365"/>
<path d="M54.1467 93.5521C52.302 97.0599 50.8847 100.827 48.1674 103.816C40.4653 112.278 30.9672 115.383 19.9986 112.15C9.1474 108.948 2.79613 101.299 0.913775 90.0952C0.652745 88.3482 0.578509 86.5785 0.692322 84.8158C0.869485 81.0843 4.11377 78.1545 7.81204 78.232C11.5103 78.3095 14.4556 81.2459 14.6771 84.9885C14.7657 86.5962 14.759 88.2704 15.213 89.7896C16.8052 95.1311 20.4769 98.3621 25.9845 99.0906C31.1621 99.7683 35.3918 97.7818 38.3371 93.4303C41.329 89.0123 44.1879 84.5057 47.1067 80.039C47.1842 79.9194 47.2794 79.8065 47.4743 79.5452C49.7331 84.0119 51.9454 88.3701 54.1334 92.7416C54.1903 92.8687 54.2209 93.0062 54.2231 93.1455C54.2254 93.2848 54.1994 93.4231 54.1467 93.5521Z" fill="#042365"/>
<path d="M80.0651 43.2639L65.3252 71.4106C63.826 69.0987 62.3644 66.862 60.9227 64.6098C60.2938 63.6243 59.253 62.6167 59.2375 61.6091C59.222 60.6502 60.2916 59.667 60.8984 58.7037C64.7723 52.5369 68.6478 46.3717 72.5247 40.2079C72.7195 39.9001 72.9233 39.5967 73.2089 39.1582L80.0651 43.2639Z" fill="#042365"/>
</svg>
