<svg width="193" height="119" viewBox="0 0 193 119" fill="none" xmlns="http://www.w3.org/2000/svg">
<g opacity="0.6" clip-path="url(#clip0_2202_41274)">
<path fill-rule="evenodd" clip-rule="evenodd" d="M75.0413 24.1445C153.795 27.7457 146.596 94.7943 64 113.413C131.974 90.2024 146.744 32.3572 75.0413 24.1445Z" fill="#042365"/>
<path fill-rule="evenodd" clip-rule="evenodd" d="M78.7567 21.9492C157.481 25.5521 157.907 93.3258 75.3428 111.949C148.525 88.9322 156.269 30.3937 78.7567 21.9492Z" fill="#C3001D"/>
<path fill-rule="evenodd" clip-rule="evenodd" d="M152.61 117.621C96.2126 120.791 48.3985 120.791 -8 117.621C48.3985 114.449 96.2126 114.449 152.61 117.621Z" fill="#042365"/>
<path d="M104.015 2.00664C100.852 1.79426 102.422 6.73623 102.296 8.71646L84.3795 26.5213C83.2335 25.3733 81.6751 24.6731 80.6666 23.33C80.1694 22.8018 79.6139 22.3319 79.0107 21.9295C78.4378 21.4875 77.8648 20.8332 77.1429 20.6323C75.6373 20.3021 74.0851 20.2438 72.5591 20.4601C70.9102 20.675 69.2483 20.7728 67.5857 20.7528C67.0538 20.7448 66.5233 20.6969 65.9986 20.6093H65.9527C65.9527 20.0353 65.9871 19.5073 65.9871 18.8874C65.9871 17.969 65.7866 17.1023 65.8439 16.1725C65.8668 14.9904 65.6403 13.8169 65.1792 12.7286C65.7257 12.7745 66.276 12.7161 66.8007 12.5564C66.8191 12.5515 66.8353 12.5407 66.8468 12.5257C66.8584 12.5106 66.8647 12.4922 66.8647 12.4732C66.8647 12.4542 66.8584 12.4357 66.8468 12.4206C66.8353 12.4056 66.8191 12.3948 66.8007 12.3899C66.3516 12.4065 65.902 12.3737 65.46 12.2924L65.6662 12.2005C66.0015 12.1814 66.3274 12.0831 66.6174 11.9135C66.6385 11.8984 66.6539 11.8766 66.6611 11.8516C66.6682 11.8266 66.6667 11.7999 66.6567 11.7759C66.6467 11.7519 66.6289 11.732 66.6061 11.7194C66.5833 11.7069 66.557 11.7025 66.5314 11.7069C66.4654 11.7255 66.3985 11.7409 66.3309 11.7528C66.4054 11.6954 66.4741 11.6323 66.5429 11.5691C66.553 11.5612 66.5615 11.5514 66.5679 11.5402C66.5743 11.529 66.5784 11.5166 66.58 11.5038C66.5816 11.491 66.5806 11.4781 66.5772 11.4656C66.5738 11.4532 66.568 11.4416 66.5601 11.4314C66.5522 11.4212 66.5423 11.4127 66.5312 11.4063C66.52 11.3999 66.5076 11.3958 66.4949 11.3942C66.4821 11.3926 66.4691 11.3936 66.4567 11.397C66.4443 11.4004 66.4327 11.4062 66.4226 11.4142C66.1527 11.5848 65.8535 11.7035 65.5402 11.7643H65.4714C65.7705 11.6389 66.0341 11.4418 66.2392 11.1903C66.261 11.1669 66.2731 11.1362 66.2731 11.1042C66.2731 11.0723 66.261 11.0415 66.2392 11.0181C66.2634 11.0048 66.2864 10.9895 66.308 10.9722C66.4226 10.8861 66.308 10.7082 66.1991 10.7828C65.7764 10.998 65.3217 11.1434 64.8526 11.2133C65.4087 11.0806 65.9315 10.8344 66.3882 10.4901C66.4093 10.475 66.4247 10.4531 66.4319 10.4281C66.439 10.4031 66.4375 10.3764 66.4275 10.3524C66.4175 10.3284 66.3997 10.3085 66.3769 10.296C66.3542 10.2834 66.3278 10.279 66.3022 10.2834L65.4714 10.3925C65.726 10.0342 65.8999 9.62495 65.9814 9.19286C65.9814 9.10676 65.8668 9.05511 65.8152 9.11824C65.6834 9.2847 65.4657 9.38801 65.3167 9.54299L64.8813 10.0251C64.9558 9.78406 65.0016 9.53151 65.0761 9.27896C65.162 9.19286 65.2422 9.1125 65.3167 9.02641C65.3912 8.94031 65.3167 8.81977 65.2079 8.88291L65.162 8.91735C65.1482 8.90402 65.1297 8.89658 65.1105 8.89658C65.0912 8.89658 65.0728 8.90402 65.0589 8.91735L64.9959 9.02641L64.824 9.15268C65.0206 8.84525 65.1486 8.49884 65.199 8.13721C65.2495 7.77559 65.2212 7.40731 65.1162 7.05766C65.0703 6.91416 64.8297 6.93138 64.8412 7.09784C64.8367 7.75724 64.5992 8.39374 64.1708 8.89439C64.5776 8.24005 64.8985 7.41352 64.3656 6.80511C64.4 6.62717 64.4286 6.44924 64.4515 6.27704C64.4745 6.10485 64.2625 6.08189 64.1651 6.15651C64.0561 6.24616 63.9698 6.36019 63.9129 6.48942C63.9277 5.93392 63.9086 5.37804 63.8556 4.82488C63.8518 4.78898 63.836 4.75543 63.8108 4.72963C63.7856 4.70382 63.7525 4.68726 63.7168 4.68262C63.681 4.67798 63.6448 4.68553 63.6138 4.70405C63.5829 4.72256 63.5591 4.75097 63.5462 4.7847C63.4488 5.08891 63.3342 5.39312 63.2139 5.70306C63.1738 5.63419 63.1337 5.56531 63.0879 5.50217C63.0689 5.45726 63.0328 5.42175 62.9877 5.40346C62.9426 5.38516 62.892 5.38557 62.8472 5.4046C62.8024 5.42362 62.7669 5.45971 62.7487 5.50492C62.7304 5.55013 62.7308 5.60076 62.7498 5.64567C62.7926 5.92336 62.7926 6.20598 62.7498 6.48368C62.6663 6.29997 62.5358 6.14158 62.3717 6.02449C62.3427 5.99575 62.3036 5.97963 62.2628 5.97963C62.222 5.97963 62.1829 5.99575 62.1539 6.02449C62.1509 5.97671 62.1509 5.92878 62.1539 5.881C62.1452 5.82562 62.117 5.77517 62.0745 5.73875C62.032 5.70232 61.9778 5.68231 61.9219 5.68231C61.8659 5.68231 61.8118 5.70232 61.7692 5.73875C61.7267 5.77517 61.6985 5.82562 61.6898 5.881C61.6709 6.05695 61.6403 6.23145 61.5981 6.40332C61.4734 6.30205 61.3175 6.24727 61.157 6.24835V5.881C61.1595 5.82951 61.1427 5.77895 61.1099 5.73923C61.0771 5.69952 61.0306 5.67351 60.9797 5.66632C60.9287 5.65913 60.877 5.67128 60.8345 5.70038C60.792 5.72948 60.7619 5.77343 60.7501 5.8236C60.7501 5.69732 60.7501 5.56531 60.7501 5.42755C60.7502 5.40601 60.7452 5.38475 60.7355 5.36549C60.7259 5.34623 60.7118 5.32951 60.6946 5.31667C60.6773 5.30383 60.6573 5.29523 60.6361 5.29156C60.6149 5.28789 60.5931 5.28925 60.5725 5.29554C60.5381 5.09465 60.4751 4.93967 60.3663 4.89949C60.4064 4.89949 60.4522 4.86505 60.4407 4.82488C60.4386 4.80772 60.4386 4.79037 60.4407 4.77322C60.4366 4.761 60.4298 4.74987 60.4208 4.74065C60.4118 4.73143 60.4008 4.72436 60.3887 4.71995C60.3766 4.71554 60.3637 4.71391 60.3509 4.71518C60.3381 4.71646 60.3257 4.7206 60.3147 4.7273C60.3147 4.7273 60.3147 4.68138 60.3147 4.65268C60.3147 4.62398 60.2574 4.65268 60.2631 4.65268C60.2688 4.65268 60.2631 4.7847 60.2631 4.84783C60.2001 5.35294 60.1428 5.82934 60.0454 6.28852C59.9905 6.00532 59.8878 5.73356 59.7417 5.48495C59.7349 5.46745 59.7214 5.45338 59.7042 5.44584C59.687 5.43831 59.6675 5.43792 59.65 5.44477C59.6326 5.45162 59.6185 5.46515 59.611 5.48237C59.6035 5.49959 59.6031 5.5191 59.6099 5.53661C59.773 6.12966 59.763 6.75708 59.5813 7.34465C59.603 6.5989 59.524 5.85362 59.3464 5.12908C59.34 5.10621 59.3273 5.0856 59.3098 5.06962C59.2922 5.05364 59.2706 5.04294 59.2472 5.03875C59.2239 5.03455 59.1998 5.03703 59.1779 5.0459C59.1559 5.05478 59.1368 5.06968 59.1229 5.08891C59.0771 4.60102 59.0026 4.11888 58.9166 3.64822C58.9166 3.59082 58.8135 3.60804 58.8135 3.64822C58.8988 5.03339 58.8258 6.4238 58.5958 7.79235C58.4527 7.51903 58.2818 7.26128 58.0858 7.02322C58.0669 7.00628 58.0424 6.99691 58.0171 6.99691C57.9917 6.99691 57.9672 7.00628 57.9483 7.02322C57.9422 6.99503 57.9267 6.96979 57.9043 6.95169C57.8818 6.93358 57.8539 6.92371 57.8251 6.92371C57.7963 6.92371 57.7684 6.93358 57.746 6.95169C57.7236 6.96979 57.708 6.99503 57.7019 7.02322V7.14949C57.5687 6.92933 57.3887 6.74122 57.1748 6.59847C57.129 6.56977 57.0488 6.59847 57.0717 6.68457C57.1431 6.87086 57.1987 7.06287 57.2378 7.25855C57.0569 6.90992 56.7754 6.62391 56.4299 6.43776C56.3211 6.39184 56.1836 6.52386 56.2924 6.61569C56.4529 6.76166 56.5749 6.945 56.6477 7.14949C56.6477 7.44796 56.6477 7.72347 56.6477 8.03342C56.5159 7.68329 56.3726 7.36187 56.2409 7.0921C56.2232 7.06248 56.1965 7.03935 56.1647 7.02613C56.1329 7.0129 56.0977 7.01027 56.0642 7.01864C56.0308 7.02701 56.001 7.04592 55.9792 7.07259C55.9573 7.09925 55.9446 7.13226 55.9429 7.16671C55.9659 7.57736 56.0176 7.98589 56.0976 8.38929C55.9143 8.12526 55.7137 7.87271 55.5246 7.62016C55.4272 7.49962 55.2439 7.6546 55.3126 7.78087C55.5491 8.20642 55.721 8.6649 55.8226 9.1412C55.8234 9.12399 55.8234 9.10675 55.8226 9.08954C55.6908 8.75664 55.3356 8.44669 55.2496 8.12526C55.1981 7.9588 54.923 7.98176 54.9402 8.16544C54.9746 8.69924 55.3012 9.15842 55.3871 9.69222C55.1387 9.33396 54.9311 8.9489 54.7683 8.54426C54.7556 8.51357 54.7322 8.48852 54.7025 8.47374C54.6728 8.45896 54.6387 8.45544 54.6066 8.46383C54.5745 8.47222 54.5465 8.49195 54.5278 8.51939C54.5091 8.54683 54.5009 8.58013 54.5048 8.61314C54.5246 8.73185 54.5533 8.84888 54.5907 8.96327C54.5491 8.96324 54.5092 8.97938 54.4792 9.00829C54.4493 9.0372 54.4318 9.07662 54.4303 9.11824C54.3902 9.60613 54.5391 10.0481 54.5391 10.5245C54.5391 10.7196 54.5391 10.9378 54.5391 11.1559C54.2899 10.7081 54.1267 10.2175 54.0578 9.70944C54.0549 9.67368 54.0409 9.63971 54.0178 9.6123C53.9947 9.58488 53.9636 9.56539 53.9289 9.55654C53.8942 9.54768 53.8576 9.54992 53.8242 9.56293C53.7908 9.57593 53.7623 9.59906 53.7427 9.62909C53.7048 9.62797 53.6676 9.63988 53.6374 9.66286C53.6072 9.68583 53.5857 9.71847 53.5765 9.75536C53.4051 10.4824 53.4228 11.2413 53.6281 11.9594L53.4791 12.0054C53.2448 11.435 53.1831 10.8083 53.3015 10.2031C53.3588 10.0481 53.101 9.93903 53.038 10.0883C52.9546 10.2804 52.9098 10.4872 52.9062 10.6967C52.7697 11.3611 52.7387 12.043 52.8145 12.7171C52.735 12.218 52.7176 11.7109 52.7629 11.2075C52.7629 11.0411 52.5165 11.0066 52.4764 11.1674C52.3381 11.9389 52.3245 12.7276 52.4363 13.5034C52.2505 12.9848 52.1649 12.4355 52.1842 11.8848C52.188 11.8574 52.1808 11.8296 52.1641 11.8076C52.1475 11.7855 52.1228 11.771 52.0954 11.7672C52.0681 11.7634 52.0403 11.7706 52.0183 11.7873C51.9963 11.804 51.9818 11.8287 51.978 11.8561C51.7831 12.8204 52.104 13.8651 52.3045 14.8121C52.4793 15.9338 52.9613 16.9849 53.6969 17.8485C53.164 19.3466 53.4677 20.7643 55.0204 21.4588C55.9085 21.8549 56.6076 21.6482 57.3753 22.5207C57.7249 22.9225 57.7879 23.3185 58.1832 23.6686C58.2164 23.6923 58.2471 23.7192 58.2749 23.749L58.3551 23.8293C58.1957 24.2142 58.0041 24.5848 57.7822 24.9371C56.8024 26.5844 54.7339 27.9046 53.1984 29.0296C51.044 30.6482 49.5314 32.1865 50.133 35.0621C50.6487 37.513 53.2958 39.3727 54.9746 41.0373C56.258 42.323 57.7822 43.2987 59.1687 44.4811C59.4037 44.6763 59.6328 44.8714 59.8678 45.0551C60.1306 45.6919 60.4449 46.3062 60.8074 46.8918C61.3885 47.8203 61.6313 48.9213 61.495 50.0086C61.4728 50.2698 61.5306 50.5317 61.6605 50.7593C61.7905 50.9869 61.9866 51.1695 62.2227 51.2828C63.3686 52.0806 62.429 53.2343 63.0478 54.0723C63.6666 54.9103 64.7094 55.3466 64.9214 56.3223C65.0131 56.7356 65.4027 56.7586 65.7235 56.7873H65.8038C65.8038 57.3612 65.7465 57.9352 65.7407 58.5092C65.7547 59.7397 65.8988 60.9653 66.1705 62.1654C66.3825 63.1412 66.6174 63.8185 66.3423 64.823C66.2109 65.1936 66.1262 65.5792 66.0902 65.9709C66.0902 66.8663 65.5173 67.6929 65.6777 68.6112C65.8496 69.5927 65.7694 70.3332 66.3252 71.154C66.4821 71.3871 66.6544 71.6095 66.8408 71.8198C66.8007 72.0379 66.7663 72.2503 66.7262 72.4684C66.3252 74.5691 65.7063 76.3887 66.1533 78.5583C66.3653 79.5857 66.8179 80.5328 67.0643 81.5487C67.2697 82.4177 67.5515 83.2667 67.9066 84.0857C68.2163 84.7942 68.6005 85.4676 69.0525 86.0947C68.9825 86.9393 69.0959 87.7891 69.3848 88.5857C69.7916 89.6533 70.8803 90.5258 71.4762 91.5073C71.8589 92.1256 72.3044 92.7026 72.8055 93.2292C72.82 93.8519 72.797 94.4748 72.7367 95.0947C72.4846 97.1495 72.8341 99.2503 72.5763 101.305C72.4559 102.264 72.8398 102.769 71.7569 103.245C70.9032 103.613 70.9147 104.198 70.5594 105.025C69.9463 106.459 69.2817 108.422 69.3333 110.064C69.1473 110.159 68.956 110.244 68.7603 110.317C67.368 110.804 66.3767 111.729 65.2823 112.693C64.5719 113.324 64.5432 114.587 64.7781 115.431C64.95 116.045 66.3481 115.901 66.7893 115.924C70.3188 116.137 73.9056 115.833 77.4408 115.85C78.4206 115.85 78.518 114.587 78.3404 113.221C79.169 113.266 79.998 113.139 80.7755 112.848C83.0273 111.884 83.8982 110.053 85.2733 108.216C85.703 107.642 86.0755 106.901 86.8834 106.856C87.2815 106.834 87.6713 106.733 88.0293 106.557C89.0769 106.018 90.0512 105.347 90.9285 104.56C92.0745 103.567 92.3724 102.591 91.788 101.23C90.8483 99.0264 88.0981 98.0507 86.7344 96.1278C86.0048 95.0028 85.4159 93.7922 84.9811 92.5232C84.5628 91.4327 84.6144 90.256 84.3336 89.1482C83.5945 86.1693 82.4314 83.4084 82.8267 80.2745C82.8887 79.5329 82.6607 78.7961 82.1907 78.2197C82.5444 77.7666 82.8177 77.256 82.9986 76.7101C83.1304 76.2911 83.2565 75.9008 83.3481 75.4933L83.4455 75.5449C84.0335 75.7807 84.6441 75.9557 85.2676 76.0672C86.7115 76.4862 86.4135 75.1546 86.339 74.2764C86.0812 72.1527 86.1041 70.006 86.9693 68.0143C87.3016 67.2394 88.2528 66.476 88.757 65.7758C89.279 65.0329 89.7009 64.2242 90.0118 63.3708C91.5187 59.5711 91.0202 55.3351 89.8857 51.5181C89.3586 49.7617 88.7398 48.0054 88.3502 46.2203C88.0867 45.2642 87.7554 44.3281 87.3589 43.4193L87.5136 43.3561C88.459 42.9945 89.1581 42.277 90.155 42.013C90.838 41.8344 91.4866 41.5435 92.0745 41.152C93.0772 40.4977 92.9741 38.5749 92.7162 37.5934C92.5605 37.0361 92.2848 36.5197 91.9087 36.0804C91.5326 35.6412 91.0651 35.2897 90.5389 35.0506C91.5302 33.7822 89.1638 31.5149 88.1955 30.6023C87.6197 29.961 87.0821 29.2864 86.5854 28.5819C86.3709 28.3377 86.1371 28.1112 85.8864 27.9046L103.047 10.8C103.752 10.226 104.657 9.65204 105.121 8.87143C105.751 7.79809 105.763 6.57551 105.929 5.35294C106.152 3.75727 105.935 2.14439 104.015 2.00664ZM80.2885 104.077C80.2871 104.11 80.2733 104.142 80.25 104.165C80.2266 104.189 80.1954 104.202 80.1624 104.204C79.2571 104.313 79.1368 105.352 78.5466 105.822C78.2213 106.14 77.8457 106.402 77.4351 106.597C77.4175 106.602 77.3993 106.602 77.3816 106.598C77.3639 106.594 77.3473 106.587 77.333 106.576C77.3187 106.565 77.3071 106.551 77.299 106.534C77.2908 106.518 77.2864 106.501 77.2861 106.482C77.3117 105.962 77.4382 105.451 77.6585 104.979C77.8678 104.496 78.016 103.989 78.0997 103.469C78.2003 103.187 78.3606 102.931 78.5696 102.717C78.6698 102.573 78.785 102.44 78.9133 102.321L78.9764 102.246C79.0311 102.179 79.0809 102.108 79.1253 102.034L79.2227 101.879C79.3007 101.683 79.3887 101.492 79.4863 101.305L79.5321 101.23C79.5608 101.064 79.578 100.829 79.727 100.743C79.7728 100.714 79.853 100.743 79.9046 100.743C80.0087 100.743 80.1125 100.731 80.214 100.708C80.226 100.708 80.238 100.71 80.249 100.715C80.26 100.72 80.2696 100.727 80.277 100.737C80.2958 100.737 80.3143 100.742 80.3311 100.75C80.3478 100.759 80.3625 100.771 80.3741 100.786C80.3856 100.8 80.3937 100.818 80.3977 100.836C80.4017 100.854 80.4016 100.874 80.3973 100.892C80.2369 101.931 80.4203 103.027 80.2885 104.077Z" fill="#042365"/>
</g>
<defs>
<clipPath id="clip0_2202_41274">
<rect width="200.856" height="120" fill="white" transform="translate(-8)"/>
</clipPath>
</defs>
</svg>
