<svg width="40" height="41" viewBox="0 0 40 41" fill="none" xmlns="http://www.w3.org/2000/svg">
<path d="M30.8898 7.04922C28.6336 8.08906 26.3265 9.06328 24.032 10.0898C23.1868 9.06607 22.1132 8.25477 20.8976 7.72109C15.9375 5.53828 10.1156 8.87422 9.53123 14.2539C9.46326 14.8789 9.5031 15.5242 9.52419 16.1594C9.53201 16.3883 9.48513 16.5008 9.2656 16.5953C7.69216 17.2773 6.12576 17.9766 4.5531 18.6633C4.41133 18.7248 4.25914 18.7587 4.10466 18.7633C3.55779 18.775 3.01638 18.768 2.44763 18.768V11.7367C3.27498 11.7367 4.09216 11.7234 4.90779 11.7445C5.18123 11.7516 5.27966 11.6555 5.37107 11.4086C5.67185 10.5938 6.00857 9.79219 6.35388 8.93203L4.43435 7.06641L9.40232 2.09141L11.3023 4.00234L13.1336 3.19609C13.1687 3.18047 13.2047 3.16484 13.2414 3.15078C13.5312 3.04219 13.9515 3.01328 14.0781 2.80547C14.2297 2.55547 14.1367 2.15313 14.139 1.81641C14.1437 1.21797 14.139 0.61875 14.139 0.0195312H21.1703C21.1703 0.865625 21.1625 1.71172 21.1789 2.55781C21.1789 2.67734 21.2742 2.86172 21.3726 2.90313C22.2203 3.25938 23.0797 3.58984 24.0101 3.95703L25.8851 2.04297C27.5531 3.70781 29.1875 5.34375 30.8898 7.04922Z" fill="white"/>
<path d="M40 6.97188V7.05C39.6094 8.09297 39.2148 9.13516 38.8281 10.1797C38.5531 10.9211 38.2812 11.6641 37.9977 12.4523L35.8008 11.6594L36.4883 9.73047L0.9625 25.368L0 23.3V23.2219C5.02969 21.0104 10.0589 18.7987 15.0875 16.5867C21.65 13.6987 28.2125 10.8094 34.775 7.91875C34.9031 7.8625 35.0297 7.80156 35.2227 7.71328L33.6984 7.14453C33.9641 6.41094 34.2234 5.69688 34.4984 4.9375L40 6.97188Z" fill="white"/>
<path d="M40 37.6738H0V40.0176H40V37.6738Z" fill="white"/>
<path d="M37.5492 14.2461H30.5797V35.3039H37.5492V14.2461Z" fill="white"/>
<path d="M28.175 21.3008H21.193V35.3141H28.175V21.3008Z" fill="white"/>
<path d="M18.8 25.9883H11.818V35.3141H18.8V25.9883Z" fill="white"/>
<path d="M9.43589 30.6641H2.44604V35.3039H9.43589V30.6641Z" fill="white"/>
</svg>
