<svg width="24" height="40" viewBox="0 0 24 40" fill="none" xmlns="http://www.w3.org/2000/svg">
<path d="M21.0611 9.6875C20.9791 10.3414 20.4775 10.7563 19.7455 10.7664C18.8611 10.7781 17.9759 10.7664 17.0892 10.7664H16.6244V17.8758H7.04391V10.7664H6.5986C5.71344 10.7664 4.82907 10.7664 3.94235 10.7664C3.37594 10.7664 2.91032 10.5719 2.67438 10.032C2.43141 9.47656 2.6111 8.99922 3.01813 8.57813C5.6223 5.88281 8.22646 3.1875 10.8306 0.492188C11.0338 0.291406 11.3173 0.164063 11.5627 0H12.1095C12.4127 0.234375 12.7478 0.440625 13.0134 0.714063C15.5358 3.31094 18.0496 5.91146 20.5548 8.51563C20.8744 8.84922 21.122 9.20703 21.0611 9.6875Z" fill="white"/>
<path d="M23.6719 20.3906V25.3125H0V20.3125C0.167969 20.3203 0.336719 20.3344 0.504687 20.3344C8.04844 20.3344 15.5919 20.3357 23.1352 20.3383C23.3141 20.3383 23.493 20.3727 23.6719 20.3906Z" fill="white"/>
<path d="M23.6719 27.7344V32.6562C23.5031 32.6633 23.3344 32.6758 23.1664 32.6758H0.427344C0.285156 32.6758 0.142188 32.6633 0 32.6562V27.7344H23.6719Z" fill="white"/>
<path d="M23.6719 35.1562V38.8281C23.5703 39.3875 23.2492 39.7711 22.7344 40H0.9375C0.721272 39.9234 0.524884 39.7995 0.362684 39.6373C0.200484 39.4751 0.0765714 39.2787 0 39.0625L0 35.0781C0.167969 35.0867 0.335937 35.1031 0.503906 35.1031C8.04766 35.1031 15.5909 35.1044 23.1336 35.107C23.3133 35.107 23.4922 35.1391 23.6719 35.1562Z" fill="white"/>
</svg>
