<svg width="40" height="37" viewBox="0 0 40 37" fill="none" xmlns="http://www.w3.org/2000/svg">
<path d="M26.3833 12.7389C26.1062 11.5576 25.9333 10.3535 25.6729 9.16804C25.1375 6.74304 23.05 5.70137 20.8396 6.82012C18.1646 8.17637 15.4 9.24721 12.4458 9.79929C9.81413 10.2953 7.12077 10.374 4.46458 10.0326C2.02292 9.71596 1.08958 10.1826 0 12.3951V13.8535C0.364583 15.7805 0.802083 17.6951 1.07917 19.6347C1.93958 25.6493 5.15208 30.143 10.0729 33.4639C11.9479 34.7305 14.0458 35.6785 16.0417 36.7701H17.5C19.8875 35.5201 21.3646 33.3514 22.9417 31.2972C27.2417 25.7014 27.9521 19.4326 26.3833 12.7389ZM6.77708 20.0305C6.59167 20.2389 6.01458 20.1097 5.61667 20.1368C5.6 19.7035 5.40833 19.1389 5.6 18.8555C6.40625 17.7055 7.62292 17.243 9.4 17.1639C10.0643 17.3741 10.7113 17.6353 11.3354 17.9451C11.575 18.0785 11.7833 18.7785 11.6542 18.9451C11.4458 19.2118 10.8208 19.4743 10.5771 19.3472C9.09375 18.5514 7.88958 18.7472 6.77708 20.0222V20.0305ZM20.8479 23.8326C20.775 25.0222 20.1458 25.916 19.2812 26.668C17.8771 27.8764 16.2021 28.3555 14.325 28.418C12.5542 28.2972 10.8667 27.868 9.7875 26.216C8.95417 24.9347 9.24167 24.2639 10.7271 23.9889C13.5896 23.4597 16.4556 22.9437 19.325 22.441C20.5375 22.218 20.925 22.5826 20.8479 23.8243V23.8326ZM21.4583 17.3243C20.9729 17.2993 20.4979 17.018 19.8229 16.7764C19.2354 17.1201 18.5375 17.4014 17.9937 17.8826C17.5 18.2993 17.0875 18.5389 16.5667 18.068C16.0458 17.5972 16.3208 17.1389 16.6688 16.7055C17.9604 15.1035 20.5271 14.6618 22.1896 15.8264C22.4688 16.0222 22.5271 16.5389 22.6875 16.9076C22.2687 17.0576 21.8521 17.3451 21.4583 17.3243Z" fill="white"/>
<path d="M40.0001 6.97826V8.43659C39.6335 10.3678 39.1835 12.2887 38.9147 14.2324C38.0668 20.3616 34.748 24.8449 29.748 28.2324C28.4751 29.0949 27.1126 29.8283 25.7897 30.6199C25.7314 30.5533 25.673 30.4845 25.6126 30.4116C25.9751 29.7262 26.3876 29.0616 26.6897 28.3491C27.2395 27.1163 27.7262 25.8563 28.148 24.5741C28.523 23.3658 28.6126 22.0408 29.9147 21.3553C29.9439 21.3408 29.9585 21.3033 29.9814 21.2762C31.1501 19.8178 30.8543 18.9553 29.0085 18.5512C28.7689 17.0408 28.5272 15.5137 28.3064 14.1053C28.8412 14.0006 29.3687 13.8614 29.8855 13.6887C31.0335 13.2303 32.0751 13.4199 33.0105 14.4053C33.4272 14.8574 33.8751 15.2053 34.423 14.7345C35.023 14.2158 34.6835 13.6678 34.2835 13.1887C32.8001 11.4137 30.2105 11.2553 28.0793 12.9199C27.871 11.7053 27.6751 10.5658 27.4772 9.42617C26.9251 6.26159 24.8918 4.44076 22.0605 4.70742C21.2272 4.78659 20.3939 5.13867 19.598 5.45534C17.646 6.23034 15.7168 7.05951 13.6543 7.71992C14.2793 5.21992 13.5105 2.18242 16.6855 0.919922H18.1439L20.0855 1.89284C24.946 4.31159 30.048 5.37825 35.471 4.63034C38.0105 4.29492 38.8668 4.73034 40.0001 6.97826Z" fill="white"/>
<path d="M19.0395 24.2051C18.2437 26.6072 13.1916 27.6363 11.4541 25.5072L19.0395 24.2051Z" fill="white"/>
</svg>
