<svg width="40" height="40" viewBox="0 0 40 40" fill="none" xmlns="http://www.w3.org/2000/svg">
<path d="M14.8219 38.973C14.8273 39.4895 14.4133 39.7777 13.9844 39.9996H0.859375C0.481796 39.8217 0.177948 39.5178 0 39.1402L0 36.5621C0.078125 36.2496 0.146094 35.9371 0.234375 35.6246C0.628906 34.2965 1.40625 33.2363 2.5625 32.4215C3.89844 33.7762 5.50156 34.5184 7.40625 34.5215C9.31094 34.5246 10.9219 33.7926 12.275 32.4199C13.493 33.2699 14.3586 34.3871 14.6359 35.8262C14.8367 36.8527 14.8109 37.9238 14.8219 38.973Z" fill="white"/>
<path d="M39.9999 36.6402V39.1402C39.8215 39.5175 39.5177 39.8212 39.1405 39.9996H26.0155C25.3397 39.6871 25.1132 39.1535 25.1468 38.4262C25.1897 37.4934 25.1093 36.5512 25.3866 35.6395C25.7897 34.3074 26.5585 33.2473 27.7194 32.4254C29.0577 33.7816 30.671 34.5301 32.5897 34.5262C34.4944 34.5223 36.0991 33.784 37.4335 32.4238C38.7889 33.3863 39.6093 34.6605 39.9139 36.2684C39.9397 36.3934 39.9718 36.5168 39.9999 36.6402Z" fill="white"/>
<path d="M24.2687 4.78672C23.9453 7.01016 22.1875 8.58359 20.0195 8.59375C18.9537 8.58539 17.9291 8.18122 17.1446 7.45973C16.3601 6.73824 15.8717 5.75094 15.7743 4.68957C15.677 3.6282 15.9775 2.56852 16.6176 1.71633C17.2578 0.86414 18.1918 0.280275 19.2383 0.078125C19.3117 0.057391 19.3835 0.0312788 19.4531 0L20.5469 0C20.7812 0.0617188 21.0211 0.117188 21.2547 0.1875C23.2226 0.78125 24.5555 2.81719 24.2687 4.78672Z" fill="white"/>
<path d="M36.875 28.0008C36.8289 30.143 35.193 31.907 33.0109 32.168C30.9961 32.4086 28.9852 31.0437 28.4562 29.0375C28.3586 28.6687 28.1906 28.5203 27.8414 28.4164C26.2719 27.9477 24.7109 27.4555 23.15 26.9609C22.9297 26.8914 22.7922 26.9016 22.6187 27.0938C21.1766 28.6852 18.8305 28.6805 17.3844 27.0938C17.2461 26.9422 17.1422 26.8789 16.9273 26.9469C15.2555 27.4781 13.5799 27.999 11.9008 28.5094C11.6461 28.5875 11.6375 28.7602 11.5883 28.9406C11.3439 29.9086 10.7702 30.7612 9.96554 31.3522C9.1609 31.9431 8.17562 32.2354 7.17891 32.1789C5.03984 32.0773 3.24062 30.2844 3.13281 28.1492C3.02187 25.9367 4.56719 23.9977 6.70312 23.6617C8.59609 23.3648 10.3312 24.2227 11.2344 25.9273C11.3602 26.1617 11.4687 26.1977 11.7141 26.1195C13.1984 25.6445 14.6898 25.1859 16.1805 24.7297C16.3687 24.6719 16.4797 24.6109 16.5117 24.3781C16.693 23.05 17.3977 22.1016 18.6164 21.5328C18.7086 21.4898 18.8187 21.357 18.8195 21.2648C18.832 19.6648 18.8289 18.0617 18.8289 16.4078H15.3523C14.8187 16.4078 14.2852 16.4164 13.7516 16.4078C13.1484 16.3945 12.6187 15.9766 12.5992 15.3969C12.5617 14.2562 12.4758 13.1039 12.8258 11.9867C13.2328 10.6875 13.9977 9.64766 15.1391 8.83828C16.4758 10.1875 18.0867 10.9398 20.0039 10.9375C21.9211 10.9352 23.5148 10.1984 24.8633 8.82812C26.4453 9.98438 27.3125 11.5078 27.4133 13.45C27.443 14.0211 27.4266 14.5953 27.4203 15.1687C27.4117 15.9219 26.9242 16.4047 26.1625 16.407C24.6523 16.4117 23.1422 16.407 21.6312 16.407H21.1719V18.1875C21.1719 19.1766 21.1641 20.1664 21.1812 21.1562C21.1812 21.2859 21.2852 21.4805 21.3937 21.532C22.5953 22.1016 23.2797 23.0414 23.5031 24.3445C23.525 24.475 23.6469 24.657 23.7609 24.6922C25.3188 25.1945 26.8859 25.6758 28.4484 26.1609C28.5044 26.1736 28.5614 26.1814 28.6187 26.1844C28.675 26.0828 28.7313 25.9828 28.7852 25.8828C29.2425 25.0184 29.981 24.3358 30.8788 23.9479C31.7765 23.56 32.7797 23.4899 33.7227 23.7492C35.5984 24.2516 36.9141 26.0273 36.875 28.0008Z" fill="white"/>
</svg>
