<svg width="40" height="38" viewBox="0 0 40 38" fill="none" xmlns="http://www.w3.org/2000/svg">
<path d="M16.2401 36.0877C16.2283 36.9475 15.6498 37.526 14.7926 37.526C10.3453 37.5286 5.89784 37.5286 1.45014 37.526C0.590287 37.526 0 36.9469 0 36.091C0 35.2724 0 34.4513 0.0537817 33.6354C0.109531 32.7827 0.55159 32.1183 1.29273 31.7051C1.81233 31.4289 2.3524 31.1929 2.90814 30.9994C3.31544 30.8486 3.74963 30.7718 4.1707 30.657C4.57997 30.5462 4.98727 30.4288 5.41686 30.3088L7.25331 33.2917C7.3189 32.7552 7.37661 32.3118 7.41531 31.8665C7.42121 31.8009 7.29791 31.7353 7.28414 31.6592C7.24216 31.4454 7.17264 31.2165 7.21199 31.0125C7.25725 30.7757 7.4868 30.6957 7.72685 30.697C7.9892 30.697 8.25155 30.7016 8.5139 30.697C8.75592 30.6931 8.98351 30.7758 9.0327 31.0073C9.07598 31.2106 9.00581 31.4415 8.96711 31.6566C8.94153 31.8028 8.8438 31.9458 8.85168 32.0855C8.87266 32.4548 8.93366 32.8221 8.99072 33.2897L10.8436 30.2852C11.9362 30.6131 13.0355 30.8991 14.096 31.2886C14.6135 31.4795 15.1048 31.8133 15.5252 32.1787C16.1155 32.6922 16.2283 33.4386 16.2427 34.1863C16.2512 34.8199 16.2486 35.4528 16.2401 36.0877Z" fill="white"/>
<path d="M39.9989 14.8825C39.9877 15.4728 39.9989 16.0631 39.9989 16.6534C39.991 17.5355 39.4296 18.1238 38.5461 18.1251C34.0993 18.1326 29.6525 18.1326 25.2057 18.1251C24.3235 18.1251 23.7555 17.5349 23.7568 16.6534C23.7568 15.8663 23.7568 15.0793 23.8008 14.2955C23.8519 13.4304 24.275 12.7522 25.0233 12.3187C25.4643 12.0569 25.932 11.843 26.4184 11.6805C27.3189 11.3913 28.2391 11.1637 29.173 10.9053L31.0095 13.8869C31.0751 13.376 31.1315 12.9687 31.1708 12.5528C31.1692 12.4622 31.1347 12.3753 31.0738 12.3082C30.9862 12.2164 30.9282 12.1005 30.9072 11.9753C30.8863 11.8502 30.9034 11.7217 30.9564 11.6064C31.0561 11.3605 31.2666 11.289 31.5152 11.2923C31.7637 11.2955 32.0182 11.2923 32.2694 11.2923C32.5075 11.2923 32.739 11.369 32.7863 11.6051C32.8269 11.8091 32.7587 12.038 32.7207 12.2531C32.6944 12.4013 32.5967 12.5463 32.6046 12.6886C32.6256 13.0552 32.6879 13.4193 32.7469 13.8862L34.607 10.8594C35.7875 11.2365 36.9727 11.5677 38.1231 11.9953C39.4316 12.484 40.0258 13.4934 39.9989 14.8825Z" fill="white"/>
<path d="M15.2027 12.1524V8.86448H9.72942V16.407H7.08887V6.18852H15.1974V2.51562L23.5513 7.33499L15.2027 12.1524Z" fill="white"/>
<path d="M33.6368 20.3242V30.5493H25.5289V34.211L17.1836 29.3982L25.5289 24.5854V27.8786H31.0101V20.3242H33.6368Z" fill="white"/>
<path d="M35.8944 5.34913C35.8828 5.56889 35.8208 5.78303 35.7133 5.97501C35.6057 6.16698 35.4554 6.33164 35.274 6.45625C35.0398 6.62415 34.9342 6.83141 34.8883 7.10491C34.7572 7.88277 34.4764 8.59702 33.9583 9.2037C32.7718 10.5922 30.9308 10.581 29.7574 9.17812C29.2675 8.59243 28.9901 7.90704 28.8589 7.16853C28.8044 6.86158 28.7008 6.62415 28.4365 6.43329C28.2606 6.31057 28.1157 6.1486 28.0133 5.9602C27.9108 5.7718 27.8536 5.56215 27.8462 5.34782C27.8383 5.14319 27.9223 4.87887 28.0626 4.74048C28.203 4.60209 28.1984 4.50174 28.1866 4.35089C28.1505 3.88391 28.0607 3.41168 28.1007 2.9506C28.2378 1.3483 29.5148 0.146085 31.1335 0.0555743C31.384 0.0418009 31.6352 0.0555743 31.969 0.0555743C32.703 -0.0100131 33.4775 0.11198 34.1787 0.562565C35.1389 1.18237 35.6505 2.06648 35.6577 3.21557C35.6489 3.56469 35.6189 3.91295 35.5678 4.25841C35.5435 4.46305 35.5022 4.62702 35.7298 4.78967C35.8571 4.87756 35.9056 5.15959 35.8944 5.34913Z" fill="white"/>
<path d="M12.1268 24.8812C12.0507 25.2964 11.8133 25.6079 11.5051 25.8932C11.3341 26.0506 11.2126 26.2544 11.1555 26.4796C10.979 27.306 10.6964 28.0734 10.1159 28.7056C8.98388 29.9328 7.35272 29.9649 6.18067 28.7778C5.58448 28.1744 5.26245 27.4287 5.11225 26.6068C5.05322 26.2789 4.94304 26.0218 4.65773 25.8198C4.49094 25.7025 4.35321 25.5487 4.25509 25.3699C4.15698 25.1912 4.10109 24.9924 4.09171 24.7888C4.08122 24.5736 4.16386 24.2995 4.30618 24.1486C4.43736 24.0129 4.44261 23.9178 4.43146 23.7643C4.39407 23.254 4.30028 22.7293 4.358 22.2308C4.54886 20.5623 6.02326 19.3798 7.76854 19.446C8.30177 19.4663 8.84614 19.446 9.36428 19.5464C10.9745 19.8638 12.018 21.2798 11.894 22.913C11.8658 23.2822 11.8173 23.6502 11.7766 24.0325C12.1531 24.2011 12.1918 24.5258 12.1268 24.8812Z" fill="white"/>
</svg>
