<svg width="40" height="40" viewBox="0 0 40 40" fill="none" xmlns="http://www.w3.org/2000/svg">
<path d="M40 13.5938V14.6875C39.8266 15.4648 39.5875 16.2133 39.0977 16.8602C38.1398 18.1242 36.8555 18.7578 35.2445 18.843V21.1625H28.6875C28.8875 21.7352 29.0836 22.2563 29.2523 22.7859C29.7281 24.2805 28.6648 25.8062 27.1211 25.857C26.746 25.8706 26.3732 25.794 26.0339 25.6335C25.6946 25.473 25.3989 25.2334 25.1715 24.9348C24.9441 24.6362 24.7917 24.2874 24.7272 23.9177C24.6627 23.5479 24.6879 23.1681 24.8008 22.8102C24.9672 22.2789 25.1687 21.7586 25.3711 21.1844H18.8516V17.693C22.1977 17.4625 23.6344 14.7852 23.5133 12.732C23.3805 10.4797 21.6227 8.38047 18.8586 8.26797V4.77734H21.1555C21.1945 3.91172 21.3828 3.12109 21.8047 2.40391C22.5445 1.14766 23.6242 0.358594 25.0617 0.071875C25.1215 0.0537314 25.1794 0.0296532 25.2344 0L26.4844 0C26.5394 0.0296532 26.5972 0.0537314 26.657 0.071875C28.0961 0.354687 29.1727 1.14688 29.9125 2.40234C30.3344 3.11953 30.5219 3.90938 30.5633 4.77422H35.2508V9.43906C36.8617 9.52188 38.1414 10.1602 39.1016 11.4219C39.5891 12.0672 39.8273 12.8172 40 13.5938Z" fill="white"/>
<path d="M16.4844 36.4251V40.0001H16.0156C15.9589 39.9725 15.8991 39.9516 15.8375 39.9376C13.7086 39.733 11.6394 39.1186 9.74375 38.1283C4.94609 35.6033 1.82422 31.7275 0.46875 26.465C0.259375 25.6517 0.15625 24.8119 0 23.9845V23.5158H6.61875C6.42578 22.9587 6.23594 22.4415 6.06641 21.9181C5.57188 20.3908 6.66641 18.8462 8.24922 18.8283C8.62113 18.8241 8.98868 18.9086 9.32149 19.0746C9.6543 19.2407 9.94282 19.4835 10.1632 19.7832C10.3836 20.0828 10.5295 20.4305 10.5889 20.7977C10.6482 21.1648 10.6194 21.5409 10.5047 21.8947C10.3367 22.4244 10.1391 22.9455 9.94375 23.5041H16.4523V27.0111C14.9039 27.0892 13.6109 27.7142 12.6797 28.9939C12.0201 29.8817 11.7109 30.9815 11.8109 32.083C11.9898 34.2759 13.7094 36.2923 16.4844 36.4251Z" fill="white"/>
<path d="M35.2075 23.5398C35.0801 24.3734 35.0122 25.2023 34.8223 26.0016C33.338 32.2344 29.6333 36.5727 23.6778 38.9555C22.3432 39.4774 20.9411 39.807 19.5137 39.9344C19.4393 39.9488 19.3665 39.9708 19.2966 40H18.8278V33.3836C18.2708 33.5758 17.7536 33.7672 17.2278 33.9305C15.7653 34.3906 14.1809 33.2867 14.1434 31.7852C14.1005 30.2266 15.6981 29.0266 17.2067 29.4945C17.738 29.6594 18.2583 29.857 18.8176 30.0508V23.5469H22.3247C22.4028 25.0828 23.0137 26.368 24.2778 27.2969C25.1609 27.9618 26.2572 28.2798 27.3591 28.1906C29.4544 28.0398 31.5778 26.4289 31.7387 23.5391L35.2075 23.5398Z" fill="white"/>
<path d="M20.9664 13.8719C20.475 14.9539 19.2289 15.5367 18.1102 15.1906C17.5781 15.0258 17.0578 14.8266 16.4844 14.6258V21.1516H12.9883C12.9055 19.5625 12.2648 18.2516 10.943 17.3234C10.0556 16.6858 8.96616 16.3939 7.87891 16.5023C5.67266 16.7023 3.69844 18.4367 3.575 21.1711H0V20.7023C0.150781 19.8875 0.254687 19.0617 0.460938 18.2602C1.89141 12.7195 5.25937 8.77891 10.4109 6.34844C12.1648 5.52031 14.032 5.06328 15.9578 4.86406C16.1141 4.84844 16.2703 4.84453 16.4617 4.83203V11.3164C16.9867 11.1297 17.457 10.9687 17.9219 10.7945C18.2674 10.6545 18.642 10.6015 19.0128 10.6402C19.3836 10.6789 19.7393 10.8081 20.0484 11.0164C21.0625 11.6656 21.4352 12.8391 20.9664 13.8719Z" fill="white"/>
</svg>
