<svg width="193" height="117" viewBox="0 0 193 117" fill="none" xmlns="http://www.w3.org/2000/svg">
<path d="M193 91.7644V96.8861C192.275 98.8708 191.698 100.928 190.785 102.819C189.872 104.71 188.408 106.233 185.953 105.943C183.499 105.653 182.27 103.95 181.916 101.841C181.391 98.7129 181.271 95.5161 181.007 92.3449C180.947 91.6364 181.007 90.915 181.007 90.0017C178.911 91.8071 177.251 93.4759 175.347 94.799C174.109 95.6527 172.244 95.6868 171.143 96.6471C169.244 98.3117 167.054 98.8324 164.741 99.208C158.65 100.22 156.247 99.0714 153.217 93.7021C152.479 92.4217 151.847 91.0516 151.083 89.7712C147.549 83.7958 144.075 77.7821 140.413 71.8963C138.654 69.0794 136.533 66.4844 134.484 63.8595C133.892 63.0731 133.113 62.4468 132.218 62.037C128.671 60.6072 125.112 59.3268 121.548 58.0463C120.957 57.8621 120.325 57.8547 119.729 58.025C116.742 58.8786 113.805 59.9158 110.796 60.6541C105.958 61.8356 100.953 62.1806 95.9987 61.6742C92.8979 61.319 89.7734 61.2148 86.6558 61.3626C81.8328 61.6657 81.3378 62.3955 81.931 67.2142C82.5773 72.0124 82.2478 76.8917 80.9622 81.5593C80.0269 84.9753 79.3393 88.4543 78.9049 91.9693C78.6787 93.7064 77.9446 95.7423 79.7585 97.2873C80.0146 97.505 79.8396 98.2391 79.8524 98.73C79.9933 102.96 80.0104 107.194 80.3049 111.411C80.5097 114.3 80.0018 115.081 77.1507 115.354C72.0802 115.841 67.014 116.413 61.9477 116.951H54.2865L51.7811 115.073C52.5749 114.219 53.2408 113.186 54.1968 112.627C56.2626 111.411 58.4649 110.442 60.6374 109.375C65.1317 107.151 69.8053 105.064 68.8535 98.6617C68.8391 98.592 68.8497 98.5195 68.8834 98.4568C70.4711 95.9856 69.4895 93.4716 68.798 91.0858C66.3737 82.7032 66.664 74.1158 66.8134 65.5667C66.8689 62.2589 67.5902 58.9469 68.1706 55.6647C68.8493 51.8234 70.5224 48.7162 74.496 47.2736C75.5673 46.8852 76.4678 46.0188 77.6928 45.2121C74.6838 44.1109 72.0631 43.1122 69.4041 42.2244C68.8676 42.1244 68.313 42.2166 67.8377 42.4848C62.3873 45.1609 57.0607 48.0035 51.1366 49.6936C46.9453 50.8887 43.0272 53.0569 39.0194 54.8708C33.6373 57.3122 28.2211 59.5359 22.1988 59.903C20.5837 60.0616 19.0075 60.4946 17.538 61.1834C14.4949 62.498 11.5072 63.9491 8.57498 65.4515C7.1537 66.1771 5.5873 66.924 4.58003 68.0807C2.55267 70.3769 2.69352 70.4964 1.33199 67.9825C1.26797 67.9057 1.06737 67.9057 0.935059 67.863V66.5825C1.83563 65.6051 2.71913 64.6149 3.64104 63.6589C5.64705 61.5931 7.38844 59.1091 9.74871 57.5939C13.4833 55.2038 17.6319 53.4666 21.6098 51.4606C26.6078 48.9424 31.5801 46.3773 36.6207 43.9487C38.0036 43.2829 39.7279 43.2872 41.051 42.5531C47.5092 39.0343 53.61 34.8961 59.2673 30.1969C61.8666 28.0159 61.7642 24.4349 59.3186 22.1643C58.3135 21.1493 57.5898 19.8902 57.2186 18.5108C56.7364 16.8334 56.4376 15.4847 54.423 14.7805C51.9859 13.9268 51.6104 12.5397 52.9847 10.2648C54.0645 8.4722 55.3364 6.61131 56.9754 5.39063C59.7326 3.33766 62.8483 1.77127 65.8104 0H69.2248C69.6986 0.260355 70.1809 0.751188 70.6504 0.742651C73.4631 0.687166 75.5246 2.21942 77.4068 3.96081C79.0134 5.46853 80.4963 7.10278 81.8414 8.8478C82.695 9.9319 83.3651 9.84653 84.5346 9.38558C89.588 7.3881 94.6927 5.51013 99.8059 3.67058C100.672 3.35162 101.603 3.25477 102.516 3.38888C105.457 3.9352 108.197 3.03463 111.052 2.67184C114.945 2.17674 118.957 2.42002 122.909 2.59501C128.368 2.83403 133.976 2.62062 139.226 3.84557C146.03 5.42904 152.649 7.97283 159.145 10.6063C164.357 12.7403 169.474 11.6733 174.669 11.366C176.363 11.1923 178.066 11.1239 179.769 11.1611C181.092 11.2422 182.757 11.2849 182.441 13.4958C182.455 13.7382 182.531 13.973 182.661 14.1782C182.791 14.3835 182.971 14.5525 183.183 14.6695C185.744 15.0963 184.891 16.9231 184.844 18.4425C184.793 19.7784 184.204 20.4869 182.816 20.0132C181.305 19.4745 179.696 19.2629 178.096 19.3924C176.497 19.5219 174.943 19.9895 173.538 20.7644C172.783 21.2073 172.053 21.6917 171.352 22.2155C171.975 22.7149 172.581 23.2271 173.217 23.7051C174.498 24.6654 176.32 25.1563 176.303 27.4055C174.886 26.9787 173.567 26.7098 172.389 26.1593C170.177 25.1455 168.026 24.0054 165.945 22.7448C164.361 21.7674 163.098 20.1498 161.416 19.373C159.092 18.3354 156.658 17.5637 154.16 17.0724C148.612 15.9158 142.799 15.5573 137.455 13.786C132.111 12.0147 127.941 13.786 123.02 15.7664C123.874 16.3255 124.45 16.6926 125.013 17.0468C126.925 18.2547 128.974 19.2876 130.72 20.7003C133.626 23.0478 136.375 25.6385 139.162 28.1695C143.55 32.1645 146.904 36.8125 148.612 42.6C149.4 45.3216 150.368 47.988 151.51 50.5814C155.057 58.5542 158.766 66.4545 162.334 74.4145C163.635 77.304 164.741 80.2789 166.034 83.4544C169.551 81.1155 173.247 80.3728 177.131 80.0399C179.15 79.8734 180.58 78.6186 181.446 76.6724C182.991 73.2024 186.696 72.8524 188.77 76.062C189.624 77.3851 190.025 79.0497 190.418 80.6076C191.34 84.3166 192.146 88.0469 193 91.7644Z" fill="#042365"/>
</svg>
