<svg width="189" height="119" viewBox="0 0 189 119" fill="none" xmlns="http://www.w3.org/2000/svg">
<g opacity="0.6" clip-path="url(#clip0_2202_24726)">
<path d="M134.347 5.66598C133.432 7.80236 132.382 9.90517 131.262 11.95C130.345 13.7138 128.789 15.061 126.913 15.7161C124.929 16.4486 123.095 17.822 121.474 19.2351C117.571 22.6441 113.771 26.1783 110.041 29.7796C107.557 32.1754 105.311 34.8185 102.878 37.2692C99.4022 40.7668 95.7245 44.0721 92.3796 47.6856C89.9481 50.3321 87.7381 53.1739 85.772 56.1823C85.009 57.339 84.9022 59.1122 84.948 60.5894C85.2023 68.8561 85.5462 77.1199 85.9796 85.3806C86.0986 87.5749 86.9623 89.4489 89.12 90.7429C93.6553 93.4592 97.2566 97.2802 100.672 101.278C102.051 102.893 103.531 104.376 105.555 105.328C106.568 105.807 107.331 106.931 108.058 107.874C108.791 108.909 109.471 109.98 110.096 111.084C110.337 111.472 110.6 111.85 110.807 112.256C112.199 114.988 111.354 116.578 108.317 116.834C105.482 117.078 102.637 117.252 99.7959 117.445C97.922 117.567 96.045 117.75 94.1711 117.719C93.2118 117.726 92.2666 117.489 91.4243 117.03C91.118 116.805 90.865 116.516 90.6835 116.183C90.502 115.849 90.3965 115.48 90.3744 115.101C90.3744 114.719 91.4548 114.02 92.0316 114.039C94.2565 114.103 96.3716 113.852 98.4042 112.894C100.846 111.734 101.059 110.819 99.5273 108.664C97.6961 106.079 94.8272 104.88 92.3948 103.091C89.6999 101.114 87.0233 99.1236 84.3437 97.1154C84.1423 96.9659 83.9897 96.74 83.7791 96.6057C76.0271 91.6493 73.3535 83.3968 70.4511 75.4525C69.1296 71.8359 67.5731 68.4329 65.4428 65.3138C64.7312 64.3217 63.676 63.6298 62.4824 63.3728C61.7865 63.2659 60.7183 64.3219 60.1171 65.091C59.0398 66.4705 59.0886 66.4919 57.6206 65.4451C50.5095 60.3879 45.0861 53.7499 39.968 46.8127C38.1612 44.3895 36.4155 41.9479 33.7297 40.4219C32.1152 39.5063 30.4549 38.667 28.813 37.8033C24.9553 35.7798 21.0304 33.8754 17.2643 31.6993C15.0516 30.4175 14.7708 29.1143 15.9855 26.8681C18.2959 22.577 20.7649 18.3805 23.1577 14.1444C24.0946 12.4871 25.0529 10.8421 25.9044 9.14828C26.7559 7.45443 28.3827 6.7067 30.0033 5.97728C31.279 5.3974 32.9454 6.01695 33.9708 4.65882C34.0925 4.59564 34.2272 4.56139 34.3643 4.55874C34.5014 4.55609 34.6372 4.58512 34.7613 4.64356C34.8322 4.78881 34.8736 4.94669 34.883 5.10806C34.8925 5.26942 34.8698 5.43105 34.8162 5.58357C34.395 6.41066 33.8793 7.18891 33.4001 7.98853L33.6443 8.18996L37.0472 5.62935C36.977 9.29172 35.6647 11.1748 32.2861 12.0385C29.991 12.6489 28.7397 13.9002 28.0134 16.061C26.9482 19.2351 25.7488 22.3664 24.5555 25.4977C24.1923 26.453 24.3785 26.9932 25.3459 27.3808C26.7529 27.9393 28.0652 28.9068 29.5119 29.1448C31.4285 29.45 33.4398 29.1754 35.4053 29.2852C36.626 29.3524 38.2558 29.0655 38.2589 28.0034C38.2589 26.6575 36.9892 25.281 36.3239 23.8619C35.1367 21.3348 34.6972 18.7834 36.6291 16.4089C37.2151 15.6887 37.972 14.9013 38.8082 14.6327C41.526 13.7031 44.4801 13.7311 47.1798 14.712C47.9153 14.9867 48.5074 15.9756 48.8919 16.7691C49.7282 18.4843 50.4179 20.2727 51.1046 22.0551C51.4556 22.9707 51.6021 23.9504 51.9531 24.8599C52.1209 25.2871 52.4933 25.8548 52.8687 25.9433C55.0386 26.4621 57.2727 26.7368 59.4152 27.335C60.7504 27.7291 62.0137 28.335 63.1569 29.1296C64.1884 29.8346 65.0583 30.8143 65.9037 31.7634C66.8528 32.8316 67.6738 34.0188 68.5833 35.1206C70.1317 37.0027 71.6953 38.8725 73.2742 40.7301C73.4237 40.9072 73.7198 41.1391 73.8846 41.0994C75.2885 40.7546 76.8145 40.5989 78.0475 39.9214C81.2917 38.136 84.3437 35.9935 87.6002 34.2264C90.3103 32.7523 93.2891 31.7848 95.9839 30.2771C98.3614 28.9587 100.931 27.5975 102.68 25.6106C106.831 20.9045 111.836 17.5321 117.287 14.5655C122.475 11.7516 126.275 7.59482 128.161 1.8449C128.591 0.709257 129.189 -0.355513 129.934 -1.3139C130.566 -2.19287 131.427 -2.18981 132.33 -1.51838C134.652 0.20904 135.519 2.9192 134.347 5.66598Z" fill="#042365"/>
<path fill-rule="evenodd" clip-rule="evenodd" d="M126.359 24.1445C205.112 27.7457 197.914 94.7943 115.318 113.413C183.292 90.2024 198.061 32.3572 126.359 24.1445Z" fill="#042365"/>
<path fill-rule="evenodd" clip-rule="evenodd" d="M130.075 21.9492C208.799 25.5521 209.224 93.3258 126.661 111.949C199.843 88.9322 207.587 30.3937 130.075 21.9492Z" fill="#C3001D"/>
<path fill-rule="evenodd" clip-rule="evenodd" d="M148.61 117.621C92.2126 120.791 44.3985 120.791 -12 117.621C44.3985 114.449 92.2126 114.449 148.61 117.621Z" fill="#042365"/>
</g>
<defs>
<clipPath id="clip0_2202_24726">
<rect width="200.856" height="120" fill="white" transform="translate(-12)"/>
</clipPath>
</defs>
</svg>
