<svg width="237" height="217" viewBox="0 0 237 217" fill="none" xmlns="http://www.w3.org/2000/svg">
<path d="M66.0152 177.591C66.4256 177.999 66.8705 178.371 67.3448 178.702C68.1559 179.143 69.0069 179.833 69.8545 179.82C74.1758 179.744 78.4971 179.512 82.7885 179.23C83.2173 179.2 83.7857 178.516 83.9519 178.022C84.1813 177.339 84.0849 176.546 84.1281 175.777C81.6151 175.429 79.2018 175.419 76.742 173.886C77.5431 173.694 77.8921 173.581 78.2545 173.531C86.5226 172.331 94.7907 171.138 103.059 169.952C113.842 168.41 124.642 166.967 135.415 165.332C144.896 163.899 154.363 162.679 164.003 163.408C165.369 163.511 166.233 163.956 166.778 165.296C167.516 167.12 167.423 168.818 167.127 170.752C166.758 173.173 165.512 173.999 163.391 174.4C161.534 174.714 159.709 175.191 157.936 175.827C157.025 176.158 155.672 177.1 155.679 177.754C155.679 179.16 157.178 179.236 158.365 179.253C159.941 179.273 161.516 179.253 163.092 179.253C163.112 179.449 163.135 179.641 163.155 179.837C162.776 180.016 162.404 180.208 162.018 180.367C159.824 181.276 157.6 182.125 155.446 183.127C155.191 183.289 154.978 183.507 154.823 183.766C154.667 184.024 154.575 184.316 154.552 184.616C154.552 184.948 155.37 185.512 155.849 185.542C158.438 185.714 161.047 185.953 163.627 185.794C168.161 185.515 172.868 186.261 177.113 183.86C177.841 183.46 178.611 183.142 179.41 182.911C181.012 182.434 181.717 181.455 181.284 179.807C180.992 178.699 181.388 177.976 182.235 177.226C183.694 175.936 183.937 174.022 183.05 172.251C182.528 171.213 181.953 170.208 181.417 169.18C180.563 167.538 179.722 165.889 178.698 163.899C179.785 163.899 180.43 163.899 181.075 163.899C189.99 164.12 198.905 164.341 207.821 164.563C208.914 164.586 210.015 164.42 211.112 164.344L211.171 163.581C210.443 163.415 209.722 163.116 208.991 163.103C200.797 162.921 192.6 162.795 184.393 162.622C182.365 162.579 180.34 162.427 178.23 162.317C178.17 161.508 178.17 160.848 178.067 160.201C177.385 155.856 177.099 151.391 175.86 147.209C174.743 143.448 175.547 140.536 177.741 137.673C179.456 135.438 181.208 133.229 182.947 131.01C183.578 130.21 184.053 129.169 185.453 129.789C185.679 129.892 186.287 129.434 186.556 129.102C188.371 126.88 190.12 124.605 191.945 122.389C192.303 121.931 192.809 121.61 193.378 121.48C197.473 120.946 200.049 118.031 200.026 113.852C200.026 113.022 199.906 112.17 200.066 111.371C200.577 108.817 200.328 106.342 199.63 103.855C199.009 101.639 198.277 99.4036 198.071 97.1316C197.679 92.7932 197.523 88.4249 197.466 84.0666C197.43 81.0549 196.259 78.7133 194.328 76.4777C191.569 73.2803 188.262 70.471 186.66 66.378C186.409 65.8257 186.01 65.3537 185.506 65.0148C184.371 64.2608 183.403 63.2835 182.66 62.1428C181.916 61.0022 181.415 59.7221 181.185 58.3811C180.776 56.2749 179.453 54.9117 177.359 54.1986C175.015 53.4026 172.642 52.6065 170.445 51.4888C168.673 50.5899 166.971 49.8569 164.957 49.8901C163.959 49.8848 162.964 49.7882 161.985 49.6015C159.658 49.2201 158.375 47.3792 158.661 45.0541C158.883 43.2664 159.326 41.4521 158.182 39.7472C157.916 39.3392 157.916 38.6825 157.916 38.1485C158.169 33.7438 155.829 31.7305 152.149 30.6127C146.648 28.9543 140.767 32.4436 140.408 37.8367C140.209 40.8418 140.199 43.9596 140.781 46.895C141.482 50.4606 142.389 54.1024 147.07 54.998C149.483 55.459 149.696 57.1904 148.02 59.0876C147.801 59.3364 147.568 59.5752 147.332 59.8074C142.878 64.1391 141.216 69.7578 139.963 75.5888C139.504 77.7315 139.298 79.9637 138.587 82.0102C137.886 83.8691 136.916 85.6156 135.708 87.1944C134.481 88.8528 133.105 90.5112 131.453 91.7086C127.072 94.8828 122.548 97.8712 117.984 100.783C116.872 101.455 115.587 101.79 114.288 101.745C112.579 101.676 110.887 101.102 109.192 100.72C108.088 100.475 106.911 100.356 105.911 99.8812C104.608 99.2676 103.508 99.2842 102.64 100.392C102.008 101.198 101.447 101.118 100.646 100.77C98.774 99.9476 96.8959 99.1283 94.9746 98.4484C90.8461 96.9624 87.419 94.5743 84.9525 90.9225C84.5973 90.3212 84.3826 89.6478 84.3242 88.9523C83.9918 86.3519 84.1082 83.6454 83.3935 81.1544C81.9907 76.282 79.9431 71.7512 73.9863 70.8557C72.5437 70.6401 72.3841 69.9204 73.1354 68.6069C73.9232 67.2271 74.6678 65.8208 75.3459 64.3879C75.5287 64.0031 75.6018 63.2535 75.3758 63.0612C74.4052 62.1723 74.5381 61.1639 74.6777 60.0362C74.7901 58.9337 74.7956 57.823 74.6944 56.7194C74.5149 54.328 73.142 52.7392 70.8417 52.1588C68.8473 51.6612 66.8794 51.1637 64.8883 50.7027C61.6839 49.9531 59.2307 51.1239 58.1936 54.2583C57.469 56.3612 57.2828 58.6398 56.864 60.8389C56.7642 61.3663 56.7875 62.2917 56.5615 62.3547C54.4739 62.9384 55.3482 64.3448 55.5908 65.5554C55.8667 66.9253 55.654 67.9833 54.1316 68.388C47.9454 70.0464 42.0385 72.2322 37.0159 76.4147C35.8557 77.3832 35.151 78.3351 34.9749 79.7979C34.8951 80.4778 34.7355 81.2639 34.31 81.7681C31.2685 85.4995 28.1339 89.1712 25.2852 92.5444C27.243 96.4284 29.5234 99.6557 30.5405 103.241C32.5084 110.153 33.7583 117.268 35.3073 124.3C35.3073 124.3 35.9455 126.436 36.9028 127.129C37.6807 127.958 38.3688 128.718 39.0868 129.451C41.1277 131.534 42.9194 133.995 45.2962 135.584C48.474 137.713 48.7233 140.426 48.5571 143.746C48.4297 147.307 48.5152 150.872 48.813 154.423C48.9227 156.005 49.5842 157.551 50.0496 159.315C49.9341 159.856 50.0342 160.42 50.3288 160.888C50.6945 161.455 51.4989 162.301 52.0773 163.067C52.0773 163.067 52.0474 164.42 52.7654 165.027C53.4036 165.568 53.3803 166.619 53.6595 167.432C53.6595 167.442 64.5858 177.266 66.0152 177.591ZM31.9932 104.863C30.1217 102.21 30.5671 100.953 34.1073 99.5562C33.4225 101.264 32.7378 102.986 31.9932 104.863ZM131.194 164.712C121.195 166.131 111.195 167.542 101.194 168.944C92.6178 170.158 84.0583 171.485 75.4788 172.52C72.9127 172.835 70.8251 171.143 68.8972 169.584C68.6379 169.375 68.6279 168.656 68.7443 168.238C69.0046 167.512 69.3065 166.802 69.6484 166.112C71.3104 162.022 71.8489 161.574 76.3797 161.597C84.5636 161.64 92.7475 161.78 100.935 161.909C107.626 162.019 114.321 162.141 121.012 162.317C126.756 162.47 132.497 162.705 138.241 162.914C138.55 162.944 138.856 162.994 139.158 163.063C139.158 163.213 139.158 163.362 139.158 163.511C136.499 163.912 133.85 164.337 131.194 164.712ZM169.929 104.903C168.829 107.536 168.267 110.296 168.63 113.145C168.929 115.467 167.759 117.308 166.336 118.704C163.82 121.169 160.961 123.291 158.192 125.49C157.095 126.359 155.633 126.854 154.722 127.865C151.73 131.182 151.677 135.036 153.146 139.023C153.774 140.731 154.519 142.396 155.234 144.071C155.782 145.362 156.071 146.834 157.647 147.418C157.906 147.514 158.089 147.906 158.235 148.194C160.4 152.477 162.555 156.764 164.701 161.053C164.836 161.424 164.947 161.803 165.033 162.188L73.2052 160.038L72.9226 159.594C73.7703 158.499 74.5049 157.272 75.4921 156.33C78.2742 153.713 80.4981 150.562 82.0306 147.066C82.8151 145.252 83.8921 143.557 84.9159 141.859C85.717 140.532 86.0927 139.093 85.358 137.763C82.3664 132.306 79.84 126.512 75.4323 121.975C72.2412 118.688 68.7575 115.693 65.3969 112.568C64.6722 111.905 63.8844 111.275 63.1997 110.558C61.3581 108.631 60.6634 106.803 61.6473 103.832C63.4523 98.3721 67.7404 95.3206 71.5897 91.7583C72.6733 90.7633 73.501 91.4266 74.0827 92.5046C75.4124 94.9723 76.619 97.5296 78.1448 99.8779C78.9126 101.062 80.1093 102.276 81.3857 102.76C84.6943 104.007 88.0866 105.02 91.5375 105.792C93.1331 106.15 94.9115 105.825 96.5835 105.629C97.4843 105.523 98.0959 105.536 98.3618 106.508C98.7907 108.061 99.8377 107.885 101.101 107.653C102.168 107.457 103.301 107.613 104.405 107.653C105.628 107.696 106.852 107.802 108.062 107.858C109.271 107.915 110.488 107.696 111.578 108.024C113.128 108.543 114.82 108.445 116.299 107.749C118.625 106.754 121.285 106.422 123.791 105.861C131.769 104.031 138.613 100.362 143.071 93.2343C144.371 91.1547 145.112 88.7334 146.215 86.5211C146.475 86.0003 147.236 85.2972 147.655 85.3668C149.426 85.6587 149.839 84.6471 150.088 83.2872C150.188 82.7631 150.384 82.2589 150.683 81.2374C152.913 84.1927 154.831 86.7367 156.753 89.2773C158.054 90.991 159.357 92.7047 160.662 94.4184C160.728 94.508 160.768 94.6307 160.855 94.6871C163.011 96.0701 164.701 98.0667 165.708 100.419C166.15 101.384 167.613 102.077 168.759 102.482C170.215 102.973 170.478 103.589 169.929 104.903Z" fill="#042365"/>
</svg>
