<svg width="40" height="31" viewBox="0 0 40 31" fill="none" xmlns="http://www.w3.org/2000/svg">
<path d="M5.61328 22.7484C4.66719 22.6258 3.78125 22.5789 2.92969 22.3828C1.9375 22.1539 0.976562 21.7945 0 21.4914V16.7258C0.0351562 16.5914 0.078125 16.4586 0.105469 16.3227C0.596094 14.0906 2.42031 12.4742 4.71484 12.3383C5.91797 12.2664 7.12891 12.3258 8.29297 12.3258C8.46406 12.9383 8.56719 13.5625 8.81328 14.1227C9.05937 14.6828 9.45078 15.1812 9.775 15.7008C6.64766 16.9273 5.35313 19.3305 5.61328 22.7484Z" fill="white"/>
<path d="M40.0002 16.6457V21.3332C38.2416 22.152 36.3783 22.4918 34.3979 22.5684C34.4596 21.0512 34.3799 19.5848 33.5588 18.2598C32.7525 16.9574 31.6236 16.0785 30.1338 15.5598C31.0619 14.609 31.5627 13.4973 31.6252 12.1191C33.1432 12.1848 34.6549 12.0691 36.0869 12.3535C38.2549 12.7863 39.5197 14.2801 39.933 16.4652C39.9501 16.5272 39.9726 16.5876 40.0002 16.6457Z" fill="white"/>
<path d="M26.9424 29.1551C26.9424 29.2746 26.7916 29.4441 26.6689 29.502C25.5674 30.0277 24.3885 30.3027 23.1877 30.466C19.9424 30.9074 16.7814 30.4551 13.6768 29.4965C13.6275 29.4816 13.5814 29.4559 13.4619 29.4043C13.5041 27.7176 13.4307 26.0285 13.6182 24.3676C13.8697 22.1145 16.0205 20.298 18.2916 20.2449C19.5666 20.2152 20.8426 20.2152 22.1197 20.2449C24.6502 20.3027 26.8252 22.4066 26.9361 24.9387C26.9947 26.341 26.9572 27.7488 26.9424 29.1551Z" fill="white"/>
<path d="M12.5848 26.583C11.4302 26.408 10.3606 26.2783 9.30359 26.0759C8.48953 25.9197 7.69343 25.6681 6.88562 25.4697C6.65124 25.4119 6.55359 25.3087 6.55671 25.0462C6.57234 23.7712 6.55046 22.4955 6.56687 21.2181C6.60359 18.4119 8.70203 16.2564 11.5114 16.1666C12.7708 16.1259 14.0325 16.1595 15.3348 16.1595C15.413 17.4642 15.8887 18.5759 16.8137 19.5103C13.6419 20.7658 12.3145 23.1353 12.5848 26.583Z" fill="white"/>
<path d="M33.5027 25.0043C33.5027 25.2496 33.3957 25.348 33.202 25.4348C32.0301 25.9574 30.7941 26.2535 29.5246 26.409C28.9988 26.473 28.4699 26.5082 27.884 26.5652C27.9621 25.0309 27.8652 23.5691 27.0512 22.2426C26.2504 20.9324 25.1145 20.0605 23.6309 19.5309C24.5301 18.5816 25.0543 17.4996 25.0988 16.234C25.148 16.2004 25.1684 16.173 25.1887 16.173C26.6426 16.2043 28.1246 16.0676 29.5426 16.3082C31.8863 16.7035 33.4395 18.7809 33.4902 21.2543C33.516 22.5051 33.4879 23.7551 33.5027 25.0043Z" fill="white"/>
<path d="M24.3058 4.26881C24.3078 5.11439 24.0592 5.94161 23.5915 6.64602C23.1237 7.35042 22.4577 7.90044 21.6775 8.22662C20.8974 8.5528 20.0381 8.64053 19.2081 8.47871C18.3782 8.3169 17.6148 7.91281 17.0143 7.31746C16.4138 6.7221 16.0032 5.96218 15.8343 5.13364C15.6654 4.3051 15.7457 3.44509 16.0652 2.66218C16.3847 1.87927 16.929 1.20858 17.6294 0.73478C18.3298 0.260978 19.1548 0.0053116 20.0004 6.00529e-05C20.5635 -0.00292208 21.1217 0.105189 21.6431 0.318206C22.1644 0.531223 22.6386 0.844962 23.0385 1.24147C23.4384 1.63797 23.7562 2.10945 23.9736 2.62892C24.1911 3.14839 24.304 3.70566 24.3058 4.26881Z" fill="white"/>
<path d="M24.1696 16.016C24.1619 17.0617 23.7408 18.0619 22.9983 18.7981C22.2557 19.5344 21.252 19.947 20.2063 19.9457C18.0563 19.9316 16.2844 18.1582 16.2774 16.0137C16.2703 13.8691 18.0821 12.0527 20.2289 12.0527C22.3758 12.0527 24.1774 13.8645 24.1696 16.016Z" fill="white"/>
<path d="M17.2378 11.8243C17.2325 12.0101 17.1561 12.1868 17.0245 12.318C16.2313 13.0246 15.6801 13.9625 15.4487 14.9993C15.4143 15.1501 15.2784 15.3438 15.1432 15.3946C14.5557 15.6149 13.9511 15.7907 13.3518 15.9829C13.3401 15.9462 13.3284 15.9102 13.3175 15.8735C11.3917 15.893 9.70808 14.4563 9.3948 12.5243C9.08933 10.6493 10.2667 8.76959 12.1159 8.18756C14.6096 7.39928 17.1729 9.21803 17.2378 11.8243Z" fill="white"/>
<path d="M10.4139 8.21555C9.89484 8.5786 9.45408 9.04235 9.11788 9.57921C8.78167 10.1161 8.55688 10.7151 8.45688 11.3406C8.41079 11.6062 8.29204 11.7156 8.06626 11.7991C5.52876 12.7366 2.77876 10.7906 2.79204 8.06868C2.8022 6.01634 4.46079 4.2429 6.45142 4.14759C8.62251 4.0429 10.4436 5.59134 10.6553 7.70384C10.6795 7.94837 10.603 8.07884 10.4139 8.21555Z" fill="white"/>
<path d="M26.7494 15.8889L26.0932 15.8107C25.4573 15.7373 25.0416 15.5326 24.9151 14.7646C24.7268 13.6209 24.0166 12.7334 23.0737 12.0615C22.8823 11.924 22.8002 11.7904 22.8244 11.5506C23.0026 9.79589 24.394 8.31386 26.1346 8.03964C27.0017 7.90439 27.8892 8.06017 28.6584 8.48264C29.4275 8.90512 30.0351 9.57049 30.3862 10.3748C31.5041 12.949 29.5635 15.8834 26.7494 15.8889Z" fill="white"/>
<path d="M37.207 7.9679C37.207 10.6398 34.5453 12.5507 32.0156 11.7046C31.7359 11.6109 31.5883 11.482 31.5289 11.1499C31.4258 10.5389 31.2016 9.95461 30.8695 9.43138C30.5375 8.90816 30.1043 8.45655 29.5953 8.10306C29.3867 7.95384 29.3203 7.81243 29.3476 7.55618C29.5625 5.5179 31.4078 3.90618 33.4187 4.01712C35.5562 4.12962 37.2101 5.85853 37.207 7.9679Z" fill="white"/>
<path d="M15.9502 7.26562L15.5268 7.75859C14.1776 7.04141 12.7846 6.98281 11.3557 7.60234C11.1862 6.27422 10.6268 5.20781 9.62522 4.38359C9.59553 4.35938 9.56584 4.33359 9.53459 4.31016C8.97131 3.87031 8.97131 3.87109 9.30647 3.23047C10.5143 0.921094 13.369 0.367188 15.3932 2.08125C14.6205 3.90625 14.8252 5.61719 15.9502 7.26562Z" fill="white"/>
<path d="M31.1257 3.67183C29.6093 4.50777 28.7327 5.75777 28.5242 7.44761C27.9992 7.35699 27.5085 7.24449 27.0117 7.19215C26.2749 7.11402 25.5648 7.25699 24.8765 7.53511C24.7695 7.57886 24.5492 7.55308 24.4976 7.47886C24.3695 7.29293 24.0484 7.1734 24.2531 6.83277C25.0773 5.45543 25.2195 4.00621 24.7023 2.48199C24.6632 2.36715 24.7718 2.14449 24.8796 2.04605C26.7663 0.327302 29.9187 0.98199 30.9734 3.30699C31.0156 3.41324 31.0609 3.52105 31.1257 3.67183Z" fill="white"/>
<path d="M22.849 8.92952C22.5498 9.78889 22.2686 10.5983 21.9771 11.4342C20.6904 10.9233 19.3326 10.9881 17.9748 11.6686C17.9504 10.6907 17.6352 9.74228 17.0693 8.94436C18.9933 8.80754 20.9244 8.80258 22.849 8.92952Z" fill="white"/>
</svg>
