<svg width="41" height="31" viewBox="0 0 41 31" fill="none" xmlns="http://www.w3.org/2000/svg">
<path d="M40.6021 10.1663C40.2593 9.6967 39.7701 9.47362 39.1932 9.43527C39.0641 9.42666 38.9333 9.43057 38.8019 9.43057C26.9281 9.43057 15.0541 9.43057 3.17983 9.43057C2.64524 9.43057 2.13961 9.49789 1.71225 9.84698C1.48526 10.0231 1.30243 10.2497 1.17826 10.5088C1.05408 10.7679 0.991968 11.0523 0.996849 11.3396C0.996849 17.1567 0.996849 22.9749 0.996849 28.7941C0.996849 29.8664 1.80774 30.6648 2.88005 30.6726C4.05412 30.682 5.2235 30.6726 6.396 30.6726C17.1499 30.6726 27.9042 30.6773 38.6586 30.6867C39.8209 30.6867 40.6154 30.3016 40.9966 29.1831V10.9083C40.869 10.6594 40.7626 10.3902 40.6021 10.1663ZM14.1034 28.1687C11.4082 28.1744 8.71335 28.1744 6.01873 28.1687C5.63599 28.1687 5.42622 27.9527 5.37847 27.5723C5.27515 26.7575 4.9198 26.3982 4.11439 26.2988C3.68703 26.2456 3.50309 26.0296 3.50309 25.5505C3.50309 24.7563 3.50309 23.9619 3.50309 23.1672C3.50309 22.1277 3.50309 21.0878 3.50309 20.0473C3.50309 19.6022 3.50309 19.1566 3.50309 18.7104C3.50309 17.3735 3.50309 16.0364 3.50309 14.699C3.50309 14.0267 3.62755 13.8842 4.28581 13.7958C4.565 13.7564 4.82309 13.6251 5.01917 13.4224C5.21525 13.2198 5.33812 12.9576 5.3683 12.6773C5.44031 12.0934 5.61485 11.9298 6.19171 11.9298C8.76944 11.9298 11.3469 11.9298 13.9241 11.9298C14.0535 11.9253 14.1827 11.9417 14.3069 11.9783C14.6137 12.0832 14.782 12.3102 14.7374 12.6358C14.6927 12.9614 14.4939 13.1579 14.1621 13.1704C13.7331 13.1868 13.3011 13.1774 12.8729 13.1774C10.9076 13.1774 8.94294 13.1821 6.97677 13.1719C6.69265 13.1719 6.52436 13.2502 6.41557 13.5273C6.29784 13.8328 6.11681 14.1099 5.88438 14.3404C5.65195 14.571 5.37338 14.7497 5.06695 14.8649C4.81883 14.9644 4.74213 15.1052 4.74213 15.362C4.74995 18.485 4.74995 21.608 4.74213 24.731C4.74213 25.0042 4.8204 25.1576 5.08182 25.2601C5.38159 25.3725 5.65421 25.5469 5.88178 25.7721C6.10935 25.9972 6.28673 26.268 6.40226 26.5665C6.51967 26.8647 6.69578 26.932 6.99477 26.9305C9.25916 26.9187 11.5243 26.9242 13.7895 26.9242C13.9067 26.9197 14.0241 26.9224 14.1409 26.932C14.5065 26.9766 14.7561 27.249 14.7444 27.5778C14.7327 27.9182 14.4783 28.1695 14.0995 28.1695L14.1034 28.1687ZM10.3722 20.0817C10.3668 20.4513 10.2522 20.8111 10.0428 21.1158C9.83336 21.4204 9.53854 21.6563 9.19539 21.7938C8.85223 21.9312 8.47609 21.9641 8.11428 21.8883C7.75248 21.8125 7.42118 21.6314 7.16207 21.3677C6.90297 21.104 6.72764 20.7696 6.65816 20.4066C6.58867 20.0435 6.62812 19.668 6.77155 19.3273C6.91498 18.9866 7.15598 18.6959 7.46423 18.4918C7.77247 18.2878 8.13418 18.1795 8.50384 18.1805C8.7519 18.1808 8.99742 18.2304 9.22612 18.3265C9.45482 18.4225 9.66214 18.5631 9.836 18.74C10.0099 18.9169 10.1468 19.1267 10.2389 19.357C10.3309 19.5874 10.3762 19.8337 10.3722 20.0817ZM21.0006 28.1734C18.8474 28.1738 16.7821 27.3196 15.2583 25.7983C13.7345 24.277 12.8768 22.213 12.8737 20.0598C12.8737 15.5874 16.5227 11.9337 20.9959 11.9321C25.4691 11.9306 29.1244 15.5843 29.1244 20.0543C29.1225 22.2079 28.2659 24.2726 26.7427 25.795C25.2194 27.3173 23.1542 28.1728 21.0006 28.1734ZM38.5005 25.5036C38.5005 26.0648 38.344 26.2315 37.7796 26.3051C37.1261 26.3912 36.6971 26.8287 36.6275 27.4854C36.5735 27.9918 36.3825 28.1718 35.8753 28.1726C33.2589 28.1726 30.6423 28.1726 28.0255 28.1726C27.5347 28.1726 27.2428 27.9315 27.2529 27.5465C27.2631 27.1614 27.548 26.9281 28.0419 26.9273C30.3595 26.9273 32.6763 26.9211 34.9932 26.9328C35.3102 26.9328 35.4824 26.8545 35.6068 26.5414C35.7219 26.249 35.8971 25.984 36.121 25.7636C36.345 25.5431 36.6127 25.3721 36.9069 25.2617C37.1613 25.16 37.2568 25.0191 37.2568 24.7381C37.2474 21.6151 37.2474 18.4923 37.2568 15.3698C37.2568 15.0896 37.1589 14.9526 36.9038 14.8493C36.6106 14.7375 36.3437 14.5661 36.1201 14.346C35.8964 14.1259 35.7209 13.8618 35.6045 13.5703C35.4824 13.2698 35.3164 13.1672 34.9916 13.1696C32.7139 13.1829 30.4354 13.1766 28.1578 13.1759C28.0272 13.1848 27.896 13.18 27.7664 13.1618C27.4682 13.0984 27.2772 12.9097 27.2545 12.6013C27.237 12.4631 27.2704 12.3232 27.3487 12.208C27.4269 12.0927 27.5446 12.0099 27.6795 11.9752C27.8167 11.938 27.9586 11.9219 28.1006 11.9274C30.6533 11.9274 33.2047 11.9274 35.7548 11.9274C36.3895 11.9274 36.5375 12.0644 36.6298 12.7054C36.6664 12.9921 36.8005 13.2575 37.0096 13.457C37.2187 13.6565 37.49 13.7781 37.7781 13.8012C38.3181 13.8592 38.4966 14.0556 38.4974 14.6121C38.4974 16.4343 38.4974 18.2562 38.4974 20.0778C38.4995 21.8859 38.5005 23.6945 38.5005 25.5036ZM31.6259 20.0504C31.6268 19.6787 31.7381 19.3156 31.9457 19.0073C32.1534 18.699 32.448 18.4594 32.7922 18.3189C33.1363 18.1785 33.5145 18.1435 33.8785 18.2184C34.2426 18.2934 34.5762 18.4749 34.8369 18.7399C35.0976 19.0049 35.2736 19.3414 35.3426 19.7066C35.4116 20.0719 35.3704 20.4494 35.2243 20.7912C35.0782 21.133 34.8338 21.4237 34.5221 21.6263C34.2105 21.8289 33.8456 21.9342 33.4739 21.9289C32.9819 21.9183 32.5134 21.7161 32.1682 21.3652C31.8231 21.0143 31.6285 20.5426 31.6259 20.0504Z" fill="white"/>
<path d="M38.5725 8.18164C38.4942 8.17617 38.4159 8.18164 38.3377 8.18164H12.6326C12.6326 8.14173 12.6256 8.10337 12.6224 8.06111C12.779 8.0298 12.9285 7.99066 13.0835 7.96875C17.7427 7.30448 22.4019 6.64127 27.0611 5.97909C30.2029 5.53138 33.3445 5.0808 36.4858 4.62735C37.5526 4.47081 38.5013 5.16977 38.65 6.22878C38.7282 6.76885 38.7783 7.31283 38.8574 7.85369C38.895 8.09633 38.8159 8.19886 38.5725 8.18164Z" fill="white"/>
<path d="M34.4258 3.65938C28.8654 4.45357 23.3058 5.25037 17.7469 6.04978C16.2801 6.25851 14.8133 6.46723 13.3465 6.67595C13.2509 6.68261 13.1549 6.68261 13.0593 6.67595C13.0546 6.64073 13.0507 6.60473 13.0468 6.5695C13.8044 6.35347 14.5613 6.1351 15.3205 5.9222L32.4658 1.11948C33.834 0.736731 34.7451 1.26271 35.1012 2.64185C35.3306 3.53023 35.3298 3.52632 34.4258 3.65938Z" fill="white"/>
<path d="M21.0022 13.1816C17.2303 13.1816 14.1354 16.2577 14.1245 20.0241C14.118 21.3852 14.5156 22.7176 15.267 23.8525C16.0184 24.9874 17.0898 25.8738 18.3453 26.3993C19.6009 26.9248 20.9842 27.0657 22.32 26.8044C23.6558 26.543 24.8839 25.891 25.8488 24.9311C26.8138 23.9711 27.472 22.7463 27.7403 21.4119C28.0085 20.0775 27.8746 18.6934 27.3556 17.4352C26.8365 16.1769 25.9557 15.101 24.8247 14.3438C23.6936 13.5866 22.3633 13.1821 21.0022 13.1816ZM21.8827 24.2609C21.6792 24.3494 21.6025 24.4621 21.6221 24.6719C21.6343 24.8147 21.6325 24.9583 21.6166 25.1008C21.6045 25.2578 21.533 25.4043 21.4166 25.5104C21.3003 25.6166 21.1479 25.6744 20.9904 25.6722C20.6601 25.6667 20.3643 25.4272 20.3924 25.0828C20.4394 24.5521 20.2359 24.3102 19.7576 24.0707C18.9311 23.6575 18.528 22.8967 18.5053 21.9652C18.4984 21.8 18.5565 21.6387 18.6671 21.5158C18.7777 21.3929 18.932 21.3183 19.097 21.3078C19.4242 21.2913 19.6974 21.5426 19.7451 21.9073C19.7522 21.9582 19.7451 22.0114 19.7545 22.0639C19.7911 22.3547 19.9285 22.6234 20.1428 22.8233C20.3572 23.0233 20.6348 23.1417 20.9274 23.158C21.2201 23.1743 21.5092 23.0874 21.7444 22.9125C21.9795 22.7376 22.1459 22.4858 22.2146 22.2008C22.4024 21.4299 21.8232 20.7137 20.9622 20.6808C20.1866 20.6503 19.5455 20.3544 19.0579 19.7572C18.8126 19.4599 18.6401 19.1093 18.5544 18.7335C18.4686 18.3577 18.4718 17.9671 18.5638 17.5927C18.6558 17.2184 18.834 16.8708 19.0843 16.5775C19.3345 16.2843 19.6498 16.0536 20.005 15.9039C20.2922 15.7802 20.4175 15.6362 20.3736 15.3302C20.3544 15.1999 20.3599 15.0671 20.3901 14.9388C20.4684 14.6304 20.6758 14.4301 21.0037 14.4387C21.3442 14.4473 21.6299 14.6594 21.5955 14.9866C21.5313 15.5846 21.8154 15.828 22.2999 16.0769C23.0302 16.4495 23.4787 17.2964 23.4896 18.0634C23.4951 18.4845 23.2548 18.7788 22.8979 18.7968C22.541 18.8148 22.2897 18.5753 22.2412 18.1331C22.1629 17.4114 21.615 16.9042 20.9521 16.9293C20.63 16.9436 20.3256 17.0802 20.1008 17.3114C19.8761 17.5425 19.748 17.8507 19.7428 18.173C19.7428 18.8422 20.268 19.3737 20.9857 19.4253C22.3218 19.5193 23.2493 20.3168 23.4638 21.5543C23.6649 22.6791 23.0419 23.7537 21.8827 24.2609Z" fill="white"/>
<path d="M9.12066 20.071C9.10057 20.2239 9.02479 20.364 8.90784 20.4644C8.79088 20.5649 8.64098 20.6187 8.48683 20.6155C8.33269 20.6123 8.18515 20.5523 8.07246 20.4471C7.95978 20.3419 7.88988 20.1988 7.87615 20.0452C7.86831 19.9575 7.87904 19.8692 7.90765 19.786C7.93626 19.7027 7.98209 19.6264 8.04217 19.5621C8.10225 19.4977 8.17522 19.4468 8.25631 19.4126C8.33741 19.3783 8.42481 19.3616 8.51282 19.3634C8.60083 19.3652 8.68746 19.3856 8.76707 19.4232C8.84667 19.4607 8.91746 19.5147 8.97482 19.5814C9.03218 19.6482 9.07481 19.7263 9.09994 19.8107C9.12507 19.8951 9.13213 19.9838 9.12066 20.071Z" fill="white"/>
<path d="M34.122 20.0477C34.1196 20.2093 34.0543 20.3636 33.9401 20.478C33.8259 20.5924 33.6716 20.6578 33.51 20.6604C33.3484 20.6631 33.1921 20.6027 33.0742 20.4922C32.9563 20.3816 32.886 20.2295 32.8783 20.068C32.8743 19.9848 32.8871 19.9015 32.9159 19.8233C32.9447 19.7451 32.9889 19.6734 33.0459 19.6126C33.103 19.5518 33.1716 19.5031 33.2478 19.4693C33.3241 19.4356 33.4063 19.4175 33.4896 19.4161C33.573 19.4147 33.6558 19.4301 33.7331 19.4614C33.8103 19.4926 33.8806 19.5391 33.9395 19.598C33.9985 19.6569 34.0451 19.7271 34.0764 19.8043C34.1078 19.8816 34.1233 19.9643 34.122 20.0477Z" fill="white"/>
</svg>
