<svg width="41" height="41" viewBox="0 0 41 41" fill="none" xmlns="http://www.w3.org/2000/svg">
<path d="M38.694 34.0736C38.4272 33.8873 38.1353 33.7374 37.818 33.548C37.818 32.6973 37.818 31.8056 37.818 30.9146C37.818 30.0237 37.3974 29.6157 36.5159 29.6141C35.3906 29.6141 34.2645 29.6141 33.0934 29.6141C33.0934 28.8416 33.0816 28.0982 33.1076 27.3556C33.1076 27.2578 33.2923 27.1386 33.4154 27.0778C34.0223 26.7848 34.5262 26.3147 34.8605 25.7294C35.1948 25.1442 35.3439 24.4714 35.288 23.7997C35.2279 23.1354 34.9678 22.5049 34.542 21.9914C34.1163 21.4779 33.5449 21.1055 32.9032 20.9233C31.3392 20.4703 29.7127 21.2153 29.0049 22.7186C28.9196 22.8985 28.847 23.0066 28.6142 23.0051C26.1742 22.9932 23.7334 22.9972 21.2934 22.9964C21.2452 22.9929 21.1973 22.9868 21.1498 22.9782V19.8469H22.7872C23.1029 19.8469 23.4185 19.8524 23.7342 19.8469C24.4207 19.8327 24.9108 19.36 24.9013 18.7279C24.8911 18.1124 24.4081 17.6586 23.7397 17.6436C23.4525 17.6381 23.1644 17.6436 22.8567 17.6436C22.6752 16.9279 22.4921 16.2327 22.3311 15.5319C22.3122 15.453 22.3919 15.3109 22.4668 15.2454C23.9206 13.9854 25.0562 12.3999 25.7812 10.6179C25.8238 10.5153 26.0006 10.419 26.1237 10.4064C26.7471 10.3409 27.3927 10.3867 27.9948 10.2431C28.9803 10.0047 29.8464 9.41817 30.4336 8.59157C31.0208 7.76497 31.2894 6.754 31.19 5.74495C30.9604 3.58113 29.2108 1.94918 27.0589 1.89394C26.7992 1.88684 26.5404 1.89394 26.2334 1.89394C26.2997 1.1048 26.276 0.375632 25.4561 0H14.5841C13.765 0.374842 13.7389 1.1048 13.8076 1.89868C12.2293 1.78899 10.8743 2.19224 9.84845 3.39805C9.12875 4.24164 8.80599 5.23122 8.83993 6.34076C8.8999 8.33097 10.6849 10.8333 14.1761 10.4135C14.2945 10.6834 14.4128 10.9604 14.5375 11.2326C15.2333 12.7388 16.2424 14.0792 17.4976 15.1642C17.6965 15.3362 17.7414 15.4798 17.6696 15.7331C17.4889 16.3597 17.3453 16.9958 17.1835 17.6452C16.8923 17.6452 16.6311 17.6452 16.3691 17.6452C15.6415 17.6523 15.1428 18.0966 15.1381 18.739C15.1333 19.3813 15.6321 19.8438 16.3533 19.8493C17.1914 19.854 18.0295 19.8493 18.8912 19.8493V22.9995H18.5756C16.2129 22.9995 13.8502 22.9956 11.4875 23.0059C11.2429 23.0059 11.1292 22.9356 11.0235 22.7091C10.4095 21.3881 8.99302 20.6124 7.61754 20.8152C6.10239 21.0417 4.99838 22.1417 4.76401 23.6561C4.55252 25.03 5.32824 26.4647 6.64769 27.0676C6.90021 27.1836 6.96335 27.3154 6.95388 27.5663C6.93888 28.2323 6.94835 28.8992 6.94835 29.611H4.76164C4.30236 29.611 3.84308 29.6047 3.3838 29.611C2.67357 29.6236 2.22928 30.0671 2.22139 30.7726C2.21192 31.5862 2.20876 32.4006 2.22139 33.2142C2.22692 33.4817 2.15195 33.6182 1.89469 33.739C0.492381 34.4019 -0.227317 35.906 0.0978097 37.4385C0.397684 38.8589 1.70529 39.9637 3.14784 40.0127C4.74822 40.0671 6.08977 39.0996 6.51117 37.5884C6.94283 36.0401 6.20025 34.4232 4.71035 33.7216C4.47913 33.6127 4.41126 33.4936 4.42152 33.2537C4.43967 32.796 4.42625 32.3367 4.42625 31.8482H11.6714C11.6714 32.3769 11.6879 32.9112 11.6572 33.4423C11.6516 33.5433 11.4757 33.6601 11.3549 33.724C10.101 34.3884 9.42863 35.4254 9.4815 36.8427C9.53358 38.226 10.247 39.2235 11.5214 39.7672C13.1439 40.4601 15.0292 39.7104 15.7694 38.1148C16.1392 37.3345 16.186 36.4398 15.8996 35.6253C15.6132 34.8107 15.0168 34.1421 14.24 33.765C13.9394 33.6182 13.8533 33.4557 13.8715 33.1463C13.8967 32.7178 13.8778 32.287 13.8778 31.8387H26.1324V33.5875C24.1666 34.4232 23.7255 36.239 24.057 37.5332C24.2435 38.2494 24.6643 38.8826 25.2524 39.3318C25.8406 39.7811 26.5622 40.0206 27.3022 40.0121C28.0422 40.0037 28.7582 39.7478 29.3359 39.2852C29.9136 38.8227 30.3199 38.1801 30.49 37.4598C30.7812 36.1932 30.3322 34.405 28.3815 33.5835V31.8427H35.6092C35.6092 32.3777 35.625 32.9001 35.5958 33.421C35.5903 33.5259 35.4309 33.6577 35.3125 33.7153C33.6221 34.5376 32.9238 36.5231 33.75 38.1842C34.3632 39.4192 35.6439 40.1255 37.0541 40.0063C38.3507 39.8967 39.4894 38.9497 39.8761 37.6586C39.925 37.5008 39.9724 37.3359 40.0205 37.1749V36.2279C39.7988 35.3757 39.4444 34.5984 38.694 34.0736ZM26.2587 4.12169C27.2293 4.00805 28.0918 4.15641 28.6569 5.02526C29.1193 5.73548 29.1303 6.48912 28.6837 7.21434C28.1273 8.1179 27.2553 8.27415 26.2587 8.16762V4.12169ZM13.7744 8.16446C12.803 8.27889 11.9413 8.12816 11.377 7.26011C10.9162 6.54988 10.913 5.79941 11.3533 5.07024C11.8213 4.29293 12.616 3.99069 13.7744 4.1351V8.16446ZM30.887 29.5873H9.1619V27.2112C9.82714 26.9366 10.4821 26.5554 10.7804 25.8847C11.0677 25.2391 11.4907 25.1894 12.0896 25.1918C17.561 25.2107 23.0324 25.2128 28.5038 25.1981C28.7634 25.1981 28.9125 25.2462 29.0341 25.5138C29.3553 26.2327 29.9069 26.744 30.6124 27.092C30.7268 27.1481 30.872 27.2917 30.8759 27.3998C30.898 28.1227 30.887 28.8424 30.887 29.5873Z" fill="white"/>
</svg>
