<svg width="41" height="43" viewBox="0 0 41 43" fill="none" xmlns="http://www.w3.org/2000/svg">
<path d="M11.3935 35.6727V42.7964H1.90869V35.6727C1.90869 34.9783 2.47769 34.4093 3.17661 34.4093H10.13C10.4647 34.4105 10.7854 34.544 11.0221 34.7806C11.2588 35.0173 11.3923 35.338 11.3935 35.6727ZM24.1981 28.7148H17.2447C16.5458 28.7148 15.9768 29.2838 15.9768 29.9828V42.7964H25.4616V29.9828C25.4616 29.2838 24.8926 28.7148 24.1981 28.7148ZM22.9302 39.7274H18.8039C18.553 39.7274 18.3558 39.5303 18.3558 39.2794C18.3558 39.0329 18.553 38.8313 18.8039 38.8313L20.0247 38.9904V34.3757L19.2564 35.4442C19.0861 35.6234 18.8039 35.6324 18.6246 35.4622C18.4454 35.2919 18.4365 35.0052 18.6067 34.826L20.5467 32.7874C20.6721 32.653 20.8648 32.6082 21.035 32.6799C21.1184 32.7131 21.1899 32.7706 21.2402 32.8449C21.2905 32.9191 21.3174 33.0068 21.3173 33.0966V38.8313H22.9302C23.1766 38.8313 23.3782 39.0329 23.3782 39.2794C23.3782 39.5303 23.1766 39.7274 22.9302 39.7274ZM39.5297 37.558V42.7982H30.0462V37.558C30.0472 37.2229 30.1808 36.9018 30.4178 36.6649C30.6548 36.428 30.9759 36.2945 31.311 36.2937H38.2658C38.6009 36.2945 38.922 36.428 39.159 36.6649C39.396 36.9018 39.5296 37.2229 39.5306 37.558H39.5297Z" fill="white"/>
<path d="M23.7291 5.0016C24.1214 3.33993 23.0923 1.67491 21.4306 1.28266C19.769 0.890412 18.1039 1.91947 17.7117 3.58114C17.3194 5.2428 18.3485 6.90782 20.0102 7.30007C21.6718 7.69232 23.3369 6.66326 23.7291 5.0016Z" fill="white"/>
<path d="M30.3229 16.8646C29.8301 17.2992 29.0729 17.2589 28.6383 16.7616L24.7943 12.654V26.9273C24.7943 27.913 23.9968 28.715 23.0111 28.715H22.9529C21.9672 28.715 21.1697 27.913 21.1697 26.9273V21.2015C21.1697 20.9506 20.9681 20.7535 20.7217 20.7535C20.4708 20.7535 20.2737 20.9506 20.2737 21.2015V26.9273C20.2737 27.913 19.4762 28.715 18.4905 28.715H18.4323C17.4466 28.715 16.6491 27.913 16.6491 26.9273V12.4381L12.805 16.766C12.5943 17.0018 12.2987 17.1445 11.9831 17.163C11.6674 17.1814 11.3572 17.0742 11.1204 16.8646H11.1115C10.6231 16.4255 10.5783 15.6684 11.0174 15.18L15.2064 10.4623C15.6585 9.95049 16.2143 9.54078 16.8369 9.26037C17.4595 8.97996 18.1347 8.83528 18.8176 8.83594H22.6258C24.0057 8.83594 25.314 9.42734 26.2369 10.4623L30.426 15.18C30.8606 15.6684 30.8202 16.4255 30.3229 16.8646ZM40.7217 21.9273V28.7687C40.7217 29.2289 40.4027 29.6514 39.9479 29.7203C39.8155 29.7424 39.6799 29.7354 39.5505 29.6997C39.4211 29.6641 39.3011 29.6007 39.1986 29.514C39.0962 29.4273 39.0138 29.3193 38.9573 29.1976C38.9008 29.0759 38.8715 28.9433 38.8713 28.8091V24.2078C38.8713 24.089 38.8241 23.975 38.7401 23.891C38.6561 23.807 38.5421 23.7598 38.4233 23.7598C38.3045 23.7598 38.1905 23.807 38.1065 23.891C38.0225 23.975 37.9753 24.089 37.9753 24.2078V34.853C37.9753 35.5931 37.4197 36.2566 36.68 36.2938C36.4946 36.3036 36.3091 36.2756 36.1348 36.2115C35.9605 36.1473 35.8011 36.0485 35.6662 35.9208C35.5313 35.7932 35.4238 35.6395 35.3501 35.469C35.2765 35.2985 35.2383 35.1148 35.2378 34.9291V29.8082C35.2378 29.5617 35.0362 29.3601 34.7898 29.3601C34.5434 29.3601 34.3418 29.5617 34.3418 29.8082V34.9291C34.3418 35.6818 33.728 36.2956 32.9708 36.2956C32.2136 36.2956 31.6043 35.6818 31.6043 34.9291V24.2078C31.6043 24.089 31.5571 23.975 31.4731 23.891C31.3891 23.807 31.2751 23.7598 31.1563 23.7598C31.0374 23.7598 30.9235 23.807 30.8395 23.891C30.7554 23.975 30.7082 24.089 30.7082 24.2078V28.7531C30.7082 29.2378 30.3588 29.6791 29.8767 29.7275C29.748 29.7411 29.618 29.7274 29.4949 29.6875C29.3719 29.6475 29.2586 29.582 29.1625 29.4954C29.0665 29.4088 28.9897 29.3029 28.9372 29.1847C28.8847 29.0664 28.8577 28.9384 28.8579 28.8091V21.9273C28.8579 20.516 30.0093 19.3646 31.4251 19.3646H38.1545C39.5702 19.3646 40.7217 20.516 40.7217 21.9273ZM37.4672 15.46C37.4671 15.8119 37.3977 16.1604 37.2629 16.4854C37.128 16.8105 36.9305 17.1058 36.6814 17.3544C36.4324 17.603 36.1368 17.8001 35.8115 17.9344C35.4862 18.0687 35.1377 18.1375 34.7857 18.137C34.4342 18.1371 34.0861 18.0679 33.7612 17.9334C33.4364 17.7989 33.1413 17.6017 32.8927 17.3531C32.6441 17.1045 32.4469 16.8094 32.3124 16.4845C32.1779 16.1597 32.1087 15.8116 32.1088 15.46C32.1082 15.1081 32.1771 14.7596 32.3114 14.4343C32.4457 14.109 32.6428 13.8134 32.8914 13.5644C33.14 13.3153 33.4353 13.1177 33.7603 12.9829C34.0854 12.8481 34.4338 12.7787 34.7857 12.7786C35.138 12.7782 35.4869 12.8473 35.8124 12.9819C36.1379 13.1165 36.4337 13.314 36.6827 13.5631C36.9318 13.8121 37.1293 14.1079 37.2639 14.4334C37.3985 14.7589 37.4676 15.1078 37.4672 15.46ZM12.5855 21.9269V28.7643C12.5855 29.2248 12.2665 29.6478 11.8108 29.7186C11.2284 29.8082 10.7351 29.3691 10.7351 28.8091V24.2078C10.7351 23.9614 10.5335 23.7598 10.2871 23.7598C10.0407 23.7598 9.83906 23.9614 9.83906 24.2078V33.0402C9.83906 33.4032 9.69486 33.7514 9.43817 34.0081C9.18149 34.2648 8.83335 34.409 8.47034 34.409C8.10733 34.409 7.75919 34.2648 7.5025 34.0081C7.24581 33.7514 7.10161 33.4032 7.10161 33.0402V28.715C7.10161 28.4686 6.9 28.2669 6.65358 28.2669C6.40716 28.2669 6.20555 28.4686 6.20555 28.715V33.0402C6.20555 33.4032 6.06135 33.7514 5.80466 34.0081C5.54797 34.2648 5.19983 34.409 4.83682 34.409C4.47381 34.409 4.12567 34.2648 3.86899 34.0081C3.6123 33.7514 3.4681 33.4032 3.4681 33.0402V24.2078C3.4681 23.9614 3.26648 23.7598 3.02007 23.7598C2.77365 23.7598 2.57204 23.9614 2.57204 24.2078V28.7508C2.57204 29.2356 2.22482 29.6782 1.74274 29.7275C1.61394 29.7412 1.48371 29.7277 1.36049 29.6877C1.23727 29.6478 1.12383 29.5824 1.02754 29.4958C0.931241 29.4092 0.854245 29.3033 0.801551 29.185C0.748858 29.0667 0.721644 28.9386 0.72168 28.8091V21.9273C0.72168 20.516 1.87311 19.3646 3.28888 19.3646H10.0183C11.434 19.3646 12.5855 20.5156 12.5855 21.9269ZM9.3301 15.46C9.33004 15.8119 9.26061 16.1604 9.12578 16.4854C8.99095 16.8105 8.79336 17.1058 8.54432 17.3544C8.29528 17.603 7.99967 17.8001 7.67439 17.9344C7.34911 18.0687 7.00056 18.1375 6.64865 18.137C6.29705 18.1371 5.94887 18.068 5.62401 17.9335C5.29915 17.799 5.00396 17.6018 4.75533 17.3532C4.50669 17.1046 4.30946 16.8095 4.17493 16.4847C4.04039 16.1598 3.97117 15.8116 3.97123 15.46C3.9707 15.1081 4.03956 14.7595 4.17388 14.4342C4.3082 14.1089 4.50533 13.8133 4.754 13.5642C5.00268 13.3152 5.29801 13.1176 5.62312 12.9828C5.94822 12.848 6.29671 12.7786 6.64865 12.7786C7.0009 12.7782 7.34977 12.8473 7.67529 12.9819C8.0008 13.1165 8.29657 13.314 8.54564 13.5631C8.79472 13.8121 8.99222 14.1079 9.12683 14.4334C9.26144 14.7589 9.33051 15.1078 9.3301 15.46Z" fill="white"/>
</svg>
