<svg width="41" height="36" viewBox="0 0 41 36" fill="none" xmlns="http://www.w3.org/2000/svg">
<path d="M40.9958 21.6057V22.0163C40.6574 22.4943 40.503 22.5493 39.9281 22.3974C39.5224 22.289 39.1134 22.1863 38.711 22.0689C38.2782 21.944 38.0597 21.6163 38.1534 21.2599C38.2511 20.8838 38.5829 20.6941 39.019 20.7975C39.509 20.9058 39.9929 21.0404 40.4685 21.2008C40.6697 21.2698 40.8274 21.466 40.9958 21.6057Z" fill="white"/>
<path d="M18.1893 15.2831C16.8506 15.3718 15.5826 15.4195 14.3236 15.5509C13.5023 15.6371 12.6876 15.8375 11.8737 16.0034C11.6733 16.0444 11.5502 16.0371 11.4376 15.8391C10.108 13.5223 8.77018 11.2097 7.41345 8.85263C8.93854 7.19697 10.1187 5.28835 11.2734 3.30664C13.5967 7.32919 15.8897 11.3008 18.1893 15.2831Z" fill="white"/>
<path d="M33.6626 27.6804C32.2583 27.7847 30.8966 27.857 29.5415 27.999C28.8024 28.0771 28.0682 28.2602 27.3372 28.422C27.1254 28.4688 27.0227 28.4318 26.9168 28.2471C25.6282 26.0009 24.3298 23.7605 23.0461 21.5127C22.9862 21.4076 22.9845 21.1842 23.0568 21.1021C24.4456 19.5466 25.5444 17.7907 26.5932 16.0012C26.6342 15.9322 26.6835 15.8682 26.7673 15.7441L33.6626 27.6804Z" fill="white"/>
<path d="M25.7925 28.9123C24.4661 29.663 23.2178 30.4473 21.9005 31.0985C20.1906 31.9444 18.0915 31.2628 17.0698 29.6268C16.0482 27.9909 16.3397 25.7776 17.8796 24.6532C19.137 23.7343 20.5413 23.0173 21.912 22.1895C23.217 24.4529 24.4883 26.6563 25.7925 28.9123Z" fill="white"/>
<path d="M10.2854 16.4547C10.2347 16.5039 10.1798 16.5485 10.1211 16.5878C9.01079 17.2284 7.9103 17.8854 6.78845 18.503C4.3534 19.8466 1.48884 18.4759 1.05192 15.7271C0.812935 14.2275 1.33854 12.9348 2.5844 12.0823C3.8048 11.2447 5.13032 10.5597 6.43777 9.79102L10.2854 16.4547Z" fill="white"/>
<path d="M37.112 27.2561C36.8245 27.73 36.3728 27.8696 35.7979 27.8154C35.3996 27.9082 35.1656 27.6889 34.9496 27.312C32.5542 23.1372 30.1474 18.9693 27.729 14.8082C27.5648 14.5249 27.5171 14.2974 27.729 14.0387C27.7845 13.9603 27.8342 13.878 27.8777 13.7923C28.4402 12.8586 29.4857 12.8528 30.0318 13.7923C31.5326 16.3744 33.0273 18.9597 34.5159 21.5483C35.3471 22.9897 36.1732 24.4334 37.0142 25.869C37.2844 26.3265 37.401 26.779 37.112 27.2561Z" fill="white"/>
<path d="M21.2518 15.2112C20.9914 15.3557 20.6662 15.382 20.3705 15.4617C19.8671 15.515 19.6569 15.2284 19.4417 14.8515C17.0732 10.7249 14.697 6.60242 12.3131 2.48405C12.2154 2.31241 12.038 2.06439 12.0947 1.94777C12.2778 1.57574 12.5053 1.19303 12.8042 0.917904C13.2526 0.507272 13.9869 0.637032 14.377 1.11172C14.4526 1.20926 14.5202 1.31281 14.579 1.42134C16.9119 5.45758 19.2429 9.49491 21.5721 13.5333C21.9531 14.1928 21.8349 14.8843 21.2518 15.2112Z" fill="white"/>
<path d="M13.8021 22.5449C12.4404 23.661 10.9975 23.4121 10.1426 21.9347C9.59805 20.9927 9.05438 20.0458 8.47949 19.0529L10.9581 17.623L13.8021 22.5449Z" fill="white"/>
<path d="M29.2795 34.9502C28.0649 36.0573 26.4872 35.8249 25.6742 34.4312C25.1059 33.4547 24.545 32.4741 23.9635 31.4681L26.4437 30.0391C27.4005 31.698 28.3441 33.3258 29.2795 34.9502Z" fill="white"/>
<path d="M24.834 4.30743C24.2419 4.7657 23.5956 5.15251 22.9057 5.60421C22.6593 5.38493 22.4318 5.25517 22.307 5.06135C22.2683 5.00374 22.2418 4.93882 22.2291 4.87058C22.2164 4.80234 22.2177 4.73223 22.2331 4.66454C22.2485 4.59686 22.2776 4.53303 22.3185 4.47699C22.3595 4.42094 22.4114 4.37386 22.4712 4.33864C22.9898 3.99114 23.5346 3.68443 24.1006 3.42129C24.2698 3.34573 24.6394 3.46892 24.7642 3.62414C24.889 3.77936 24.9383 4.22613 24.834 4.30743Z" fill="white"/>
<path d="M25.5018 9.23084C25.5083 9.82132 25.1388 10.1342 24.6986 10.0365C24.1672 9.91906 23.6416 9.77369 23.1217 9.61519C23.0389 9.59352 22.9612 9.5554 22.8934 9.50309C22.8256 9.45079 22.769 9.38536 22.727 9.31072C22.685 9.23607 22.6585 9.15374 22.649 9.06862C22.6395 8.9835 22.6472 8.89734 22.6717 8.81528C22.7179 8.64904 22.8281 8.5079 22.9782 8.42277C23.1283 8.33765 23.306 8.31548 23.4724 8.36112C23.9873 8.48677 24.5113 8.59764 25.0041 8.78653C25.2324 8.87359 25.3958 9.13064 25.5018 9.23084Z" fill="white"/>
<path d="M36.1322 13.2375C36.0082 13.7656 35.8908 14.3002 35.697 14.8029C35.6099 15.0287 35.343 15.1839 35.2387 15.2907C34.6712 15.2784 34.3624 14.9195 34.4519 14.5039C34.5694 13.9619 34.7188 13.4248 34.8831 12.8934C34.928 12.7339 35.0339 12.5984 35.1779 12.5163C35.3219 12.4343 35.4925 12.4122 35.6526 12.4549C35.8198 12.4954 35.9642 12.6005 36.054 12.7472C36.1439 12.8938 36.1721 13.0702 36.1322 13.2375Z" fill="white"/>
<path d="M40.1933 16.8868C39.6668 17.2495 39.1127 17.5705 38.536 17.8468C38.2469 17.9881 37.9743 17.8255 37.8117 17.5495C37.6491 17.2736 37.6663 16.9681 37.9094 16.8055C38.4621 16.4367 39.0592 16.1296 39.6341 15.8011C39.6873 15.7855 39.7431 15.7804 39.7983 15.7863L39.8739 15.7148C40.043 15.8881 40.2943 16.036 40.3543 16.2405C40.4093 16.4302 40.3346 16.7866 40.1933 16.8868Z" fill="white"/>
<path d="M20.6768 0.764267C20.5224 1.30959 20.377 1.91404 20.1734 2.50617C20.0609 2.83467 19.7562 2.92912 19.4342 2.84453C19.1123 2.75994 18.9004 2.50617 18.9669 2.17766C19.0894 1.57975 19.2471 0.989601 19.4392 0.410303C19.5459 0.0817971 19.8399 -0.0241459 20.1717 0.0497678C20.5035 0.123682 20.653 0.366776 20.6768 0.764267Z" fill="white"/>
<path d="M20.2047 8.53554C19.5797 7.45476 18.9637 6.3863 18.2969 5.23242C19.243 5.33179 19.8745 5.73914 20.2679 6.50045C20.612 7.18128 20.5874 7.97462 20.2047 8.53554Z" fill="white"/>
<path d="M35.7141 20.998C35.0645 19.872 34.4428 18.7962 33.7842 17.6562C34.6358 17.7195 35.2321 18.0743 35.6361 18.7239C36.0771 19.431 36.1149 20.1751 35.7141 20.998Z" fill="white"/>
</svg>
