<svg width="41" height="41" viewBox="0 0 41 41" fill="none" xmlns="http://www.w3.org/2000/svg">
<path d="M5.3938 5.11914V35.652H34.6167V5.11914H5.3938ZM31.084 23.7763C30.6878 23.9247 30.2886 24.0694 29.8864 24.2104C29.5414 24.3295 29.2019 24.2494 29.1129 23.8965C28.966 23.3089 28.5853 23.2287 28.0667 23.1597C24.6698 22.7257 21.3553 22.9995 18.1343 24.2004C18.0319 24.2393 17.9317 24.285 17.7881 24.344C18.4404 26.0001 18.3914 26.8883 16.2689 27.5928C16.5071 28.2443 16.7442 28.8954 16.9801 29.5461C17.4331 30.8016 17.0814 31.5495 15.8282 32.0181C14.0195 32.6981 14.1843 32.6859 13.5599 30.9607C12.9136 29.1733 12.2625 27.3858 11.6066 25.5983C11.5442 25.428 11.4719 25.2644 11.384 25.0518C11.0668 25.1631 10.7763 25.2744 10.4791 25.3579C9.63877 25.6061 8.85522 25.2622 8.51799 24.453C8.23974 23.7908 7.99488 23.1108 7.78341 22.424C7.52185 21.5759 7.91808 20.7545 8.76284 20.4618C9.29486 20.2793 9.61874 20.1201 9.59982 19.4345C9.5809 18.7489 10.1229 18.336 10.7629 18.1056C12.3077 17.5491 13.8504 16.9837 15.3952 16.425C18.7398 15.2163 21.5167 13.185 23.8774 10.5561C24.0911 10.318 24.0799 10.131 23.9887 9.86608C23.7661 9.25282 23.8774 9.05025 24.4895 8.81875C24.7833 8.70745 25.0805 8.60839 25.3799 8.50266C26.6354 8.04966 27.3833 8.39136 27.8441 9.66351C28.825 12.351 29.8026 15.0397 30.7768 17.7294C31.2309 18.9793 31.6906 20.2259 32.1369 21.478C32.5242 22.581 32.1614 23.3645 31.084 23.7763Z" fill="white"/>
<path d="M37.5338 39.9992C25.9386 39.9636 14.3434 39.9654 2.74816 40.0048C0.848274 40.0125 -0.27029 38.9763 0.0602709 36.875H39.9056C40.3764 38.9329 39.062 40.0036 37.5338 39.9992Z" fill="white"/>
<path d="M33.6227 0H6.01258C5.57962 0 5.36481 0.235956 5.36259 0.655556C5.35591 1.70734 5.36259 2.75912 5.36259 3.85654H34.6511V1.0017C34.65 0.10017 34.5476 0 33.6227 0ZM27.8429 2.51649C27.7505 2.58772 27.558 2.52873 27.41 2.52873C27.4105 2.53614 27.4105 2.54358 27.41 2.55099C27.2452 2.53764 27.0393 2.58104 26.9247 2.49757C26.7355 2.36067 26.4695 2.13028 26.4851 1.9611C26.504 1.75075 26.7399 1.4725 26.9481 1.39013C27.2271 1.2888 27.5322 1.28448 27.814 1.37789C28.0444 1.46137 28.3505 1.73294 28.3549 1.92771C28.3594 2.12249 28.0499 2.35399 27.8429 2.51649ZM31.7295 2.50981C31.4675 2.60778 31.179 2.60778 30.917 2.50981C30.6944 2.41298 30.3928 2.13473 30.3939 1.93884C30.395 1.74296 30.7111 1.52481 30.927 1.36899C31.025 1.29887 31.2142 1.35674 31.3622 1.35674C31.4913 1.35674 31.6627 1.30443 31.7406 1.36787C31.9499 1.53482 32.266 1.75409 32.2638 1.94886C32.2615 2.14363 31.9588 2.41521 31.7295 2.50981Z" fill="white"/>
<path d="M4.15384 16.2166V35.6395H1.48264C1.47263 35.4615 1.45593 35.3056 1.45593 35.1376C1.45593 29.5882 1.45593 24.0387 1.45593 18.4893C1.45927 16.9178 2.49881 16.0185 4.15384 16.2166Z" fill="white"/>
<path d="M38.5478 30.5309V35.6507H35.8655V16.25C37.3001 15.8972 38.5367 16.8722 38.5434 18.3759C38.5534 22.4294 38.5478 26.4807 38.5478 30.5309Z" fill="white"/>
<path d="M28.4039 22.0298C24.9335 21.5602 21.609 21.775 18.3157 22.8991C17.6345 21.0248 16.9801 19.2262 16.2933 17.343C19.5088 16.0976 22.21 14.1153 24.5785 11.5176L28.4039 22.0298Z" fill="white"/>
<path d="M17.2104 23.2922L12.6193 24.9617C11.9905 23.2254 11.3805 21.5481 10.7784 19.8675C10.6604 19.5336 10.8318 19.3399 11.1334 19.2309L15.1948 17.7617L17.2104 23.2922Z" fill="white"/>
<path d="M29.9722 22.9027C28.3821 18.5331 26.7997 14.1864 25.2252 9.86282C25.2597 9.82966 25.2969 9.7995 25.3365 9.77266C26.4117 9.29296 26.4629 9.31411 26.8658 10.4204C28.1947 14.0755 29.5247 17.7302 30.8559 21.3846C31.2666 22.502 31.2354 22.561 29.9722 22.9027Z" fill="white"/>
<path d="M14.8631 31.1054C14.2576 29.4459 13.6499 27.7808 13.0222 26.0624L14.2899 25.6094L15.6467 29.3123C15.6723 29.3824 15.6923 29.4537 15.7179 29.5227C16.1497 30.7025 16.1497 30.7025 14.8631 31.1054Z" fill="white"/>
<path d="M10.9832 23.8993C10.8964 23.9482 10.8519 23.9805 10.8018 24.0016C9.77118 24.4335 9.73556 24.4179 9.35492 23.3572C9.24362 23.0445 9.13232 22.7328 9.02102 22.419C8.79842 21.7857 8.8485 21.6766 9.48848 21.4429C9.64207 21.3872 9.80012 21.3405 10.035 21.2637L10.9832 23.8993Z" fill="white"/>
<path d="M15.8482 26.434L15.403 25.2175L16.5772 24.7578C17.2772 25.784 17.1637 26.0634 15.8482 26.434Z" fill="white"/>
</svg>
