<svg width="40" height="29" viewBox="0 0 40 29" fill="none" xmlns="http://www.w3.org/2000/svg">
<path d="M34.9839 28.1469C34.4099 28.8393 33.6827 29.1127 32.8145 28.8703C31.3977 28.4738 30.957 26.8221 31.8628 25.6261C32.7084 24.5118 33.5539 23.3815 34.2323 22.1639C35.465 19.9437 35.9639 17.5066 35.9902 14.8129C35.9319 11.0002 34.6382 7.49291 32.0206 4.49107C31.6016 4.01096 31.3178 3.49139 31.3798 2.84405C31.4625 1.98906 31.9088 1.3793 32.7309 1.10777C33.553 0.836245 34.2793 1.02885 34.8618 1.6715C36.3218 3.27718 37.5385 5.05855 38.3381 7.07387C41.3709 14.7456 40.2529 21.7699 34.9839 28.1469Z" fill="white"/>
<path d="M7.91471 25.4051C8.33374 25.9011 8.65601 26.417 8.59776 27.084C8.52353 27.94 8.08571 28.5563 7.26454 28.8335C6.44338 29.1106 5.69175 28.9171 5.09702 28.2594C3.82647 26.8601 2.76737 25.2825 1.95331 23.5767C0.638889 20.8201 0.00845589 18.0268 0 14.0488C0.0507353 9.93644 1.7203 5.49898 5.07353 1.71074C5.66075 1.04742 6.38889 0.832267 7.23448 1.10098C8.08007 1.36969 8.50944 1.97005 8.59776 2.82598C8.66352 3.47332 8.392 3.99947 7.9692 4.47675C6.22165 6.44979 5.00494 8.71973 4.43558 11.295C3.26992 16.5621 4.42963 21.2654 7.91471 25.4051Z" fill="white"/>
<path d="M14.1871 20.4836C14.685 21.0097 15.0017 21.5922 14.8814 22.3335C14.7517 23.1246 14.3008 23.6761 13.5425 23.9307C12.7608 24.1966 12.0506 24.0125 11.4756 23.4318C9.74953 21.7136 8.60037 19.5013 8.18715 17.1012C8.06219 16.3975 8.02085 15.6797 7.97388 15.2559C8.04246 11.7186 9.1624 8.90745 11.4229 6.56423C12.2582 5.69892 13.4899 5.65006 14.3092 6.43458C15.1285 7.2191 15.1492 8.43956 14.3092 9.32085C12.6481 11.0656 11.8664 13.1298 12.0167 15.5322C12.1407 17.4432 12.8764 19.0959 14.1871 20.4836Z" fill="white"/>
<path d="M32.0056 14.5056C31.9323 18.2074 30.8302 20.9885 28.6129 23.3261C27.7673 24.213 26.5713 24.2872 25.7285 23.514C24.8698 22.7304 24.8387 21.5127 25.6975 20.5958C27.3191 18.8661 28.098 16.8376 27.9608 14.4652C27.849 12.5401 27.1153 10.8724 25.7914 9.47063C25.3414 8.99334 25.0464 8.46626 25.1028 7.79824C25.1732 6.96111 25.6017 6.35886 26.3946 6.0676C27.2026 5.76977 27.9383 5.94452 28.5415 6.55898C30.0448 8.09326 31.0989 9.9 31.5969 11.9924C31.8299 12.9751 31.9238 13.987 32.0056 14.5056Z" fill="white"/>
<path d="M22.9869 14.9994C22.9833 15.5903 22.8053 16.167 22.4751 16.6571C22.1449 17.1472 21.6772 17.5288 21.1309 17.754C20.5846 17.9793 19.9839 18.0381 19.4042 17.923C18.8246 17.808 18.2919 17.5243 17.8729 17.1076C17.4539 16.6908 17.1674 16.1596 17.0494 15.5806C16.9313 15.0015 16.9869 14.4005 17.2092 13.853C17.4316 13.3055 17.8107 12.8359 18.299 12.5031C18.7874 12.1703 19.3631 11.9892 19.954 11.9825C20.3519 11.9791 20.7466 12.0546 21.1151 12.2048C21.4836 12.3549 21.8186 12.5768 22.1007 12.8574C22.3828 13.138 22.6064 13.4719 22.7585 13.8396C22.9106 14.2073 22.9883 14.6015 22.9869 14.9994Z" fill="white"/>
</svg>
