<svg width="40" height="29" viewBox="0 0 40 29" fill="none" xmlns="http://www.w3.org/2000/svg">
<path d="M34.9837 28.1469C34.4096 28.8393 33.6824 29.1127 32.8143 28.8703C31.3974 28.4738 30.9568 26.8221 31.8625 25.6261C32.7081 24.5118 33.5537 23.3815 34.232 22.1639C35.4647 19.9437 35.9636 17.5066 35.9899 14.8129C35.9317 11.0002 34.6379 7.49291 32.0204 4.49107C31.6013 4.01096 31.3176 3.49139 31.3796 2.84405C31.4623 1.98906 31.9086 1.3793 32.7307 1.10777C33.5528 0.836245 34.279 1.02885 34.8615 1.6715C36.3216 3.27718 37.5383 5.05855 38.3378 7.07387C41.3707 14.7456 40.2526 21.7699 34.9837 28.1469Z" fill="white"/>
<path d="M7.91471 25.4051C8.33374 25.9011 8.65601 26.417 8.59776 27.084C8.52353 27.94 8.08571 28.5563 7.26454 28.8335C6.44338 29.1106 5.69175 28.9171 5.09702 28.2594C3.82647 26.8601 2.76737 25.2825 1.95331 23.5767C0.638889 20.8201 0.00845589 18.0268 0 14.0488C0.0507353 9.93644 1.7203 5.49898 5.07353 1.71074C5.66075 1.04742 6.38889 0.832267 7.23448 1.10098C8.08007 1.36969 8.50944 1.97005 8.59776 2.82598C8.66352 3.47332 8.392 3.99947 7.9692 4.47675C6.22165 6.44979 5.00494 8.71973 4.43558 11.295C3.26992 16.5621 4.42963 21.2654 7.91471 25.4051Z" fill="white"/>
<path d="M14.1873 20.4836C14.6853 21.0097 15.0019 21.5922 14.8816 22.3335C14.752 23.1246 14.301 23.6761 13.5428 23.9307C12.7611 24.1966 12.0508 24.0125 11.4758 23.4318C9.74978 21.7136 8.60062 19.5013 8.1874 17.1012C8.06244 16.3975 8.0211 15.6797 7.97412 15.2559C8.04271 11.7186 9.16264 8.90745 11.4232 6.56423C12.2584 5.69892 13.4902 5.65006 14.3095 6.43458C15.1287 7.2191 15.1494 8.43956 14.3095 9.32085C12.6483 11.0656 11.8666 13.1298 12.017 15.5322C12.141 17.4432 12.8767 19.0959 14.1873 20.4836Z" fill="white"/>
<path d="M32.0057 14.5056C31.9324 18.2074 30.8303 20.9885 28.613 23.3261C27.7674 24.213 26.5714 24.2872 25.7286 23.514C24.8699 22.7304 24.8389 21.5127 25.6976 20.5958C27.3193 18.8661 28.0981 16.8376 27.961 14.4652C27.8492 12.5401 27.1154 10.8724 25.7916 9.47063C25.3415 8.99334 25.0465 8.46626 25.1029 7.79824C25.1733 6.96111 25.6018 6.35886 26.3948 6.0676C27.2028 5.76977 27.9384 5.94452 28.5416 6.55898C30.0449 8.09326 31.099 9.9 31.597 11.9924C31.83 12.9751 31.924 13.987 32.0057 14.5056Z" fill="white"/>
<path d="M22.9868 14.9994C22.9832 15.5903 22.8051 16.167 22.4749 16.6571C22.1448 17.1472 21.6771 17.5288 21.1308 17.754C20.5845 17.9793 19.9838 18.0381 19.4041 17.923C18.8245 17.808 18.2917 17.5243 17.8728 17.1076C17.4538 16.6908 17.1673 16.1596 17.0492 15.5806C16.9312 15.0015 16.9868 14.4005 17.2091 13.853C17.4315 13.3055 17.8106 12.8359 18.2989 12.5031C18.7873 12.1703 19.363 11.9892 19.9539 11.9825C20.3518 11.9791 20.7465 12.0546 21.1149 12.2048C21.4834 12.3549 21.8184 12.5768 22.1006 12.8574C22.3827 13.138 22.6063 13.4719 22.7584 13.8396C22.9105 14.2073 22.9881 14.6015 22.9868 14.9994Z" fill="white"/>
</svg>
