<svg width="41" height="37" viewBox="0 0 41 37" fill="none" xmlns="http://www.w3.org/2000/svg">
<path d="M32.2907 31.869C32.1803 29.3578 31.6741 26.8798 30.7909 24.5265C29.8193 21.9456 26.7363 20.9593 24.4101 22.4347C24.2407 22.5381 24.0468 22.5945 23.8484 22.598C21.9476 22.6105 20.0472 22.6105 18.1469 22.598C17.9487 22.5929 17.7554 22.5352 17.5868 22.4306C15.2566 20.9626 12.1842 21.9587 11.2045 24.5322C10.9361 25.2419 10.7098 25.9669 10.5268 26.7032C9.99526 28.826 9.54701 30.9652 9.75521 33.1738C9.90626 34.7569 10.4655 36.0763 12.1957 36.5287H13.0121C14.3569 36.1939 15.2623 35.277 16.047 34.2132C16.1115 34.1133 16.2018 34.0327 16.3082 33.9798C16.4147 33.927 16.5334 33.9038 16.652 33.9127C19.5418 33.9225 22.4313 33.9225 25.3205 33.9127C25.6063 33.9127 25.7859 33.9903 25.9598 34.2246C26.613 35.1015 27.3421 35.8992 28.3864 36.3278C28.5586 36.3989 28.7334 36.4625 28.9073 36.5295H29.8054C31.2212 36.1735 31.9111 35.1717 32.1462 33.8155C32.2647 33.1738 32.3131 32.5212 32.2907 31.869ZM17.4913 28.6962C17.2358 28.7068 16.9794 28.6962 16.6561 28.6962C16.6561 28.9673 16.6634 29.2188 16.6561 29.4694C16.6348 30.0614 16.2903 30.428 15.7694 30.4214C15.2681 30.4157 14.9317 30.0548 14.908 29.4858C14.8982 29.2408 14.908 28.9959 14.908 28.697C14.6337 28.697 14.3814 28.7019 14.1291 28.697C13.5722 28.684 13.1901 28.3402 13.1779 27.8471C13.1656 27.3352 13.5437 26.9816 14.1307 26.9645C14.3756 26.958 14.6124 26.9645 14.908 26.9645C14.908 26.682 14.9015 26.4428 14.908 26.2035C14.9251 25.6132 15.2689 25.2238 15.7735 25.2197C16.278 25.2156 16.6356 25.6026 16.6569 26.1856C16.6659 26.4305 16.6569 26.6697 16.6569 26.9661C16.9622 26.9661 17.2284 26.9563 17.497 26.9661C18.0277 26.989 18.3886 27.345 18.3862 27.8283C18.3837 28.3117 18.0147 28.675 17.4913 28.6962ZM26.2276 25.2189C26.3982 25.2216 26.5642 25.2746 26.7048 25.3711C26.8455 25.4677 26.9546 25.6035 27.0184 25.7617C27.0823 25.9199 27.0981 26.0934 27.064 26.2606C27.0298 26.4277 26.9471 26.5811 26.8262 26.7015C26.7054 26.8219 26.5517 26.904 26.3844 26.9376C26.2171 26.9712 26.0437 26.9547 25.8857 26.8902C25.7278 26.8258 25.5923 26.7162 25.4963 26.5752C25.4003 26.4342 25.3479 26.268 25.3458 26.0974C25.3482 25.8646 25.4419 25.6421 25.6069 25.4779C25.7719 25.3137 25.9948 25.221 26.2276 25.2197V25.2189ZM24.4673 28.6962C24.2345 28.6907 24.0134 28.593 23.8525 28.4246C23.6916 28.2562 23.6041 28.0309 23.6092 27.7981C23.6162 27.5725 23.7117 27.3587 23.875 27.2029C24.0383 27.0471 24.2563 26.9618 24.482 26.9653C24.5938 26.9638 24.7048 26.9846 24.8085 27.0265C24.9122 27.0685 25.0065 27.1307 25.0858 27.2096C25.1651 27.2884 25.2279 27.3824 25.2704 27.4858C25.313 27.5892 25.3344 27.7001 25.3336 27.812C25.3359 27.9273 25.3153 28.0418 25.2728 28.149C25.2304 28.2562 25.167 28.3538 25.0863 28.4362C25.0056 28.5185 24.9093 28.584 24.803 28.6286C24.6967 28.6733 24.5826 28.6963 24.4673 28.6962ZM26.1933 30.4231C26.0243 30.417 25.8608 30.3613 25.7232 30.2629C25.5857 30.1645 25.4801 30.0278 25.4197 29.8698C25.3593 29.7118 25.3468 29.5396 25.3837 29.3745C25.4205 29.2095 25.5051 29.0589 25.627 28.9416C25.7488 28.8244 25.9025 28.7455 26.0689 28.715C26.2352 28.6845 26.4069 28.7036 26.5624 28.77C26.718 28.8364 26.8506 28.9471 26.9436 29.0883C27.0367 29.2295 27.0861 29.395 27.0857 29.5641C27.0848 29.6796 27.0608 29.7937 27.0153 29.8998C26.9697 30.0058 26.9034 30.1018 26.8203 30.1819C26.7372 30.262 26.6389 30.3248 26.5313 30.3665C26.4236 30.4082 26.3087 30.428 26.1933 30.4247V30.4231ZM27.961 28.6962C27.8459 28.6966 27.7319 28.6739 27.6257 28.6295C27.5195 28.5851 27.4233 28.5199 27.3427 28.4377C27.2621 28.3555 27.1988 28.258 27.1565 28.151C27.1142 28.0439 27.0937 27.9295 27.0963 27.8144C27.0954 27.7026 27.1169 27.5918 27.1595 27.4884C27.202 27.385 27.2648 27.2911 27.3441 27.2123C27.4235 27.1335 27.5177 27.0714 27.6214 27.0295C27.7251 26.9877 27.8361 26.9669 27.9479 26.9686C28.063 26.9666 28.1774 26.9878 28.2842 27.0309C28.391 27.074 28.488 27.1381 28.5695 27.2194C28.651 27.3008 28.7153 27.3977 28.7586 27.5044C28.8019 27.6111 28.8233 27.7254 28.8215 27.8406C28.8145 28.0661 28.7215 28.2804 28.5614 28.4395C28.4014 28.5987 28.1866 28.6905 27.961 28.6962Z" fill="white"/>
<path d="M40.9748 24.5231C40.9478 25.3875 40.5921 26.2091 39.9802 26.8204C39.3684 27.4316 38.5464 27.7865 37.682 27.8127C36.3936 27.8486 35.1027 27.8216 33.8135 27.8298C33.611 27.8298 33.5131 27.7849 33.451 27.5587C33.1007 26.2793 32.7219 25.0081 32.3569 23.7327C32.3269 23.6289 32.311 23.5216 32.3096 23.4135C32.3096 22.5872 32.3096 21.7601 32.3096 20.8775C33.6396 20.9477 34.7884 20.542 35.6881 19.5271C36.5879 18.5122 36.7267 17.2663 36.632 15.9297C37.4477 16.1474 38.2022 16.5506 38.8365 17.1079C40.1886 18.2787 40.9234 19.7581 40.9756 21.5519C41.005 22.5415 41.005 23.5335 40.9748 24.5231Z" fill="white"/>
<path d="M9.68388 23.516C9.67674 23.5966 9.65918 23.6759 9.63162 23.752C9.27156 25.0004 8.89679 26.2447 8.55959 27.4996C8.48529 27.7748 8.37425 27.8336 8.12114 27.8319C6.92664 27.8213 5.73132 27.8385 4.53682 27.8238C2.4891 27.7984 1.02353 26.3451 1.01536 24.2982C1.00965 23.0792 0.937796 21.8382 1.1362 20.6461C1.50851 18.4008 2.87611 16.8781 4.99894 16.0412C5.07487 16.0118 5.15326 15.9898 5.23164 15.9677C5.27646 15.9639 5.32153 15.9639 5.36636 15.9677C5.26838 17.2912 5.41045 18.5241 6.32572 19.5414C7.24098 20.5588 8.37752 20.9556 9.68878 20.8756C9.68633 21.7851 9.68714 22.6547 9.68388 23.516Z" fill="white"/>
<path d="M27.1601 6.16131C27.0736 6.61119 26.8988 7.0431 26.7862 7.4889C26.7045 7.79916 26.5306 7.87019 26.2269 7.85794C23.6876 7.75098 21.337 7.03657 19.224 5.62815C18.6288 5.23216 18.1381 5.22889 17.5339 5.53425C16.4972 6.05347 15.5923 6.80174 14.8877 7.72241C14.0957 5.74246 14.4729 3.72576 16.0708 2.53534C17.0334 1.81848 18.0099 1.07059 19.0917 0.570902C21.6016 -0.590942 24.6731 0.222268 26.4081 2.38021C27.3087 3.50042 27.4214 4.80106 27.1601 6.16131Z" fill="white"/>
<path d="M24.7384 13.6624C24.4877 13.9294 24.2158 14.1768 23.9644 14.4421C22.6858 15.7885 21.1418 15.9118 19.4648 15.4284C19.4251 15.4193 19.3866 15.4062 19.3496 15.3893C17.7828 14.5507 15.6755 12.4042 15.7833 10.0283C15.7797 9.89387 15.7996 9.75987 15.8421 9.63229C16.2777 8.58173 17.0775 7.72341 18.0947 7.2147C18.1935 7.16408 18.3821 7.19511 18.4866 7.25879C20.316 8.38605 22.357 9.12658 24.4836 9.4347C25.0445 9.51635 25.6112 9.55391 26.2031 9.61432C26.2897 11.1828 25.8071 12.5291 24.7384 13.6624Z" fill="white"/>
<path d="M38.2334 7.64752C37.9027 8.94653 38.1117 8.74976 36.834 8.67138C34.871 8.56291 32.9753 7.9185 31.353 6.80818C30.7994 6.43178 30.2997 6.37626 29.72 6.64488C29.4138 6.78858 29.1036 6.9233 28.7402 7.08496C29.0056 6.04514 29.0658 4.96356 28.9174 3.90071C28.9027 3.80273 28.9933 3.65577 29.0807 3.5831C29.3175 3.38388 29.5877 3.22549 29.8261 3.0279C32.1939 1.06836 35.8207 1.49374 37.6529 3.95378C38.4947 5.08297 38.5632 6.35259 38.2334 7.64752Z" fill="white"/>
<path d="M14.0387 10.5026C14.0174 11.7347 13.6125 12.8018 12.7968 13.7048C12.5151 14.0167 12.1942 14.2943 11.9158 14.6087C10.8209 15.8424 8.8663 15.9804 7.7812 15.3909C5.99802 14.4217 4.70309 13.0002 4.5153 10.8398C4.49738 10.7196 4.50801 10.5968 4.54633 10.4814C4.74382 9.99628 5.03769 9.55629 5.41016 9.18803C5.78262 8.81978 6.22593 8.53093 6.71325 8.33896C6.76791 8.3221 6.82544 8.31659 6.8823 8.32277C6.93916 8.32895 6.99416 8.34668 7.04392 8.37489C9.15125 9.69758 11.4529 10.3728 13.9333 10.4569C13.9703 10.4676 14.0057 10.4829 14.0387 10.5026Z" fill="white"/>
<path d="M37.5114 10.478C37.5 11.7158 37.0966 12.7805 36.2867 13.6868C36.0066 14.0003 35.698 14.2885 35.4041 14.5898C34.2137 15.8088 32.7056 16.0594 31.285 15.3801C29.4463 14.4983 28.1709 13.0009 27.988 10.8234C27.9785 10.6626 28.0088 10.5019 28.0762 10.3555C28.4687 9.46326 29.1902 8.75671 30.0905 8.38294C30.1668 8.35448 30.2482 8.34211 30.3296 8.3466C30.4109 8.3511 30.4905 8.37237 30.5632 8.40906C32.6019 9.67668 34.9403 10.381 37.3399 10.4503C37.3976 10.4561 37.4548 10.4654 37.5114 10.478Z" fill="white"/>
<path d="M13.3329 8.66586C12.26 8.6234 11.2451 8.43071 10.2964 8.02737C9.40236 7.64771 8.54506 7.17416 7.69837 6.69325C7.32688 6.4826 6.99702 6.39851 6.58552 6.52996C5.58527 6.85158 4.68088 7.41728 3.95402 8.17597C3.3882 6.88512 3.58905 5.20564 4.55249 4.39324C5.60085 3.509 6.66227 2.59047 7.98822 2.12589C9.82611 1.48169 11.5423 1.78216 13.1083 2.94237C13.1881 3.00774 13.2636 3.0781 13.3345 3.15302C12.5107 4.98845 12.6291 6.80919 13.3329 8.66586Z" fill="white"/>
<path d="M20.2888 20.8353C20.2888 20.85 20.2847 20.8647 20.2831 20.8794C19.6862 20.8794 19.0894 20.8794 18.4925 20.8745C18.3858 20.8653 18.2824 20.8327 18.1896 20.779C15.9141 19.6081 13.7268 19.7576 11.6219 21.206C11.5877 21.227 11.552 21.2453 11.5149 21.2607C11.4847 18.4961 13.877 15.6352 16.6644 15.0645C16.6644 15.6123 16.6497 16.1479 16.6644 16.6827C16.6893 17.5779 16.9926 18.4431 17.5321 19.1578C18.0717 19.8725 18.8207 20.4012 19.6748 20.6704C19.8781 20.7349 20.0855 20.7806 20.2888 20.8353Z" fill="white"/>
<path d="M30.5148 21.2751C30.412 21.2131 30.3213 21.1624 30.2356 21.1053C28.2761 19.8112 26.2251 19.6275 24.0974 20.6399C23.7623 20.8123 23.3889 20.8966 23.0123 20.8848C22.5795 20.8661 22.146 20.8799 21.6055 20.8799C24.7211 20.0716 25.598 17.9357 25.3123 15.0977C27.6727 15.1426 30.5238 18.5464 30.5148 21.2751Z" fill="white"/>
<path d="M23.522 16.9473C23.4208 18.2079 22.1381 19.2473 20.8538 19.146C19.5891 19.0472 18.4427 17.9777 18.4991 16.9505C20.586 17.567 21.3028 17.567 23.522 16.9473Z" fill="white"/>
<path d="M10.9089 17.2311C10.6738 17.7683 10.4452 18.2982 10.2076 18.8232C10.1748 18.8957 10.1168 18.9538 10.0443 18.9865C9.36661 19.2372 8.70771 19.1882 8.09781 18.7954C7.4879 18.4027 7.14661 17.832 7.10742 17.0449C8.38765 17.5054 9.64503 17.4777 10.9089 17.2311Z" fill="white"/>
<path d="M31.9849 19.0023C31.9004 18.9636 31.831 18.8982 31.7873 18.8161C31.5481 18.2936 31.3211 17.7645 31.0859 17.2281C32.3523 17.473 33.6088 17.5049 34.8417 17.0566C34.934 18.4651 33.2488 19.5983 31.9849 19.0023Z" fill="white"/>
</svg>
