<svg width="40" height="40" viewBox="0 0 40 40" fill="none" xmlns="http://www.w3.org/2000/svg">
<path d="M30.1846 21.5985C23.4795 17.8014 16.8578 17.7147 10.066 21.6467C10.066 19.7626 9.96331 18.4369 10.0885 17.1049C10.2417 15.7911 10.8586 14.5751 11.8282 13.6755C12.7978 12.7759 14.0566 12.2517 15.3781 12.1972C18.5269 12.1009 21.6885 12.1009 24.8372 12.1972C27.6746 12.2807 29.8893 14.5018 30.1686 17.4387C30.2809 18.6359 30.1846 19.8717 30.1846 21.5985Z" fill="white"/>
<path d="M25.1808 5.08743C25.2032 6.43633 24.6902 7.73915 23.7542 8.71068C22.8181 9.68221 21.5353 10.2433 20.1865 10.2711C18.8353 10.2784 17.535 9.75644 16.5638 8.81703C15.5926 7.87762 15.0277 6.59537 14.9899 5.2447C14.9789 4.56369 15.1028 3.88723 15.3544 3.25432C15.606 2.6214 15.9804 2.04455 16.456 1.55701C16.9316 1.06947 17.499 0.680881 18.1255 0.413654C18.752 0.146427 19.4252 0.00584052 20.1062 0C20.7735 0.000842484 21.434 0.133101 22.0502 0.389224C22.6663 0.645347 23.226 1.02032 23.6972 1.49273C24.1684 1.96514 24.542 2.52574 24.7965 3.14252C25.0511 3.7593 25.1817 4.42018 25.1808 5.08743Z" fill="white"/>
<path d="M9.44686 20.2216H0.286284C-0.965512 14.9544 2.05485 12.178 6.0959 12.5182C7.94471 12.6755 9.81919 12.5439 12.249 12.5439C9.48538 14.7329 9.20292 17.3488 9.44686 20.2216Z" fill="white"/>
<path d="M39.9874 20.2664H30.9167C30.8814 17.4804 30.891 14.6558 27.9316 12.5855C30.8204 12.5855 33.2149 12.4604 35.5836 12.6209C38.1193 12.791 39.8718 14.781 39.981 17.3039C40.0195 18.2507 39.9874 19.204 39.9874 20.2664Z" fill="white"/>
<path d="M19.7505 19.3066V24.6573C16.5792 24.8545 13.5899 26.2064 11.3474 28.4576L7.70117 24.6412C10.9109 21.3095 14.8685 19.5795 19.7505 19.3066Z" fill="white"/>
<path d="M10.8853 29.0004C9.11802 31.1901 8.10486 33.8919 7.99652 36.7037C7.99652 36.9573 7.48617 37.3874 7.19408 37.4002C5.76575 37.4741 4.331 37.4323 2.73576 37.4323C2.59091 32.9629 4.16069 28.6073 7.12347 25.2578L10.8853 29.0004Z" fill="white"/>
<path d="M12.9265 6.66435C12.9199 7.23989 12.7989 7.80838 12.5706 8.33676C12.3424 8.86514 12.0113 9.34287 11.5968 9.74218C11.1822 10.1415 10.6925 10.4544 10.1559 10.6627C9.61936 10.8711 9.04675 10.9707 8.47136 10.9558C7.90877 10.9462 7.35359 10.8258 6.83756 10.6014C6.32153 10.3771 5.85477 10.0533 5.46396 9.64851C5.07316 9.24369 4.76598 8.76582 4.55997 8.24221C4.35397 7.7186 4.25319 7.15953 4.2634 6.59695C4.27562 5.46236 4.7285 4.37697 5.52632 3.57017C6.32413 2.76337 7.40438 2.29836 8.53876 2.27344C9.70223 2.27598 10.8173 2.73952 11.6397 3.56251C12.4621 4.38551 12.9248 5.50089 12.9265 6.66435Z" fill="white"/>
<path d="M35.7632 6.86246C35.7116 7.99643 35.2121 9.06358 34.3744 9.82965C33.5367 10.5957 32.4293 10.9981 31.2952 10.9485C30.1634 10.9011 29.0941 10.4161 28.3127 9.59584C27.5313 8.77556 27.0989 7.68397 27.1065 6.55112C27.1443 5.39038 27.6364 4.2909 28.4769 3.48944C29.3173 2.68799 30.439 2.24868 31.6002 2.26613C32.1758 2.29326 32.7403 2.43383 33.2614 2.67977C33.7825 2.92571 34.2499 3.27217 34.6367 3.69926C35.0236 4.12635 35.3222 4.62565 35.5155 5.16849C35.7088 5.71133 35.793 6.287 35.7632 6.86246Z" fill="white"/>
<path d="M37.4548 37.3458H32.775C31.8121 34.5212 30.9423 31.8893 29.9248 28.8368L33.0992 25.2676C36.0971 28.8368 37.5736 32.7398 37.4548 37.3458Z" fill="white"/>
<path d="M32.1363 24.2371L28.3841 27.3056L20.4561 24.2146V19.3262C24.9978 19.4834 28.7949 21.1012 32.1363 24.2371Z" fill="white"/>
<path d="M27.4087 28.0393L25.9964 29.2077C18.858 24.6434 10.9107 29.1114 10.5095 37.3251H8.70241C8.15354 33.3033 10.8626 28.6107 14.8651 26.5243C18.8676 24.438 24.215 25.035 27.4087 28.0393Z" fill="white"/>
<path d="M32.6978 24.9012C29.9631 27.9632 27.1899 30.9997 24.5162 34.1035C23.7105 35.0375 23.1456 36.1866 22.5197 37.265C21.8938 38.3435 21.0496 38.7929 19.8588 38.5489C19.3488 38.4791 18.8831 38.2218 18.5525 37.8271C18.222 37.4325 18.0503 36.9288 18.071 36.4145C18.0389 35.1819 18.713 34.4886 19.8332 34.0361C20.7351 33.6766 21.698 33.3331 22.4491 32.7522C25.8386 30.1073 29.1638 27.3791 32.5116 24.6797C32.5726 24.7471 32.6368 24.8241 32.6978 24.9012Z" fill="white"/>
<path d="M31.6259 37.3193H29.9825C29.3662 35.2811 28.7564 33.2782 28.0566 30.9287L29.18 29.709C30.9067 31.8569 31.7779 34.5676 31.6259 37.3193Z" fill="white"/>
<path d="M21.564 39.3158C20.171 39.8422 18.794 39.6175 17.8247 38.3689C16.9645 37.2616 16.7462 36.0355 17.6481 34.6328C17.4588 37.3354 18.0237 38.5647 19.5932 39.0366C21.1628 39.5084 22.2605 38.7669 23.5123 36.273C23.6343 37.9067 22.819 38.8376 21.564 39.3158Z" fill="white"/>
</svg>
