<svg width="32" height="41" viewBox="0 0 32 41" fill="none" xmlns="http://www.w3.org/2000/svg">
<path d="M15.0143 18.8733C15.9621 18.8733 16.7204 18.115 16.7204 17.1671C16.7204 16.2192 15.9621 15.4609 15.0143 15.4609C14.0664 15.4609 13.3081 16.2192 13.3081 17.1671C13.3081 18.115 14.0664 18.8733 15.0143 18.8733Z" fill="white"/>
<path d="M10.4648 18.1155C10.5912 18.6843 10.7807 19.1898 11.0967 19.6953C11.2231 19.8849 11.2231 20.0745 11.0967 20.2008L10.5912 20.896L11.2231 21.5279L11.9182 21.0223C12.0446 20.896 12.2973 20.896 12.4237 21.0223C12.9292 21.3383 13.4348 21.5279 14.0035 21.6542C14.1931 21.7174 14.3195 21.8438 14.3826 22.0334L14.509 22.8549H15.3937L15.5201 22.0334C15.5833 21.8438 15.7097 21.7174 15.8992 21.6542C16.468 21.5279 16.9735 21.3383 17.479 21.0223C17.6054 20.896 17.8582 20.896 17.9845 21.0223L18.6796 21.5279L19.3116 20.896L18.806 20.2008C18.6796 20.0745 18.6796 19.8217 18.806 19.6953C19.122 19.1898 19.3116 18.6843 19.4379 18.1155C19.5011 17.926 19.6275 17.7996 19.8171 17.7364L20.6386 17.61V16.7253L19.8171 16.599C19.6275 16.5358 19.5011 16.4094 19.4379 16.2198C19.3116 15.6511 19.122 15.1456 18.806 14.64C18.6796 14.5136 18.6796 14.2609 18.806 14.1345L19.3116 13.4394L18.6796 12.8075L17.9845 13.313C17.8582 13.4394 17.6054 13.4394 17.479 13.313C16.9735 12.9971 16.468 12.8075 15.8992 12.6811C15.7097 12.6179 15.5833 12.4915 15.5201 12.302L15.3937 11.4805H14.509L14.3826 12.302C14.3195 12.4915 14.1931 12.6179 14.0035 12.6811C13.4348 12.8075 12.9292 12.9971 12.4237 13.313C12.2973 13.4394 12.0446 13.4394 11.9182 13.313L11.2231 12.8075L10.5912 13.4394L11.0967 14.1345C11.2231 14.2609 11.2231 14.5136 11.0967 14.64C10.7807 15.1456 10.5912 15.6511 10.4648 16.2198C10.4016 16.4094 10.2752 16.5358 10.0856 16.599L9.26416 16.7253V17.61L10.0856 17.7364C10.2752 17.7996 10.4648 17.926 10.4648 18.1155ZM15.0146 14.5136C16.468 14.5136 17.6686 15.7143 17.6686 17.1677C17.6686 18.6211 16.468 19.8217 15.0146 19.8217C13.5612 19.8217 12.3605 18.6211 12.3605 17.1677C12.3605 15.7143 13.5612 14.5136 15.0146 14.5136Z" fill="white"/>
<path d="M26.5152 23.8031C26.3257 23.6767 26.1361 23.5503 26.0097 23.424C25.2514 22.6657 24.9986 21.6546 25.2514 20.6436H23.9244C23.1661 20.6436 22.5342 20.0116 22.5342 19.2533C22.5342 18.811 22.7238 18.4319 23.0397 18.1791C22.7238 17.9263 22.5342 17.5472 22.5342 17.1048C22.5342 16.6625 22.7238 16.2834 23.0397 16.0306C22.7238 15.7778 22.5342 15.3987 22.5342 14.9563C22.5342 14.1981 23.1661 13.5661 23.9244 13.5661H25.2514C24.9986 12.6815 25.2514 11.6704 25.8833 10.9121C25.3146 10.217 24.6827 9.52191 23.9244 8.89C22.8501 8.00532 21.6495 7.31022 20.3225 6.80469C20.0065 6.93107 19.6906 6.99426 19.3114 6.99426C19.0587 6.99426 18.8059 6.93107 18.6163 6.93107V8.25808C18.6163 9.01638 17.9844 9.64829 17.2261 9.64829C16.7838 9.64829 16.4046 9.45872 16.1519 9.14276C15.8991 9.45872 15.52 9.64829 15.0776 9.64829C14.6353 9.64829 14.2561 9.45872 14.0034 9.14276C13.7506 9.45872 13.3715 9.64829 12.9291 9.64829C12.1708 9.64829 11.5389 9.01638 11.5389 8.25808V6.80469C11.2862 6.86788 11.0334 6.93107 10.8438 6.93107C10.6543 6.93107 10.4015 6.93107 10.2119 6.86788C2.75536 9.45872 2.81855 15.9674 3.1977 18.8742C3.32408 19.7589 3.1345 20.5804 2.69217 21.3387L0.417286 25.1301C0.290903 25.3829 0.227712 25.6357 0.290903 25.8884C0.354095 26.1412 0.543668 26.3939 0.796432 26.5203L2.12345 27.1522C2.24983 27.2154 2.37621 27.405 2.37621 27.5314L2.12345 29.2375L3.26089 29.9326C3.38727 29.9958 3.45046 30.1222 3.45046 30.2486C3.45046 30.375 3.45046 30.5014 3.32408 30.6278L2.4394 31.6388L3.45046 32.3971C3.57684 32.4603 3.64003 32.6499 3.64003 32.7762L3.45046 34.672C3.38727 35.1143 3.51365 35.5567 3.82961 35.8726C4.14556 36.1886 4.52471 36.4413 4.96705 36.4413C6.98917 36.6309 10.907 36.6941 14.0034 35.3039C14.193 35.2407 14.4457 35.3039 14.5721 35.4935C14.6985 35.683 14.5721 35.9358 14.3825 36.0622C13.2451 36.5677 12.0445 36.8837 10.8438 37.0732C10.5279 37.8315 10.5911 38.7794 11.0966 40.0432H25.5042C22.155 35.6199 24.7459 28.6056 26.452 23.9295C26.5152 23.8663 26.5152 23.8031 26.5152 23.8031ZM8.31618 16.3466C8.31618 16.0938 8.50575 15.9042 8.69533 15.9042L9.58 15.7146C9.70638 15.2723 9.89596 14.83 10.1487 14.3876L9.64319 13.6293C9.51681 13.4398 9.51681 13.187 9.70638 13.0606L10.907 11.86C11.0966 11.6704 11.3494 11.6704 11.5389 11.7968L12.2972 12.3023C12.6764 12.0496 13.1187 11.86 13.6242 11.7336L13.8138 10.8489C13.877 10.5962 14.0666 10.4698 14.2561 10.4698H15.8991C16.1519 10.4698 16.3415 10.6593 16.3415 10.8489L16.531 11.7336C16.9734 11.86 17.4157 12.0496 17.858 12.3023L18.6163 11.7968C18.8059 11.6704 19.0587 11.6704 19.1851 11.86L20.3857 13.0606C20.5121 13.2502 20.5753 13.5029 20.4489 13.6293L19.8802 14.3876C20.1329 14.83 20.2593 15.2091 20.3857 15.7146L21.2704 15.9042C21.5231 15.9674 21.6495 16.157 21.6495 16.3466V17.9895C21.6495 18.2423 21.4599 18.4319 21.2704 18.4319L20.3857 18.6214C20.2593 19.0638 20.0697 19.5061 19.817 19.9484L20.3225 20.7067C20.4489 20.8963 20.4489 21.1491 20.2593 21.3387L19.1851 22.4761C19.0587 22.6025 18.7427 22.6657 18.6163 22.5393L17.858 22.0338C17.4789 22.2865 17.0366 22.4761 16.531 22.6025L16.3415 23.4872C16.2783 23.7399 16.0887 23.8663 15.8991 23.8663H14.2561C14.0034 23.8663 13.8138 23.7399 13.8138 23.4872L13.6242 22.6025C13.1819 22.4761 12.7396 22.2865 12.2972 22.0338L11.5389 22.5393C11.3494 22.6657 11.0966 22.6657 10.907 22.4761L9.70638 21.2755C9.58 21.1491 9.51681 20.8331 9.64319 20.6436L10.1487 19.8853C9.89596 19.5061 9.70638 19.0638 9.58 18.5582L8.69533 18.3687C8.50575 18.3055 8.31618 18.1159 8.31618 17.9263V16.3466ZM21.3336 32.0811C20.7648 32.6499 20.0697 32.9026 19.3114 32.9026C18.8059 32.9026 18.3004 32.7763 17.858 32.5235C17.6053 33.8505 16.4046 34.8616 15.0144 34.8616C13.6242 34.8616 12.4236 33.8505 12.1708 32.5235C11.7285 32.7763 11.223 32.9026 10.7174 32.9026C9.95915 32.9026 9.20086 32.5867 8.69533 32.0811C7.55789 30.9437 7.55789 29.1112 8.69533 27.9737C9.26405 27.405 9.95915 27.1522 10.7174 27.1522C10.9702 27.1522 11.223 27.1522 11.4125 27.2154V25.8252C11.4125 25.0669 12.0445 24.435 12.8028 24.435C13.2451 24.435 13.6242 24.6246 13.877 24.9405C14.1298 24.6246 14.5089 24.435 14.9513 24.435C15.3936 24.435 15.7727 24.6246 16.0255 24.9405C16.2783 24.6246 16.6574 24.435 17.0998 24.435C17.858 24.435 18.49 25.0669 18.49 25.8252V27.2154C18.7427 27.1522 18.9955 27.1522 19.2482 27.1522C20.0065 27.1522 20.7648 27.4682 21.2704 27.9737C21.8391 28.5424 22.0919 29.2375 22.0919 29.9958C22.2182 30.8173 21.9023 31.5756 21.3336 32.0811Z" fill="white"/>
<path d="M16.9736 32.0177C16.9736 33.0919 16.0889 33.9766 15.0146 33.9766C13.9404 33.9766 13.0557 33.0919 13.0557 32.0177C13.0557 31.133 13.6876 30.3747 14.5091 30.122V25.8882C14.5091 25.6354 14.6987 25.3826 15.0146 25.3826C15.2674 25.3826 15.5202 25.5722 15.5202 25.8882V30.122C16.3416 30.3747 16.9736 31.133 16.9736 32.0177ZM21.2706 30.0588C21.2706 30.5643 21.081 31.0698 20.7018 31.449C20.3227 31.8281 19.8172 32.0177 19.3116 32.0177C18.8061 32.0177 18.3006 31.7649 17.9214 31.449C17.2895 30.8171 17.1631 29.806 17.6055 29.0477L16.784 28.2262C16.7208 28.0998 16.6576 28.0367 16.6576 27.9103V25.8882C16.6576 25.6354 16.8472 25.3826 17.1631 25.3826C17.4159 25.3826 17.6687 25.5722 17.6687 25.8882V27.7207L18.3638 28.4158C19.1221 27.9735 20.1331 28.0998 20.7018 28.6686C21.081 29.0477 21.2706 29.5532 21.2706 30.0588ZM13.3085 25.8882V27.9103C13.3085 28.0367 13.2453 28.163 13.1821 28.2262L12.3606 29.0477C12.5502 29.3637 12.6134 29.6796 12.6134 30.0588C12.6134 30.5643 12.4238 31.0698 12.0446 31.449C11.6655 31.8281 11.16 32.0177 10.6544 32.0177C10.1489 32.0177 9.64338 31.8281 9.26423 31.449C8.88509 31.0698 8.69551 30.5643 8.69551 30.0588C8.69551 29.5532 8.88509 29.0477 9.26423 28.6686C9.89615 28.0367 10.9072 27.9103 11.6655 28.3526L12.3606 27.6575V25.825C12.3606 25.5722 12.5502 25.3194 12.8661 25.3194C13.1189 25.4458 13.3085 25.6354 13.3085 25.8882ZM13.1821 5.79336C13.2453 5.85655 13.3085 5.98294 13.3085 6.10932V8.13144C13.3085 8.3842 13.1189 8.63697 12.8029 8.63697C12.5502 8.63697 12.2974 8.44739 12.2974 8.13144V6.29889L11.6023 5.60379C11.2864 5.79336 10.9704 5.85655 10.5912 5.85655C10.0857 5.85655 9.58019 5.66698 9.20104 5.28784C8.44275 4.52954 8.44275 3.26572 9.20104 2.57062C9.95934 1.87551 11.2232 1.81232 11.9815 2.57062C12.3606 2.94976 12.5502 3.45529 12.5502 3.96082C12.5502 4.33997 12.4238 4.65592 12.2974 4.97188L13.1821 5.79336ZM16.9736 2.00189C16.9736 2.88657 16.3416 3.64487 15.5202 3.89763V8.13144C15.5202 8.3842 15.3306 8.63697 15.0146 8.63697C14.7619 8.63697 14.5091 8.44739 14.5091 8.13144V3.89763C13.6876 3.70806 13.0557 2.94976 13.0557 2.00189C13.0557 0.927645 13.9404 0.0429688 15.0146 0.0429688C16.0889 0.10616 16.9736 0.990836 16.9736 2.00189ZM21.2706 4.02401C21.2706 4.52954 21.081 5.03507 20.7018 5.41422C20.3227 5.79336 19.8172 5.98294 19.3116 5.98294C18.9325 5.98294 18.6165 5.85656 18.3006 5.73017L17.6055 6.42528V8.25782C17.6055 8.51058 17.4159 8.76335 17.0999 8.76335C16.8472 8.76335 16.5944 8.57378 16.5944 8.25782V6.2357C16.5944 6.10932 16.6576 5.98294 16.7208 5.91975L17.5423 5.09826C17.2263 4.21359 17.2895 3.26572 17.9214 2.63381C18.6797 1.87551 19.9435 1.87551 20.6386 2.63381C21.081 3.01295 21.2706 3.45529 21.2706 4.02401ZM23.4191 14.8929C23.4191 14.6401 23.6086 14.3874 23.9246 14.3874H25.7571L26.4522 13.6923C26.0099 12.934 26.0731 11.9861 26.7682 11.291C27.5265 10.5327 28.7903 10.5327 29.5486 11.291C29.9277 11.6701 30.1173 12.1757 30.1173 12.6812C30.1173 13.1867 29.9277 13.6923 29.5486 14.0714C29.1695 14.4506 28.6639 14.6401 28.1584 14.6401C27.8424 14.6401 27.4633 14.5137 27.1473 14.3874L26.3258 15.2088C26.2627 15.272 26.1363 15.3352 26.0099 15.3352H23.9878C23.6086 15.3352 23.4191 15.1457 23.4191 14.8929ZM29.4222 19.9482C29.8014 20.3273 29.9909 20.8329 29.9909 21.3384C29.9909 21.8439 29.8014 22.3494 29.4222 22.7286C29.0431 23.1077 28.5375 23.2973 28.032 23.2973C27.5265 23.2973 27.021 23.1077 26.6418 22.7286C26.0099 22.0967 25.8835 21.0856 26.3258 20.3273L25.6307 19.6322H23.7982C23.5454 19.6322 23.2927 19.4427 23.2927 19.1267C23.2927 18.8739 23.4822 18.6212 23.7982 18.6212H25.8203C25.9467 18.6212 26.0731 18.6844 26.1363 18.7476L26.9578 19.569C27.7792 19.1899 28.7903 19.3163 29.4222 19.9482ZM31.9499 17.0414C31.9499 18.1156 31.0652 19.0003 29.9909 19.0003C29.1063 19.0003 28.348 18.3684 28.0952 17.5469H23.8614C23.6086 17.5469 23.3559 17.3573 23.3559 17.0414C23.3559 16.7886 23.5454 16.5359 23.8614 16.5359H28.0952C28.2848 15.7144 29.0431 15.0825 29.9909 15.0825C31.0652 15.0825 31.9499 15.9671 31.9499 17.0414Z" fill="white"/>
</svg>
