<svg width="40" height="37" viewBox="0 0 40 37" fill="none" xmlns="http://www.w3.org/2000/svg">
<path d="M39.4318 13.8636C37.1591 6.36364 31.8432 2.25455 24.4591 0.465909C23.7341 0.290909 23.0023 0.154545 22.2727 0H17.7273C16.4523 0.295455 15.1455 0.497727 13.9045 0.909091C6.51136 3.28636 1.55682 7.93864 0.168182 15.8545C0.128291 15.9572 0.0714399 16.0525 0 16.1364L0 20.2273C0.2 21.0227 0.361364 21.8182 0.604545 22.6091C2.90227 30.0477 8.20909 34.1182 15.5432 35.9091C16.2659 36.0841 17 36.2205 17.7273 36.375H22.2727C23.5477 36.0795 24.8523 35.875 26.0932 35.4659C33.4818 33.0773 38.4386 28.4205 39.8295 20.5114C39.869 20.4073 39.9267 20.3111 40 20.2273V16.1364C39.8114 15.3773 39.6591 14.6091 39.4318 13.8636ZM30.8068 29.0705C23.5023 34.8841 12.15 33.6364 6.54773 26.4432C4.07045 23.2614 3.17576 19.6689 3.86364 15.6659C4 14.8773 4.33409 14.4636 5.13864 14.2C7.72727 13.35 9.62955 11.4568 11.5909 9.68864C11.9159 9.39545 12.2341 9.09091 12.6341 8.71818C12.6864 10.4545 12.3477 11.3636 10.7045 14.0523C13.7636 14.1455 16.5 13.2136 18.9795 11.6932C21.4091 10.2045 23.6614 8.42955 26.05 6.73636C26.0045 6.67273 26.1364 6.80682 26.2091 6.96364C27.9614 10.7864 31.2568 12.7841 34.9568 14.2364C35.7295 14.5409 36.0091 14.9455 36.125 15.6591C37.025 21.1932 35.1091 25.6455 30.8068 29.0705Z" fill="white"/>
<path d="M27.0048 24.1959C26.5866 27.7686 23.4389 30.8346 20.1866 30.9073C16.7321 30.9823 13.5821 28.0914 12.9707 24.2027L16.1866 23.0527C17.0821 24.8891 17.4684 27.1323 19.8684 27.2232C22.5048 27.3209 22.873 24.8868 23.8207 23.0596L27.0048 24.1959Z" fill="white"/>
<path d="M14.4885 20.7876C12.068 19.1626 9.77258 19.1422 7.48394 20.6808C7.29593 20.0464 7.30548 19.3698 7.5113 18.741C7.71713 18.1121 8.10949 17.5608 8.63621 17.1604C9.19684 16.7025 9.88366 16.4264 10.6052 16.3687C11.3267 16.3111 12.0486 16.4746 12.6749 16.8376C14.0908 17.6717 14.6635 18.9399 14.4885 20.7876Z" fill="white"/>
<path d="M32.4566 20.6815C30.1839 19.1656 27.8907 19.1247 25.4975 20.7588C25.2248 18.9406 25.8293 17.6929 27.2225 16.8452C27.8435 16.4762 28.5623 16.3057 29.2829 16.3564C30.0034 16.4072 30.6913 16.6768 31.2543 17.1293C31.7944 17.527 32.1992 18.081 32.4143 18.7163C32.6293 19.3516 32.6441 20.0376 32.4566 20.6815Z" fill="white"/>
</svg>
