<svg width="40" height="30" viewBox="0 0 40 30" fill="none" xmlns="http://www.w3.org/2000/svg">
<path d="M39.9434 23.0836C39.8172 22.1913 39.6906 21.299 39.5635 20.4066C39.4308 19.476 39.2979 18.545 39.1648 17.6136C39.0047 16.4895 38.8447 15.3654 38.685 14.2414C38.5191 13.0753 38.3532 11.9094 38.1873 10.7435C38.0035 9.45439 37.8404 8.16356 37.6289 6.87975C37.3631 5.26782 36.6558 3.85902 35.5416 2.6637C34.2632 1.29259 32.6943 0.445122 30.8474 0.119728C30.5667 0.0708991 30.2796 0.0513677 29.9956 0.0171877C29.9708 0.0128969 29.9463 0.00715781 29.9222 0L10.0978 0C9.93395 0.0184898 9.77015 0.0369795 9.60634 0.0554693C8.67932 0.157551 7.77705 0.419779 6.93972 0.830477C5.24217 1.66108 3.96612 2.92002 3.11155 4.60727C2.70276 5.4149 2.44651 6.27233 2.32053 7.16921C2.16936 8.2452 2.01408 9.3206 1.86115 10.3964C1.72183 11.3787 1.5825 12.3611 1.44318 13.3435C1.31102 14.2712 1.17846 15.1988 1.04552 16.1263C0.906064 17.1021 0.767 18.078 0.628326 19.0539C0.468299 20.178 0.308727 21.3021 0.149611 22.4262C0.101173 22.7707 0.0605475 23.1164 0.0160158 23.4614C0.0120959 23.4799 0.00674125 23.4981 0 23.5159L0 24.1799C0.0251956 24.3627 0.0457036 24.5463 0.0763679 24.7282C0.252411 25.7669 0.698705 26.6726 1.41525 27.4454C2.23772 28.3319 3.2512 28.8712 4.44262 29.0753C4.59516 29.1013 4.74887 29.1192 4.9022 29.1409H5.66392C5.84986 29.1145 6.03697 29.0942 6.22174 29.061C7.27234 28.872 8.18719 28.4098 8.95438 27.6692C9.54658 27.0973 10.1239 26.51 10.7075 25.9295C11.7042 24.9381 12.7003 23.9463 13.6958 22.9541C13.746 22.9039 13.7974 22.8955 13.8611 22.8955C17.1025 22.8963 20.3438 22.8963 23.585 22.8955C24.4344 22.8955 25.2842 22.8955 26.1331 22.8938C26.168 22.8921 26.2029 22.8981 26.2353 22.9113C26.2677 22.9245 26.2968 22.9447 26.3206 22.9703C27.84 24.4928 29.3604 26.0143 30.8819 27.535C31.5388 28.1932 32.3044 28.6718 33.1999 28.9235C33.5361 29.0181 33.8874 29.0577 34.232 29.1226C34.2603 29.1278 34.2882 29.1343 34.3164 29.1401H35.0781C35.2568 29.1138 35.4371 29.0948 35.614 29.0599C37.3849 28.7115 38.6745 27.7298 39.483 26.1145C39.776 25.5262 39.9367 24.8981 39.9828 24.2416C39.9865 24.2203 39.9922 24.1994 40 24.1791V23.5151C39.9809 23.3717 39.9637 23.2276 39.9434 23.0836ZM17.9119 12.4892H13.8826C13.7572 12.4892 13.757 12.4892 13.757 12.6175C13.757 13.9226 13.7576 15.2278 13.7589 16.533C13.7589 16.6279 13.7408 16.6603 13.637 16.6593C13.022 16.6537 12.4066 16.6566 11.7917 16.6566H11.6745V16.5224C11.6745 15.2171 11.6752 13.9119 11.6765 12.6068C11.6765 12.5138 11.6532 12.4868 11.5583 12.487C10.2532 12.4902 8.94807 12.4909 7.64285 12.4892H7.51296V10.4091H11.6708V6.2528H13.7566V10.4077H17.9119V12.4892ZM26.2585 10.4079C25.1008 10.4105 24.1651 9.47314 24.1629 8.30828C24.1608 7.18327 25.1049 6.24635 26.2424 6.24459C27.3844 6.24303 28.3268 7.178 28.3261 8.3118C28.3253 9.46415 27.3968 10.4054 26.2585 10.4079ZM30.5276 16.6484C29.3853 16.7172 28.3987 15.8382 28.3309 14.6884C28.2645 13.5792 29.1093 12.5683 30.2814 12.4927C31.4534 12.4171 32.4542 13.3452 32.4896 14.5013C32.5318 15.5666 31.713 16.5773 30.5276 16.6484Z" fill="white"/>
</svg>
