<svg width="40" height="40" viewBox="0 0 40 40" fill="none" xmlns="http://www.w3.org/2000/svg">
<path d="M39.6827 23.629C37.8949 33.5669 28.7065 40.7899 18.5991 39.9238C10.7616 39.251 5.11463 35.2091 1.76668 28.0285C1.41705 27.2789 1.47797 26.7889 2.08452 26.1956C4.93452 23.4039 7.76862 20.5936 10.5392 17.7198C11.3523 16.8775 11.8317 17.0364 12.5469 17.7807C14.5811 19.8996 16.6762 21.9471 18.6786 23.9548L26.3863 16.157C26.0711 16.1385 25.6579 16.0988 25.2447 16.0961C23.3747 16.0961 22.8185 15.3571 23.3906 13.5401C23.4736 13.3843 23.5926 13.2507 23.7377 13.1502C23.8829 13.0498 24.0499 12.9855 24.225 12.9627C26.5929 12.9177 28.9608 12.9071 31.3261 12.976C31.6201 12.976 32.1393 13.5057 32.1472 13.8209C32.2196 16.1853 32.2196 18.5515 32.1472 20.9194C32.1472 21.2399 31.5963 21.7749 31.2572 21.812C29.0562 22.0504 29.0535 22.0106 29.0297 19.8361C29.0297 19.4626 28.9873 19.0891 28.9502 18.4852L18.8402 28.635L11.8767 21.1472L5.20468 27.8113C7.68121 33.4715 14.8327 37.4446 21.4783 36.7877C25.7345 36.3934 29.6832 34.4011 32.5293 31.212C35.3754 28.0229 36.9074 23.8738 36.8168 19.6003C36.6712 11.0133 29.6654 3.74525 21.0306 3.19697C12.3959 2.64869 4.66435 8.85988 3.37973 17.3569C3.31352 17.7886 3.14135 18.2442 3.21287 18.6548C3.51217 20.3949 2.48977 21.3988 1.37732 22.4397C0.807852 22.9695 0.431737 22.9112 0 22.3682V17.6297C0.0977768 17.3964 0.1792 17.1565 0.24368 16.9119C1.85762 8.57735 6.72062 3.1749 14.8327 0.704553C15.8365 0.399953 16.8748 0.233085 17.8919 0H22.3656C23.425 0.264869 24.4845 0.492657 25.5202 0.794608C35.3442 3.60487 41.4997 13.5401 39.6827 23.629Z" fill="white"/>
</svg>
