<svg width="40" height="31" viewBox="0 0 40 31" fill="none" xmlns="http://www.w3.org/2000/svg">
<path d="M30.7614 30.3495V26.0471C29.229 25.7846 27.7736 25.7205 26.4611 25.2702C24.4614 24.5852 22.5599 23.6184 20.5986 22.8074C20.27 22.6709 19.7578 22.5578 19.5038 22.7135C16.5837 24.5132 13.2576 25.5488 9.83194 25.7248C9.66293 25.7493 9.49548 25.7835 9.33042 25.8272V30.2534C6.12282 27.7437 3.12223 25.3961 0 22.9419L9.27706 15.656V20.0822C11.9917 19.8922 14.399 19.2776 16.5331 17.8008C16.7161 17.6638 16.8689 17.4906 16.9819 17.2919C17.095 17.0933 17.166 16.8735 17.1904 16.6462C17.2502 14.2368 17.2203 11.8252 17.2203 9.27066H12.8048L20.0715 0C22.4788 3.07315 24.8199 6.06306 27.3169 9.23865H22.9227C22.9227 11.2213 23.102 13.0801 22.8779 14.8877C22.594 17.1797 23.6611 18.3834 25.6096 19.0322C27.2102 19.5636 28.8534 19.9605 30.6909 20.4748V15.7926L40 23.0892L30.7614 30.3495Z" fill="white"/>
</svg>
