<svg width="40" height="41" viewBox="0 0 40 41" fill="none" xmlns="http://www.w3.org/2000/svg">
<path d="M4.7164 16.4916H9.63801L10.4882 13.5087L9.11639 14.105C9.03075 14.1422 8.93558 14.1517 8.84429 14.132C8.75299 14.1123 8.67017 14.0645 8.6075 13.9952L7.17631 12.4152L5.74503 13.9952C5.68233 14.0644 5.59951 14.1122 5.50822 14.1319C5.41693 14.1516 5.32178 14.1421 5.23614 14.1049L3.86623 13.5091L4.7164 16.4916ZM30.3619 16.4916H35.2835L36.1338 13.5087L34.762 14.105C34.6763 14.1422 34.5812 14.1516 34.4899 14.1319C34.3986 14.1123 34.3158 14.0644 34.2531 13.9952L32.8219 12.4152L31.3907 13.9952C31.328 14.0645 31.2452 14.1123 31.1539 14.132C31.0626 14.1516 30.9674 14.1422 30.8817 14.1049L29.5117 13.5091L30.3619 16.4916ZM11.9164 20.3133C11.4436 19.5137 10.9073 18.7535 10.3127 18.0398L9.76613 17.3844H7.97161L9.37314 19.6723C9.66553 20.1836 8.93707 20.6331 8.61178 20.1387L7.17725 17.7969L6.06101 19.6192C5.76281 20.1185 4.99076 19.6411 5.29965 19.1527L6.38289 17.3844H4.58845L4.04187 18.0398C1.43538 21.1654 0 25.1477 0 29.2532C0 31.0502 1.42829 32.5124 3.18392 32.5124H9.58015C9.44341 32.0337 9.37436 31.5383 9.37502 31.0405C9.37502 27.3308 10.2531 23.6273 11.9164 20.3133ZM7.82315 28.5959V29.2996C7.82315 29.418 7.77611 29.5316 7.6924 29.6153C7.60868 29.699 7.49513 29.7461 7.37674 29.7461C7.25834 29.7461 7.1448 29.699 7.06108 29.6153C6.97736 29.5316 6.93033 29.418 6.93033 29.2996V28.6591H6.03238C5.9155 28.6568 5.80417 28.6088 5.72232 28.5253C5.64047 28.4419 5.59462 28.3296 5.59462 28.2127C5.59462 28.0958 5.64047 27.9836 5.72232 27.9001C5.80417 27.8166 5.9155 27.7686 6.03238 27.7663H7.37554C7.81092 27.7663 8.16511 27.4006 8.16511 26.9512C8.16511 26.5017 7.81092 26.136 7.37554 26.136H6.97887C6.05118 26.136 5.29648 25.3697 5.29648 24.4279C5.29648 23.6437 5.8205 22.9829 6.53127 22.7832V22.0794C6.53356 21.9625 6.58159 21.8512 6.66506 21.7694C6.74853 21.6875 6.86077 21.6416 6.97768 21.6416C7.09458 21.6416 7.20682 21.6875 7.29029 21.7694C7.37376 21.8512 7.4218 21.9625 7.42409 22.0794V22.7199H8.32203C8.43892 22.7222 8.55024 22.7702 8.63209 22.8537C8.71394 22.9372 8.75979 23.0494 8.75979 23.1663C8.75979 23.2832 8.71394 23.3955 8.63209 23.4789C8.55024 23.5624 8.43892 23.6104 8.32203 23.6127H6.97896C6.54358 23.6127 6.18939 23.9785 6.18939 24.4279C6.18939 24.8773 6.54358 25.243 6.97896 25.243H7.37563C8.30332 25.243 9.05801 26.0092 9.05801 26.951C9.05793 27.7354 8.53391 28.3961 7.82315 28.5959ZM35.958 18.0398L35.4115 17.3844H33.617L35.0185 19.6723C35.3274 20.1609 34.5551 20.6378 34.2571 20.1387L32.8227 17.7969L31.7064 19.6192C31.4082 20.1185 30.6362 19.6411 30.9451 19.1527L32.0283 17.3844H30.2339L29.6873 18.0398C29.0927 18.7535 28.5564 19.5137 28.0836 20.3133C29.7469 23.6272 30.625 27.3308 30.625 31.0404C30.625 31.5434 30.5561 32.0362 30.4198 32.5123H36.8161C38.5717 32.5123 40 31.0502 40 29.2531C39.9999 25.1477 38.5644 21.1654 35.958 18.0398ZM33.4686 28.5959V29.2996C33.4686 29.418 33.4215 29.5316 33.3378 29.6153C33.2541 29.699 33.1405 29.7461 33.0221 29.7461C32.9038 29.7461 32.7902 29.699 32.7065 29.6153C32.6228 29.5316 32.5757 29.418 32.5757 29.2996V28.6591H31.6778C31.5594 28.6591 31.4459 28.6121 31.3621 28.5284C31.2784 28.4447 31.2314 28.3311 31.2314 28.2127C31.2314 28.0943 31.2784 27.9808 31.3621 27.8971C31.4459 27.8134 31.5594 27.7663 31.6778 27.7663H33.021C33.4564 27.7663 33.8106 27.4006 33.8106 26.9512C33.8106 26.5017 33.4564 26.136 33.021 26.136H32.6244C31.6968 26.136 30.942 25.3697 30.942 24.4279C30.942 23.6437 31.466 22.9829 32.1767 22.7833V22.0794C32.1767 21.961 32.2237 21.8475 32.3074 21.7637C32.3912 21.68 32.5047 21.633 32.6231 21.633C32.7415 21.633 32.855 21.68 32.9388 21.7637C33.0225 21.8475 33.0695 21.961 33.0695 22.0794V22.7199H33.9674C34.0858 22.7199 34.1994 22.767 34.2831 22.8507C34.3668 22.9344 34.4139 23.0479 34.4139 23.1663C34.4139 23.2847 34.3668 23.3983 34.2831 23.482C34.1994 23.5657 34.0858 23.6127 33.9674 23.6127H32.6243C32.1889 23.6127 31.8347 23.9785 31.8347 24.4279C31.8347 24.8773 32.1889 25.243 32.6243 25.243H33.021C33.9486 25.243 34.7033 26.0092 34.7033 26.951C34.7033 27.7354 34.1793 28.3961 33.4686 28.5959ZM16.6002 14.3871H23.3997L24.6487 10.068L22.5273 10.9769C22.4423 11.0132 22.3482 11.0224 22.2578 11.003C22.1674 10.9836 22.0853 10.9366 22.0228 10.8686L19.9988 8.66602L17.975 10.8686C17.9125 10.9367 17.8303 10.9836 17.7399 11.003C17.6495 11.0224 17.5553 11.0132 17.4704 10.9768L15.3514 10.0682L16.6002 14.3871Z" fill="white"/>
<path d="M24.303 16.1951L23.5282 15.2794H20.7994L22.8026 18.5027C23.0982 19.0122 22.3726 19.4662 22.0442 18.974L19.9999 15.6846L18.3805 18.2903C18.0518 18.7829 17.3265 18.3279 17.6223 17.819L19.2005 15.2795H16.4717L15.697 16.1952C12.1959 20.3334 10.2678 25.6053 10.2678 31.0399C10.2678 33.4828 12.2418 35.4702 14.6683 35.4702H25.3316C27.758 35.4702 29.7321 33.4828 29.7321 31.0399C29.7321 25.6053 27.8039 20.3334 24.303 16.1951ZM20.7128 30.0681V31.1011C20.7128 31.2194 20.6657 31.333 20.582 31.4167C20.4983 31.5004 20.3847 31.5475 20.2663 31.5475C20.148 31.5475 20.0344 31.5004 19.9507 31.4167C19.867 31.333 19.8199 31.2194 19.8199 31.1011V30.117H18.4715C18.3531 30.117 18.2395 30.07 18.1558 29.9863C18.0721 29.9026 18.0251 29.789 18.0251 29.6706C18.0251 29.5522 18.0721 29.4387 18.1558 29.355C18.2395 29.2713 18.3531 29.2242 18.4715 29.2242H20.2648C20.9285 29.2242 21.4685 28.6797 21.4685 28.0104C21.4685 27.3411 20.9285 26.7965 20.2648 26.7965H19.7352C18.5792 26.7965 17.6387 25.8515 17.6387 24.6898C17.6387 23.6827 18.3458 22.8388 19.2873 22.632V21.5991C19.2889 21.4818 19.3367 21.3698 19.4202 21.2874C19.5038 21.205 19.6164 21.1588 19.7337 21.1588C19.8511 21.1588 19.9637 21.205 20.0473 21.2874C20.1308 21.3698 20.1786 21.4818 20.1802 21.5991V22.5831H21.5286C21.647 22.5831 21.7605 22.6302 21.8442 22.7139C21.9279 22.7976 21.975 22.9111 21.975 23.0295C21.975 23.1479 21.9279 23.2615 21.8442 23.3452C21.7605 23.4289 21.647 23.4759 21.5286 23.4759H19.7353C19.0716 23.4759 18.5316 24.0205 18.5316 24.6898C18.5316 25.3591 19.0716 25.9036 19.7353 25.9036H20.2649C21.4209 25.9036 22.3615 26.8488 22.3615 28.0104C22.3613 29.0175 21.6541 29.8614 20.7128 30.0681ZM32.2228 40.0158H7.77706C7.66372 40.0158 7.55502 39.9708 7.47488 39.8907C7.39473 39.8105 7.34971 39.7018 7.34971 39.5885C7.34971 39.4751 7.39473 39.3664 7.47488 39.2863C7.55502 39.2061 7.66372 39.1611 7.77706 39.1611H32.2228C32.3362 39.1611 32.4449 39.2061 32.525 39.2863C32.6051 39.3664 32.6502 39.4751 32.6502 39.5885C32.6502 39.7018 32.6051 39.8105 32.525 39.8907C32.4449 39.9708 32.3362 40.0158 32.2228 40.0158ZM4.86288 40.0158H4.09228C3.97894 40.0158 3.87024 39.9708 3.7901 39.8907C3.70996 39.8105 3.66493 39.7018 3.66493 39.5885C3.66493 39.4751 3.70996 39.3664 3.7901 39.2863C3.87024 39.2061 3.97894 39.1611 4.09228 39.1611H4.86296C4.91908 39.1611 4.97465 39.1722 5.0265 39.1937C5.07835 39.2151 5.12545 39.2466 5.16513 39.2863C5.20481 39.326 5.23629 39.3731 5.25776 39.425C5.27923 39.4768 5.29028 39.5324 5.29027 39.5885C5.29026 39.6446 5.2792 39.7002 5.25772 39.752C5.23624 39.8039 5.20476 39.851 5.16507 39.8907C5.12538 39.9304 5.07827 39.9618 5.02642 39.9833C4.97457 40.0048 4.919 40.0158 4.86288 40.0158ZM1.27314 40.0158H0.502545C0.389205 40.0158 0.280507 39.9708 0.200363 39.8907C0.12022 39.8105 0.0751953 39.7018 0.0751953 39.5885C0.0751953 39.4751 0.12022 39.3664 0.200363 39.2863C0.280507 39.2061 0.389205 39.1611 0.502545 39.1611H1.27323C1.38657 39.1611 1.49526 39.2062 1.5754 39.2863C1.65553 39.3665 1.70055 39.4752 1.70053 39.5885C1.70052 39.7019 1.65549 39.8105 1.57534 39.8907C1.49518 39.9708 1.38648 40.0158 1.27314 40.0158ZM39.4782 40.0158H38.7075C38.5942 40.0158 38.4855 39.9708 38.4053 39.8907C38.3252 39.8105 38.2802 39.7018 38.2802 39.5885C38.2802 39.4751 38.3252 39.3664 38.4053 39.2863C38.4855 39.2061 38.5942 39.1611 38.7075 39.1611H39.4782C39.5915 39.1611 39.7002 39.2061 39.7804 39.2863C39.8605 39.3664 39.9055 39.4751 39.9055 39.5885C39.9055 39.7018 39.8605 39.8105 39.7804 39.8907C39.7002 39.9708 39.5915 40.0158 39.4782 40.0158ZM35.8885 40.0158H35.1178C35.0044 40.0158 34.8957 39.9708 34.8156 39.8907C34.7354 39.8105 34.6904 39.7018 34.6904 39.5885C34.6904 39.4751 34.7354 39.3664 34.8156 39.2863C34.8957 39.2061 35.0044 39.1611 35.1178 39.1611H35.8885C36.0018 39.1611 36.1105 39.2061 36.1906 39.2863C36.2708 39.3664 36.3158 39.4751 36.3158 39.5885C36.3158 39.7018 36.2708 39.8105 36.1906 39.8907C36.1105 39.9708 36.0018 40.0158 35.8885 40.0158ZM29.4016 7.06153C29.0378 7.07435 28.828 6.59008 29.0967 6.33487L33.0193 2.33744C33.0584 2.29643 33.1052 2.26361 33.1571 2.24087C33.209 2.21813 33.2649 2.20594 33.3215 2.20499C33.3782 2.20405 33.4344 2.21438 33.4871 2.23537C33.5397 2.25637 33.5876 2.28761 33.628 2.32729C33.6684 2.36697 33.7006 2.4143 33.7225 2.46651C33.7445 2.51872 33.7559 2.57478 33.756 2.63143C33.7561 2.68807 33.745 2.74418 33.7232 2.79648C33.7014 2.84878 33.6695 2.89623 33.6292 2.93607L29.7066 6.9335C29.6669 6.97409 29.6194 7.00633 29.567 7.02832C29.5147 7.05031 29.4584 7.0616 29.4016 7.06153ZM34.7533 1.6077C34.3895 1.62052 34.1797 1.13616 34.4484 0.881031L35.1542 0.161802C35.1933 0.120796 35.2401 0.0879704 35.292 0.0652329C35.3439 0.0424955 35.3998 0.0303002 35.4564 0.0293562C35.513 0.0284123 35.5693 0.0387385 35.6219 0.0597344C35.6745 0.0807303 35.7224 0.111977 35.7629 0.151657C35.8033 0.191337 35.8354 0.238659 35.8574 0.290871C35.8794 0.343083 35.8908 0.399142 35.8909 0.455789C35.891 0.512437 35.8798 0.568542 35.8581 0.620841C35.8363 0.67314 35.8044 0.720591 35.7641 0.760433L35.0583 1.47966C35.0186 1.52026 34.9711 1.5525 34.9187 1.57448C34.8664 1.59647 34.8101 1.60776 34.7533 1.6077ZM32.8471 9.33341C32.4832 9.34623 32.2735 8.86187 32.5421 8.60674L34.0025 7.11854C34.0416 7.07753 34.0884 7.04471 34.1403 7.02197C34.1922 6.99923 34.2481 6.98704 34.3047 6.98609C34.3613 6.98515 34.4176 6.99548 34.4702 7.01647C34.5228 7.03747 34.5707 7.06872 34.6112 7.1084C34.6516 7.14808 34.6837 7.1954 34.7057 7.24761C34.7277 7.29982 34.7391 7.35588 34.7392 7.41253C34.7393 7.46918 34.7281 7.52528 34.7064 7.57758C34.6846 7.62988 34.6527 7.67733 34.6124 7.71717L33.1521 9.20537C33.1123 9.24597 33.0649 9.27821 33.0125 9.30019C32.9601 9.32218 32.9039 9.33348 32.8471 9.33341ZM35.6873 6.43905C35.3234 6.45187 35.1137 5.96752 35.3823 5.71239L35.9343 5.14991C35.9734 5.10891 36.0202 5.07608 36.0721 5.05334C36.124 5.0306 36.1798 5.01841 36.2365 5.01747C36.2931 5.01652 36.3494 5.02685 36.402 5.04784C36.4546 5.06884 36.5025 5.10009 36.543 5.13977C36.5834 5.17945 36.6155 5.22677 36.6375 5.27898C36.6595 5.33119 36.6708 5.38725 36.671 5.4439C36.6711 5.50055 36.6599 5.55665 36.6382 5.60895C36.6164 5.66125 36.5844 5.7087 36.5442 5.74854L35.9922 6.31102C35.9525 6.35161 35.905 6.38385 35.8527 6.40584C35.8003 6.42783 35.7441 6.43912 35.6873 6.43905ZM10.5983 7.06153C10.4875 7.06153 10.3769 7.0188 10.2932 6.9335L6.37065 2.93607C6.33135 2.89601 6.30031 2.8486 6.27933 2.79655C6.25834 2.7445 6.24782 2.68882 6.24835 2.6327C6.24942 2.51937 6.29548 2.41109 6.37638 2.33171C6.45728 2.25233 6.5664 2.20833 6.67974 2.20941C6.79308 2.21048 6.90135 2.25654 6.98074 2.33744L10.9033 6.33487C11.1719 6.59008 10.962 7.07427 10.5983 7.06153ZM5.24655 1.6077C5.13578 1.6077 5.02519 1.56496 4.94151 1.47966L4.2357 0.760433C4.15632 0.679531 4.11232 0.570407 4.1134 0.457068C4.11447 0.343729 4.16052 0.235459 4.24143 0.156075C4.32233 0.0766917 4.43145 0.0326978 4.54479 0.0337718C4.65813 0.0348457 4.7664 0.0808994 4.84578 0.161802L5.55159 0.881031C5.82023 1.13624 5.61031 1.62043 5.24655 1.6077ZM7.15287 9.33341C7.0421 9.33341 6.93151 9.29067 6.84783 9.20537L5.38749 7.71726C5.30811 7.63635 5.26411 7.52723 5.26519 7.41389C5.26626 7.30055 5.31232 7.19228 5.39322 7.1129C5.47412 7.03351 5.58324 6.98952 5.69658 6.99059C5.80992 6.99167 5.91819 7.03772 5.99758 7.11863L7.45792 8.60683C7.72646 8.86195 7.51663 9.34623 7.15287 9.33341ZM4.31262 6.43905C4.20185 6.43905 4.09126 6.39632 4.00758 6.31102L3.45562 5.74854C3.37623 5.66764 3.33224 5.55852 3.33331 5.44518C3.33439 5.33184 3.38044 5.22357 3.46134 5.14418C3.54224 5.0648 3.65137 5.02081 3.76471 5.02188C3.87805 5.02295 3.98632 5.06901 4.0657 5.14991L4.61766 5.71239C4.8863 5.9676 4.67638 6.45179 4.31262 6.43905Z" fill="white"/>
</svg>
