<svg width="40" height="40" viewBox="0 0 40 40" fill="none" xmlns="http://www.w3.org/2000/svg">
<path d="M40 32.9691V40.0004H0V32.9691H4.76016V28.2926H9.4375V23.6191H15.3125V36.3113C15.4867 36.2051 15.607 36.1371 15.7219 36.0605C17.0539 35.1738 18.3883 34.291 19.7117 33.3926C19.9281 33.2457 20.0719 33.2363 20.2914 33.3887C21.625 34.2949 22.9711 35.1855 24.3133 36.0785C24.4172 36.148 24.5266 36.2098 24.675 36.3004V23.6254H30.5344V28.2652H35.2117V32.9691H40Z" fill="white"/>
<path d="M30.5465 2.7625V2.34375H25.859V0H14.1403V2.35313H9.45276V2.64531C9.45276 4.49375 9.4426 6.34219 9.45276 8.19219C9.46682 10.1703 10.9973 11.6922 12.977 11.718C13.4051 11.7242 13.8363 11.718 14.2582 11.718C14.2887 11.8047 14.3129 11.8641 14.3301 11.925C14.7348 13.3508 15.609 14.375 16.9528 15C17.5059 15.2604 18.0528 15.5312 18.5934 15.8125C18.6903 15.8633 18.8145 15.9867 18.816 16.0789C18.8332 16.9594 18.8262 17.8406 18.8262 18.7633H14.1598V21.0703H25.8301V18.7398H21.1715C21.1715 17.8555 21.1645 16.9992 21.1817 16.1437C21.1817 16.0523 21.3113 15.9328 21.4098 15.8797C21.8434 15.6453 22.2801 15.4109 22.7309 15.2086C24.2731 14.5211 25.3324 13.4227 25.7246 11.7188H26.8629C29.0379 11.7133 30.541 10.2117 30.5449 8.03516C30.546 6.27734 30.5465 4.51979 30.5465 2.7625ZM14.1106 9.35781C13.6645 9.35781 13.2098 9.39688 12.7653 9.34766C12.2613 9.29219 11.8278 8.85 11.8137 8.34922C11.784 7.14297 11.8043 5.93516 11.8043 4.69609H14.1106V9.35781ZM28.2028 8.08516C28.2028 8.89297 27.7223 9.36797 26.9153 9.37422C26.5793 9.37422 26.2434 9.37422 25.8785 9.37422V4.70703H28.1754C28.1848 4.80312 28.202 4.90156 28.202 5.00078C28.2028 6.02891 28.2028 7.05703 28.2028 8.08516Z" fill="white"/>
<path d="M22.3266 23.6211V31.9328C21.6297 31.4695 20.9633 31.0477 20.3227 30.5906C20.0789 30.4172 19.9164 30.4258 19.6781 30.5945C19.0422 31.0453 18.3852 31.4648 17.6914 31.9266V23.6211H22.3266Z" fill="white"/>
</svg>
