<svg width="40" height="21" viewBox="0 0 40 21" fill="none" xmlns="http://www.w3.org/2000/svg">
<path d="M40 9.70332V10.3283C39.7594 10.6446 39.5493 10.9907 39.2735 11.2719C36.5863 14.0144 33.8897 16.7485 31.1837 19.4742C30.9198 19.7334 30.5894 19.9145 30.2291 19.9976C29.7119 20.1062 29.2917 19.8328 29.0417 19.3649C28.7917 18.897 28.8308 18.4353 29.1464 18.008C29.2507 17.8749 29.3645 17.7496 29.487 17.633C31.4498 15.6384 33.4144 13.6456 35.3809 11.6547C35.4882 11.5615 35.6029 11.4771 35.7239 11.4024L35.6496 11.3008H4.30036C4.41676 11.4282 4.50347 11.5297 4.59721 11.6242C6.59701 13.6553 8.59786 15.6863 10.5997 17.7174C10.881 18.0025 11.1075 18.3087 11.1099 18.7329C11.1099 19.2657 10.8833 19.6703 10.4068 19.9C9.94434 20.1265 9.49517 20.0648 9.08974 19.7477C8.96022 19.639 8.8376 19.5224 8.72259 19.3985C6.09055 16.7289 3.4606 14.0576 0.832731 11.3844C0.520262 11.0657 0.275754 10.6814 0 10.3298V9.70488C0.221853 9.40648 0.413241 9.07995 0.671028 8.81513C3.3791 6.05498 6.09446 3.3016 8.81711 0.554996C9.06111 0.306195 9.36682 0.126655 9.70296 0.0347343C10.2154 -0.08791 10.6513 0.150348 10.9271 0.603429C11.2028 1.05651 11.1841 1.52365 10.8982 1.96736C10.7923 2.11566 10.6719 2.25304 10.5388 2.37747C8.56713 4.38197 6.59337 6.38542 4.61752 8.38783C4.52065 8.48625 4.42847 8.58937 4.29255 8.73545H35.6957C35.5825 8.6089 35.4997 8.50813 35.4083 8.41517C33.4074 6.38412 31.4058 4.35306 29.4034 2.32201C29.1112 2.02673 28.8808 1.71113 28.8878 1.26977C28.8964 0.751852 29.1222 0.366733 29.583 0.137849C30.0439 -0.0910347 30.4931 -0.029322 30.9009 0.281585C31.0217 0.380626 31.1355 0.487903 31.2415 0.602648C33.9834 3.38467 36.7235 6.16851 39.4618 8.95418C39.6774 9.17056 39.8235 9.45178 40 9.70332Z" fill="white"/>
</svg>
