<svg width="41" height="34" viewBox="0 0 41 34" fill="none" xmlns="http://www.w3.org/2000/svg">
<path d="M9.36269 21.255C9.32129 25.0157 9.34004 28.7772 9.35097 32.5379C9.35097 32.9879 9.43925 33.4371 9.49003 33.9207H8.14167C6.99642 33.9207 5.8504 33.891 4.70437 33.9277C2.81464 33.9886 1.26707 32.7247 1.01318 30.9295C1.01318 30.9068 0.985058 30.8873 0.970215 30.8662V23.4447C1.13895 22.8752 1.23817 22.2729 1.48815 21.7417C2.45685 19.6918 4.07863 18.5138 6.34959 18.3513C7.48546 18.2732 8.63148 18.3372 9.80563 18.3372C9.77907 18.4474 9.74861 18.5427 9.73376 18.6411C9.60252 19.5122 9.37206 20.3824 9.36269 21.255Z" fill="white"/>
<path d="M40.9702 23.4448V30.8663C40.803 31.5365 40.5952 32.1818 40.1195 32.7146C39.5726 33.331 38.9047 33.8145 38.0883 33.8419C36.2072 33.9044 34.3221 33.8622 32.5293 33.8622C32.5511 32.7084 32.5886 31.5303 32.5918 30.3522C32.6011 27.4618 32.5918 24.5713 32.5972 21.6809C32.5972 20.6083 32.5191 19.5498 32.1684 18.5264C32.1526 18.4479 32.144 18.3681 32.1426 18.2881C33.8065 18.3873 35.4791 18.0491 37.0743 18.6373C39.2304 19.4318 40.5116 20.9872 40.9022 23.262C40.9187 23.3251 40.9414 23.3863 40.9702 23.4448Z" fill="white"/>
<path d="M30.274 32.5921C30.274 33.4937 29.8404 33.9202 28.9272 33.9202C26.2711 33.9202 23.6163 33.9202 20.9628 33.9202H13.1148C12.068 33.9202 11.668 33.5296 11.668 32.4945C11.668 28.7197 11.6602 24.9449 11.668 21.167C11.6766 18.3313 13.4648 16.0806 16.2076 15.4424C16.6007 15.3546 17.0024 15.3111 17.4052 15.3127C19.7738 15.301 22.1424 15.2885 24.5141 15.3127C27.278 15.3393 29.5076 17.1391 30.1318 19.8335C30.2278 20.2791 30.2734 20.734 30.2677 21.1897C30.2792 24.9905 30.2813 28.7913 30.274 32.5921Z" fill="white"/>
<path d="M27.917 6.91373C27.9045 10.751 24.7632 13.9008 20.9642 13.8836C17.1363 13.8657 14.0217 10.7283 14.0264 6.89967C14.0303 3.1038 17.184 -0.0171158 20.9978 7.06449e-05C24.8117 0.0172571 27.9287 3.14129 27.917 6.91373Z" fill="white"/>
<path d="M13.9632 11.6149C13.9851 14.4788 11.6352 16.8537 8.77911 16.8529C7.40338 16.8482 6.08536 16.2996 5.11257 15.3268C4.13978 14.354 3.59118 13.036 3.58644 11.6603C3.57941 8.8073 5.91052 6.47775 8.7752 6.47462C10.1438 6.4717 11.4579 7.01081 12.4301 7.97408C13.4023 8.93735 13.9535 10.2464 13.9632 11.6149Z" fill="white"/>
<path d="M38.3562 11.6431C38.3742 14.4882 36.0493 16.8287 33.1808 16.8529C30.3551 16.8771 28.01 14.5406 27.9803 11.6712C27.9498 8.82684 30.2825 6.48322 33.1503 6.47463C34.5257 6.47068 35.8465 7.01275 36.8225 7.9818C37.7986 8.95085 38.3502 10.2677 38.3562 11.6431Z" fill="white"/>
</svg>
