<svg width="40" height="38" viewBox="0 0 40 38" fill="none" xmlns="http://www.w3.org/2000/svg">
<path d="M4.7322 16.4082V32.8105H4.37686C3.42744 32.8105 2.47568 32.7807 1.52783 32.8206C0.807747 32.8512 0.298209 32.607 0 31.9464V17.2621C0.318559 16.5937 0.853143 16.3706 1.57871 16.4012C2.61735 16.4372 3.65912 16.4082 4.7322 16.4082Z" fill="white"/>
<path d="M21.1786 1.51609C21.1449 2.5336 21.1731 3.54485 21.1692 4.55923C21.1692 5.34897 20.6839 5.87025 19.9787 5.86008C19.2938 5.85068 18.8313 5.33332 18.8273 4.55923C18.8273 3.54172 18.8516 2.52969 18.818 1.51609C18.7937 0.774091 19.0528 0.258291 19.7642 0H20.2339C20.9445 0.258291 21.2028 0.774091 21.1786 1.51609Z" fill="white"/>
<path d="M30.8424 32.9317C30.397 33.4349 29.8209 33.7081 29.1924 33.9046C26.6252 34.7061 24.0595 35.5117 21.4954 36.3215C20.8262 36.5321 20.1538 36.734 19.4877 36.9524C18.0296 37.4298 16.7726 37.0909 15.6963 36.0257C14.6976 35.0364 13.713 34.0329 12.7049 33.0514C12.5481 32.9096 12.347 32.8266 12.1358 32.8166C10.6135 32.7978 9.09035 32.8057 7.568 32.8057H7.12891V16.4073C7.6768 16.4073 8.23564 16.3752 8.78588 16.4151C9.58345 16.4731 10.0906 16.1459 10.4045 15.4164C10.6667 14.809 10.9774 14.2212 11.2937 13.6389C11.966 12.4007 13.0258 11.7408 14.4245 11.7291C17.4308 11.7048 20.4379 11.7174 23.4443 11.7244C24.2184 11.7244 24.7365 12.2519 24.6645 13.0237C24.6074 13.6389 24.4297 14.2424 24.31 14.8513C24.2497 15.155 24.083 15.2497 23.7621 15.2426C22.2914 15.2223 20.8207 15.2333 19.35 15.234C17.2641 15.234 15.7433 16.1561 14.8103 18.0275C13.5027 20.6433 12.1948 23.2588 10.8866 25.8741C10.4538 26.7405 10.6878 27.3714 11.5723 27.7643C12.8246 28.3223 14.0996 28.8068 15.5077 28.7395C18.0225 28.619 19.9245 27.4449 21.2997 25.3637C21.385 25.2338 21.4562 25.0945 21.5345 24.9591C21.5925 24.8588 21.6726 24.7731 21.7686 24.7083C21.8646 24.6436 21.9741 24.6015 22.0888 24.5853C22.2035 24.5691 22.3204 24.5791 22.4306 24.6147C22.5408 24.6503 22.6415 24.7106 22.725 24.7908C25.4034 27.4682 28.0818 30.1466 30.7602 32.826C30.7893 32.8598 30.8168 32.8951 30.8424 32.9317Z" fill="white"/>
<path d="M32.8539 17.5786V31.6202C32.2457 31.0097 31.6861 30.4462 31.1257 29.8865C28.8895 27.6457 26.6455 25.4173 24.4203 23.1671C23.8043 22.5448 23.1007 22.2278 22.2287 22.2591C21.7223 22.2787 21.2112 22.2826 20.7064 22.2552C20.3933 22.2388 20.2305 22.3476 20.0802 22.6286C19.7006 23.351 19.3508 24.1079 18.853 24.7418C17.6523 26.2783 15.42 26.8097 13.6237 26.0724C13.5679 26.0459 13.5136 26.0164 13.4609 25.984C13.5173 25.8635 13.5674 25.7492 13.623 25.6388C14.7086 23.4653 15.8083 21.298 16.8766 19.115C17.3979 18.0498 18.2072 17.5598 19.393 17.5645C23.7409 17.5809 28.088 17.5707 32.4352 17.5707L32.8539 17.5786Z" fill="white"/>
<path d="M39.9957 31.6047C39.9957 32.2598 39.5543 32.7787 38.9438 32.7944C37.7243 32.8226 36.5033 32.803 35.251 32.803V16.4078H37.0512C37.6233 16.4078 38.1963 16.3999 38.7684 16.4078C39.5104 16.4211 39.9988 16.8962 39.9996 17.6327C40.0001 22.2913 39.9988 26.9487 39.9957 31.6047Z" fill="white"/>
<path d="M14.1483 8.06881C14.1131 8.70358 13.8885 9.08006 13.4275 9.27965C12.9312 9.49411 12.4804 9.37279 12.1039 9.00101C11.3447 8.25275 10.5941 7.49431 9.84036 6.74057C9.81218 6.7124 9.78635 6.68344 9.76209 6.65369C9.34647 6.15981 9.35508 5.50469 9.78244 5.0609C10.2262 4.60067 10.915 4.54745 11.3956 5.00454C12.2339 5.80212 13.0479 6.62552 13.8462 7.46379C14.02 7.64694 14.0842 7.93497 14.1483 8.06881Z" fill="white"/>
<path d="M30.622 5.92149C30.4655 6.19544 30.3559 6.51165 30.1454 6.73472C29.4222 7.49942 28.6692 8.2375 27.917 8.97559C27.3887 9.49295 26.6913 9.51096 26.21 9.04134C25.7286 8.57172 25.7356 7.86259 26.2507 7.33583C27.0057 6.56409 27.7696 5.80148 28.5424 5.048C28.9103 4.68952 29.3533 4.59325 29.837 4.79597C30.2628 4.97443 30.5453 5.41665 30.622 5.92149Z" fill="white"/>
</svg>
