<svg width="100" height="120" fill="none" xmlns="http://www.w3.org/2000/svg"><path fill-rule="evenodd" clip-rule="evenodd" d="m96.637 102.313-19.645 2.511 4.32-4.794c5.128.571 10.255 1.141 15.325 2.283ZM3.363 102.313l18.782 1.997-3.688-4.28c-3.86.571-11.234 1.655-15.094 2.283Z" fill="#FD0000"/><path fill-rule="evenodd" clip-rule="evenodd" d="M49.856.956C84.251.157 97.271 9.117 97.271 9.117c15.44 101.813-47.415 110.659-47.415 110.659S-12.999 110.93 2.441 9.117c0 0 13.02-8.96 47.415-8.16Z" fill="#8BB1BB"/><path fill-rule="evenodd" clip-rule="evenodd" d="M49.856 3.524c32.897-.741 45.341 7.819 45.341 7.819 14.806 97.419-45.34 105.865-45.34 105.865s-60.148-8.446-45.342-105.865c0-.057 12.444-8.56 45.341-7.819Z" fill="#EDEDED"/><path fill-rule="evenodd" clip-rule="evenodd" d="M49.856 5.921c31.514-.684 43.44 7.477 43.44 7.477 14.173 93.252-43.44 101.356-43.44 101.356S-7.699 106.65 6.416 13.398c0 0 11.926-8.161 43.44-7.477Z" fill="#042365"/><path fill-rule="evenodd" clip-rule="evenodd" d="m12.696 65.274.461 1.427h1.44l-1.21.856.461 1.37-1.152-.856-1.21.856.461-1.37-1.21-.856h1.498l.461-1.427ZM86.959 65.274l-.461 1.427h-1.44l1.152.856-.461 1.37 1.21-.856 1.21.856-.462-1.37 1.21-.856H87.42l-.46-1.427ZM49.856 104.424l.461 1.37h1.498l-1.21.913.461 1.37-1.21-.856-1.152.856.403-1.37-1.152-.913h1.44l.461-1.37ZM82.983 32.858H72.786a.697.697 0 0 1-.692-.684c0-.4.346-.685.692-.685H83.79c.173 0 .403.057.518.228.116.114.23.342.173.514 0 0-.346 6.506-3.63 12.099-2.246 3.823-5.76 7.247-11.407 8.046-.403.058-.749-.228-.806-.627-.058-.4.23-.742.633-.8 6.453-.913 9.852-5.592 11.696-10.044 1.383-3.367 1.843-6.62 2.016-8.047ZM19.552 32.858c.173 1.427.634 4.68 2.016 8.047 1.844 4.452 5.243 9.131 11.696 10.045.403.057.691.4.633.799-.057.4-.403.684-.806.627-5.646-.799-9.218-4.223-11.407-8.046-3.284-5.65-3.63-12.1-3.63-12.1 0-.17.058-.399.173-.513.115-.114.346-.228.518-.228H29.75c.404 0 .692.342.692.685 0 .4-.346.684-.692.684H19.552Z" fill="#fff"/><path fill-rule="evenodd" clip-rule="evenodd" d="m36.03 25.953-7.663 1.484h45.168s-5.819-1.256-6.74-1.484H36.028ZM48.934 71.095s-21.662-8.674-20.567-43.601h45.11C74.63 62.478 52.91 71.095 52.91 71.095h-3.975Z" fill="#8BB1BB"/><path fill-rule="evenodd" clip-rule="evenodd" d="M46.054 71.095S24.39 62.421 25.486 27.494h46.378c1.152 34.984-21.778 43.601-21.778 43.601h-4.032Z" fill="#fff"/><path fill-rule="evenodd" clip-rule="evenodd" d="m28.77 32.174 9.39.627s-4.32 11.643 1.153 17.863c0 0-9.91.742-10.543-18.49ZM64.95 43.245l-9.62.628s4.436 11.928-1.21 18.32c0 0 10.14.684 10.83-18.948Z" fill="#DCECF0"/><path fill-rule="evenodd" clip-rule="evenodd" d="m49.15 74.577 5.012-.343c.115 1.598-1.614 8.447 1.325 12.727 2.938 4.28 6.452 5.307 6.452 5.307 3.803 1.028 3.63 2.91 3.63 2.91.288 3.311-14.691 3.026-16.362 2.969-1.67.057-16.708.342-16.362-2.968 0 0-.23-1.883 3.63-2.91 0 0 3.514-1.028 6.452-5.308 2.938-4.28 1.21-11.129 1.325-12.727l4.897.343Z" fill="#fff"/><path fill-rule="evenodd" clip-rule="evenodd" d="M48.227 79.713V96.72H39.24c0-.057 7.374-1.142 8.987-17.007Z" fill="#E2E2E2"/><path fill-rule="evenodd" clip-rule="evenodd" d="M55.654 72.865c0-.97-.807-1.77-1.786-1.77h-9.449c-.98 0-1.786.8-1.786 1.77s.807 1.769 1.786 1.769h9.449c.979-.057 1.786-.856 1.786-1.77Z" fill="#FD0000"/><path fill-rule="evenodd" clip-rule="evenodd" d="M55.654 72.836c0-.961-.78-1.74-1.741-1.74h-4.885v3.48h4.885c.961 0 1.74-.779 1.74-1.74Z" fill="#C3001D"/><path d="M41.926 56.428v-3.424H39.68v-4.052h1.729v.742h3.456v-4.85h-3.456v.741h-1.729v-4.052H44v.742h3.457v-4.166h-13.25v3.424h1.151v11.471h-1.152v3.424h7.72Z" fill="#042365"/><path d="M62.379 56.428V51.92h-3.457v1.141H54.6l7.72-11.756v-3.082H48.782v4.566h3.4v-1.142h4.32l-7.72 11.757v3.081H62.38v-.057Z" fill="#C00"/><path fill-rule="evenodd" clip-rule="evenodd" d="M66.967 22.13c2.65 0 4.84 2.168 4.84 4.793s-2.19 4.794-4.84 4.794-4.84-2.169-4.84-4.794c0-2.625 2.132-4.794 4.84-4.794Z" fill="#fff" stroke="#fff" stroke-width=".2" stroke-miterlimit="10" stroke-linecap="round" stroke-linejoin="round"/><path fill-rule="evenodd" clip-rule="evenodd" d="M64.317 28.692s-.346-.228-.403 0c0 0-.058.171.057.343 0 0 .23.57.461.057l-.115-.4Z" fill="#8BB1BB"/><path fill-rule="evenodd" clip-rule="evenodd" d="M63.914 28.692c0-.057.057-.057.057-.114.058-.057.115-.057.173-.057.115 0 .23.114.23.114v.057l.173.4v.057c-.057.171-.173.285-.23.285-.058 0-.115 0-.173-.057-.058-.057-.115-.228-.173-.228-.115-.286-.115-.457-.057-.457Zm.345.057c-.057 0-.115-.057-.173-.057h-.057v.057s-.058.114.057.286c0 0 .058.114.116.17l.057.058h.058s.058 0 .058-.057.057-.057.057-.114l-.173-.343Z" fill="#E7E7E7"/><path fill-rule="evenodd" clip-rule="evenodd" d="m64.374 28.692 5.934-1.94s.75-.285.922.342c0 0 .116.571-.691.685l-6.107 1.313-.058-.4Z" fill="#8BB1BB"/><path fill-rule="evenodd" clip-rule="evenodd" d="M70.308 26.695s.231-.057.404-.057c.23 0 .46.114.576.456 0 0 .058.229-.115.457-.115.114-.288.285-.576.285L64.49 29.15s-.058 0-.058-.057l-.173-.4s0-.057.058-.057h.058l5.933-1.94Zm.865.456c-.058-.114-.115-.228-.173-.285-.115-.114-.288-.114-.403-.114-.173 0-.288.057-.288.057l-5.934 1.94.115.343 6.049-1.256c.288-.057.46-.17.519-.285.172-.228.115-.4.115-.4Z" fill="#E7E7E7"/><path fill-rule="evenodd" clip-rule="evenodd" d="m67.946 29.605-4.205-4.565s-.519-.628-.98-.114c0 0-.345.456.23.913l4.667 4.052.288-.286Z" fill="#8BB1BB"/><path fill-rule="evenodd" clip-rule="evenodd" d="M62.992 25.896c-.288-.228-.346-.4-.346-.57 0-.23.115-.457.115-.457.23-.286.519-.229.75-.114.172.114.345.228.345.285l4.206 4.565.057.058v.057l-.345.285h-.058l-4.724-4.11Zm4.954 3.767-4.205-4.566s-.058-.114-.173-.171a.839.839 0 0 0-.403-.114c-.116 0-.173.057-.288.17 0 0-.116.172-.116.343 0 .171.115.343.346.514l4.609 4.052.23-.228Z" fill="#E7E7E7"/><path fill-rule="evenodd" clip-rule="evenodd" d="M67.946 29.605s.404 0 .346.172c0 0-.058.17-.23.285 0 0-.519.4-.461-.171l.345-.286Z" fill="#8BB1BB"/><path fill-rule="evenodd" clip-rule="evenodd" d="M68.062 30.176s-.116.114-.23.114h-.174c-.057-.057-.115-.17-.115-.342v-.057l.346-.286h.057s.173 0 .288.058c.058 0 .116.057.116.114v.114c0-.057-.058.114-.288.285Zm-.116-.456-.288.228v.171c0 .057 0 .057.058.057h.115c.115-.057.173-.114.173-.114.173-.114.173-.228.173-.228v-.057l-.058-.057h-.173Z" fill="#E7E7E7"/><path fill-rule="evenodd" clip-rule="evenodd" d="M67.6 23.841c.922.229 1.499 1.199 1.21 2.112a1.7 1.7 0 0 1-2.131 1.198c-.922-.285-1.498-1.198-1.21-2.111.23-.913 1.21-1.427 2.132-1.199Z" fill="#8BB1BB"/><path fill-rule="evenodd" clip-rule="evenodd" d="M66.564 23.898s.518 1.256 2.304 1.37c.058 0 .058 0 .058-.057s0-.057-.058-.057c-1.728-.114-2.19-1.313-2.19-1.313 0-.057-.057-.057-.057-.057-.057.057-.115.057-.057.114ZM67.774 27.094s-.519-1.255-2.305-1.312c-.057 0-.057 0-.057.057s0 .057.057.057c1.67.057 2.19 1.255 2.19 1.255 0 .058.057.058.057.058 0-.058.058-.058.058-.115Z" fill="#fff"/><path fill-rule="evenodd" clip-rule="evenodd" d="M67.6 23.784c-.921-.228-1.9.343-2.188 1.256-.231.913.345 1.883 1.267 2.169.922.228 1.901-.343 2.19-1.256.23-.97-.347-1.883-1.268-2.169Zm0 .057c.922.229 1.441 1.142 1.21 2.055-.23.913-1.152 1.427-2.073 1.198-.922-.228-1.44-1.141-1.21-2.054.23-.856 1.152-1.427 2.074-1.199Z" fill="#E7E7E7"/><path fill-rule="evenodd" clip-rule="evenodd" d="m66.679 24.526.403-.342v-.114h-.115l-.403.342v.057a.18.18 0 0 0 .115.057ZM67.543 26.467l-.403.342s-.058.057 0 .114h.058l.403-.342v-.057c.057-.114 0-.114-.058-.057ZM67.025 24.869l.345-.4v-.057h-.057l-.346.4v.057c0 .057.058.057.058 0ZM67.197 26.124l-.345.4v.057h.115l.346-.4v-.057h-.116ZM68.004 25.382l.115-.513c0-.058 0-.058-.057-.058-.058 0-.058 0-.058.058l-.115.513c0 .057 0 .057.057.057 0 0 0-.057.058-.057ZM66.276 25.725l-.116.513c0 .057 0 .057.058.057s.058 0 .058-.057l.115-.513c0-.057 0-.057-.058-.057-.057 0-.057 0-.057.057ZM67.486 25.154l.23-.457v-.057h-.058l-.23.457v.057c0 .057.058.057.058 0ZM66.737 25.896l-.23.456v.058h.057l.23-.457v-.057c0-.057 0-.057-.057 0ZM68.407 25.496l.058-.513c0-.057 0-.057-.058-.057-.057 0-.057 0-.057.057l-.058.513c0 .058 0 .058.058.058l.057-.058ZM65.872 25.668l-.057.513c0 .057 0 .057.057.057.058 0 .058 0 .058-.057l.058-.513c0-.058 0-.058-.058-.058s-.058 0-.058.058Z" fill="#fff"/><path fill-rule="evenodd" clip-rule="evenodd" d="M54.696 21.16c2.65 0 4.839 2.168 4.839 4.793s-2.19 4.794-4.84 4.794-4.839-2.169-4.839-4.794c0-2.625 2.19-4.794 4.84-4.794Z" fill="#fff" stroke="#fff" stroke-width=".2" stroke-miterlimit="10" stroke-linecap="round" stroke-linejoin="round"/><path fill-rule="evenodd" clip-rule="evenodd" d="M54.696 22.13c2.016 0 3.63 1.597 3.63 3.595 0 1.997-1.614 3.595-3.63 3.595-2.017 0-3.63-1.598-3.63-3.595 0-1.998 1.613-3.596 3.63-3.596Z" fill="#8BB1BB"/><path fill-rule="evenodd" clip-rule="evenodd" d="m53.889 24.07 1.152 1.198-.806 1.427-1.614-.343-.23-1.598 1.498-.684ZM56.481 25.268l.692-1.484 1.613.172.346 1.598-1.383.798-1.268-1.084ZM54.407 29.32l.692-1.484 1.613.172.346 1.597-1.44.857-1.21-1.142ZM49.914 28.521l.633-1.484 1.671.172.346 1.598-1.44.798-1.21-1.084Z" fill="#fff"/><path fill-rule="evenodd" clip-rule="evenodd" d="m53.947 24.24.46-1.54-.115-.057-.46 1.54.115.058ZM57.288 23.841l-1.44-1.312-.115.114 1.44 1.313.115-.115ZM56.885 25.154l-2.017.114v.114l2.017-.057v-.171ZM57.691 26.067l-1.152 1.94.173.115 1.21-1.94-.23-.115ZM54.004 26.352l1.095 1.77.173-.114-1.153-1.77-.115.114ZM52.91 25.725l-.98 1.826.115.057 1.037-1.826-.172-.057ZM50.893 23.784l1.786 1.142.058-.114-1.729-1.142-.115.114Z" fill="#fff"/><path fill-rule="evenodd" clip-rule="evenodd" d="M54.696 22.072c-2.017 0-3.688 1.655-3.688 3.653 0 1.997 1.671 3.652 3.688 3.652 2.016 0 3.687-1.655 3.687-3.652.057-2.055-1.613-3.653-3.687-3.653Zm0 .114c1.958 0 3.572 1.598 3.572 3.539 0 1.94-1.614 3.538-3.572 3.538-1.96 0-3.572-1.598-3.572-3.538.057-1.94 1.613-3.539 3.572-3.539Z" fill="#E7E7E7"/><path fill-rule="evenodd" clip-rule="evenodd" d="M42.655 21.16c2.65 0 4.839 2.168 4.839 4.793s-2.19 4.794-4.84 4.794-4.839-2.169-4.839-4.794c0-2.625 2.132-4.794 4.84-4.794Z" fill="#fff" stroke="#fff" stroke-width=".2" stroke-miterlimit="10" stroke-linecap="round" stroke-linejoin="round"/><path fill-rule="evenodd" clip-rule="evenodd" d="M42.654 22.13c2.017 0 3.63 1.597 3.63 3.595 0 1.997-1.613 3.595-3.63 3.595-2.016 0-3.629-1.598-3.629-3.595 0-1.998 1.613-3.596 3.63-3.596Z" fill="#8BB1BB"/><path fill-rule="evenodd" clip-rule="evenodd" d="M39.947 23.442s1.843.285 2.708 1.712c.576.913.748 2.34-.404 4.509v.057l.116.057v-.057c1.152-2.226.979-3.653.403-4.623-.922-1.427-2.823-1.77-2.823-1.77h-.058v.115h.058Z" fill="#fff"/><path fill-rule="evenodd" clip-rule="evenodd" d="M41.214 22.186s1.037.114 1.901 1.199c.865 1.027 1.556 3.024.807 6.734v.057h.115v-.057c.75-3.71.058-5.764-.806-6.791-.922-1.085-2.017-1.199-2.017-1.199h-.057v.114l.057-.057ZM45.19 22.7s-.346 1.141-.173 2.34c.115.799.46 1.598 1.325 2.111l.057.058.058-.115-.058-.057c-.806-.456-1.152-1.255-1.267-1.997-.173-1.142.173-2.283.173-2.283V22.7l-.115-.057v.057Z" fill="#fff"/><path fill-rule="evenodd" clip-rule="evenodd" d="M39.255 27.151s2.42-2.625 7.03-2.168h.057v-.114h-.058c-4.666-.457-7.144 2.225-7.144 2.225l-.057.057h.172Z" fill="#fff"/><path fill-rule="evenodd" clip-rule="evenodd" d="M42.655 22.072c-2.075 0-3.688 1.655-3.688 3.71 0 2.054 1.671 3.71 3.688 3.71 2.074 0 3.744-1.656 3.744-3.71-.057-2.055-1.728-3.71-3.744-3.71Zm0 .114c1.958 0 3.572 1.598 3.572 3.539 0 1.94-1.614 3.538-3.572 3.538-1.96 0-3.572-1.598-3.572-3.538 0-1.94 1.613-3.539 3.572-3.539Z" fill="#E7E7E7"/><path fill-rule="evenodd" clip-rule="evenodd" d="M31.535 22.186c2.65 0 4.84 2.169 4.84 4.794 0 2.625-2.19 4.794-4.84 4.794s-4.84-2.169-4.84-4.794c0-2.625 2.133-4.794 4.84-4.794Z" fill="#fff" stroke="#fff" stroke-width=".2" stroke-miterlimit="10" stroke-linecap="round" stroke-linejoin="round"/><path fill-rule="evenodd" clip-rule="evenodd" d="M31.132 25.097c.173-.114.346-.114.519.057l4.148 3.367s.403.228.057.57l-.691.857s-.288.342-.576.057l-4.206-3.424s-.288-.229-.057-.514c.23-.228.806-.97.806-.97Z" fill="#8BB1BB"/><path fill-rule="evenodd" clip-rule="evenodd" d="m34.531 30.062-4.205-3.424s-.173-.114-.173-.286c0-.057 0-.17.115-.285.23-.285.806-.97.806-.97.173-.171.404-.171.634.057l4.148 3.367c.058 0 .23.171.23.342 0 .115-.057.229-.172.343l-.692.856s-.172.171-.345.171l-.346-.171Zm-3.341-4.908c-.058.057-.576.742-.807.97-.057.057-.057.114-.057.171 0 .114.115.229.115.229l4.205 3.424a.439.439 0 0 0 .23.114c.174 0 .289-.171.289-.171l.691-.856c.058-.114.115-.172.115-.229 0-.17-.172-.285-.172-.285l-4.148-3.367c-.173-.114-.346-.114-.461 0Z" fill="#E7E7E7"/><path fill-rule="evenodd" clip-rule="evenodd" d="m30.96 25.325-1.672-1.37-.403.514 1.671 1.37.403-.514Z" fill="#8BB1BB"/><path fill-rule="evenodd" clip-rule="evenodd" d="m30.153 24.697.115 1.085c0 .057.058.057.058.057.057 0 .057-.057.057-.057l-.115-1.085c0-.057-.058-.057-.058-.057s-.057 0-.057.057ZM29.865 24.412l.115 1.084c0 .058.057.058.057.058.058 0 .058-.058.058-.058l-.115-1.084c0-.057-.058-.057-.058-.057-.057 0-.057 0-.057.057ZM29.519 24.07l.115 1.084c0 .057.058.057.058.057.057 0 .057-.057.057-.057l-.115-1.084c0-.057-.058-.057-.058-.057-.057 0-.057.057-.057.057Z" fill="#fff"/><path fill-rule="evenodd" clip-rule="evenodd" d="M31.075 25.325v-.114l-1.671-1.313h-.116l-.403.514v.114l1.671 1.313h.115l.404-.514ZM29 24.47l1.556 1.256.346-.4-1.556-1.255-.346.4Z" fill="#E7E7E7"/><path fill-rule="evenodd" clip-rule="evenodd" d="M28.367 24.412s-.058-.057 0-.114l.691-.856s.058-.057.115 0l.346.285s.058.057 0 .114l-.691.856s-.058.058-.116 0l-.345-.285Z" fill="#8BB1BB"/><path fill-rule="evenodd" clip-rule="evenodd" d="m28.309 24.47.346.285c.057.056.115.056.173 0l.69-.857c.058-.057.058-.114 0-.17l-.345-.286c-.057-.057-.115-.057-.173 0l-.691.856c-.058.057-.058.114 0 .171Zm.115-.115.346.285.691-.856-.345-.285-.692.856Z" fill="#E7E7E7"/><path fill-rule="evenodd" clip-rule="evenodd" d="M33.264 27.722c-.807-.114-1.613.4-1.729 1.199-.115.799.404 1.598 1.21 1.712.807.114 1.613-.4 1.729-1.199.172-.799-.404-1.598-1.21-1.712Z" fill="#8BB1BB"/><path fill-rule="evenodd" clip-rule="evenodd" d="M34.3 30.12s0-.058-.057-.115c0 0-.058-.057-.115 0-.058.057-.058.057 0 .114a.176.176 0 0 1 .057.114l.116-.114Zm-.23-.286c0-.057-.057-.057-.057-.114 0 0-.058-.057-.115 0 0 0-.058.057 0 .114 0 .057.057.057.057.114 0 0 .058.057.115 0v-.114Zm-.23-.285c0-.057-.058-.057-.058-.114 0 0-.057-.057-.057 0 0 0-.058.057 0 .057 0 .057.057.057.057.114 0 0 .058.057.116 0 0 0 0-.057-.058-.057Zm-.173-.343c0-.057-.058-.057-.058-.114 0 0-.057-.057-.115 0 0 0-.057.057 0 .114 0 .057.058.057.058.114 0 0 .057.058.057 0 .058-.057.058-.057.058-.114Zm-.23-.285c0-.057-.058-.057-.058-.114 0 0-.058-.057-.115 0 0 0-.058.057 0 .114 0 .057.057.057.057.114 0 0 .058.057.116 0v-.114Zm-.23-.285c0-.058-.059-.058-.059-.115 0 0-.057-.057-.115 0 0 0-.057.057 0 .115 0 .057.058.057.058.114 0 0 .057.057.115 0v-.114Zm-.231-.343c0-.057-.058-.057-.058-.114 0 0-.058-.057-.115 0 0 0-.058.057 0 .114 0 .057.057.057.057.114 0 0 .058.057.116 0 .057-.057.057-.057 0-.114Zm-.173-.285c0-.057-.058-.057-.058-.114 0 0-.057-.057-.115 0 0 0-.058.057 0 .114 0 .057.058.057.058.114 0 0 .057.057.115 0v-.114ZM33.782 30.576l-1.843-2.569 1.843 2.569Zm.058 0s0-.057-.058-.114c0 0-.057-.058-.115 0 0 0-.058.057 0 .114a.176.176 0 0 1 .058.114l.115-.114Zm-.23-.343c0-.057-.058-.057-.058-.114 0 0-.058-.057-.115 0 0 0-.058.057 0 .114 0 .057.057.057.057.114 0 0 .058.057.115 0 .058 0 .058-.057 0-.114Zm-.173-.285c0-.057-.058-.057-.058-.114 0 0-.058-.057-.115 0 0 0-.058.057 0 .114 0 .057.057.057.057.114 0 0 .058.057.116 0v-.114Zm-.23-.285c0-.058-.059-.058-.059-.115 0 0-.057-.057-.115 0 0 0-.057.057 0 .115 0 .057.058.057.058.114 0 0 .057.057.115 0v-.114Zm-.231-.286c0-.057-.058-.057-.058-.114 0 0-.058-.057-.115 0 0 0-.058.057 0 .114 0 .057.057.057.057.114 0 0 .058.057.116 0v-.114Zm-.23-.342c0-.057-.058-.057-.058-.114 0 0-.058-.058-.116 0 0 0-.057.057 0 .114 0 .057.058.057.058.114 0 0 .058.057.115 0 0 0 .058-.057 0-.114Zm-.231-.286c0-.057-.058-.057-.058-.114 0 0-.057-.057-.115 0 0 0-.058.057 0 .114 0 .058.058.058.058.114 0 0 .057.058.115 0 .057-.056.057-.056 0-.114Zm-.173-.285c0-.057-.058-.057-.058-.114 0 0-.057-.057-.115 0 0 0-.057.057 0 .114 0 .057.058.057.058.114 0 0 .057.057.115 0v-.114Zm-.23-.285c-.058-.057-.058-.057-.058-.114 0 0-.058-.058-.115 0 0 0-.058.057 0 .114 0 0 .057.057.057.114 0 0 .058.057.116 0v-.114ZM34.07 30.29l-1.728-2.396 1.728 2.397Zm.058-.056s0-.057-.058-.114c0 0-.057-.058-.115 0 0 0-.057.057 0 .114a.176.176 0 0 1 .058.114l.115-.114Zm-.23-.286c0-.057-.058-.057-.058-.114 0 0-.058-.057-.115 0 0 0-.058.057 0 .114 0 .058.057.058.057.114 0 0 .058.058.116 0 0-.056.057-.056 0-.114Zm-.231-.285c0-.057-.058-.057-.058-.114 0 0-.057-.057-.057 0 0 0-.058.057 0 .114 0 .057.057.057.057.114 0 0 .058.057.116 0 0-.057 0-.114-.058-.114Zm-.173-.342c0-.057-.057-.057-.057-.115 0 0-.058-.057-.116 0 0 0-.057.058 0 .115 0 .057.058.057.058.114 0 0 .058.057.115 0v-.114Zm-.23-.286c0-.057-.058-.057-.058-.114 0 0-.058-.057-.115 0 0 0-.058.057 0 .057 0 .057.057.057.057.114 0 0 .058.057.116 0v-.057Zm-.23-.285c0-.057-.058-.057-.058-.114 0 0-.058-.057-.116 0 0 0-.057.057 0 .114 0 .057.058.057.058.114 0 0 .058.057.115 0 0-.057.058-.114 0-.114Zm-.231-.285c0-.058-.058-.058-.058-.115 0 0-.057-.057-.115 0 0 0-.058.057 0 .115 0 .057.058.057.058.114 0 0 .057.057.115 0 .057-.057.057-.114 0-.114Zm-.173-.343c0-.057-.058-.057-.058-.114 0 0-.057-.057-.057 0 0 0-.058.057 0 .114 0 .057.057.057.057.114 0 0 .058.057.116 0-.058-.057-.058-.057-.058-.114Z" fill="#fff"/><path fill-rule="evenodd" clip-rule="evenodd" d="m33.552 30.633-1.729-2.397 1.729 2.397Zm.057 0s0-.057-.057-.114c0 0-.058-.057-.115 0 0 0-.058.057 0 .114.057.057.057.114.057.114l.115-.114Zm-.172-.286c0-.057-.058-.057-.058-.114 0 0-.058-.057-.115 0 0 0-.058.057 0 .114 0 .057.057.057.057.114 0 0 .058.058.116 0v-.114Zm-.23-.342c0-.057-.059-.057-.059-.114 0 0-.057-.057-.115 0 0 0-.057.057 0 .114 0 .057.058.057.058.114 0 0 .057.057.115 0v-.114Zm-.231-.285c0-.057-.058-.057-.058-.115 0 0-.058-.057-.115 0 0 0-.058.058 0 .115 0 .057.057.057.057.114 0 0 .058.057.116 0v-.114Zm-.23-.286c0-.057-.058-.057-.058-.114 0 0-.058-.057-.116 0 0 0-.057.057 0 .114 0 .057.058.057.058.114 0 0 .058.057.115 0 .058-.057.058-.114 0-.114Zm-.174-.342c0-.057-.057-.057-.057-.114 0 0-.058-.057-.115 0 0 0-.058.057 0 .114 0 .057.057.057.057.114 0 0 .058.057.115 0v-.114Zm-.23-.285c0-.058-.058-.058-.058-.115 0 0-.057-.057-.115 0 0 0-.057.057 0 .114 0 .057.058.057.058.115 0 0 .057.057.115 0v-.114Zm-.23-.286c0-.057-.058-.057-.058-.114 0 0-.058-.057-.115 0 0 0-.058.057 0 .114 0 .057.057.057.057.114 0 0 .058.057.116 0v-.114ZM34.013 30.462l-1.901-2.626-.058.114 1.901 2.626.058-.114Z" fill="#fff"/><path fill-rule="evenodd" clip-rule="evenodd" d="M33.264 27.665c-.864-.171-1.671.4-1.786 1.256a1.477 1.477 0 0 0 1.267 1.769c.864.171 1.671-.4 1.786-1.256a1.477 1.477 0 0 0-1.267-1.769Zm0 .114c.806.114 1.325.856 1.21 1.655-.116.8-.865 1.313-1.671 1.199-.807-.114-1.325-.856-1.21-1.655.115-.8.864-1.37 1.67-1.199Z" fill="#E7E7E7"/><path fill-rule="evenodd" clip-rule="evenodd" d="M96.637 80.569c-30.707-4.965-61.933-4.68-93.562 0v21.801c31.629-5.08 62.797-5.137 93.562 0V80.569Z" fill="#8BB1BB"/><path fill-rule="evenodd" clip-rule="evenodd" d="M95.6 81.425c-30.016-4.508-60.55-4.28-91.488 0v19.746c30.938-4.622 61.415-4.622 91.488 0V81.425Z" fill="#EDEDED"/><path fill-rule="evenodd" clip-rule="evenodd" d="M94.448 82.281c-29.267-3.995-58.995-3.767-89.184 0v17.406c30.131-4.052 59.86-4.109 89.184 0V82.281Z" fill="#042365"/><path d="m15 86.504-3.456.514.403 2.625 2.996-.456.288 2.168-2.938.457.691 4.737-2.19.342-1.727-11.7 5.646-.855.288 2.168ZM22.03 95.407l-.807-2.568-2.305.228-.23 2.683-2.247.228 1.037-12.042 3.111-.342 3.687 11.47-2.247.343Zm-1.556-4.68-1.095-3.424-.288 3.596 1.383-.171ZM30.671 94.665l-2.823-5.992.461 6.163-2.19.172-.921-11.814 2.362-.171 2.88 5.992-.46-6.163 2.19-.171.863 11.813-2.362.171ZM41.445 92.896l-1.325 1.256-3.803.17-1.498-1.14-.057-1.94 2.189-.058.057.913 2.247-.057-.115-2.625-3.053.114-1.44-1.198-.173-4.509 1.325-1.313 3.802-.17 1.498 1.198.058 1.826-2.19.114-.057-.913-2.247.114.115 2.625 3.053-.114 1.44 1.142.174 4.565ZM49.971 88.73l-1.44 1.255-2.996.058.058 3.994h-2.19l-.115-11.813 5.243-.057 1.44 1.255v5.308Zm-2.246-.913-.058-3.424H45.42l.058 3.424h2.246ZM58.844 92.953l-1.44 1.199-4.091-.115-1.383-1.255.23-9.36 1.44-1.198 4.091.114 1.383 1.256-.23 9.36Zm-2.19-1.027.173-7.476-2.535-.057-.173 7.476 2.535.057ZM67.774 94.608l-2.362-.114-1.614-4.908-.633-.057-.288 4.794-2.19-.114.634-11.814 5.3.286 1.325 1.312-.23 4.338-1.556 1.312 1.614 4.965ZM63.28 87.36l2.304.115.173-2.626-2.304-.114-.173 2.625ZM76.992 85.705l-2.19-.17-.864 9.587-2.19-.171.865-9.588-2.19-.228.231-2.17 6.568.572-.23 2.168ZM80.16 95.807l-2.189-.229 1.383-11.756 2.189.228-1.383 11.757ZM88.284 96.891l-6.28-.856.115-1.027 4.782-8.047-3.226-.457.288-2.168 5.991.856-.172 1.141-4.61 7.933 3.4.456-.288 2.169Z" fill="#fff"/></svg>