<svg width="102" height="104" viewBox="0 0 102 104" fill="none" xmlns="http://www.w3.org/2000/svg">
<path d="M38.4861 65.0288V99.7191C38.4861 102.083 44.1264 104 51.0841 104C58.0418 104 63.6821 102.083 63.6821 99.7191V65.0288H38.4861Z" fill="#8BB1BB"/>
<path d="M101.09 36.5692C101.09 23.8283 90.7615 13.4997 78.0206 13.4997H23.0693L46.1388 78.5852H99.5968C99.9929 78.5852 100.373 78.4279 100.653 78.1479C100.933 77.8678 101.09 77.488 101.09 77.092V38.0624C101.09 37.9593 101.08 37.8587 101.06 37.7615C101.08 37.3666 101.09 36.969 101.09 36.5692Z" fill="#042365"/>
<path d="M23.0695 13.4997C10.3286 13.4997 0 23.8283 0 36.5692V77.092C0 77.488 0.157318 77.8678 0.437347 78.1479C0.717375 78.4279 1.09718 78.5852 1.4932 78.5852H44.6457C45.0417 78.5852 45.6946 78.5852 46.1389 78.5852C46.1389 78.3588 46.1389 77.488 46.1389 77.092V36.5692C46.1389 23.8283 35.8104 13.4997 23.0695 13.4997Z" fill="#C7CEDA"/>
<path d="M78.4314 0H66.3836C62.4994 0 59.2368 2.66058 58.3181 6.25856C58.0151 6.90491 57.8584 7.61011 57.8591 8.32394V42.0957C57.8591 44.7884 60.0419 46.9712 62.7346 46.9712C65.4274 46.9712 67.6101 44.7884 67.6101 42.0957V16.6481H78.4314C83.0286 16.6481 86.7556 12.9213 86.7556 8.32415C86.7556 3.72697 83.0286 0 78.4314 0Z" fill="#FD0000"/>
<path d="M46.1391 36.5692C46.1391 34.2692 45.8008 32.0485 45.1743 29.9525L13.1716 29.9535C11.8613 30.0926 10.6759 30.6412 9.75176 31.4822L10.1284 31.7758C9.31852 32.3148 8.60863 32.9882 8.12915 33.8445L35.7564 55.5442C39.2432 58.1174 41.0773 58.1579 44.5256 55.5442L46.1391 54.2768V36.5692Z" fill="#EDECE6"/>
<path d="M46.1391 36.5692C46.1391 34.2452 45.794 32.0023 45.1548 29.8867H13.8189C10.4677 29.8867 7.75171 32.6029 7.75171 35.9539V70.3347L40.1101 46.0659L46.1391 50.5876V36.5692Z" fill="#FD0000"/>
<path d="M46.1392 49.7392C45.1224 48.9689 44.5245 48.5172 44.5245 48.5172C40.9829 45.9037 39.1201 45.8627 35.618 48.5172C35.618 48.5172 7.37043 69.8602 7.6081 70.5168L7.60229 70.5216C7.6052 70.5274 7.60997 70.5311 7.6137 70.5365C7.85323 71.1894 8.20167 71.797 8.64421 72.3335C8.83107 72.5602 9.0565 72.7502 9.27322 72.9476L9.26265 72.9557C9.27986 72.971 9.30288 72.9783 9.32009 72.9936C10.2386 73.8128 11.3967 74.3435 12.6833 74.4949C12.7034 74.4974 12.7198 74.5078 12.7399 74.5103H12.8175C13.0131 74.5289 13.1991 74.576 13.3994 74.576H46.1388V49.7392H46.1392Z" fill="#C31C1C"/>
<path d="M46.1391 36.5692C46.1405 34.3169 45.8122 32.0765 45.1645 29.9193H13.7931C11.2039 29.9193 9.01014 31.5475 8.13891 33.83C8.12854 33.847 8.11257 33.8592 8.10303 33.8767L8.12003 33.8899C7.87739 34.5455 35.7303 55.5765 35.7303 55.5765C39.2171 58.1498 41.0512 58.1902 44.4995 55.5765C44.4995 55.5765 45.1081 55.1167 46.1391 54.3351V36.5692Z" fill="white"/>
</svg>
