<svg width="73" height="18" viewBox="0 0 73 18" fill="none" xmlns="http://www.w3.org/2000/svg">
<path d="M31.6867 12.952C31.7746 12.9695 31.8801 12.9869 32.0032 12.9869H32.3724C32.5307 12.9869 32.7065 12.9869 32.8647 12.9695C33.0229 12.9695 33.1635 12.9695 33.2866 12.952L32.9877 14.0318C32.8998 14.3627 32.7943 14.624 32.6713 14.8155C32.5482 15.0071 32.4251 15.129 32.3021 15.2161C32.1614 15.3032 32.0207 15.3554 31.8801 15.3729C31.7395 15.3902 31.5988 15.4076 31.4582 15.4076C31.2824 15.4076 31.1066 15.3902 30.9308 15.3554C30.7549 15.338 30.6142 15.3032 30.5088 15.2683C30.4209 15.4947 30.333 15.7385 30.2802 15.9824C30.2099 16.2436 30.1747 16.5048 30.1747 16.7835V16.9054C30.1747 16.9576 30.1747 17.0099 30.1923 17.0621C30.456 17.1318 30.7198 17.184 30.9834 17.2189C31.2472 17.2712 31.5285 17.2886 31.8625 17.2886C32.2141 17.2886 32.5482 17.2537 32.8471 17.184C33.146 17.1318 33.4272 17.0099 33.6734 16.8531C33.9196 16.6964 34.1481 16.47 34.3415 16.1739C34.5349 15.8779 34.6931 15.5122 34.8337 15.0767L38.2269 3.94821C37.9281 3.89594 37.6819 3.86117 37.4885 3.84375H36.926C36.5216 3.84375 36.1172 3.8786 35.7304 3.94821L33.5855 11.8026L31.6867 3.94821C31.4933 3.89594 31.2648 3.8786 31.0186 3.86117C30.7725 3.84375 30.5264 3.84375 30.2978 3.84375H29.7352C29.5243 3.86117 29.2781 3.89594 29.0144 3.94821L31.6867 12.952Z" fill="#0B1C3C"/>
<path d="M39.4409 8.78977C39.4409 9.74768 39.564 10.5313 39.8101 11.1061C40.0563 11.6808 40.3903 12.1336 40.8123 12.4297C41.2166 12.7258 41.709 12.9348 42.2539 13.0218C42.7989 13.1089 43.3791 13.1611 43.9769 13.1611C44.645 13.1611 45.2955 13.0915 45.9109 12.9696C46.5262 12.8477 47.0184 12.7258 47.3876 12.6039V3.94821C46.9657 3.8786 46.5438 3.84375 46.1394 3.84375C45.735 3.84375 45.3307 3.8786 44.9087 3.94821V11.0016C44.6098 11.0887 44.2582 11.1235 43.8187 11.1235C43.5022 11.1235 43.2209 11.0887 42.9923 11.0016C42.7638 10.9319 42.5704 10.81 42.4122 10.6185C42.2539 10.4443 42.1309 10.2005 42.0606 9.88699C41.9726 9.59094 41.9375 9.19036 41.9375 8.72016V3.94821C41.5156 3.8786 41.0936 3.84375 40.6892 3.84375C40.2849 3.84375 39.8629 3.8786 39.4409 3.94821V8.78977Z" fill="#0B1C3C"/>
<path d="M55.1066 3.9216C54.8956 3.86941 54.6847 3.81714 54.4561 3.79972C54.2276 3.78229 53.999 3.78229 53.788 3.78229C53.0848 3.78229 52.4519 3.90425 51.8717 4.14802C51.2915 4.40928 50.8168 4.74016 50.4124 5.17549C50.0081 5.6109 49.6916 6.11593 49.4807 6.69065C49.2521 7.28271 49.1465 7.90969 49.1465 8.57145C49.1465 9.40735 49.2697 10.1214 49.5334 10.6961C49.7795 11.2707 50.1135 11.741 50.553 12.1066C50.9926 12.4723 51.4849 12.751 52.0651 12.9078C52.6277 13.0819 53.2254 13.1689 53.8408 13.1689C54.6495 13.1689 55.3351 13.1168 55.9153 13.0296C56.4779 12.9426 57.0406 12.8206 57.5855 12.6639V0.229692C57.3746 0.194847 57.1636 0.177424 56.9526 0.160001C56.7416 0.142578 56.5306 0.142578 56.3373 0.142578C56.1439 0.142578 55.9329 0.142578 55.7395 0.160001C55.5285 0.177424 55.3175 0.194847 55.1066 0.229692V3.9216ZM55.1066 10.9921C54.9132 11.0444 54.7198 11.0792 54.5616 11.0966C54.4034 11.114 54.21 11.1314 54.0166 11.1314C53.6826 11.1314 53.3836 11.0792 53.1023 10.9921C52.8211 10.905 52.5749 10.7657 52.3815 10.5741C52.1705 10.3826 52.0123 10.1039 51.8893 9.77307C51.7662 9.44219 51.7134 9.04163 51.7134 8.57145C51.7134 8.1883 51.7662 7.82258 51.8541 7.45686C51.942 7.10856 52.0651 6.7951 52.2585 6.53384C52.4519 6.27266 52.6804 6.06366 52.9793 5.90693C53.2606 5.75021 53.5946 5.68052 53.9814 5.68052C54.21 5.68052 54.3858 5.68052 54.544 5.69794C54.6847 5.71536 54.8781 5.76763 55.1066 5.8199V10.9921Z" fill="#0B1C3C"/>
<path d="M60.4871 12.9575C60.909 13.0272 61.3134 13.062 61.7002 13.062C62.1046 13.062 62.5089 13.0272 62.9309 12.9575V3.95341H59.3091C59.2389 4.24954 59.2037 4.56301 59.2037 4.87648C59.2037 5.03322 59.2213 5.18996 59.2388 5.34669C59.2564 5.52085 59.274 5.67759 59.3091 5.83433H60.4871V12.9575ZM60.7684 2.50794C60.997 2.52528 61.208 2.52528 61.4014 2.52528C61.5947 2.52528 61.8233 2.52528 62.0518 2.50794C62.2804 2.49051 62.4913 2.47309 62.6847 2.43824C62.7199 2.24666 62.7375 2.03765 62.7551 1.84607C62.7727 1.65448 62.7727 1.46298 62.7727 1.27139C62.7727 1.07981 62.7727 0.870801 62.7551 0.679217C62.7375 0.487632 62.7199 0.296049 62.6847 0.104464C62.4913 0.0696955 62.2628 0.0348477 62.0343 0.0174238C61.8057 -9.75105e-08 61.5772 0 61.3838 0C61.1904 0 60.997 -9.75105e-08 60.7684 0.0174238C60.5398 0.0348477 60.3113 0.0696955 60.1179 0.104464C60.0476 0.505056 60.0124 0.905649 60.0124 1.27139C60.0124 1.65448 60.0476 2.03765 60.1179 2.43824C60.3113 2.47309 60.5398 2.49051 60.7684 2.50794Z" fill="#0B1C3C"/>
<path d="M64.7735 12.9541H72.1926C72.2278 12.7973 72.2454 12.6406 72.263 12.4838C72.2806 12.3445 72.2806 12.2052 72.2806 12.0485C72.2806 11.8917 72.2806 11.7176 72.263 11.5609C72.2454 11.404 72.2278 11.2299 72.1926 11.0557H68.3248L72.4916 4.1592L72.4036 3.9502H65.2481C65.213 4.10693 65.1954 4.26366 65.1778 4.40305C65.1602 4.55978 65.1602 4.69909 65.1602 4.85582C65.1602 5.01255 65.1602 5.18671 65.1778 5.34344C65.1954 5.50017 65.213 5.67433 65.2481 5.84848H68.7292L64.6328 12.7451L64.7735 12.9541Z" fill="#0B1C3C"/>
<path d="M36.4987 16.7604C36.4782 16.8214 36.4636 16.8794 36.4549 16.9375C36.6329 17.0042 36.8108 17.0391 36.9946 17.0391C37.1521 17.0391 37.2892 17.0188 37.403 16.9781C37.5168 16.9375 37.613 16.8823 37.6889 16.8155C37.7618 16.7488 37.8172 16.6676 37.8551 16.5775C37.8902 16.4876 37.9077 16.3918 37.9077 16.2931C37.9077 16.2234 37.896 16.1625 37.8726 16.1073C37.8464 16.055 37.8143 16.0086 37.7705 15.9651C37.7268 15.9215 37.6772 15.8838 37.6218 15.8461C37.5664 15.8083 37.5051 15.7735 37.438 15.7358C37.3651 15.6922 37.3038 15.6516 37.2572 15.6081C37.2075 15.5645 37.1842 15.5123 37.1842 15.4455C37.1842 15.3991 37.1959 15.3613 37.2163 15.3323C37.2367 15.3033 37.2658 15.28 37.298 15.2626C37.3301 15.2481 37.3651 15.2365 37.4059 15.2307C37.4438 15.2249 37.4818 15.222 37.5168 15.222C37.613 15.222 37.6889 15.2307 37.7502 15.2481C37.8085 15.2655 37.8668 15.2888 37.9222 15.3149C37.9572 15.2597 37.9835 15.2016 38.0039 15.1436C38.0243 15.0856 38.036 15.0304 38.0448 14.9781C37.9602 14.9462 37.8785 14.9201 37.7997 14.9056C37.7209 14.8911 37.6305 14.8823 37.5226 14.8823C37.403 14.8823 37.2951 14.8969 37.1988 14.9259C37.1025 14.9579 37.0179 15.0014 36.9508 15.0565C36.8837 15.1117 36.8312 15.1814 36.7933 15.2626C36.7554 15.3468 36.7379 15.4397 36.7379 15.5442C36.7379 15.6516 36.7758 15.7416 36.8487 15.8199C36.9217 15.8983 37.0179 15.9767 37.1434 16.0493C37.1813 16.0725 37.2163 16.0928 37.2542 16.1131C37.2921 16.1334 37.3243 16.1567 37.3505 16.1799C37.3767 16.2031 37.4 16.2292 37.4175 16.2583C37.4351 16.2873 37.4438 16.3221 37.4438 16.3598C37.4438 16.4121 37.4322 16.4585 37.4117 16.4963C37.3914 16.534 37.3621 16.5688 37.3243 16.5949C37.2863 16.6211 37.2397 16.6414 37.1901 16.6559C37.1375 16.6705 37.0821 16.6762 37.0209 16.6762C36.9479 16.6762 36.875 16.6676 36.7991 16.6472C36.7204 16.6269 36.6446 16.6037 36.5716 16.5775C36.5424 16.6414 36.5191 16.7024 36.4987 16.7604Z" fill="#808184"/>
<path d="M39.1635 16.9652C39.2714 16.91 39.359 16.8345 39.429 16.7416C39.499 16.6487 39.5515 16.5441 39.5865 16.428C39.6186 16.3119 39.6361 16.1929 39.6361 16.0738C39.6361 15.8909 39.5894 15.7486 39.4961 15.6411C39.3998 15.5337 39.2511 15.4814 39.0498 15.4814C38.9068 15.4814 38.7843 15.5105 38.6793 15.5686C38.5713 15.6296 38.4838 15.705 38.4138 15.798C38.3438 15.8937 38.2913 15.9983 38.2563 16.1145C38.2213 16.2335 38.2038 16.3497 38.2038 16.4657C38.2038 16.6487 38.2504 16.791 38.3467 16.8955C38.4401 17 38.5859 17.0522 38.7872 17.0522C38.9301 17.0522 39.0556 17.0232 39.1635 16.9652ZM38.618 16.4803C38.618 16.4193 38.6239 16.3525 38.6384 16.2741C38.6501 16.1957 38.6705 16.1232 38.7026 16.0534C38.7347 15.9838 38.7726 15.9257 38.8222 15.8764C38.8718 15.827 38.9331 15.8038 39.006 15.8038C39.1519 15.8038 39.2248 15.8937 39.2248 16.0709C39.2248 16.1318 39.219 16.2015 39.2043 16.277C39.1898 16.3554 39.1694 16.428 39.1372 16.4948C39.1052 16.5645 39.0615 16.6225 39.0118 16.669C38.9622 16.7155 38.8981 16.7387 38.8252 16.7387C38.688 16.7387 38.618 16.6516 38.618 16.4803Z" fill="#808184"/>
<path d="M39.982 16.4552C39.9762 16.4872 39.9704 16.5191 39.9674 16.5481C39.9646 16.58 39.9616 16.6091 39.9616 16.6352C39.9616 16.7745 39.9995 16.8761 40.0753 16.94C40.1512 17.0066 40.2562 17.0386 40.3875 17.0386C40.4429 17.0386 40.4954 17.0357 40.5421 17.027C40.5888 17.0212 40.6267 17.0125 40.6559 17.0009C40.6588 16.9864 40.6588 16.9719 40.6617 16.9574V16.9138C40.6617 16.8732 40.6588 16.8325 40.6529 16.7948C40.6442 16.7571 40.6354 16.7194 40.6267 16.6875C40.6092 16.6932 40.5888 16.6961 40.5683 16.6991C40.5479 16.702 40.5334 16.7049 40.5246 16.7049C40.5071 16.7049 40.4896 16.702 40.4721 16.6991C40.4546 16.6961 40.44 16.6903 40.4254 16.6816C40.4108 16.673 40.4021 16.6584 40.3933 16.641C40.3845 16.6236 40.3787 16.6004 40.3787 16.5684C40.3787 16.5481 40.3817 16.5191 40.3875 16.4872L40.6121 15.3205C40.6238 15.2596 40.6326 15.2015 40.6413 15.1493C40.6501 15.0971 40.6529 15.0506 40.6529 15.01C40.6529 14.9664 40.6471 14.9288 40.6384 14.8997C40.5713 14.8881 40.5071 14.8823 40.4516 14.8823C40.4196 14.8823 40.3845 14.8823 40.3409 14.8852C40.2971 14.8881 40.2591 14.8939 40.227 14.8997C40.23 14.9171 40.23 14.9317 40.2329 14.9462V15.0013C40.2329 15.0535 40.23 15.1174 40.2212 15.1928C40.2125 15.2712 40.195 15.3611 40.1745 15.4627L39.982 16.4552Z" fill="#808184"/>
<path d="M41.0278 16.4511C41.0219 16.4888 41.0161 16.5237 41.0131 16.5556C41.0103 16.5876 41.0073 16.6195 41.0073 16.6485C41.0073 16.7849 41.0394 16.8837 41.1065 16.9417C41.1707 17.0026 41.2611 17.0317 41.3778 17.0317C41.4303 17.0317 41.4828 17.023 41.5353 17.0085C41.5849 16.994 41.6345 16.9707 41.6783 16.9446C41.722 16.9185 41.7629 16.8866 41.7979 16.8488C41.8329 16.811 41.862 16.7733 41.8853 16.7327C41.8825 16.7588 41.8795 16.7791 41.8795 16.7965C41.8766 16.814 41.8766 16.8314 41.8766 16.8488C41.8766 16.8923 41.8795 16.9243 41.8825 16.9446C41.8853 16.965 41.8912 16.9852 41.8941 16.9998C41.9612 17.0114 42.0195 17.0172 42.075 17.0172C42.1392 17.0172 42.2033 17.0114 42.2675 16.9998C42.2646 16.9824 42.2646 16.965 42.2646 16.9504V16.8982C42.2646 16.8459 42.2704 16.7733 42.2821 16.6775C42.2909 16.5847 42.3084 16.4773 42.3287 16.3553L42.4863 15.4989C42.4192 15.4873 42.3521 15.4814 42.285 15.4814C42.218 15.4814 42.1479 15.4873 42.0721 15.4989L41.9641 16.0824C41.9408 16.213 41.9116 16.3176 41.8795 16.396C41.8475 16.4743 41.8124 16.5353 41.7774 16.5788C41.7424 16.6223 41.7075 16.6514 41.6753 16.6659C41.6404 16.6805 41.6082 16.6862 41.582 16.6862C41.5353 16.6862 41.5003 16.6746 41.474 16.6514C41.4479 16.6282 41.4362 16.5876 41.4362 16.5295C41.4362 16.4946 41.4391 16.4569 41.4478 16.4191L41.6112 15.4989C41.5441 15.4873 41.477 15.4814 41.4099 15.4814C41.3778 15.4814 41.3428 15.4814 41.3078 15.4844C41.2699 15.4873 41.2349 15.4931 41.1969 15.4989L41.0278 16.4511Z" fill="#808184"/>
<path d="M42.8656 16.4527C42.8598 16.4905 42.8539 16.5224 42.851 16.5543C42.8481 16.5863 42.8452 16.6153 42.8452 16.6443C42.8452 16.7865 42.886 16.8852 42.9648 16.9462C43.0435 17.0071 43.1631 17.0361 43.3265 17.0361C43.4432 17.0361 43.5424 17.0245 43.627 16.9984C43.6298 16.9839 43.6299 16.9665 43.6299 16.952V16.9056C43.6299 16.8155 43.6182 16.7401 43.592 16.685C43.5715 16.6907 43.5482 16.6966 43.5219 16.6995C43.4957 16.7052 43.4665 16.7081 43.4345 16.7081C43.3702 16.7081 43.3265 16.6936 43.3031 16.6646C43.2798 16.6356 43.2681 16.5949 43.2681 16.5456C43.2681 16.5253 43.2711 16.5021 43.274 16.4789C43.2769 16.4556 43.2798 16.4295 43.2828 16.4033L43.3849 15.8316H43.7465C43.764 15.7764 43.7787 15.727 43.7874 15.6777C43.7961 15.6283 43.802 15.5761 43.802 15.518H43.4403L43.4578 15.4222C43.4665 15.3787 43.4723 15.341 43.4782 15.3033C43.4811 15.2684 43.484 15.2365 43.484 15.2045C43.484 15.161 43.4782 15.1233 43.4694 15.0942C43.4053 15.0942 43.3352 15.1001 43.2594 15.1146C43.1836 15.1291 43.1194 15.1523 43.0698 15.1842C43.0698 15.2133 43.0698 15.2481 43.0668 15.2917C43.064 15.3352 43.0582 15.3816 43.0494 15.431L43.0319 15.518H42.8072C42.7868 15.5732 42.7723 15.6283 42.7635 15.6777C42.7548 15.727 42.7518 15.7793 42.7518 15.8316H42.9764L42.8656 16.4527Z" fill="#808184"/>
<path d="M44.0023 17.0066C44.0723 17.0182 44.1364 17.0239 44.1977 17.0239C44.2648 17.0239 44.3349 17.0182 44.4078 17.0066L44.6732 15.5056H44.084C44.0635 15.5521 44.049 15.5957 44.0402 15.6392C44.0315 15.6827 44.0257 15.7321 44.0257 15.7815C44.0257 15.7901 44.0257 15.796 44.0285 15.8018V15.8192H44.2123L44.0023 17.0066ZM44.4019 15.2648C44.4398 15.2676 44.4748 15.2676 44.504 15.2676C44.5361 15.2676 44.5711 15.2676 44.609 15.2648C44.6469 15.2618 44.6819 15.2589 44.717 15.2531C44.7403 15.1864 44.7578 15.1225 44.7695 15.0615C44.7811 15.0005 44.787 14.9337 44.787 14.867C44.7549 14.8583 44.7199 14.8525 44.6819 14.8496C44.644 14.8467 44.609 14.8467 44.577 14.8467C44.5449 14.8467 44.5099 14.8467 44.4719 14.8496C44.434 14.8525 44.3961 14.8583 44.3611 14.867C44.3377 14.9337 44.3202 14.9976 44.3115 15.0586C44.2998 15.1196 44.294 15.1864 44.2969 15.2531C44.329 15.2589 44.364 15.2618 44.4019 15.2648Z" fill="#808184"/>
<path d="M45.9054 16.9652C46.0133 16.91 46.1008 16.8345 46.1708 16.7416C46.2409 16.6487 46.2933 16.5441 46.3283 16.428C46.3604 16.3118 46.3779 16.1928 46.3779 16.0737C46.3779 15.8908 46.3313 15.7486 46.2379 15.6411C46.1416 15.5337 45.9929 15.4814 45.7916 15.4814C45.6486 15.4814 45.5262 15.5105 45.4211 15.5685C45.3132 15.6295 45.2257 15.705 45.1557 15.7979C45.0856 15.8938 45.0332 15.9983 44.9981 16.1144C44.9631 16.2334 44.9456 16.3496 44.9456 16.4657C44.9456 16.6487 44.9923 16.791 45.0886 16.8955C45.1819 17 45.3278 17.0522 45.5291 17.0522C45.672 17.0522 45.7975 17.0232 45.9054 16.9652ZM45.3599 16.4803C45.3599 16.4193 45.3657 16.3525 45.3803 16.2741C45.392 16.1957 45.4123 16.1231 45.4445 16.0534C45.4766 15.9838 45.5144 15.9257 45.564 15.8763C45.6136 15.827 45.6749 15.8037 45.7478 15.8037C45.8937 15.8037 45.9666 15.8938 45.9666 16.0708C45.9666 16.1318 45.9608 16.2015 45.9462 16.277C45.9316 16.3554 45.9112 16.428 45.8791 16.4948C45.8471 16.5645 45.8033 16.6226 45.7537 16.669C45.7041 16.7155 45.6399 16.7387 45.567 16.7387C45.4298 16.7387 45.3599 16.6516 45.3599 16.4803Z" fill="#808184"/>
<path d="M46.6456 17.0143C46.7127 17.0259 46.7798 17.0317 46.8469 17.0317C46.914 17.0317 46.9839 17.0259 47.0598 17.0143L47.1677 16.4307C47.1911 16.3002 47.2202 16.1956 47.2523 16.1172C47.2844 16.0388 47.3194 15.975 47.3544 15.9314C47.3894 15.8879 47.4244 15.8617 47.4595 15.8472C47.4915 15.8327 47.5236 15.827 47.5499 15.827C47.5965 15.827 47.6315 15.8386 47.6578 15.8617C47.6841 15.885 47.6957 15.9256 47.6957 15.9837C47.6957 16.0185 47.6928 16.0563 47.6841 16.094L47.5207 17.0143C47.5878 17.0259 47.6549 17.0317 47.7219 17.0317C47.789 17.0317 47.862 17.0259 47.9349 17.0143L48.1041 16.0621C48.1099 16.0243 48.1158 15.9895 48.1187 15.9575C48.1216 15.9256 48.1245 15.8937 48.1245 15.8647C48.1245 15.7282 48.0924 15.6295 48.0283 15.5686C47.9612 15.5105 47.8708 15.4814 47.754 15.4814C47.7016 15.4814 47.649 15.4902 47.5995 15.5047C47.5469 15.5192 47.4973 15.5425 47.4536 15.5686C47.4099 15.5947 47.369 15.6266 47.334 15.6644C47.299 15.7021 47.2698 15.7398 47.2465 15.7805C47.2494 15.7543 47.2523 15.734 47.2552 15.7167V15.6644C47.2552 15.6209 47.2523 15.5889 47.2494 15.5686C47.2465 15.5482 47.2407 15.5279 47.2377 15.5134C47.2056 15.5076 47.1736 15.5018 47.1444 15.4989C47.1152 15.496 47.086 15.496 47.0569 15.496C46.9927 15.496 46.9285 15.5018 46.8644 15.5134C46.8672 15.5308 46.8672 15.5453 46.8672 15.5598V15.615C46.8672 15.6673 46.8614 15.7398 46.8527 15.8327C46.841 15.9285 46.8235 16.0359 46.8031 16.1579L46.6456 17.0143Z" fill="#808184"/>
<path d="M48.926 16.3932C48.9756 16.4135 49.0135 16.4338 49.0397 16.457C49.066 16.4831 49.0805 16.5151 49.0805 16.5529C49.0805 16.5877 49.0718 16.6167 49.0543 16.6399C49.0339 16.6661 49.0106 16.6835 48.9843 16.6981C48.9581 16.7126 48.926 16.7212 48.8939 16.7271C48.8618 16.7329 48.8297 16.7358 48.8006 16.7358C48.7422 16.7358 48.6809 16.73 48.6196 16.7184C48.5555 16.7096 48.4942 16.6893 48.433 16.6632C48.3805 16.759 48.3513 16.8635 48.3455 16.9768C48.4067 17.003 48.4738 17.0203 48.5497 17.032C48.6255 17.0465 48.6955 17.0522 48.7568 17.0522C48.8589 17.0522 48.9551 17.0407 49.0455 17.0175C49.136 16.9942 49.2119 16.9593 49.279 16.91C49.3461 16.8635 49.3985 16.8055 49.4365 16.7329C49.4744 16.6632 49.4948 16.579 49.4948 16.4831C49.4948 16.4309 49.4861 16.3845 49.4715 16.3467C49.454 16.3089 49.4306 16.2741 49.4044 16.245C49.3781 16.216 49.3461 16.1899 49.311 16.1696C49.276 16.1492 49.241 16.1319 49.2031 16.1173L49.0893 16.068C49.0164 16.036 48.9784 15.9896 48.9784 15.9315C48.9784 15.9024 48.9872 15.8792 49.0018 15.8589C49.0164 15.8386 49.0368 15.824 49.0602 15.8154C49.0835 15.8066 49.1098 15.7979 49.136 15.795C49.1623 15.7921 49.1856 15.7892 49.206 15.7892C49.2585 15.7892 49.3139 15.795 49.3722 15.8095C49.4306 15.824 49.4802 15.8415 49.5211 15.8618C49.5531 15.8125 49.5794 15.7602 49.594 15.7108C49.6085 15.6614 49.6173 15.612 49.6202 15.5627C49.591 15.5482 49.559 15.5337 49.5239 15.5221C49.4861 15.5134 49.451 15.5046 49.4131 15.4988C49.3752 15.493 49.3373 15.4872 49.2993 15.4843C49.2615 15.4814 49.2294 15.4814 49.1972 15.4814C49.1068 15.4814 49.0252 15.493 48.9493 15.5162C48.8705 15.5395 48.8034 15.5714 48.748 15.615C48.6897 15.6585 48.6459 15.7137 48.6138 15.7747C48.5818 15.8386 48.5643 15.9111 48.5643 15.9924C48.5643 16.0476 48.573 16.097 48.5905 16.1376C48.6051 16.1783 48.6284 16.2131 48.6547 16.2393C48.6809 16.2683 48.7072 16.2915 48.7393 16.3089C48.7713 16.3293 48.8006 16.3438 48.8326 16.3554L48.926 16.3932Z" fill="#808184"/>
<path d="M50.5394 17.0045C50.5803 17.0103 50.6181 17.0132 50.6561 17.0161C50.6911 17.019 50.7232 17.019 50.7523 17.019C50.7845 17.019 50.8194 17.019 50.8544 17.0161C50.8895 17.0132 50.9273 17.0103 50.9653 17.0045L51.082 16.3339C51.0995 16.3368 51.117 16.3368 51.1374 16.3368C51.1578 16.3397 51.1812 16.3397 51.2132 16.3397C51.3591 16.3397 51.4904 16.3194 51.6042 16.2758C51.7179 16.2322 51.8171 16.1742 51.8959 16.0958C51.9746 16.0204 52.0359 15.9303 52.0796 15.8258C52.1205 15.7213 52.1409 15.6081 52.1409 15.4862C52.1409 15.3613 52.1175 15.2568 52.0679 15.1784C52.0184 15.1 51.9542 15.0362 51.8784 14.9926C51.8025 14.949 51.7179 14.92 51.6275 14.9055C51.5371 14.891 51.4495 14.8823 51.3649 14.8823H51.2483C51.2104 14.8852 51.1753 14.8852 51.1403 14.8881C51.1024 14.891 51.0674 14.8968 51.0295 14.8998C50.9916 14.9026 50.9536 14.9084 50.9099 14.9113L50.5394 17.0045ZM51.2775 15.2423C51.3066 15.2394 51.327 15.2365 51.3416 15.2365H51.3854C51.4204 15.2365 51.4553 15.2394 51.4933 15.2481C51.5312 15.2568 51.5633 15.2684 51.5954 15.2887C51.6246 15.3091 51.6479 15.3381 51.6683 15.3758C51.6858 15.4136 51.6946 15.46 51.6946 15.5152C51.6946 15.6052 51.6829 15.6806 51.6566 15.7416C51.6304 15.8026 51.5954 15.8491 51.5546 15.8868C51.5137 15.9245 51.47 15.9506 51.4204 15.9652C51.3708 15.9797 51.3241 15.9884 51.2775 15.9884C51.2162 15.9884 51.1724 15.9855 51.1461 15.9797L51.2775 15.2423Z" fill="#808184"/>
<path d="M52.306 17.0001C52.3731 17.0117 52.4402 17.0176 52.5073 17.0176C52.5744 17.0176 52.6445 17.0117 52.7203 17.0001L52.8282 16.4165C52.8428 16.3322 52.8603 16.2538 52.8808 16.1841C52.9011 16.1145 52.9274 16.0534 52.9595 16.0041C52.9916 15.9548 53.0353 15.917 53.0878 15.8909C53.1374 15.8647 53.2045 15.8502 53.2833 15.8502C53.3037 15.8502 53.3212 15.8502 53.3359 15.8531C53.3504 15.856 53.362 15.856 53.3737 15.8589C53.3971 15.8212 53.4146 15.7718 53.4291 15.7137C53.4438 15.6557 53.4496 15.6005 53.4496 15.5453V15.5191C53.4496 15.5105 53.4496 15.5046 53.4466 15.496C53.4175 15.4872 53.3825 15.4814 53.3417 15.4814C53.2891 15.4814 53.2425 15.4901 53.1987 15.5046C53.1549 15.5221 53.1141 15.5453 53.0791 15.5714C53.0412 15.5975 53.0091 15.6295 52.9799 15.6614C52.9507 15.6963 52.9274 15.7312 52.907 15.766C52.9099 15.7398 52.9128 15.7196 52.9158 15.7021V15.6498C52.9158 15.6063 52.9128 15.5744 52.9099 15.554C52.907 15.5337 52.9011 15.5134 52.8983 15.4988C52.8662 15.493 52.834 15.4872 52.8049 15.4843C52.7757 15.4814 52.7466 15.4814 52.7174 15.4814C52.6532 15.4814 52.5891 15.4872 52.5248 15.4988C52.5278 15.5162 52.5278 15.5307 52.5278 15.5453V15.6005C52.5278 15.6528 52.522 15.7253 52.5132 15.8182C52.5015 15.9141 52.484 16.0215 52.4636 16.1435L52.306 17.0001Z" fill="#808184"/>
<path d="M53.6099 17.0065C53.6799 17.0181 53.744 17.0239 53.8053 17.0239C53.8724 17.0239 53.9424 17.0181 54.0154 17.0065L54.2808 15.5056H53.6915C53.6711 15.5521 53.6565 15.5957 53.6478 15.6392C53.6391 15.6827 53.6332 15.7321 53.6332 15.7814C53.6332 15.7902 53.6332 15.7959 53.6361 15.8018V15.8192H53.8199L53.6099 17.0065ZM54.0095 15.2647C54.0474 15.2677 54.0825 15.2677 54.1116 15.2677C54.1437 15.2677 54.1787 15.2677 54.2167 15.2647C54.2545 15.2618 54.2896 15.2589 54.3246 15.2531C54.3479 15.1864 54.3654 15.1225 54.377 15.0615C54.3887 15.0005 54.3945 14.9338 54.3945 14.867C54.3625 14.8583 54.3274 14.8525 54.2896 14.8496C54.2516 14.8467 54.2167 14.8467 54.1845 14.8467C54.1524 14.8467 54.1174 14.8467 54.0795 14.8496C54.0416 14.8525 54.0037 14.8583 53.9686 14.867C53.9453 14.9338 53.9278 14.9977 53.9191 15.0586C53.9074 15.1196 53.9016 15.1864 53.9045 15.2531C53.9366 15.2589 53.9716 15.2618 54.0095 15.2647Z" fill="#808184"/>
<path d="M54.8501 16.9997C54.8822 17.0083 54.923 17.0112 54.9697 17.0112C55.0134 17.0142 55.0513 17.0142 55.0776 17.0142C55.1039 17.0142 55.1389 17.0142 55.1797 17.0112C55.2205 17.0083 55.2614 17.0054 55.2993 16.9997L55.8885 15.9256C55.944 15.824 55.9848 15.7397 56.0081 15.6759C56.0315 15.6149 56.0432 15.5598 56.0432 15.5134V15.4989C55.9761 15.4872 55.8973 15.4814 55.8098 15.4814C55.766 15.4814 55.7252 15.4814 55.6872 15.4843C55.6464 15.4872 55.6085 15.493 55.5765 15.4989V15.5307C55.5765 15.5685 55.5706 15.6149 55.5618 15.6701C55.5502 15.7252 55.5239 15.8007 55.4802 15.8907L55.1506 16.599L55.0368 15.4989C54.9639 15.4872 54.888 15.4814 54.8092 15.4814C54.7363 15.4814 54.6663 15.4872 54.5934 15.4989L54.8501 16.9997Z" fill="#808184"/>
<path d="M57.1321 16.0737C57.0941 16.2799 57.0358 16.4366 56.9571 16.5499C56.8783 16.6631 56.7908 16.7212 56.6974 16.7212C56.6011 16.7212 56.5545 16.6486 56.5545 16.5064C56.5545 16.4396 56.5632 16.367 56.5836 16.2857C56.6041 16.2073 56.6332 16.1318 56.677 16.0621C56.7208 15.9924 56.7733 15.9344 56.8404 15.8879C56.9045 15.8415 56.9833 15.8182 57.0767 15.8182H57.1263C57.1408 15.8211 57.1584 15.824 57.1759 15.8269L57.1321 16.0737ZM57.6193 15.5482C57.5463 15.5279 57.4734 15.5105 57.4005 15.4989C57.3276 15.4872 57.2458 15.4814 57.1612 15.4814C56.9891 15.4814 56.8404 15.5134 56.712 15.5743C56.5836 15.6382 56.4757 15.7225 56.3911 15.8269C56.3036 15.9314 56.2394 16.0505 56.1957 16.187C56.1519 16.3235 56.1286 16.4628 56.1286 16.608C56.1286 16.7415 56.1607 16.8489 56.2248 16.9302C56.2891 17.0116 56.3853 17.0522 56.5137 17.0522C56.6303 17.0522 56.7325 17.0231 56.8199 16.9622C56.9075 16.9012 56.9804 16.8287 57.0358 16.7386C57.0329 16.7648 57.03 16.7851 57.03 16.8054V16.8606C57.03 16.9041 57.0329 16.9361 57.0358 16.9564C57.0387 16.9767 57.0445 16.997 57.0475 17.0116C57.1146 17.0231 57.1729 17.029 57.2283 17.029C57.2896 17.029 57.3537 17.0231 57.418 17.0116C57.415 16.9941 57.415 16.9767 57.415 16.9622V16.91C57.415 16.8577 57.4208 16.7851 57.4296 16.6892C57.4384 16.5963 57.4559 16.4889 57.4763 16.367L57.6193 15.5482Z" fill="#808184"/>
<path d="M58.0092 16.4527C58.0034 16.4904 57.9975 16.5223 57.9946 16.5543C57.9917 16.5862 57.9887 16.6152 57.9887 16.6442C57.9887 16.7864 58.0296 16.8852 58.1084 16.9461C58.1872 17.0071 58.3067 17.0361 58.4701 17.0361C58.5868 17.0361 58.6859 17.0245 58.7705 16.9984C58.7735 16.9839 58.7735 16.9664 58.7735 16.9519V16.9055C58.7735 16.8155 58.7618 16.74 58.7355 16.6849C58.7151 16.6907 58.6917 16.6965 58.6655 16.6994C58.6393 16.7052 58.6101 16.7081 58.578 16.7081C58.5139 16.7081 58.4701 16.6936 58.4468 16.6646C58.4234 16.6355 58.4118 16.5949 58.4118 16.5456C58.4118 16.5253 58.4146 16.502 58.4176 16.4788C58.4205 16.4556 58.4234 16.4295 58.4263 16.4034L58.5284 15.8315H58.8902C58.9077 15.7764 58.9222 15.727 58.931 15.6776C58.9397 15.6284 58.9456 15.5761 58.9456 15.5181H58.5838L58.6013 15.4223C58.6101 15.3787 58.6159 15.341 58.6218 15.3032C58.6247 15.2684 58.6276 15.2365 58.6276 15.2045C58.6276 15.161 58.6218 15.1233 58.613 15.0942C58.5488 15.0942 58.4788 15.1001 58.403 15.1146C58.3272 15.1291 58.263 15.1523 58.2133 15.1843C58.2133 15.2133 58.2133 15.2481 58.2105 15.2917C58.2075 15.3352 58.2017 15.3816 58.193 15.431L58.1755 15.5181H57.9509C57.9304 15.5732 57.9158 15.6284 57.9071 15.6776C57.8983 15.727 57.8954 15.7793 57.8954 15.8315H58.1201L58.0092 16.4527Z" fill="#808184"/>
<path d="M59.6889 16.4164C59.7822 16.4019 59.8726 16.3815 59.9601 16.3525C60.0447 16.3263 60.1235 16.2886 60.1906 16.2451C60.2577 16.2015 60.3131 16.1463 60.3539 16.0825C60.3948 16.0186 60.4152 15.9431 60.4152 15.856C60.4152 15.795 60.4036 15.7398 60.3802 15.6934C60.3569 15.6469 60.3248 15.6063 60.284 15.5743C60.2431 15.5424 60.1964 15.5191 60.141 15.5046C60.0856 15.4901 60.0243 15.4814 59.9601 15.4814C59.826 15.4814 59.7064 15.5075 59.5985 15.5628C59.4905 15.6179 59.3972 15.6905 59.3242 15.7805C59.2483 15.8705 59.19 15.9751 59.1492 16.0882C59.1083 16.2015 59.088 16.3176 59.088 16.4366C59.088 16.5296 59.1025 16.6138 59.1288 16.6893C59.155 16.7677 59.1959 16.8316 59.2513 16.8838C59.3067 16.939 59.3767 16.9796 59.4613 17.0086C59.5459 17.0377 59.6451 17.0522 59.7647 17.0522C59.8026 17.0522 59.8434 17.0493 59.8902 17.0435C59.9368 17.0406 59.9835 17.0319 60.0302 17.0231C60.0769 17.0145 60.1235 17.0058 60.1673 16.9912C60.2111 16.9796 60.249 16.9651 60.281 16.9506C60.281 16.8896 60.2752 16.8287 60.2665 16.7735C60.2548 16.7183 60.2344 16.6719 60.2023 16.6341C60.1352 16.6602 60.0739 16.6835 60.0156 16.698C59.9543 16.7154 59.8872 16.7241 59.8085 16.7241C59.7122 16.7241 59.6363 16.7009 59.5868 16.6545C59.5372 16.6108 59.5051 16.5412 59.4934 16.4483L59.6889 16.4164ZM59.508 16.1754C59.5197 16.126 59.5372 16.0795 59.5605 16.0302C59.5809 15.9837 59.6072 15.9431 59.6393 15.9053C59.6714 15.8676 59.7064 15.8385 59.7502 15.8154C59.791 15.795 59.8376 15.7834 59.8872 15.7834C59.928 15.7834 59.9601 15.795 59.9864 15.8183C60.0098 15.8415 60.0214 15.8705 60.0214 15.9083C60.0214 15.9314 60.0156 15.9547 60.0068 15.9779C59.9981 16.0012 59.9776 16.0244 59.9514 16.0447C59.9252 16.068 59.8872 16.0882 59.8406 16.1056C59.7938 16.126 59.7326 16.1405 59.6597 16.1521L59.508 16.1754Z" fill="#808184"/>
<path d="M61.3663 17.0244H62.4748C62.4835 16.9925 62.4923 16.9606 62.501 16.9286C62.5098 16.8996 62.5156 16.8706 62.5215 16.8387C62.5244 16.8125 62.5302 16.7835 62.5331 16.7516C62.5361 16.7226 62.539 16.6907 62.539 16.6587H61.8506L62.1539 14.9378C62.0869 14.9233 62.0168 14.9175 61.9497 14.9175C61.8797 14.9175 61.8068 14.9233 61.7339 14.9378L61.3663 17.0244Z" fill="#808184"/>
<path d="M62.9327 17.0065C63.0028 17.0181 63.0669 17.0239 63.1282 17.0239C63.1953 17.0239 63.2653 17.0181 63.3382 17.0065L63.6037 15.5057H63.0144C62.994 15.5521 62.9794 15.5957 62.9706 15.6392C62.9619 15.6827 62.9561 15.7321 62.9561 15.7814C62.9561 15.7902 62.9561 15.7959 62.959 15.8018V15.8192H63.1428L62.9327 17.0065ZM63.3324 15.2647C63.3703 15.2677 63.4053 15.2677 63.4345 15.2677C63.4665 15.2677 63.5016 15.2677 63.5394 15.2647C63.5774 15.2618 63.6124 15.2589 63.6474 15.2531C63.6708 15.1864 63.6883 15.1225 63.6999 15.0615C63.7116 15.0006 63.7174 14.9338 63.7174 14.867C63.6853 14.8583 63.6503 14.8525 63.6124 14.8496C63.5745 14.8467 63.5394 14.8467 63.5074 14.8467C63.4753 14.8467 63.4403 14.8467 63.4024 14.8496C63.3644 14.8525 63.3265 14.8583 63.2915 14.867C63.2682 14.9338 63.2507 14.9977 63.2419 15.0586C63.2302 15.1196 63.2244 15.1864 63.2274 15.2531C63.2595 15.2589 63.2945 15.2618 63.3324 15.2647Z" fill="#808184"/>
<path d="M63.8585 17.0143C63.9256 17.0259 63.9926 17.0317 64.0597 17.0317C64.1268 17.0317 64.1969 17.0259 64.2727 17.0143L64.3806 16.4308C64.404 16.3001 64.4302 16.1956 64.4623 16.1173C64.4944 16.0388 64.5265 15.975 64.5586 15.9314C64.5907 15.8879 64.6257 15.8618 64.6578 15.8473C64.6898 15.8327 64.7219 15.8269 64.7482 15.8269C64.7919 15.8269 64.827 15.8385 64.8473 15.8588C64.8678 15.8792 64.8795 15.9169 64.8795 15.9692C64.8795 16.0069 64.8766 16.0505 64.8678 16.094L64.7045 17.0143C64.7716 17.0259 64.8386 17.0317 64.9057 17.0317C64.9728 17.0317 65.0458 17.0259 65.1187 17.0143L65.2353 16.3495C65.2558 16.2421 65.2791 16.152 65.3082 16.0853C65.3374 16.0185 65.3695 15.9633 65.4016 15.9256C65.4337 15.8879 65.4687 15.8618 65.5008 15.8473C65.5329 15.8327 65.562 15.8269 65.5883 15.8269C65.6321 15.8269 65.6671 15.8385 65.6875 15.8588C65.7079 15.8792 65.7196 15.9169 65.7196 15.9692C65.7196 16.0069 65.7167 16.0505 65.7079 16.094L65.5445 17.0143C65.6116 17.0259 65.6787 17.0317 65.7458 17.0317C65.8129 17.0317 65.8858 17.0259 65.9588 17.0143L66.128 16.0621C66.1426 15.9895 66.1484 15.9198 66.1484 15.853C66.1484 15.7195 66.1192 15.6237 66.058 15.5656C65.9967 15.5105 65.9092 15.4814 65.7925 15.4814C65.6875 15.4814 65.5913 15.5105 65.5008 15.5656C65.4104 15.6237 65.3433 15.6933 65.2966 15.7746C65.2849 15.6701 65.2499 15.5947 65.1945 15.5482C65.1362 15.5046 65.0545 15.4814 64.9524 15.4814C64.8445 15.4814 64.7482 15.5105 64.6607 15.5685C64.5703 15.6266 64.5032 15.6962 64.4594 15.7805C64.4623 15.7543 64.4652 15.734 64.4682 15.7166V15.6643C64.4682 15.6208 64.4652 15.5888 64.4623 15.5685C64.4594 15.5482 64.4535 15.5279 64.4507 15.5134C64.4186 15.5075 64.3864 15.5017 64.3573 15.4989C64.3281 15.496 64.299 15.496 64.2698 15.496C64.2056 15.496 64.1415 15.5017 64.0772 15.5134C64.0802 15.5308 64.0802 15.5453 64.0802 15.5598V15.6149C64.0802 15.6672 64.0744 15.7398 64.0656 15.8327C64.0539 15.9285 64.0364 16.036 64.016 16.1579L63.8585 17.0143Z" fill="#808184"/>
<path d="M66.5328 17.0065C66.6028 17.0181 66.667 17.0239 66.7282 17.0239C66.7953 17.0239 66.8654 17.0181 66.9383 17.0065L67.2038 15.5057H66.6145C66.594 15.5521 66.5795 15.5957 66.5707 15.6392C66.562 15.6827 66.5562 15.7321 66.5562 15.7814C66.5562 15.7902 66.5562 15.7959 66.559 15.8018V15.8192H66.7429L66.5328 17.0065ZM66.9325 15.2647C66.9703 15.2677 67.0054 15.2677 67.0346 15.2677C67.0666 15.2677 67.1017 15.2677 67.1395 15.2647C67.1775 15.2618 67.2125 15.2589 67.2475 15.2531C67.2709 15.1864 67.2883 15.1225 67.3 15.0615C67.3117 15.0006 67.3175 14.9338 67.3175 14.867C67.2854 14.8583 67.2504 14.8525 67.2125 14.8496C67.1746 14.8467 67.1395 14.8467 67.1075 14.8467C67.0754 14.8467 67.0404 14.8467 67.0025 14.8496C66.9645 14.8525 66.9266 14.8583 66.8916 14.867C66.8683 14.9338 66.8508 14.9977 66.842 15.0586C66.8303 15.1196 66.8245 15.1864 66.8274 15.2531C66.8595 15.2589 66.8945 15.2618 66.9325 15.2647Z" fill="#808184"/>
<path d="M67.5946 16.4527C67.5888 16.4904 67.5829 16.5223 67.58 16.5543C67.5771 16.5862 67.5742 16.6152 67.5742 16.6443C67.5742 16.7865 67.615 16.8852 67.6938 16.9462C67.7725 17.0071 67.8921 17.0361 68.0555 17.0361C68.1722 17.0361 68.2714 17.0245 68.356 16.9984C68.3589 16.9839 68.3589 16.9664 68.3589 16.9519V16.9055C68.3589 16.8155 68.3472 16.7401 68.321 16.6849C68.3005 16.6907 68.2772 16.6965 68.2509 16.6994C68.2247 16.7052 68.1955 16.7082 68.1635 16.7082C68.0992 16.7082 68.0555 16.6936 68.0321 16.6646C68.0088 16.6355 67.9972 16.5949 67.9972 16.5456C67.9972 16.5253 68.0001 16.5021 68.003 16.4788C68.0059 16.4556 68.0088 16.4295 68.0118 16.4034L68.1139 15.8315H68.4755C68.493 15.7764 68.5077 15.727 68.5164 15.6777C68.5251 15.6284 68.531 15.5761 68.531 15.5181H68.1693L68.1868 15.4223C68.1955 15.3787 68.2013 15.341 68.2072 15.3032C68.2101 15.2684 68.2131 15.2365 68.2131 15.2045C68.2131 15.161 68.2072 15.1233 68.1984 15.0942C68.1343 15.0942 68.0643 15.1001 67.9884 15.1146C67.9126 15.1291 67.8484 15.1523 67.7988 15.1843C67.7988 15.2133 67.7988 15.2481 67.7959 15.2917C67.793 15.3352 67.7872 15.3816 67.7784 15.431L67.7609 15.5181H67.5363C67.5159 15.5732 67.5013 15.6284 67.4925 15.6777C67.4838 15.727 67.4808 15.7793 67.4808 15.8315H67.7054L67.5946 16.4527Z" fill="#808184"/>
<path d="M69.2744 16.4164C69.3677 16.4019 69.4582 16.3815 69.5456 16.3525C69.6302 16.3264 69.709 16.2886 69.7761 16.2451C69.8432 16.2015 69.8986 16.1463 69.9394 16.0825C69.9803 16.0186 70.0007 15.9431 70.0007 15.856C70.0007 15.795 69.989 15.7399 69.9657 15.6934C69.9424 15.6469 69.9103 15.6063 69.8695 15.5743C69.8286 15.5424 69.7819 15.5192 69.7265 15.5046C69.6711 15.4901 69.6099 15.4814 69.5456 15.4814C69.4114 15.4814 69.2919 15.5075 69.1839 15.5628C69.076 15.6179 68.9826 15.6905 68.9097 15.7805C68.8339 15.8705 68.7755 15.9751 68.7347 16.0883C68.6939 16.2015 68.6734 16.3176 68.6734 16.4367C68.6734 16.5296 68.688 16.6138 68.7142 16.6893C68.7405 16.7677 68.7813 16.8316 68.8368 16.8838C68.8922 16.939 68.9622 16.9796 69.0468 17.0086C69.1314 17.0377 69.2306 17.0522 69.3502 17.0522C69.3881 17.0522 69.429 17.0493 69.4757 17.0435C69.5223 17.0406 69.569 17.0319 69.6157 17.0232C69.6623 17.0145 69.709 17.0058 69.7528 16.9913C69.7965 16.9796 69.8345 16.9651 69.8665 16.9506C69.8665 16.8896 69.8607 16.8287 69.852 16.7735C69.8403 16.7183 69.8199 16.6719 69.7877 16.6341C69.7207 16.6602 69.6594 16.6835 69.6011 16.698C69.5398 16.7154 69.4727 16.7241 69.3939 16.7241C69.2977 16.7241 69.2219 16.7009 69.1723 16.6545C69.1227 16.6109 69.0906 16.5412 69.0789 16.4483L69.2744 16.4164ZM69.0935 16.1754C69.1052 16.126 69.1227 16.0795 69.146 16.0302C69.1665 15.9837 69.1926 15.9431 69.2248 15.9053C69.2569 15.8676 69.2919 15.8385 69.3356 15.8154C69.3764 15.795 69.4231 15.7834 69.4727 15.7834C69.5136 15.7834 69.5456 15.795 69.5719 15.8183C69.5952 15.8415 69.6069 15.8705 69.6069 15.9083C69.6069 15.9314 69.6011 15.9547 69.5924 15.978C69.5836 16.0012 69.5631 16.0244 69.5369 16.0447C69.5106 16.068 69.4727 16.0883 69.4261 16.1056C69.3794 16.126 69.3181 16.1405 69.2452 16.1522L69.0935 16.1754Z" fill="#808184"/>
<path d="M71.2343 16.0784C71.1964 16.2845 71.1381 16.4412 71.0593 16.5544C70.9806 16.6676 70.893 16.7257 70.7997 16.7257C70.7034 16.7257 70.6567 16.6531 70.6567 16.5109C70.6567 16.4441 70.6655 16.3715 70.6859 16.2902C70.7063 16.2119 70.7355 16.1364 70.7793 16.0667C70.823 15.9971 70.8755 15.939 70.9426 15.8925C71.0068 15.8461 71.0855 15.8229 71.1789 15.8229H71.2285C71.243 15.8257 71.2606 15.8287 71.2781 15.8316L71.2343 16.0784ZM71.7798 15.3206C71.8031 15.1987 71.8148 15.0943 71.8148 15.0101C71.8148 14.9665 71.809 14.9288 71.8003 14.8997C71.7332 14.8882 71.6689 14.8823 71.6135 14.8823C71.5815 14.8823 71.5464 14.8823 71.5027 14.8852C71.4589 14.8882 71.421 14.8939 71.3889 14.8997C71.3918 14.9172 71.3918 14.9317 71.3947 14.9462V15.0014C71.3947 15.0536 71.3918 15.1204 71.383 15.1987C71.3744 15.2771 71.3569 15.3758 71.3364 15.4891C71.3277 15.4891 71.316 15.4891 71.3043 15.4861H71.2635C71.0914 15.4861 70.9426 15.5181 70.8142 15.579C70.6859 15.6429 70.578 15.7271 70.4934 15.8316C70.4058 15.9361 70.3417 16.0551 70.2979 16.1915C70.2542 16.328 70.2308 16.4673 70.2308 16.6125C70.2308 16.746 70.2629 16.8534 70.3271 16.9347C70.3913 17.016 70.4875 17.0566 70.6159 17.0566C70.6742 17.0566 70.7296 17.0479 70.7822 17.0305C70.8347 17.0131 70.8843 16.9899 70.9309 16.9608C70.9747 16.9318 71.0184 16.897 71.0563 16.8563C71.0943 16.8186 71.1264 16.7751 71.1526 16.7315C71.1497 16.7576 71.1468 16.7808 71.1468 16.8041C71.1439 16.8273 71.1439 16.8476 71.1439 16.865C71.1439 16.9086 71.1468 16.9405 71.1497 16.9608C71.1526 16.9812 71.1584 17.0014 71.1614 17.016C71.2285 17.0276 71.2868 17.0334 71.3422 17.0334C71.4035 17.0334 71.4677 17.0276 71.5319 17.016C71.5289 16.9985 71.5289 16.9812 71.5289 16.9666V16.9144C71.5289 16.8621 71.5347 16.7896 71.5435 16.6938C71.5523 16.6009 71.5698 16.4934 71.5902 16.3715L71.7798 15.3206Z" fill="#808184"/>
<path d="M22.8835 2.50391H22.4061V17.7202H22.8835V2.50391Z" fill="#868F9E"/>
<path d="M12.1536 9.75586L9.7901 5.71289H14.5165L12.1536 9.75586Z" fill="#2780BA"/>
<path d="M12.1559 9.75586H7.44501L9.79241 5.71289L12.1559 9.75586Z" fill="#3896D2"/>
<path d="M9.79241 13.7764L7.44501 9.7334H12.1559L9.79241 13.7764Z" fill="#C03B2B"/>
<path d="M9.7923 13.7764H5.08197L7.44489 9.7334L9.7923 13.7764Z" fill="#E64C3B"/>
<path d="M7.02881 9.2416L2.33624 9.24365L4.69239 5.18457L7.02881 9.2416Z" fill="#884B9D"/>
<path d="M7.02881 9.23926L4.67321 13.2993L2.33624 9.24131L7.02881 9.23926Z" fill="#AC7AB4"/>
<path d="M4.69208 5.1857L0 5.18799L2.35559 1.12842L4.69208 5.1857Z" fill="#0EA085"/>
<path d="M4.69208 5.18457L2.33689 9.24414L0 5.18686L4.69208 5.18457Z" fill="#1CB898"/>
<path d="M7.42937 17.8311L5.08197 13.7891H9.7923L7.42937 17.8311Z" fill="#F29B20"/>
<path d="M7.42932 17.8311H2.71899L5.08192 13.7891L7.42932 17.8311Z" fill="#EEC319"/>
<path d="M14.516 5.7002L12.1531 1.65771H16.8775L14.516 5.7002Z" fill="#0B1C3C"/>
<path d="M14.5165 5.7002H9.7901L12.1536 1.65771L14.5165 5.7002Z" fill="#3E4965"/>
</svg>
