<svg id="Layer_1" data-name="Layer 1" xmlns="http://www.w3.org/2000/svg" xmlns:xlink="http://www.w3.org/1999/xlink" viewBox="0 0 84 100"><defs><style>.cls-1{fill:none;}.cls-2{clip-path:url(#clip-path);}.cls-3{fill:#042365;}.cls-4{fill:#c00;}.cls-5{fill:#fff;}</style><clipPath id="clip-path"><rect class="cls-1" width="83.33" height="100"/></clipPath></defs><g class="cls-2"><path class="cls-3" d="M74.09,92.27a2.43,2.43,0,0,1-2.37,1.81c-.34,0-.77-.06-.93.23a.72.72,0,0,0-.07.38l0,3a2.54,2.54,0,0,1-.31,1.52,2.47,2.47,0,0,1-2.08.76c-.92,0-2-.16-2.43-1a2.57,2.57,0,0,1-.18-1.17l0-3.22a.62.62,0,0,0-.16-.51.65.65,0,0,0-.36-.07h-8a2.44,2.44,0,0,1-1.86-.52,1.9,1.9,0,0,1-.29-1.74c.1-.41.26-.8.37-1.2s.19-.84.3-1.25l.74-2.71L58,81.23l1.47-5.41.31-1.11a3.5,3.5,0,0,1,.78-1.66c.91-.89,2.43-.54,3.47-.08a1.94,1.94,0,0,1,1,.82,2,2,0,0,1,0,1.46L61.46,89c0,.15-.07.34,0,.44a.4.4,0,0,0,.3.07h3.5a.34.34,0,0,0,.2,0,.4.4,0,0,0,.18-.1.38.38,0,0,0,.09-.18.34.34,0,0,0,0-.2l0-2.69A2.94,2.94,0,0,1,65.94,85c.45-.88,1.64-1,2.63-1a2.34,2.34,0,0,1,1.92.78,2.47,2.47,0,0,1,.27,1.4l0,2.67a.6.6,0,0,0,0,.35c.16.27.55.22.87.2a2.42,2.42,0,0,1,2.52,2.26A1.91,1.91,0,0,1,74.09,92.27Z"/><path class="cls-3" d="M28.18,92.58a2.32,2.32,0,0,1-2.09,1.52c-.33,0-.73-.06-.93.2a1.05,1.05,0,0,0-.12.61l.05,2.64a2.78,2.78,0,0,1-.39,1.81A2.29,2.29,0,0,1,23,100a2.58,2.58,0,0,1-2.44-.83,3,3,0,0,1-.29-1.65l0-2.88a.47.47,0,0,0-.59-.57H12.26c-.79,0-1.72-.09-2.11-.8a2.43,2.43,0,0,1,0-1.72l.94-3.6.94-3.61L13,80.72c.31-1.18.6-2.38.91-3.56.25-1,.52-1.94.82-2.91a3,3,0,0,1,.53-1.13,2,2,0,0,1,1.6-.62,5.18,5.18,0,0,1,1.7.46,2.1,2.1,0,0,1,.81.49,2.35,2.35,0,0,1,.16,2.08L16.19,89a.58.58,0,0,0,0,.19.39.39,0,0,0,0,.18c.08.12.25.12.38.12h3.21a.53.53,0,0,0,.46-.15.56.56,0,0,0,.06-.34l0-2.66a3.12,3.12,0,0,1,.15-1.18,1.83,1.83,0,0,1,1.3-1,4.8,4.8,0,0,1,1.69,0,2,2,0,0,1,1.32.58,2.21,2.21,0,0,1,.32,1.44l0,2.68a.93.93,0,0,0,.08.44c.17.28.57.23.89.21a2.34,2.34,0,0,1,2.32,2.26A2.09,2.09,0,0,1,28.18,92.58Z"/><path class="cls-4" d="M52.5,86.7v1.65a4.63,4.63,0,0,0-.1.65,10.35,10.35,0,0,1-2.54,5.57A10.57,10.57,0,0,1,39,98a10.24,10.24,0,0,1-5.9-3.84A10.62,10.62,0,0,1,31,85.48a10.29,10.29,0,0,1,2.43-5,10.72,10.72,0,0,1,6.59-3.65,6.83,6.83,0,0,0,.77-.12h1.61s.07,0,.11,0a7.39,7.39,0,0,1,1.15.15,10.61,10.61,0,0,1,5.15,2.54,10.74,10.74,0,0,1,3.54,6.49A5.79,5.79,0,0,0,52.5,86.7Z"/><path class="cls-5" d="M35.25,93.33H33.66a.28.28,0,0,1-.26-.13,9.92,9.92,0,0,1-1.59-3.86A8.83,8.83,0,0,1,31.67,88a.22.22,0,0,1,0-.14.24.24,0,0,1,.1-.1l2.61-1.86a.16.16,0,0,1,.11,0,.16.16,0,0,1,.12,0l3.3,1.05a.22.22,0,0,1,.17.17c.35,1.05.69,2.11,1,3.17a.19.19,0,0,1,0,.13.21.21,0,0,1,0,.12c-.68.9-1.36,1.81-2,2.72a.22.22,0,0,1-.11.1.22.22,0,0,1-.14,0Z"/><path class="cls-5" d="M48.1,93.33H46.51a.21.21,0,0,1-.15,0,.23.23,0,0,1-.12-.1c-.66-.9-1.33-1.81-2-2.71a.27.27,0,0,1-.06-.12.22.22,0,0,1,0-.14c.35-1,.7-2.1,1-3.16A.19.19,0,0,1,45.3,87a.41.41,0,0,1,.11-.07l3.28-1a.2.2,0,0,1,.13,0,.17.17,0,0,1,.12,0l2.6,1.85a.27.27,0,0,1,.13.24,9.81,9.81,0,0,1-1.77,5.27.2.2,0,0,1-.2.08Z"/><path class="cls-5" d="M41.66,81.61V83.4a.28.28,0,0,1-.14.28l-3,2.09a.26.26,0,0,1-.13.06.22.22,0,0,1-.14,0l-3.6-1.12a.19.19,0,0,1-.12-.07.25.25,0,0,1-.08-.12c-.36-1.07-.73-2.15-1.1-3.22a.22.22,0,0,1,0-.14A.27.27,0,0,1,33.4,81a11.25,11.25,0,0,1,5-3.49.29.29,0,0,1,.32,0l2.83,2a.25.25,0,0,1,.11.12.26.26,0,0,1,0,.15C41.66,80.42,41.66,81,41.66,81.61Z"/><path class="cls-5" d="M42.5,81.63V79.82a.4.4,0,0,1,0-.15.2.2,0,0,1,.09-.11c.86-.66,1.71-1.33,2.56-2a.23.23,0,0,1,.27,0A10.08,10.08,0,0,1,49.94,81a.34.34,0,0,1,.06.12.57.57,0,0,1,0,.13c-.34,1.08-.67,2.16-1,3.24a.25.25,0,0,1-.19.18l-3.23,1.12a.17.17,0,0,1-.12,0,.22.22,0,0,1-.11,0l-2.72-2.11a.29.29,0,0,1-.12-.26Z"/><path class="cls-5" d="M41.66,90.84h1.75a.33.33,0,0,1,.15,0,.22.22,0,0,1,.11.1l2.11,2.73a.31.31,0,0,1,0,.1.25.25,0,0,1,0,.12l-1,3c0,.11-.11.14-.21.17a11,11,0,0,1-3.56.36,10.54,10.54,0,0,1-2.29-.38.2.2,0,0,1-.09,0,.19.19,0,0,1,0-.09c-.35-1-.7-2-1.06-3.07a.34.34,0,0,1,0-.1.16.16,0,0,1,0-.09l2.13-2.76a.25.25,0,0,1,.24-.11Z"/><path class="cls-4" d="M83.33,58.56v3.61c-.25.11-.18.35-.23.55A9.55,9.55,0,0,1,74.23,70c-21.71,0-43.43.07-65.13,0A9.44,9.44,0,0,1,.19,58.5c.46-2.33,1.87-4.26,3.11-6.21,10.07-16,20.23-31.89,30.14-48A8.72,8.72,0,0,1,38.18.57C38.77.36,39.37.19,40,0H43.4c.09.06.16.16.25.17a9.42,9.42,0,0,1,6.63,4.66c7.95,12.92,16.07,25.74,24.16,38.56C77.56,48.35,81.09,53.09,83.33,58.56Z"/><path class="cls-5" d="M38.47,31.76c0-3.93,0-7.85,0-11.78,0-.76.22-.93.95-.9,1.56.05,3.13,0,4.7,0,.55,0,.8.06.8.72q0,12,0,24.07c0,.59-.2.7-.73.69-1.63,0-3.27-.05-4.91,0-.69,0-.8-.21-.8-.83C38.49,39.75,38.47,35.75,38.47,31.76Z"/><path class="cls-5" d="M41.57,57.24c-1,0-2.37.49-3-.16s-.16-1.89-.14-2.87-.47-2.53.22-3.13,2-.18,3.09-.15,2.37-.45,3,.2.17,1.88.14,2.87.48,2.53-.21,3.13S42.64,57.24,41.57,57.24Z"/></g></svg>