<svg width="78" height="20" viewBox="0 0 78 20" fill="none" xmlns="http://www.w3.org/2000/svg">
<path d="M31.2185 4.38556C31.5023 4.32859 31.7671 4.2906 31.9941 4.27161C32.2022 4.27161 32.4103 4.27161 32.5995 4.27161C32.8454 4.27161 33.1102 4.27161 33.3751 4.2906C33.6399 4.30959 33.8859 4.32859 34.0939 4.38556L36.137 12.9514L38.4449 4.38556C38.8611 4.30959 39.2962 4.27161 39.7313 4.27161C39.9205 4.27161 40.1286 4.27161 40.3367 4.27161C40.5448 4.2906 40.8096 4.32859 41.1312 4.38556L37.4801 16.5221C37.3288 16.9969 37.1586 17.3958 36.9505 17.7187C36.7424 18.0415 36.4964 18.2884 36.2316 18.4594C35.9668 18.6303 35.6641 18.7633 35.3425 18.8392C35.0209 18.8962 34.6615 18.9342 34.2831 18.9342C33.9237 18.9342 33.621 18.9152 33.3372 18.8772C33.0535 18.8202 32.7697 18.7633 32.486 18.6873C32.4671 18.6303 32.4671 18.5733 32.4671 18.5353V18.3834C32.4671 18.0795 32.5049 17.7946 32.5806 17.5287C32.6373 17.2438 32.7319 16.9779 32.8265 16.731C32.94 16.769 33.0913 16.807 33.2805 16.845C33.4697 16.864 33.6588 16.883 33.848 16.883C33.9994 16.883 34.1507 16.883 34.302 16.864C34.4534 16.845 34.6047 16.788 34.756 16.693C34.8885 16.5981 35.0209 16.4461 35.1533 16.2372C35.2857 16.0283 35.3992 15.7434 35.4938 15.3825L35.8154 14.2049C35.683 14.2239 35.5317 14.2239 35.3614 14.2429C35.1911 14.2429 35.002 14.2429 34.8317 14.2429H34.4345C34.302 14.2429 34.1885 14.2239 34.0939 14.2049L31.2185 4.38556Z" fill="#101829"/>
<path d="M42.436 4.38563C42.8901 4.30965 43.3441 4.27167 43.7792 4.27167C44.2143 4.27167 44.6683 4.30965 45.1223 4.38563V9.58971C45.1223 10.1025 45.1601 10.5394 45.2547 10.8622C45.3304 11.2041 45.4628 11.47 45.6331 11.6599C45.8033 11.8689 46.0114 12.0018 46.2573 12.0778C46.5033 12.1728 46.8059 12.2107 47.1465 12.2107C47.6194 12.2107 47.9977 12.1728 48.3193 12.0778V4.38563C48.7733 4.30965 49.2084 4.27167 49.6435 4.27167C50.0786 4.27167 50.5327 4.30965 50.9867 4.38563V13.8251C50.5894 13.9581 50.0408 14.091 49.3976 14.243C48.7166 14.3759 48.0356 14.4329 47.3167 14.4329C46.6735 14.4329 46.0492 14.3759 45.4628 14.281C44.8764 14.186 44.3467 13.9581 43.9116 13.6352C43.4576 13.3123 43.0981 12.8185 42.8333 12.1917C42.5685 11.565 42.436 10.7103 42.436 9.66568V4.38563Z" fill="#101829"/>
<path d="M59.2902 0.320734C59.5172 0.282748 59.7442 0.263755 59.9712 0.244762C60.1793 0.225769 60.4063 0.225769 60.6144 0.225769C60.8225 0.225769 61.0495 0.225769 61.2765 0.244762C61.5035 0.263755 61.7305 0.282748 61.9575 0.320734V13.8817C61.3711 14.0527 60.7657 14.2046 60.1604 14.2996C59.5361 14.3945 58.7983 14.4325 57.9281 14.4325C57.266 14.4325 56.6228 14.3376 56.0175 14.1476C55.3932 13.9767 54.8635 13.6728 54.3906 13.274C53.9177 12.8751 53.5582 12.3623 53.2934 11.7355C53.0096 11.1088 52.8772 10.33 52.8772 9.41838C52.8772 8.69665 52.9907 8.0129 53.2366 7.36714C53.4636 6.74037 53.8041 6.18957 54.2392 5.71475C54.6554 5.23992 55.1851 4.87905 55.8094 4.59416C56.4337 4.32826 57.1147 4.19531 57.8714 4.19531C58.0984 4.19531 58.3443 4.19531 58.5902 4.2143C58.8362 4.23329 59.0632 4.29027 59.2902 4.34725V0.320734ZM59.2902 6.41749C59.0443 6.36051 58.8362 6.30353 58.6848 6.28454C58.5146 6.26554 58.3254 6.26554 58.0795 6.26554C57.6633 6.26554 57.3039 6.36051 57.0012 6.51245C56.6796 6.68339 56.4337 6.91131 56.2256 7.1962C56.0175 7.4811 55.8851 7.82297 55.7905 8.20283C55.6959 8.60168 55.6391 9.00054 55.6391 9.41838C55.6391 9.93119 55.6959 10.368 55.8283 10.7289C55.9607 11.0898 56.131 11.3937 56.358 11.6026C56.5661 11.8115 56.8309 11.9824 57.1336 12.0584C57.4363 12.1534 57.7579 12.2104 58.1173 12.2104C58.3254 12.2104 58.5335 12.1914 58.7037 12.1724C58.874 12.1534 59.0821 12.1154 59.2902 12.0584V6.41749Z" fill="#101829"/>
<path d="M65.0804 6.43541H63.813C63.7751 6.26447 63.7562 6.09354 63.7373 5.90361C63.6995 5.73267 63.6995 5.56173 63.6995 5.3908C63.6995 5.04892 63.7373 4.70705 63.813 4.38417H67.7099V14.2035C67.2559 14.2795 66.8208 14.3175 66.3857 14.3175C65.9695 14.3175 65.5344 14.2795 65.0804 14.2035V6.43541ZM64.6832 2.73178C64.6075 2.29494 64.5697 1.87709 64.5697 1.45924C64.5697 1.06039 64.6075 0.623552 64.6832 0.186713C64.8913 0.148727 65.1183 0.129734 65.3831 0.0917478C65.629 0.0727548 65.8371 0.0727539 66.0452 0.0727539C66.2533 0.0727539 66.4992 0.0727548 66.7452 0.0917478C66.9911 0.129734 67.237 0.148727 67.4451 0.186713C67.4829 0.395636 67.5018 0.604559 67.5208 0.813482C67.5397 1.0224 67.5397 1.25032 67.5397 1.45924C67.5397 1.66817 67.5397 1.87709 67.5208 2.08601C67.5018 2.29494 67.4829 2.52285 67.4451 2.73178C67.237 2.76976 67.01 2.78875 66.7641 2.80775C66.4992 2.82674 66.2722 2.82674 66.0641 2.82674C65.856 2.82674 65.629 2.82674 65.3831 2.80775C65.1372 2.78875 64.8913 2.76976 64.6832 2.73178Z" fill="#101829"/>
<path d="M69.5439 13.9779L73.9517 6.45665H70.2061C70.1682 6.26672 70.1493 6.07679 70.1304 5.90585C70.1115 5.73492 70.1115 5.54499 70.1115 5.37405C70.1115 5.20311 70.1115 5.05117 70.1304 4.88023C70.1493 4.72829 70.1682 4.55735 70.2061 4.38641H77.9054L78 4.61433L73.5166 12.1356H77.6784C77.7162 12.3255 77.7352 12.5154 77.7541 12.6864C77.773 12.8573 77.773 13.0472 77.773 13.2182C77.773 13.3891 77.773 13.541 77.7541 13.693C77.7352 13.8639 77.7162 14.0349 77.6784 14.2058H69.6953L69.5439 13.9779Z" fill="#101829"/>
<path d="M41.5217 18.3383C41.6141 18.3717 41.7103 18.4014 41.8101 18.4274C41.9063 18.4534 41.9987 18.4645 42.0912 18.4645C42.1688 18.4645 42.2391 18.4571 42.3056 18.4385C42.3685 18.42 42.4277 18.394 42.4757 18.3606C42.5238 18.3272 42.5608 18.2826 42.5867 18.2343C42.6126 18.1861 42.6274 18.1267 42.6274 18.0598C42.6274 18.0116 42.6163 17.967 42.5941 17.9299C42.5719 17.8928 42.5423 17.8594 42.509 17.8297C42.4757 17.8 42.4351 17.7703 42.387 17.7443C42.3389 17.7183 42.2945 17.6923 42.2465 17.6626C42.0875 17.5698 41.9654 17.4695 41.873 17.3693C41.7805 17.2691 41.7325 17.154 41.7325 17.0166C41.7325 16.8829 41.7547 16.7641 41.8027 16.6565C41.8508 16.5525 41.9174 16.4634 42.0024 16.3929C42.0875 16.3223 42.1947 16.2666 42.3167 16.2258C42.4388 16.1887 42.5756 16.1701 42.7272 16.1701C42.864 16.1701 42.9787 16.1812 43.0785 16.1998C43.1783 16.2184 43.2819 16.2518 43.3891 16.2926C43.378 16.3595 43.3632 16.43 43.3373 16.5042C43.3115 16.5785 43.2782 16.6528 43.2338 16.7233C43.1635 16.6899 43.0896 16.6602 43.0156 16.6379C42.938 16.6156 42.8418 16.6045 42.7198 16.6045C42.6754 16.6045 42.6274 16.6082 42.5793 16.6156C42.5275 16.623 42.4831 16.6379 42.4425 16.6565C42.4018 16.6787 42.3648 16.7084 42.3389 16.7456C42.313 16.7827 42.2982 16.831 42.2982 16.8904C42.2982 16.9758 42.3278 17.0426 42.3907 17.0983C42.4499 17.154 42.5275 17.2059 42.62 17.2616C42.705 17.3099 42.7827 17.3544 42.8529 17.4027C42.9232 17.451 42.9861 17.4992 43.0415 17.5549C43.097 17.6106 43.1377 17.67 43.1709 17.7368C43.2005 17.8074 43.2153 17.8854 43.2153 17.9745C43.2153 18.1007 43.1931 18.2232 43.1488 18.3383C43.1007 18.4534 43.0304 18.5573 42.938 18.6427C42.8418 18.7281 42.7198 18.7987 42.5756 18.8506C42.4314 18.9026 42.2576 18.9286 42.0579 18.9286C41.8249 18.9286 41.5993 18.8841 41.3738 18.7987C41.3849 18.7244 41.4034 18.6502 41.4292 18.5722C41.4514 18.4979 41.4847 18.42 41.5217 18.3383Z" fill="#797B79"/>
<path d="M44.3712 18.9247C44.116 18.9247 43.9311 18.8579 43.8128 18.7242C43.6908 18.5905 43.6316 18.4086 43.6316 18.1747C43.6316 18.0262 43.6538 17.8777 43.6982 17.7255C43.7425 17.577 43.8091 17.4433 43.8978 17.3208C43.9866 17.202 44.0975 17.1055 44.2343 17.0275C44.3675 16.9533 44.5228 16.9161 44.704 16.9161C44.9591 16.9161 45.1477 16.983 45.2697 17.1203C45.3881 17.2577 45.4472 17.4396 45.4472 17.6735C45.4472 17.8257 45.4251 17.978 45.3844 18.1265C45.34 18.275 45.2734 18.4086 45.1847 18.5274C45.0959 18.6462 44.985 18.7428 44.8482 18.8133C44.7114 18.8876 44.5524 18.9247 44.3712 18.9247ZM44.4192 18.5237C44.5117 18.5237 44.593 18.494 44.6559 18.4346C44.7188 18.3752 44.7742 18.301 44.8149 18.2119C44.8556 18.1265 44.8815 18.0336 44.9 17.9334C44.9185 17.8369 44.9258 17.7478 44.9258 17.6698C44.9258 17.4433 44.8334 17.3282 44.6485 17.3282C44.5561 17.3282 44.4784 17.3579 44.4155 17.4211C44.3527 17.4842 44.3046 17.5584 44.2639 17.6475C44.2233 17.7366 44.1974 17.8295 44.1826 17.9297C44.1641 18.0299 44.1567 18.1153 44.1567 18.1933C44.1567 18.4123 44.2454 18.5237 44.4192 18.5237Z" fill="#797B79"/>
<path d="M46.164 16.8935C46.1899 16.7636 46.2121 16.6485 46.2232 16.5483C46.2342 16.4517 46.2379 16.37 46.2379 16.3032C46.2379 16.2772 46.2379 16.255 46.2379 16.2327C46.2342 16.2141 46.2342 16.1956 46.2305 16.1733C46.2712 16.1659 46.3193 16.1584 46.3748 16.1547C46.4302 16.151 46.4746 16.151 46.5153 16.151C46.5855 16.151 46.6669 16.1584 46.7519 16.1733C46.763 16.2104 46.7704 16.2587 46.7704 16.3144C46.7704 16.3663 46.7667 16.4257 46.7556 16.4926C46.7446 16.5594 46.7335 16.6336 46.7187 16.7116L46.4339 18.2041C46.4265 18.2449 46.4228 18.2821 46.4228 18.3081C46.4228 18.3489 46.4302 18.3786 46.4413 18.4009C46.4524 18.4231 46.4635 18.4417 46.482 18.4528C46.5005 18.464 46.519 18.4714 46.5412 18.4751C46.5634 18.4788 46.5855 18.4826 46.6077 18.4826C46.6188 18.4826 46.6373 18.4788 46.6632 18.4751C46.6891 18.4714 46.715 18.4677 46.7372 18.4603C46.7483 18.5011 46.7593 18.5494 46.7704 18.5976C46.7778 18.6459 46.7815 18.6979 46.7815 18.7499C46.7815 18.7684 46.7815 18.787 46.7815 18.8056C46.7778 18.8241 46.7778 18.8427 46.7741 18.8612C46.7372 18.8761 46.6891 18.8872 46.6299 18.8984C46.5708 18.9058 46.5042 18.9095 46.4339 18.9095C46.2675 18.9095 46.1344 18.8687 46.0383 18.7833C45.9421 18.7016 45.894 18.5717 45.894 18.3934C45.894 18.36 45.8977 18.3229 45.9014 18.2821C45.9051 18.2449 45.9125 18.2041 45.9199 18.1633L46.164 16.8935Z" fill="#797B79"/>
<path d="M47.497 16.9671C47.545 16.9597 47.5894 16.9522 47.6375 16.9485C47.6818 16.9448 47.7262 16.9448 47.7669 16.9448C47.8519 16.9448 47.937 16.9522 48.0221 16.9671L47.815 18.144C47.8039 18.1923 47.8002 18.2405 47.8002 18.2851C47.8002 18.3593 47.815 18.4113 47.8483 18.441C47.8815 18.4707 47.9259 18.4856 47.9851 18.4856C48.0184 18.4856 48.059 18.4782 48.1034 18.4596C48.1441 18.441 48.1885 18.4076 48.2328 18.3482C48.2772 18.2925 48.3216 18.2146 48.3623 18.1143C48.4029 18.0141 48.4399 17.8804 48.4695 17.7133L48.6063 16.9671C48.7025 16.9522 48.7912 16.9448 48.8763 16.9448C48.9613 16.9448 49.0464 16.9522 49.1314 16.9671L48.9317 18.0623C48.9058 18.2183 48.8837 18.3556 48.8726 18.4744C48.8578 18.597 48.8504 18.6898 48.8504 18.7566V18.8234C48.8504 18.842 48.8504 18.8643 48.8541 18.8865C48.7727 18.9014 48.6914 18.9088 48.61 18.9088C48.5398 18.9088 48.4658 18.9014 48.3807 18.8865C48.377 18.868 48.3697 18.842 48.366 18.816C48.3623 18.79 48.3586 18.7492 48.3586 18.6935C48.3586 18.6712 48.3586 18.6489 48.3623 18.6267C48.3623 18.6044 48.366 18.5784 48.3697 18.545C48.3401 18.597 48.3031 18.6452 48.2587 18.6935C48.2143 18.7418 48.1626 18.7826 48.1071 18.816C48.0516 18.8494 47.9888 18.8791 47.9259 18.8977C47.8593 18.9162 47.7928 18.9274 47.7262 18.9274C47.5783 18.9274 47.4637 18.8903 47.3823 18.8123C47.2973 18.738 47.2566 18.6118 47.2566 18.4373C47.2566 18.4002 47.2603 18.3593 47.264 18.3185C47.2677 18.2777 47.2751 18.2331 47.2825 18.1849L47.497 16.9671Z" fill="#797B79"/>
<path d="M49.7894 17.3618H49.5046C49.5046 17.295 49.5083 17.2282 49.5194 17.1651C49.5305 17.102 49.549 17.0314 49.5749 16.9609H49.8596L49.8818 16.8495C49.8929 16.7864 49.9003 16.727 49.904 16.6713C49.9077 16.6156 49.9077 16.571 49.9077 16.5339C49.9706 16.4931 50.0519 16.4634 50.1481 16.4448C50.2442 16.4262 50.333 16.4188 50.4143 16.4188C50.4254 16.4559 50.4328 16.5042 50.4328 16.5599C50.4328 16.6007 50.4291 16.6416 50.4254 16.6861C50.418 16.7344 50.4106 16.7827 50.3995 16.8384L50.3773 16.9609H50.8359C50.8359 17.0351 50.8285 17.102 50.8174 17.1651C50.8063 17.2282 50.7878 17.2913 50.7656 17.3618H50.3071L50.1777 18.0932C50.174 18.1266 50.1703 18.1601 50.1666 18.1898C50.1629 18.2195 50.1592 18.2492 50.1592 18.2752C50.1592 18.3383 50.174 18.3902 50.2035 18.4274C50.2331 18.4645 50.2886 18.4831 50.3699 18.4831C50.4106 18.4831 50.4476 18.4793 50.4809 18.4719C50.5142 18.4682 50.5437 18.4608 50.5696 18.4534C50.6029 18.5239 50.6177 18.6204 50.6177 18.7355V18.7949C50.6177 18.8135 50.6177 18.8358 50.614 18.8543C50.5068 18.8877 50.381 18.9026 50.2331 18.9026C50.026 18.9026 49.8744 18.8655 49.7746 18.7875C49.6747 18.7095 49.623 18.5833 49.623 18.4014C49.623 18.3643 49.6267 18.3271 49.6304 18.2863C49.6341 18.2455 49.6415 18.2046 49.6489 18.1563L49.7894 17.3618Z" fill="#797B79"/>
<path d="M51.3952 17.366H51.1622L51.1585 17.3177C51.1585 17.2546 51.1659 17.1915 51.177 17.1358C51.1881 17.0801 51.2066 17.0244 51.2324 16.965H51.9794L51.6429 18.8845C51.5505 18.8993 51.4617 18.9067 51.3767 18.9067C51.299 18.9067 51.2177 18.8993 51.1289 18.8845L51.3952 17.366ZM51.5024 16.642C51.4987 16.5566 51.5061 16.4712 51.5209 16.3933C51.532 16.3153 51.5542 16.2336 51.5837 16.1482C51.6281 16.1371 51.6762 16.1334 51.7243 16.126C51.7723 16.1223 51.8167 16.1223 51.8574 16.1223C51.8981 16.1223 51.9424 16.1223 51.9905 16.126C52.0386 16.1334 52.083 16.1371 52.1236 16.1482C52.1236 16.2336 52.1162 16.319 52.1014 16.397C52.0867 16.475 52.0645 16.5566 52.0349 16.642C51.9905 16.6495 51.9461 16.6532 51.8981 16.6569C51.85 16.6606 51.8056 16.6606 51.7649 16.6606C51.728 16.6606 51.6836 16.6606 51.6355 16.6569C51.5874 16.6532 51.5431 16.6495 51.5024 16.642Z" fill="#797B79"/>
<path d="M53.0975 18.9247C52.8423 18.9247 52.6574 18.8579 52.5391 18.7243C52.4171 18.5906 52.3579 18.4087 52.3579 18.1748C52.3579 18.0263 52.3801 17.8778 52.4245 17.7256C52.4688 17.5771 52.5354 17.4434 52.6242 17.3209C52.7129 17.2021 52.8238 17.1055 52.9607 17.0276C53.0938 16.9533 53.2491 16.9162 53.4303 16.9162C53.6854 16.9162 53.874 16.983 53.9961 17.1204C54.1144 17.2578 54.1736 17.4397 54.1736 17.6736C54.1736 17.8258 54.1514 17.978 54.1107 18.1265C54.0663 18.275 53.9998 18.4087 53.911 18.5275C53.8223 18.6463 53.7113 18.7428 53.5745 18.8134C53.4377 18.8876 53.2787 18.9247 53.0975 18.9247ZM53.1456 18.5238C53.238 18.5238 53.3194 18.4941 53.3822 18.4347C53.4451 18.3753 53.5006 18.301 53.5412 18.2119C53.5819 18.1265 53.6078 18.0337 53.6263 17.9335C53.6448 17.8369 53.6522 17.7478 53.6522 17.6699C53.6522 17.4434 53.5597 17.3283 53.3748 17.3283C53.2824 17.3283 53.2047 17.358 53.1419 17.4211C53.079 17.4842 53.0309 17.5585 52.9902 17.6476C52.9496 17.7367 52.9237 17.8295 52.9089 17.9298C52.8904 18.03 52.883 18.1154 52.883 18.1934C52.883 18.4124 52.9718 18.5238 53.1456 18.5238Z" fill="#797B79"/>
<path d="M54.7536 17.7908C54.7795 17.6348 54.8017 17.4975 54.8165 17.375C54.8276 17.2561 54.835 17.1633 54.835 17.0965V17.026C54.835 17.0074 54.835 16.9888 54.8313 16.9666C54.9126 16.9517 54.994 16.9443 55.0754 16.9443C55.1123 16.9443 55.1493 16.9443 55.1863 16.948C55.2233 16.9517 55.2639 16.9591 55.3046 16.9666C55.3083 16.9851 55.3157 17.0111 55.3194 17.0371C55.3231 17.0631 55.3268 17.1039 55.3268 17.1596C55.3268 17.1819 55.3268 17.2042 55.3268 17.2264C55.3231 17.2487 55.3194 17.2747 55.3157 17.3081C55.3453 17.2561 55.3823 17.2079 55.4267 17.1596C55.471 17.1114 55.5228 17.0705 55.5783 17.0371C55.6337 17.0037 55.6966 16.974 55.7632 16.9554C55.826 16.9369 55.8926 16.9257 55.9591 16.9257C56.1071 16.9257 56.2217 16.9628 56.3067 17.0371C56.3881 17.1151 56.4288 17.2413 56.4288 17.4158C56.4288 17.4529 56.4251 17.4938 56.4214 17.5346C56.4177 17.5754 56.4103 17.62 56.4029 17.6683L56.1884 18.886C56.096 18.9009 56.0035 18.9083 55.9185 18.9083C55.8334 18.9083 55.7484 18.9009 55.6633 18.886L55.8704 17.7091C55.8815 17.6608 55.8852 17.6126 55.8852 17.568C55.8852 17.4938 55.8704 17.4418 55.8371 17.4121C55.8038 17.3824 55.7595 17.3675 55.7003 17.3675C55.667 17.3675 55.6263 17.375 55.5857 17.3935C55.5413 17.4121 55.4969 17.4455 55.4525 17.5012C55.4082 17.5569 55.3638 17.6386 55.3231 17.7388C55.2824 17.839 55.2455 17.9727 55.2159 18.1398L55.0791 18.886C54.9829 18.9009 54.8942 18.9083 54.8091 18.9083C54.7241 18.9083 54.639 18.9009 54.554 18.886L54.7536 17.7908Z" fill="#797B79"/>
<path d="M57.3624 18.0336C57.3217 18.0188 57.2848 18.0002 57.2441 17.9742C57.2034 17.952 57.1701 17.9223 57.1368 17.8851C57.0999 17.8517 57.074 17.8072 57.0555 17.7552C57.0333 17.7032 57.0222 17.6401 57.0222 17.5696C57.0222 17.4656 57.0444 17.3728 57.0851 17.2911C57.1221 17.2132 57.1812 17.1426 57.2552 17.0869C57.3254 17.0312 57.4105 16.9904 57.5103 16.9607C57.6065 16.931 57.71 16.9161 57.8247 16.9161C57.8653 16.9161 57.906 16.9161 57.9541 16.9199C58.0021 16.9236 58.0502 16.931 58.0983 16.9384C58.1464 16.9458 58.1907 16.957 58.2388 16.9681C58.2832 16.983 58.3239 17.0015 58.3608 17.0201C58.3571 17.0832 58.3461 17.1463 58.3276 17.2094C58.3091 17.2763 58.2758 17.3394 58.2351 17.4025C58.1833 17.3765 58.1205 17.3542 58.0465 17.3357C57.9726 17.3171 57.9023 17.3097 57.8357 17.3097C57.8099 17.3097 57.7803 17.3134 57.747 17.3171C57.7137 17.3208 57.6804 17.332 57.6509 17.3431C57.6213 17.3542 57.5954 17.3728 57.5769 17.3988C57.5584 17.4248 57.5473 17.4545 57.5473 17.4916C57.5473 17.5659 57.5954 17.6253 57.6878 17.6661L57.832 17.7292C57.8801 17.7478 57.9245 17.77 57.9689 17.796C58.0132 17.822 58.0539 17.8554 58.0872 17.8926C58.1205 17.9297 58.1501 17.9742 58.1723 18.0225C58.1907 18.0708 58.2018 18.1302 58.2018 18.197C58.2018 18.3195 58.1759 18.4272 58.1279 18.5163C58.0798 18.6091 58.0132 18.6834 57.9282 18.7428C57.8431 18.8059 57.747 18.8504 57.6324 18.8801C57.5177 18.9098 57.3957 18.9247 57.2663 18.9247C57.1886 18.9247 57.0999 18.9173 57.0037 18.9024C56.9076 18.8838 56.8225 18.8616 56.7449 18.8282C56.7523 18.6834 56.7892 18.5497 56.8558 18.4272C56.9335 18.4606 57.0111 18.4866 57.0925 18.4977C57.1701 18.5126 57.2478 18.52 57.3217 18.52C57.3587 18.52 57.3994 18.5163 57.4401 18.5089C57.4807 18.5014 57.5214 18.4903 57.5547 18.4717C57.588 18.4532 57.6176 18.4309 57.6435 18.3975C57.6656 18.3678 57.6767 18.3307 57.6767 18.2861C57.6767 18.2378 57.6582 18.197 57.625 18.1636C57.5917 18.1339 57.5436 18.1079 57.4807 18.0819L57.3624 18.0336Z" fill="#797B79"/>
<path d="M60.0687 16.2153C60.1612 16.1967 60.2536 16.1893 60.3424 16.1893C60.4274 16.1893 60.5162 16.1967 60.6012 16.2153L60.2166 18.4169H61.0893C61.0893 18.4577 61.0856 18.4985 61.0819 18.5357C61.0782 18.5765 61.0708 18.6136 61.0671 18.6471C61.0597 18.6879 61.0523 18.725 61.0413 18.7621C61.0302 18.803 61.0191 18.8438 61.008 18.8847H59.6028L60.0687 16.2153Z" fill="#797B79"/>
<path d="M61.8888 17.366H61.6558L61.6521 17.3177C61.6521 17.2546 61.6595 17.1915 61.6706 17.1358C61.6817 17.0801 61.7002 17.0244 61.7261 16.965H62.4731L62.1366 18.8845C62.0441 18.8993 61.9554 18.9067 61.8703 18.9067C61.7927 18.9067 61.7113 18.8993 61.6226 18.8845L61.8888 17.366ZM61.996 16.642C61.9923 16.5566 61.9997 16.4712 62.0145 16.3933C62.0256 16.3153 62.0478 16.2336 62.0774 16.1482C62.1218 16.1371 62.1698 16.1334 62.2179 16.126C62.266 16.1223 62.3104 16.1223 62.351 16.1223C62.3917 16.1223 62.4361 16.1223 62.4842 16.126C62.5322 16.1334 62.5766 16.1371 62.6173 16.1482C62.6173 16.2336 62.6099 16.319 62.5951 16.397C62.5803 16.475 62.5581 16.5566 62.5285 16.642C62.4842 16.6495 62.4398 16.6532 62.3917 16.6569C62.3436 16.6606 62.2993 16.6606 62.2586 16.6606C62.2216 16.6606 62.1772 16.6606 62.1292 16.6569C62.0811 16.6532 62.0367 16.6495 61.996 16.642Z" fill="#797B79"/>
<path d="M63.0368 17.7908C63.0627 17.6348 63.0849 17.4975 63.0997 17.375C63.1108 17.2561 63.1182 17.1633 63.1182 17.0965V17.026C63.1182 17.0074 63.1182 16.9888 63.1145 16.9666C63.1959 16.9517 63.2772 16.9443 63.3586 16.9443C63.3955 16.9443 63.4325 16.9443 63.4695 16.948C63.5065 16.9517 63.5471 16.9591 63.5878 16.9666C63.5915 16.9851 63.5989 17.0111 63.6026 17.0371C63.6063 17.0631 63.61 17.1039 63.61 17.1596C63.61 17.1819 63.61 17.2042 63.61 17.2264C63.6063 17.2487 63.6026 17.2747 63.5989 17.3081C63.6544 17.2005 63.7394 17.1114 63.8541 17.0371C63.965 16.9628 64.087 16.9257 64.2239 16.9257C64.3533 16.9257 64.4568 16.9554 64.5308 17.0111C64.601 17.0705 64.6454 17.167 64.6602 17.3007C64.7194 17.1967 64.8044 17.1076 64.9191 17.0334C65.0337 16.9628 65.1557 16.9257 65.2888 16.9257C65.4368 16.9257 65.5477 16.9628 65.6254 17.0334C65.703 17.1076 65.74 17.2302 65.74 17.4009C65.74 17.4863 65.7326 17.5754 65.7141 17.6683L65.4996 18.886C65.4072 18.9009 65.3147 18.9083 65.2297 18.9083C65.1446 18.9083 65.0596 18.9009 64.9745 18.886L65.1816 17.7091C65.1927 17.6534 65.1964 17.5977 65.1964 17.5494C65.1964 17.4826 65.1816 17.4344 65.1557 17.4084C65.1298 17.3824 65.0855 17.3675 65.03 17.3675C64.9967 17.3675 64.9597 17.375 64.9191 17.3935C64.8747 17.4121 64.834 17.4455 64.7933 17.4938C64.7527 17.542 64.712 17.6126 64.675 17.698C64.638 17.7833 64.6084 17.8984 64.5826 18.0358L64.4346 18.886C64.3422 18.9009 64.2497 18.9083 64.1647 18.9083C64.0796 18.9083 63.9946 18.9009 63.9095 18.886L64.1166 17.7091C64.1277 17.6534 64.1314 17.5977 64.1314 17.5494C64.1314 17.4826 64.1166 17.4344 64.0907 17.4084C64.0649 17.3824 64.0205 17.3675 63.965 17.3675C63.9317 17.3675 63.8911 17.375 63.8504 17.3935C63.8097 17.4121 63.7653 17.4455 63.7246 17.5012C63.684 17.5569 63.6433 17.6386 63.6026 17.7388C63.5619 17.839 63.5287 17.9727 63.4991 18.1398L63.3623 18.886C63.2661 18.9009 63.1774 18.9083 63.0923 18.9083C63.0073 18.9083 62.9222 18.9009 62.8372 18.886L63.0368 17.7908Z" fill="#797B79"/>
<path d="M66.5282 17.366H66.2952L66.2915 17.3177C66.2915 17.2546 66.2989 17.1915 66.31 17.1358C66.3211 17.0801 66.3396 17.0244 66.3655 16.965H67.1125L66.776 18.8845C66.6835 18.8993 66.5948 18.9067 66.5097 18.9067C66.4321 18.9067 66.3507 18.8993 66.262 18.8845L66.5282 17.366ZM66.6354 16.642C66.6317 16.5566 66.6391 16.4712 66.6539 16.3933C66.665 16.3153 66.6872 16.2336 66.7168 16.1482C66.7612 16.1371 66.8092 16.1334 66.8573 16.126C66.9054 16.1223 66.9498 16.1223 66.9904 16.1223C67.0311 16.1223 67.0755 16.1223 67.1236 16.126C67.1716 16.1334 67.216 16.1371 67.2567 16.1482C67.2567 16.2336 67.2493 16.319 67.2345 16.397C67.2197 16.475 67.1975 16.5566 67.1679 16.642C67.1236 16.6495 67.0792 16.6532 67.0311 16.6569C66.983 16.6606 66.9387 16.6606 66.898 16.6606C66.861 16.6606 66.8166 16.6606 66.7686 16.6569C66.7205 16.6532 66.6761 16.6495 66.6354 16.642Z" fill="#797B79"/>
<path d="M67.7852 17.3618H67.5005C67.5005 17.295 67.5042 17.2282 67.5153 17.1651C67.5264 17.102 67.5449 17.0314 67.5707 16.9609H67.8555L67.8777 16.8495C67.8888 16.7864 67.8962 16.727 67.8999 16.6713C67.9036 16.6156 67.9036 16.571 67.9036 16.5339C67.9664 16.4931 68.0478 16.4634 68.1439 16.4448C68.2401 16.4262 68.3288 16.4188 68.4102 16.4188C68.4213 16.4559 68.4287 16.5042 68.4287 16.5599C68.4287 16.6007 68.425 16.6416 68.4213 16.6861C68.4139 16.7344 68.4065 16.7827 68.3954 16.8384L68.3732 16.9609H68.8317C68.8317 17.0351 68.8243 17.102 68.8132 17.1651C68.8021 17.2282 68.7836 17.2913 68.7615 17.3618H68.3029L68.1735 18.0932C68.1698 18.1266 68.1661 18.1601 68.1624 18.1898C68.1587 18.2195 68.155 18.2492 68.155 18.2752C68.155 18.3383 68.1698 18.3902 68.1994 18.4274C68.229 18.4645 68.2844 18.4831 68.3658 18.4831C68.4065 18.4831 68.4434 18.4793 68.4767 18.4719C68.51 18.4682 68.5396 18.4608 68.5655 18.4534C68.5988 18.5239 68.6135 18.6204 68.6135 18.7355V18.7949C68.6135 18.8135 68.6135 18.8358 68.6098 18.8543C68.5026 18.8877 68.3769 18.9026 68.229 18.9026C68.0219 18.9026 67.8703 18.8655 67.7704 18.7875C67.6706 18.7095 67.6188 18.5833 67.6188 18.4014C67.6188 18.3643 67.6225 18.3271 67.6262 18.2863C67.6299 18.2455 67.6373 18.2046 67.6447 18.1563L67.7852 17.3618Z" fill="#797B79"/>
<path d="M69.5626 18.1525C69.5774 18.2713 69.6181 18.3604 69.6809 18.4161C69.7438 18.4755 69.8399 18.5052 69.962 18.5052C70.0618 18.5052 70.1469 18.4941 70.2245 18.4718C70.2985 18.4532 70.3761 18.4235 70.4612 18.3901C70.5018 18.4384 70.5277 18.5015 70.5425 18.5683C70.5536 18.6389 70.561 18.7168 70.561 18.7948C70.5203 18.8134 70.4723 18.8319 70.4168 18.8468C70.3613 18.8653 70.3022 18.8765 70.243 18.8913C70.1838 18.9025 70.1247 18.9099 70.0655 18.9173C70.0063 18.921 69.9546 18.9247 69.9065 18.9247C69.7549 18.9247 69.6291 18.9062 69.5219 18.8691C69.411 18.8319 69.3259 18.78 69.2557 18.7094C69.1854 18.6426 69.1299 18.5609 69.1004 18.4607C69.0671 18.3641 69.0486 18.2565 69.0486 18.1377C69.0486 17.9854 69.0745 17.8369 69.1262 17.6921C69.178 17.5474 69.252 17.4137 69.3481 17.2986C69.4406 17.1872 69.5589 17.0907 69.6957 17.0202C69.8325 16.9496 69.9841 16.9162 70.1542 16.9162C70.2356 16.9162 70.3133 16.9273 70.3835 16.9459C70.4501 16.9645 70.5129 16.9979 70.5647 17.035C70.6165 17.0758 70.6572 17.1278 70.6867 17.1872C70.7163 17.2466 70.7311 17.3172 70.7311 17.3951C70.7311 17.5065 70.7052 17.603 70.6535 17.6847C70.6017 17.7664 70.5314 17.8369 70.4464 17.8926C70.3613 17.9483 70.2615 17.9966 70.1542 18.03C70.0433 18.0671 69.9287 18.0931 69.8103 18.1117L69.5626 18.1525ZM69.7734 17.7738C69.8658 17.759 69.9435 17.7404 70.0026 17.7144C70.0618 17.6921 70.1099 17.6662 70.1432 17.6365C70.1764 17.6105 70.2023 17.5808 70.2134 17.5511C70.2245 17.5214 70.2319 17.4917 70.2319 17.462C70.2319 17.4137 70.2171 17.3766 70.1875 17.3469C70.1542 17.3172 70.1136 17.3023 70.0618 17.3023C69.9989 17.3023 69.9398 17.3172 69.888 17.3432C69.8325 17.3729 69.7882 17.41 69.7475 17.4582C69.7068 17.5065 69.6735 17.5585 69.6476 17.6179C69.6181 17.681 69.5959 17.7404 69.5811 17.8035L69.7734 17.7738Z" fill="#797B79"/>
<path d="M72.3861 17.365C72.3639 17.3613 72.3418 17.3576 72.3233 17.3538C72.3011 17.3538 72.2789 17.3538 72.2604 17.3538C72.1421 17.3538 72.0422 17.3835 71.9609 17.4429C71.8758 17.5023 71.8093 17.5766 71.7538 17.6657C71.6983 17.7548 71.6613 17.8513 71.6355 17.9516C71.6096 18.0555 71.5985 18.1484 71.5985 18.2337C71.5985 18.4157 71.6576 18.5085 71.7797 18.5085C71.898 18.5085 72.0089 18.4342 72.1088 18.2894C72.2086 18.1446 72.2826 17.9442 72.3307 17.6806L72.3861 17.365ZM72.7818 18.0555C72.7559 18.2115 72.7337 18.3488 72.7226 18.4676C72.7115 18.5902 72.7041 18.683 72.7041 18.7498V18.8166C72.7041 18.8389 72.7041 18.8575 72.7078 18.8797C72.6265 18.8946 72.5451 18.902 72.4675 18.902C72.3972 18.902 72.3233 18.8946 72.2382 18.8797C72.2345 18.8612 72.2271 18.8352 72.2234 18.8092C72.2197 18.7832 72.216 18.7424 72.216 18.6867C72.216 18.6644 72.216 18.6384 72.2197 18.6087C72.2197 18.579 72.2234 18.5493 72.2271 18.5159C72.1938 18.5716 72.1532 18.6273 72.1051 18.6755C72.0533 18.7275 72.0016 18.7721 71.9461 18.8092C71.8869 18.8463 71.8241 18.876 71.7575 18.8983C71.6909 18.9206 71.6207 18.9317 71.5467 18.9317C71.384 18.9317 71.262 18.8797 71.1806 18.7758C71.0993 18.6718 71.0586 18.5345 71.0586 18.3637C71.0586 18.1781 71.0882 17.9998 71.1436 17.8253C71.1991 17.6509 71.2805 17.4986 71.3914 17.365C71.4986 17.2313 71.6355 17.1237 71.7982 17.042C71.9609 16.964 72.1495 16.9232 72.3676 16.9232L72.4601 16.9269C72.486 16.7821 72.5082 16.6559 72.5193 16.5556C72.5303 16.4554 72.534 16.37 72.534 16.3032C72.534 16.2772 72.534 16.2549 72.534 16.2326C72.5303 16.2141 72.5303 16.1955 72.5266 16.1732C72.5673 16.1658 72.6154 16.1584 72.6709 16.1547C72.7263 16.1509 72.7707 16.1509 72.8114 16.1509C72.8816 16.1509 72.963 16.1584 73.048 16.1732C73.0591 16.2103 73.0665 16.2586 73.0665 16.3143C73.0665 16.422 73.0517 16.5556 73.0222 16.7116L72.7818 18.0555Z" fill="#797B79"/>
<path d="M24.6207 3.20038H24.1069V19.7945H24.6207V3.20038Z" fill="#7E8691"/>
<path fill-rule="evenodd" clip-rule="evenodd" d="M13.0795 11.1095L10.5364 6.70111H15.622L13.0795 11.1095Z" fill="#2F76A6"/>
<path fill-rule="evenodd" clip-rule="evenodd" d="M13.0759 11.1094H8.00708L10.5328 6.70105L13.0759 11.1094Z" fill="#408BBE"/>
<path fill-rule="evenodd" clip-rule="evenodd" d="M10.5328 15.5199L8.00708 11.1104H13.0759L10.5328 15.5199Z" fill="#AE3A2F"/>
<path fill-rule="evenodd" clip-rule="evenodd" d="M10.5366 15.5199H5.46826L8.01084 11.1104L10.5366 15.5199Z" fill="#D4483C"/>
<path fill-rule="evenodd" clip-rule="evenodd" d="M7.55945 10.5516L2.51025 10.5538L5.04538 6.12714L7.55945 10.5516Z" fill="#7B4689"/>
<path fill-rule="evenodd" clip-rule="evenodd" d="M7.55945 10.5557L5.02474 14.9831L2.51025 10.5579L7.55945 10.5557Z" fill="#A172A3"/>
<path fill-rule="evenodd" clip-rule="evenodd" d="M5.04868 6.13311L0 6.13551L2.5347 1.70831L5.04868 6.13311Z" fill="#1B9579"/>
<path fill-rule="evenodd" clip-rule="evenodd" d="M5.04868 6.1272L2.51449 10.5547L0 6.12961L5.04868 6.1272Z" fill="#2AAE8D"/>
<path fill-rule="evenodd" clip-rule="evenodd" d="M7.99406 19.9274L5.46826 15.5198H10.5366L7.99406 19.9274Z" fill="#E6942F"/>
<path fill-rule="evenodd" clip-rule="evenodd" d="M7.99309 19.9274H2.9248L5.4673 15.5198L7.99309 19.9274Z" fill="#E7BE2A"/>
<path fill-rule="evenodd" clip-rule="evenodd" d="M15.6177 6.70029L13.0752 2.29175H18.1586L15.6177 6.70029Z" fill="#101829"/>
<path fill-rule="evenodd" clip-rule="evenodd" d="M15.622 6.70035H10.5364L13.0795 2.29181L15.622 6.70035Z" fill="#394255"/>
</svg>
