<svg width="24" height="24" viewBox="0 0 24 24" fill="none" xmlns="http://www.w3.org/2000/svg">
<path d="M7.36335 8.84578H3.61162V20.4111H7.36335V8.84578Z" fill="#FD0000"/>
<path d="M17.5824 8.98141C17.5426 8.96893 17.5048 8.95529 17.463 8.94351C17.4125 8.93202 17.3623 8.92242 17.3109 8.91423C17.1118 8.87419 16.8934 8.84581 16.6377 8.84581C14.4506 8.84581 13.0631 10.4409 12.6062 11.0569V8.84578H8.85443V20.4111H12.6062V14.1028C12.6062 14.1028 15.4413 10.1432 16.6377 13.0512V20.4111H20.3884V12.6067C20.3884 10.8591 19.194 9.40301 17.5824 8.98141Z" fill="#FD0000"/>
<path d="M7.28184 5.42877C7.28184 6.4451 6.46014 7.26874 5.44686 7.26874C4.43352 7.26874 3.61185 6.44507 3.61185 5.42877C3.61185 4.41265 4.43352 3.58887 5.44686 3.58887C6.46014 3.58887 7.28184 4.41265 7.28184 5.42877Z" fill="#FD0000"/>
</svg>
