<svg width="24" height="24" viewBox="0 0 24 24" fill="none" xmlns="http://www.w3.org/2000/svg">
<path d="M22.9952 5.17794C22.186 5.5375 21.317 5.78019 20.4033 5.88813C21.3349 5.32988 22.0506 4.44575 22.3881 3.3925C21.5157 3.90881 20.5504 4.28556 19.5226 4.487C18.699 3.61044 17.5261 3.0625 16.2274 3.0625C13.7353 3.0625 11.7161 5.08237 11.7161 7.57456C11.7161 7.92794 11.7552 8.27306 11.8322 8.60306C8.08194 8.41469 4.75719 6.61825 2.53106 3.88819C2.14331 4.55506 1.92056 5.32987 1.92056 6.15694C1.92056 7.72306 2.71738 9.10356 3.92738 9.91344C3.18831 9.88938 2.49256 9.68725 1.88413 9.349C1.88344 9.36756 1.88344 9.3875 1.88344 9.40537C1.88344 11.5923 3.43856 13.4163 5.50313 13.8308C5.125 13.9333 4.72625 13.9889 4.31444 13.9889C4.02294 13.9889 3.74106 13.9607 3.46606 13.9085C4.03944 15.7001 5.70662 17.005 7.68044 17.0421C6.137 18.2521 4.19138 18.9747 2.07731 18.9747C1.71294 18.9747 1.35338 18.9534 1.00069 18.9114C2.99719 20.1902 5.36906 20.9375 7.91763 20.9375C16.2171 20.9375 20.7567 14.0618 20.7567 8.09844C20.7567 7.90319 20.7512 7.70794 20.7429 7.51406C21.625 6.87813 22.3895 6.08406 22.9952 5.17794Z" fill="#FD0000"/>
</svg>
