<svg width="24" height="24" viewBox="0 0 24 24" fill="none" xmlns="http://www.w3.org/2000/svg">
<path fill-rule="evenodd" clip-rule="evenodd" d="M19.6279 4.41881C20.9684 4.49461 21.6271 4.69345 22.2338 5.77575C22.8656 6.85669 23.1846 8.71837 23.1845 11.9971V12.0083C23.1845 15.2719 22.8655 17.1475 22.2351 18.2172C21.6282 19.2993 20.97 19.4958 19.6291 19.5868C18.2884 19.6639 14.9204 19.7102 12.0029 19.7102C9.07946 19.7102 5.71008 19.6639 4.37087 19.5852C3.03273 19.4942 2.37423 19.298 1.76208 18.2156C1.13696 17.146 0.815491 15.2704 0.815491 12.0072V11.9959C0.815491 8.71837 1.13696 6.85669 1.76208 5.77575C2.37423 4.69214 3.03427 4.49461 4.37199 4.41726C5.71008 4.32764 9.07946 4.28981 12.0029 4.28981C14.9204 4.28981 18.2884 4.32764 19.6279 4.41881ZM9.20401 7.79446V16.2056L16.1942 12L9.20401 7.79446Z" fill="#F84437"/>
</svg>
