<svg xmlns="http://www.w3.org/2000/svg" xmlns:xlink="http://www.w3.org/1999/xlink" width="362" height="356" fill="none" xmlns:v="https://vecta.io/nano"><style><![CDATA[.B{fill-rule:evenodd}.C{fill:#423f70}.D{fill:#446f93}.E{fill:#5ab3d4}]]></style><path d="M4.514 335h-1v1h1v-1zm25.682-24.159h-1v.954l.953.045.047-.999zm0-.455l-.22-.975-.78.176v.799h1zM4.514 288.455v-1h-1v1h1zm9.841 38.5h-1v1h1v-1zm0-12.364v-1h-1v1h1zm0-6.659h-1v1h1v-1zm0-11.523v-1h-1v1h1zM4.514 336h19.886v-2H4.514v2zm19.886 0c5.393 0 9.652-1.408 12.579-3.891 2.943-2.496 4.444-6.001 4.444-9.973h-2c0 3.438-1.283 6.365-3.738 8.448C33.215 332.68 29.462 334 24.401 334v2zm17.023-13.864c0-7.445-5.377-12.02-11.18-12.294l-.094 1.998c4.788.226 9.274 3.969 9.274 10.296h2zm-10.227-11.295v-.455h-2v.455h2zm-.78.521c2.585-.583 4.886-1.803 6.546-3.665 1.67-1.873 2.643-4.341 2.643-7.311h-2c0 2.508-.811 4.494-2.136 5.98-1.334 1.495-3.237 2.536-5.493 3.045l.44 1.951zm9.189-10.976c0-3.755-1.405-7.035-4.242-9.356-2.813-2.302-6.928-3.575-12.213-3.575v2c4.988 0 8.6 1.203 10.946 3.123 2.323 1.901 3.508 4.586 3.508 7.808h2zm-16.454-12.931H4.514v2h18.636v-2zm-19.636 1V335h2v-46.545h-2zm11.841 38.5v-12.364h-2v12.364h2zm-1-11.364h8.25v-2h-8.25v2zm8.25 0c2.175 0 3.838.626 4.943 1.595 1.094.961 1.717 2.322 1.717 3.973h2c0-2.19-.844-4.112-2.397-5.476-1.543-1.354-3.709-2.092-6.262-2.092v2zm6.659 5.568c0 1.504-.5 2.637-1.499 3.425-1.039.818-2.754 1.371-5.387 1.371v2c2.867 0 5.095-.595 6.625-1.8 1.569-1.236 2.262-3 2.262-4.996h-2zm-6.886 4.796h-8.023v2h8.023v-2zm-7.023-18.023v-11.523h-2v11.523h2zm-1-10.523h7.477v-2h-7.477v2zm7.477 0c2.019 0 3.477.521 4.412 1.31.916.773 1.429 1.885 1.429 3.304h2c0-1.945-.726-3.64-2.139-4.833-1.394-1.176-3.357-1.781-5.702-1.781v2zm5.841 4.614c0 1.543-.617 2.733-1.633 3.559-1.037.841-2.554 1.35-4.39 1.35v2c2.187 0 4.181-.605 5.65-1.798 1.489-1.209 2.373-2.972 2.373-5.111h-2zm-6.023 4.909h-7.296v2h7.296v-2zM58.849 335v1h.726l.225-.69-.951-.31zm3.455-10.614v-1h-.726l-.225.691.951.309zm16.795 0l.951-.309-.225-.691h-.726v1zM82.554 335l-.951.31.225.69h.726v-1zm10.545 0v1h1.403l-.457-1.326-.945.326zm-16.045-46.545l.945-.326-.232-.674h-.713v1zm-12.682 0v-1h-.713l-.233.673.945.327zM48.304 335l-.945-.326-.458 1.326h1.403v-1zm16.5-18.295l-.951-.31-.426 1.31h1.377v-1zm5.727-17.614v-1h-.726l-.225.691.951.309zm.364 0l.951-.309-.225-.691h-.726v1zm5.727 17.614v1h1.377l-.426-1.31-.951.31zM59.8 335.31l3.455-10.614-1.902-.619-3.455 10.613 1.902.62zm2.504-9.924h16.795v-2H62.304v2zm15.844-.69l3.455 10.614 1.902-.62-3.455-10.613-1.902.619zM82.554 336h10.545v-2H82.554v2zm11.491-1.326l-16.045-46.545-1.891.651 16.045 46.546 1.891-.652zm-16.991-47.219H64.372v2h12.682v-2zm-13.627.673l-16.068 46.546 1.891.652 16.068-46.545-1.891-.653zM48.304 336h10.545v-2H48.304v2zm17.451-18.986l5.727-17.614-1.902-.618-5.727 17.613 1.902.619zm4.776-16.923h.364v-2h-.364v2zm-.587-.691l5.727 17.614 1.902-.619-5.727-17.613-1.902.618zm6.678 16.305H64.804v2h11.818v-2zm50.267-13.864l-.995.099.09.901h.905v-1zm9.432 0v1h1.017l-.017-1.017-1 .017zm-34.955.068l1.001.003-.001-.008-1 .005zm12.682 12.682l.244-.97-.01-.003-.234.973zm5.068 1.273l-.243.97.008.002.235-.972zm7.91 5.818l1 .006v-.013l-1 .007zm-17.364-1.296l.998-.068-.064-.932h-.934v1zm-9.523 0v-1h-1.025l.025 1.025.999-.025zm36.818 1.319l1 .002v-.005l-1 .003zm-13.954-13.682l-.233.972.014.003.219-.975zm-4.182-1l.233-.973-.009-.002-.224.975zm-7.364-5.773l1 .02v-.01-.01h-1zm15.432 1.591h9.432v-2h-9.432v2zm10.432-1.017c-.073-4.439-1.944-8.222-5.191-10.879-3.232-2.645-7.767-4.127-13.127-4.127v2c5.003 0 9.059 1.382 11.861 3.675 2.787 2.28 4.394 5.508 4.457 9.364l2-.033zm-18.318-15.006c-5.278 0-9.93 1.457-13.28 4.089-3.368 2.646-5.381 6.454-5.357 11.007l2-.01c-.021-3.902 1.682-7.138 4.593-9.424 2.928-2.301 7.117-3.662 12.044-3.662v-2zm-18.637 15.088c-.012 3.698 1.299 6.664 3.696 8.936 2.366 2.243 5.729 3.756 9.753 4.721l.467-1.945c-3.84-.921-6.829-2.317-8.844-4.227-1.984-1.881-3.082-4.313-3.072-7.479l-2-.006zm13.439 13.655l5.068 1.273.487-1.94-5.068-1.273-.487 1.94zm5.076 1.275c2.52.61 4.339 1.247 5.521 2.049 1.114.755 1.615 1.616 1.624 2.804l2-.014c-.015-1.949-.934-3.383-2.502-4.446-1.5-1.017-3.624-1.72-6.172-2.337l-.471 1.944zm7.145 4.839c-.009 1.351-.638 2.492-1.833 3.33-1.221.856-3.059 1.404-5.417 1.404v2c2.641 0 4.916-.611 6.565-1.766 1.674-1.174 2.671-2.896 2.685-4.955l-2-.013zm-7.25 4.734c-2.416 0-4.386-.56-5.764-1.57-1.349-.99-2.212-2.469-2.352-4.521l-1.996.136c.178 2.607 1.315 4.64 3.165 5.997 1.821 1.336 4.249 1.958 6.947 1.958v-2zm-9.114-7.023h-9.523v2h9.523v-2zm-10.523 1.025c.131 5.29 2.105 9.404 5.614 12.172 3.478 2.745 8.35 4.076 14.136 4.076v-2c-5.509 0-9.887-1.271-12.897-3.646-2.98-2.351-4.734-5.873-4.853-10.651l-1.999.049zm19.749 16.248c5.828 0 10.581-1.392 13.904-3.994 3.35-2.624 5.152-6.409 5.164-10.958l-2-.005c-.01 3.974-1.56 7.166-4.398 9.389-2.865 2.244-7.134 3.568-12.67 3.568v2zm19.068-14.957c-.012-4.161-1.601-7.395-4.283-9.806-2.65-2.382-6.316-3.92-10.452-4.849l-.438 1.951c3.955.889 7.254 2.318 9.553 4.385 2.267 2.038 3.61 4.736 3.62 8.324l2-.005zm-14.722-14.652l-4.181-1-.466 1.945 4.182 1 .465-1.945zm-4.19-1.002c-1.994-.459-3.703-1.035-4.888-1.836-1.14-.771-1.725-1.694-1.7-2.942l-1.999-.04c-.043 2.092 1.03 3.591 2.578 4.638 1.502 1.016 3.51 1.657 5.561 2.129l.448-1.949zm-6.588-4.798c0-1.171.505-2.176 1.522-2.92 1.045-.764 2.686-1.285 4.956-1.285v-2c-2.548 0-4.647.582-6.136 1.67-1.516 1.109-2.342 2.706-2.342 4.535h2zm6.478-4.205c2.212 0 3.881.504 5.014 1.333 1.11.812 1.789 1.994 1.945 3.562l1.99-.198c-.208-2.092-1.153-3.807-2.754-4.978-1.576-1.154-3.703-1.719-6.195-1.719v2zM147.577 335h-1v1h1v-1zm31.454 0v1h1v-1h-1zm0-8.114h1v-1h-1v1zm-21.613 0h-1v1h1v-1zm0-11.113v-1h-1v1h1zm19.909 0v1h1v-1h-1zm0-8.114h1v-1h-1v1zm-19.909 0h-1v1h1v-1zm0-11.091v-1h-1v1h1zm21.522 0v1h1v-1h-1zm0-8.113h1v-1h-1v1zm-31.363 0v-1h-1v1h1zm0 47.545h31.454v-2h-31.454v2zm32.454-1v-8.114h-2V335h2zm-1-9.114h-21.613v2h21.613v-2zm-20.613 1v-11.113h-2v11.113h2zm-1-10.113h19.909v-2h-19.909v2zm20.909-1v-8.114h-2v8.114h2zm-1-9.114h-19.909v2h19.909v-2zm-18.909 1v-11.091h-2v11.091h2zm-1-10.091h21.522v-2h-21.522v2zm22.522-1v-8.113h-2v8.113h2zm-1-9.113h-31.363v2h31.363v-2zm-32.363 1V335h2v-46.545h-2zM190.764 335h-1v1h1v-1zm25.682-24.159h-1v.954l.953.045.047-.999zm0-.455l-.22-.975-.78.176v.799h1zm-25.682-21.931v-1h-1v1h1zm9.841 38.5h-1v1h1v-1zm0-12.364v-1h-1v1h1zm0-6.659h-1v1h1v-1zm0-11.523v-1h-1v1h1zM190.764 336h19.887v-2h-19.887v2zm19.887 0c5.393 0 9.651-1.408 12.578-3.891 2.943-2.496 4.444-6.001 4.444-9.973h-2c0 3.438-1.282 6.365-3.738 8.448-2.47 2.096-6.223 3.416-11.284 3.416v2zm17.022-13.864c0-7.445-5.377-12.02-11.18-12.294l-.094 1.998c4.788.226 9.274 3.969 9.274 10.296h2zm-10.227-11.295v-.455h-2v.455h2zm-.78.521c2.585-.583 4.886-1.803 6.546-3.665 1.67-1.873 2.643-4.341 2.643-7.311h-2c0 2.508-.811 4.494-2.135 5.98-1.334 1.495-3.238 2.536-5.494 3.045l.44 1.951zm9.189-10.976c0-3.755-1.405-7.035-4.242-9.356-2.813-2.302-6.928-3.575-12.212-3.575v2c4.987 0 8.6 1.203 10.946 3.123 2.323 1.901 3.508 4.586 3.508 7.808h2zm-16.454-12.931h-18.637v2h18.637v-2zm-19.637 1V335h2v-46.545h-2zm11.841 38.5v-12.364h-2v12.364h2zm-1-11.364h8.25v-2h-8.25v2zm8.25 0c2.175 0 3.838.626 4.943 1.595 1.094.961 1.716 2.322 1.716 3.973h2c0-2.19-.843-4.112-2.397-5.476-1.543-1.354-3.709-2.092-6.262-2.092v2zm6.659 5.568c0 1.504-.5 2.637-1.499 3.425-1.039.818-2.754 1.371-5.387 1.371v2c2.867 0 5.095-.595 6.624-1.8 1.569-1.236 2.262-3 2.262-4.996h-2zm-6.886 4.796h-8.023v2h8.023v-2zm-7.023-18.023v-11.523h-2v11.523h2zm-1-10.523h7.477v-2h-7.477v2zm7.477 0c2.02 0 3.477.521 4.412 1.31.917.773 1.429 1.885 1.429 3.304h2c0-1.945-.726-3.64-2.139-4.833-1.394-1.176-3.357-1.781-5.702-1.781v2zm5.841 4.614c0 1.543-.616 2.733-1.633 3.559-1.037.841-2.554 1.35-4.389 1.35v2c2.187 0 4.181-.605 5.65-1.798 1.489-1.209 2.372-2.972 2.372-5.111h-2zm-6.022 4.909h-7.296v2h7.296v-2zM245.099 335v1h.727l.224-.69-.951-.31zm3.455-10.614v-1h-.726l-.225.691.951.309zm16.795 0l.951-.309-.224-.691h-.727v1zM268.804 335l-.951.31.225.69h.726v-1zm10.545 0v1h1.403l-.457-1.326-.946.326zm-16.045-46.545l.945-.326-.232-.674h-.713v1zm-12.682 0v-1h-.713l-.232.673.945.327zM234.554 335l-.945-.326-.458 1.326h1.403v-1zm16.5-18.295l-.951-.31-.426 1.31h1.377v-1zm5.727-17.614v-1h-.726l-.225.691.951.309zm.364 0l.951-.309-.225-.691h-.726v1zm5.727 17.614v1h1.377l-.426-1.31-.951.31zM246.05 335.31l3.455-10.614-1.902-.619-3.454 10.613 1.901.62zm2.504-9.924h16.795v-2h-16.795v2zm15.845-.69l3.454 10.614 1.902-.62-3.455-10.613-1.901.619zM268.804 336h10.545v-2h-10.545v2zm11.491-1.326l-16.046-46.545-1.89.651 16.045 46.546 1.891-.652zm-16.991-47.219h-12.682v2h12.682v-2zm-13.627.673l-16.068 46.546 1.89.652 16.068-46.545-1.89-.653zM234.554 336h10.545v-2h-10.545v2zm17.451-18.986l5.727-17.614-1.902-.618-5.727 17.613 1.902.619zm4.776-16.923h.364v-2h-.364v2zm-.587-.691l5.727 17.614 1.902-.619-5.727-17.613-1.902.618zm6.678 16.305h-11.818v2h11.818v-2zM288.952 335h-1v1h1v-1zm29.795 0v1h1v-1h-1zm0-8.114h1v-1h-1v1zm-19.954 0h-1v1h1v-1zm0-38.431h1v-1h-1v1zm-9.841 0v-1h-1v1h1zm0 47.545h29.795v-2h-29.795v2zm30.795-1v-8.114h-2V335h2zm-1-9.114h-19.954v2h19.954v-2zm-18.954 1v-38.431h-2v38.431h2zm-1-39.431h-9.841v2h9.841v-2zm-10.841 1V335h2v-46.545h-2zM329.264 335h-1v1h1v-1zm29.796 0v1h1v-1h-1zm0-8.114h1v-1h-1v1zm-19.955 0h-1v1h1v-1zm0-38.431h1v-1h-1v1zm-9.841 0v-1h-1v1h1zm0 47.545h29.796v-2h-29.796v2zm30.796-1v-8.114h-2V335h2zm-1-9.114h-19.955v2h19.955v-2zm-18.955 1v-38.431h-2v38.431h2zm-1-39.431h-9.841v2h9.841v-2zm-10.841 1V335h2v-46.545h-2z" fill="#042365" fill-opacity=".12"/><use xlink:href="#C" fill="#000" class="B"/><mask id="A" maskUnits="userSpaceOnUse" x="18" y="0" width="248" height="320" mask-type="alpha"><path d="M151.235 2.588c-2.206 3.151-2.179 3.754.302 6.567 3.922 4.446 36.613 31.481 53.766 44.466l14.605 11.056-9.916.918c-5.455.504-11.516 1.441-13.471 2.08-3.374 1.104-3.554.755-3.554-6.915 0-6.689-.712-8.741-4.141-11.917-5.342-4.95-12.415-6.206-20.341-3.609-4.985 1.632-6.984 3.459-9.477 8.656-1.737 3.622-4.757 7.338-6.713 8.258-4.645 2.186-4.53 6.101.244 8.276 5.812 2.649 6.183 9.766.778 14.944-2.391 2.29-5.01 6.035-5.823 8.321-3.143 8.853-6.487 20.317-8.351 28.641-2.17 9.69-3.75 12.998-9.009 18.876-1.983 2.215-4.022 5.803-4.532 7.975s-1.963 5.604-3.227 7.626c-3.787 6.059-10.199 24.311-10.916 31.072-1.039 9.822-1.713 14.014-2.663 16.584-1.012 2.737-4.659 15.14-7.314 24.877-1.104 4.048-2.76 6.713-4.168 6.713-6.026 0-22.037 8.49-34.043 18.05-12.68 10.098-13.55 10.52-20.345 9.826-9.452-.963-12.108.769-14.811 9.663-1.249 4.112-4.2 11.633-6.558 16.715-4.719 10.17-4.742 18.438-.069 25.57 5.424 8.278 10.682 4.239 17.493-13.431 2.467-6.4 6.621-13.135 10.932-17.726 6.051-6.446 7.758-7.395 13.16-7.321 9.93.137 24.082-4.697 28.924-9.88 2.371-2.538 5.269-4.656 6.441-4.707s6.031-2.006 10.796-4.343c7.358-3.609 10.161-6.386 18.562-18.373 14.667-20.925 22.991-30.909 25.669-30.784 1.312.062 6.651 2.905 11.863 6.318s12.675 7.673 16.585 9.466c12.185 5.591 17.969 14.585 15.799 24.564-.734 3.375-.842 10.401-.24 15.613.627 5.427.266 15.552-.846 23.693-2.278 16.663-1.823 18.977 4.353 22.171 2.544 1.315 4.626 3.102 4.626 3.969 0 2.578 8.269 4.941 13.715 3.92 7.338-1.377 8.237-6.027 2.554-13.222-8.676-10.986-11.09-16.414-9.602-21.583 10.464-36.314 13.354-54.655 9.082-57.645-.619-.434-5.901-8.845-11.734-18.692s-12.018-19.086-13.743-20.533-5.531-5.868-8.457-9.823l-5.321-7.193 8.199-16.817c6.057-12.425 8.818-16.592 10.568-15.951 8.814 3.23 13.777 2.469 22.273-3.421 4.691-3.251 13.147-10.684 18.794-16.518s13.287-12.505 16.98-14.82 6.712-5.099 6.712-6.186c0-2.655-10.765-18.518-12.568-18.518-.154 0-.317.063-.479.127-.662.258-1.322.516-1.452-3.522-.788-5.298-7.587-9.309-16.844-9.938-8.03-.547-8.765-1.014-22.858-14.544-26.065-25.021-50.759-47.44-54.295-49.294-2.938-1.54-3.827-1.29-5.892 1.657zm88.291 82.713c11.371 5.395 2.971 19.39-17.62 29.356-13.995 6.775-18.931 7.042-17.294.94 0 0 .957-5.372.968-7.616.017-3.195 2.848-6.365 13.04-14.61 7.16-5.79 13.626-10.529 14.372-10.529s3.685 1.106 6.534 2.459z" fill="#000" class="B"/></mask><g mask="url(#A)" class="B"><path d="M121.566 49.801l51.169 49.173 6.058-99.29-57.227 50.117z" class="C"/><path d="M92.518 121.098l58.456 95.003 22.449-117.099-80.905 22.096z" class="D"/><path d="M113.606 170.028l50.785-29.032-58.921-16.945 8.136 45.977z" fill="#5c9eab"/><path d="M82.177 237.392l69.955-21.374-25.169-62.725-47.22 32.423 2.434 51.676z" class="C"/><path d="M165.26 169.602l61.657 46.436c-3.309-30.764-12.624-61.408-25.007-91.987l-36.65 45.551z" fill="#3e7bba"/><path d="M150.693 216.089h76.673l-70.349-35.891-6.324 35.891z" fill="#3e7bba"/><path d="M185.193 286.815l64.105-70.782h-98.605l34.5 70.782z" class="E"/><path d="M227.059 346.004l61.494-66.734-100.296.877 38.802 65.857z" class="E"/><path d="M252.709 286.873L235.5 225.806l-44.942 54.292 62.151 6.775z" fill="#42719e"/><path d="M226.021 341.444l-17.848-26.798-27.582-17.555 24.775 53.905 20.655-9.552z" class="D"/><path d="M153.196 180.484l73.454 38.811-34.673-88.357-38.781 49.546z" class="C"/><path d="M120.196 113.906l52.162-14.551-32.507-50.387-19.655 64.937z" fill="#65a7bd"/><path d="M172.16 98.973L221.818 56.2l-43.6-56.517-6.058 99.29z" fill="#456e93"/><path d="M135.099 46.063L184.757 3.29l-43.6-56.517-6.058 99.29z" fill="#456e93"/><path d="M175.226 8.486l49.512-2.332-46.323-47.671-3.189 50.003z" class="D"/><path d="M225.034 53.044l38.675-.896-46.326-47.674 7.651 48.57z" fill="#4ca0c8"/><path d="M218.496 5.624l-38.672.892 46.323 47.674-7.651-48.567z" class="C"/><path d="M171.578 97.883l-15.813 82.389 37.171-47-21.358-35.389z" fill="#45849b"/><path d="M71.876 294.409l-83.683 20.925 62.659 39.174 21.023-60.099z" fill="#2c4ea3"/><path d="M86.779 243.779L3.097 264.705l62.659 39.174 21.023-60.1z" fill="#2c4ea3"/><path d="M150.525 216.033l-78.781 15.62 137.102 82.901-58.321-98.521z" fill="#3e79b8"/><path d="M114.496 280.037l-78.781 15.62 61.728 40.187 17.053-55.807z" class="E"/><path d="M121.757 282.719L63.67 314.666 47.22 361.22l74.537-78.501zM88.26 254.424l-66.367 34.659-18.796 50.504 85.163-85.163z" fill="#4ea7cc"/><path d="M131.215 222.548L47.22 293.741l72.58-7.003 11.415-64.19z" fill="#4167a3"/><path d="M80.296 234.62c-17.519 12.5-24.117 34.028-30.012 58.455l50.999-44.818-20.987-13.637zm-54.639 22.998c-17.519 12.5-24.117 34.028-30.012 58.455l51-44.818-20.987-13.637z" fill="#42719e"/><path d="M170.229 98.621l62.263 103.641L276.683 68.13 170.229 98.621z" fill="#4ca0c8"/><path d="M172.16 98.858l89.614-24.798 20.443-34.051-40.063-24.42-69.994 83.269z" class="D"/></g><use xlink:href="#C" fill="#042365" style="mix-blend-mode:overlay" class="B"/><defs ><path id="C" d="M151.235 2.588c-2.206 3.151-2.179 3.754.302 6.567 3.922 4.446 36.613 31.481 53.766 44.466l14.605 11.056-9.916.918c-5.455.504-11.516 1.441-13.471 2.08-3.374 1.104-3.554.755-3.554-6.915 0-6.689-.712-8.741-4.141-11.917-5.342-4.95-12.415-6.206-20.341-3.609-4.985 1.632-6.984 3.459-9.477 8.656-1.737 3.622-4.757 7.338-6.713 8.258-4.645 2.186-4.53 6.101.244 8.276 5.812 2.649 6.183 9.766.778 14.944-2.391 2.29-5.01 6.035-5.823 8.321-3.143 8.853-6.487 20.317-8.351 28.641-2.17 9.69-3.75 12.998-9.009 18.876-1.983 2.215-4.022 5.803-4.532 7.975s-1.963 5.604-3.227 7.626c-3.787 6.059-10.199 24.311-10.916 31.072-1.039 9.822-1.713 14.014-2.663 16.584-1.012 2.737-4.659 15.14-7.314 24.877-1.104 4.048-2.76 6.713-4.168 6.713-6.026 0-22.037 8.49-34.043 18.05-12.68 10.098-13.55 10.52-20.345 9.826-9.452-.963-12.108.769-14.811 9.663-1.249 4.112-4.2 11.633-6.558 16.715-4.719 10.17-4.742 18.438-.069 25.57 5.424 8.278 10.682 4.239 17.493-13.431 2.467-6.4 6.621-13.135 10.932-17.726 6.051-6.446 7.758-7.395 13.16-7.321 9.93.137 24.082-4.697 28.924-9.88 2.371-2.538 5.269-4.656 6.441-4.707s6.031-2.006 10.796-4.343c7.358-3.609 10.161-6.386 18.562-18.373 14.667-20.925 22.991-30.909 25.669-30.784 1.312.062 6.651 2.905 11.863 6.318s12.675 7.673 16.585 9.466c12.185 5.591 17.969 14.585 15.799 24.564-.734 3.375-.842 10.401-.24 15.613.627 5.427.266 15.552-.846 23.693-2.278 16.663-1.823 18.977 4.353 22.171 2.544 1.315 4.626 3.102 4.626 3.969 0 2.578 8.269 4.941 13.715 3.92 7.338-1.377 8.237-6.027 2.554-13.222-8.676-10.986-11.09-16.414-9.602-21.583 10.464-36.314 13.354-54.655 9.082-57.645-.619-.434-5.901-8.845-11.734-18.692s-12.018-19.086-13.743-20.533-5.531-5.868-8.457-9.823l-5.321-7.193 8.199-16.817c6.057-12.425 8.818-16.592 10.568-15.951 8.814 3.23 13.777 2.469 22.273-3.421 4.691-3.251 13.147-10.684 18.794-16.518s13.287-12.505 16.98-14.82 6.712-5.099 6.712-6.186c0-2.655-10.765-18.518-12.568-18.518-.154 0-.317.063-.479.127-.662.258-1.322.516-1.452-3.522-.788-5.298-7.587-9.309-16.844-9.938-8.03-.547-8.765-1.014-22.858-14.544-26.065-25.021-50.759-47.44-54.295-49.294-2.938-1.54-3.827-1.29-5.892 1.657zm88.291 82.713c11.371 5.395 2.971 19.39-17.62 29.356-13.995 6.775-18.931 7.042-17.294.94 0 0 .957-5.372.968-7.616.017-3.195 2.848-6.365 13.04-14.61 7.16-5.79 13.626-10.529 14.372-10.529s3.685 1.106 6.534 2.459z"/></defs></svg>