<svg xmlns="http://www.w3.org/2000/svg" width="521" height="367" fill="none" xmlns:v="https://vecta.io/nano"><path d="M69.077 67h-1v1h1v-1Zm25.681-24.16h-1v.955l.953.045.047-1Zm0-.454-.22-.975-.78.176v.8h1ZM69.078 20.454v-1h-1v1h1Zm9.84 38.5h-1v1h1v-1Zm0-12.363v-1h-1v1h1Zm0-6.66h-1v1h1v-1Zm0-11.522v-1h-1v1h1ZM69.078 68h19.886v-2H69.077v2Zm19.886 0c5.394 0 9.652-1.407 12.579-3.89 2.942-2.498 4.444-6.002 4.444-9.974h-2c0 3.438-1.283 6.365-3.738 8.448C97.778 64.68 94.024 66 88.963 66v2Zm17.023-13.864c0-7.445-5.377-12.02-11.18-12.294l-.095 1.998c4.788.226 9.275 3.97 9.275 10.296h2ZM95.758 42.841v-.455h-2v.455h2Zm-.78.52c2.585-.582 4.886-1.802 6.547-3.664 1.67-1.873 2.643-4.34 2.643-7.31h-2c0 2.507-.811 4.493-2.136 5.979-1.334 1.495-3.237 2.536-5.493 3.045l.44 1.95Zm9.19-10.975c0-3.755-1.406-7.035-4.242-9.356-2.813-2.302-6.928-3.576-12.213-3.576v2c4.988 0 8.6 1.204 10.946 3.124 2.323 1.9 3.509 4.586 3.509 7.808h2ZM87.713 19.454H69.077v2h18.636v-2Zm-19.636 1V67h2V20.454h-2Zm11.84 38.5V46.591h-2v12.364h2Zm-1-11.363h8.25v-2h-8.25v2Zm8.25 0c2.175 0 3.839.626 4.943 1.595 1.094.96 1.717 2.322 1.717 3.973h2c0-2.19-.844-4.112-2.397-5.476-1.544-1.354-3.71-2.092-6.262-2.092v2Zm6.66 5.568c0 1.504-.5 2.638-1.5 3.425-1.038.818-2.754 1.37-5.387 1.37v2c2.867 0 5.095-.595 6.625-1.8 1.568-1.235 2.262-2.999 2.262-4.995h-2Zm-6.887 4.796h-8.022v2h8.022v-2Zm-7.022-18.023V28.409h-2v11.523h2Zm-1-10.523h7.477v-2h-7.477v2Zm7.477 0c2.019 0 3.477.52 4.412 1.31.916.773 1.429 1.885 1.429 3.304h2c0-1.945-.726-3.64-2.14-4.833-1.394-1.176-3.357-1.78-5.701-1.78v2Zm5.84 4.614c0 1.542-.616 2.733-1.632 3.559-1.037.841-2.554 1.35-4.39 1.35v2c2.187 0 4.181-.605 5.65-1.798 1.49-1.209 2.373-2.972 2.373-5.111h-2Zm-6.022 4.909h-7.295v2h7.295v-2ZM123.412 67v1h.726l.225-.69-.951-.31Zm3.454-10.614v-1h-.726l-.224.69.95.31Zm16.796 0 .951-.31-.225-.69h-.726v1ZM147.116 67l-.95.31.224.69h.726v-1Zm10.546 0v1h1.402l-.457-1.326-.945.326Zm-16.046-46.546.946-.325-.233-.675h-.713v1Zm-12.681 0v-1h-.713l-.233.674.946.326ZM112.866 67l-.945-.326-.458 1.326h1.403v-1Zm16.5-18.295-.951-.31-.425 1.31h1.376v-1Zm5.728-17.614v-1h-.727l-.224.69.951.31Zm.363 0 .951-.31-.224-.69h-.727v1Zm5.728 17.614v1h1.376l-.425-1.31-.951.31ZM124.363 67.31l3.454-10.614-1.901-.62-3.455 10.614 1.902.62Zm2.503-9.924h16.796v-2h-16.796v2Zm15.845-.69 3.455 10.614 1.901-.62-3.454-10.613-1.902.619ZM147.116 68h10.546v-2h-10.546v2Zm11.491-1.326L142.562 20.13l-1.891.651 16.046 46.546 1.89-.652Zm-16.991-47.22h-12.681v2h12.681v-2Zm-13.627.674-16.068 46.546 1.891.652 16.068-46.545-1.891-.653ZM112.866 68h10.546v-2h-10.546v2Zm17.451-18.986 5.728-17.614-1.902-.618-5.728 17.613 1.902.619Zm4.777-16.923h.363v-2h-.363v2Zm-.588-.69 5.728 17.613 1.902-.619-5.728-17.613-1.902.618Zm6.679 16.304h-11.819v2h11.819v-2Zm50.267-13.864-.995.099.089.9h.906v-1Zm9.432 0v1h1.016l-.017-1.017-.999.017Zm-34.955.068 1 .003v-.008l-1 .005Zm12.682 12.682.243-.97-.01-.003-.233.973Zm5.068 1.273-.244.97.009.002.235-.972Zm7.909 5.818 1 .006v-.013l-1 .007Zm-17.364-1.296.998-.068-.064-.932h-.934v1Zm-9.522 0v-1h-1.025l.025 1.025 1-.025Zm36.818 1.319 1 .002v-.005l-1 .003Zm-13.955-13.682-.232.972.013.003.219-.975Zm-4.181-1 .232-.973-.008-.002-.224.975Zm-7.364-5.773 1 .02v-.02h-1Zm15.432 1.59h9.432v-2h-9.432v2Zm10.431-1.016c-.073-4.438-1.943-8.222-5.19-10.88-3.233-2.644-7.768-4.126-13.128-4.126v2c5.004 0 9.06 1.382 11.861 3.675 2.788 2.28 4.394 5.508 4.458 9.364l1.999-.032Zm-18.318-15.006c-5.277 0-9.929 1.457-13.279 4.089-3.369 2.646-5.381 6.454-5.357 11.007l2-.01c-.021-3.902 1.682-7.138 4.592-9.424 2.928-2.3 7.117-3.662 12.044-3.662v-2Zm-18.636 15.088c-.012 3.698 1.299 6.664 3.695 8.936 2.366 2.243 5.73 3.756 9.754 4.721l.466-1.945c-3.84-.92-6.829-2.317-8.843-4.227-1.984-1.881-3.083-4.313-3.072-7.479l-2-.006Zm13.438 13.655 5.068 1.273.488-1.94-5.069-1.273-.487 1.94Zm5.077 1.275c2.519.61 4.339 1.247 5.52 2.049 1.114.755 1.615 1.616 1.624 2.804l2-.014c-.014-1.949-.933-3.383-2.501-4.446-1.5-1.017-3.624-1.72-6.173-2.337l-.47 1.944Zm7.144 4.84c-.009 1.35-.637 2.491-1.832 3.329-1.221.856-3.059 1.404-5.418 1.404v2c2.641 0 4.917-.61 6.566-1.766 1.674-1.174 2.67-2.896 2.684-4.955l-2-.013Zm-7.25 4.733c-2.416 0-4.386-.56-5.764-1.57-1.348-.99-2.212-2.469-2.352-4.52l-1.995.136c.178 2.606 1.314 4.64 3.164 5.996 1.822 1.336 4.249 1.958 6.947 1.958v-2Zm-9.114-7.023h-9.522v2h9.522v-2Zm-10.522 1.025c.131 5.29 2.104 9.404 5.613 12.172 3.479 2.745 8.351 4.076 14.137 4.076v-2c-5.51 0-9.888-1.27-12.898-3.646-2.98-2.35-4.734-5.873-4.853-10.651l-1.999.05Zm19.75 16.248c5.828 0 10.581-1.392 13.903-3.994 3.35-2.624 5.153-6.41 5.165-10.958l-2-.005c-.011 3.974-1.56 7.166-4.398 9.389-2.865 2.244-7.135 3.568-12.67 3.568v2Zm19.068-14.957c-.012-4.161-1.601-7.395-4.283-9.806-2.65-2.383-6.316-3.92-10.452-4.849l-.439 1.951c3.955.89 7.255 2.318 9.554 4.385 2.266 2.038 3.609 4.736 3.62 8.325l2-.006ZM187.798 39.05l-4.182-1-.465 1.945 4.182 1 .465-1.945Zm-4.19-1.002c-1.995-.46-3.703-1.035-4.889-1.837-1.139-.77-1.725-1.692-1.699-2.94l-2-.041c-.043 2.093 1.031 3.59 2.579 4.638 1.502 1.016 3.509 1.657 5.56 2.13l.449-1.95Zm-6.588-4.798c0-1.17.504-2.176 1.522-2.92 1.045-.764 2.685-1.284 4.955-1.284v-2c-2.548 0-4.646.58-6.135 1.67-1.517 1.108-2.342 2.705-2.342 4.534h2Zm6.477-4.204c2.212 0 3.881.503 5.015 1.332 1.109.812 1.789 1.994 1.945 3.562l1.99-.198c-.208-2.092-1.153-3.807-2.754-4.978-1.577-1.154-3.703-1.718-6.196-1.718v2ZM212.139 67h-1v1h1v-1Zm9.841 0v1h1v-1h-1Zm0-13.227-.773-.634-.227.276v.358h1Zm4.841-5.91.832-.554-.749-1.124-.857 1.045.774.634ZM239.571 67l-.832.555.297.445h.535v-1Zm11.773 0v1h1.889l-1.062-1.562-.827.562Zm-17.478-25.705-.769-.638-.48.58.423.62.826-.562Zm17.273-20.84.77.638 1.358-1.639h-2.128v1Zm-11.795 0v-1h-.475l-.3.367.775.633Zm-16.75 20.522v1h.474l.3-.367-.774-.633Zm-.614 0h-1v1h1v-1Zm0-20.522h1v-1h-1v1Zm-9.841 0v-1h-1v1h1Zm0 47.545h9.841v-2h-9.841v2Zm10.841-1V53.773h-2V67h2Zm-.226-12.593 4.841-5.91-1.548-1.267-4.84 5.909 1.547 1.267Zm3.235-5.989 12.75 19.137 1.664-1.11-12.75-19.136-1.664 1.11ZM239.571 68h11.773v-2h-11.773v2Zm12.6-1.562-17.478-25.705-1.653 1.125 17.477 25.704 1.654-1.124Zm-17.535-24.504 17.273-20.841-1.54-1.277-17.272 20.841 1.539 1.277Zm16.503-22.48h-11.795v2h11.795v-2Zm-12.57.368-16.75 20.523 1.549 1.265 16.75-20.523-1.549-1.265Zm-15.975 20.155h-.614v2h.614v-2Zm.386 1V20.455h-2v20.522h2Zm-1-21.522h-9.841v2h9.841v-2Zm-10.841 1V67h2V20.454h-2ZM260.264 67h-1v1h1v-1Zm31.455 0v1h1v-1h-1Zm0-8.114h1v-1h-1v1Zm-21.614 0h-1v1h1v-1Zm0-11.113v-1h-1v1h1Zm19.909 0v1h1v-1h-1Zm0-8.114h1v-1h-1v1Zm-19.909 0h-1v1h1v-1Zm0-11.09v-1h-1v1h1Zm21.523 0v1h1v-1h-1Zm0-8.114h1v-1h-1v1Zm-31.364 0v-1h-1v1h1Zm0 47.545h31.455v-2h-31.455v2Zm32.455-1v-8.114h-2V67h2Zm-1-9.114h-21.614v2h21.614v-2Zm-20.614 1V47.773h-2v11.113h2Zm-1-10.113h19.909v-2h-19.909v2Zm20.909-1v-8.114h-2v8.114h2Zm-1-9.114h-19.909v2h19.909v-2Zm-18.909 1V28.57h-2v11.09h2Zm-1-10.09h21.523v-2h-21.523v2Zm22.523-1v-8.114h-2v8.113h2Zm-1-9.114h-31.364v2h31.364v-2Zm-32.364 1V67h2V20.454h-2Zm42.415 8.113h-1v1h1v-1Zm14.25 0h1v-1h-1v1Zm0 38.432h-1v1h1v-1Zm9.727 0v1h1v-1h-1Zm0-38.432v-1h-1v1h1Zm14.25 0v1h1v-1h-1Zm0-8.114h1v-1h-1v1Zm-38.227 0v-1h-1v1h1Zm0 9.114h14.25v-2h-14.25v2Zm13.25-1V67h2V28.568h-2Zm1 39.432h9.727v-2h-9.727v2Zm10.727-1V28.568h-2V67h2Zm-1-37.432h14.25v-2h-14.25v2Zm15.25-1v-8.114h-2v8.114h2Zm-1-9.114h-38.227v2h38.227v-2Zm-39.227 1v8.114h2v-8.114h-2ZM350.202 67h-1v1h1v-1Zm25.682-24.16h-1v.955l.952.045.048-1Zm0-.454-.22-.975-.78.176v.8h1Zm-25.682-21.932v-1h-1v1h1Zm9.841 38.5h-1v1h1v-1Zm0-12.363v-1h-1v1h1Zm0-6.66h-1v1h1v-1Zm0-11.522v-1h-1v1h1ZM350.202 68h19.886v-2h-19.886v2Zm19.886 0c5.394 0 9.652-1.407 12.579-3.89 2.942-2.498 4.444-6.002 4.444-9.974h-2c0 3.438-1.283 6.365-3.738 8.448C378.902 64.68 375.149 66 370.088 66v2Zm17.023-13.864c0-7.445-5.377-12.02-11.18-12.294l-.095 1.998c4.788.226 9.275 3.97 9.275 10.296h2Zm-10.227-11.295v-.455h-2v.455h2Zm-.781.52c2.585-.582 4.886-1.802 6.547-3.664 1.67-1.873 2.643-4.34 2.643-7.31h-2c0 2.507-.811 4.493-2.136 5.979-1.334 1.495-3.237 2.536-5.493 3.045l.439 1.95Zm9.19-10.975c0-3.755-1.406-7.035-4.242-9.356-2.813-2.302-6.928-3.576-12.213-3.576v2c4.988 0 8.6 1.204 10.946 3.124 2.323 1.9 3.509 4.586 3.509 7.808h2Zm-16.455-12.932h-18.636v2h18.636v-2Zm-19.636 1V67h2V20.454h-2Zm11.841 38.5V46.591h-2v12.364h2Zm-1-11.363h8.25v-2h-8.25v2Zm8.25 0c2.174 0 3.838.626 4.942 1.595 1.094.96 1.717 2.322 1.717 3.973h2c0-2.19-.844-4.112-2.397-5.476-1.544-1.354-3.71-2.092-6.262-2.092v2Zm6.659 5.568c0 1.504-.5 2.638-1.5 3.425-1.038.818-2.754 1.37-5.387 1.37v2c2.867 0 5.095-.595 6.625-1.8 1.568-1.235 2.262-2.999 2.262-4.995h-2Zm-6.887 4.796h-8.022v2h8.022v-2Zm-7.022-18.023V28.409h-2v11.523h2Zm-1-10.523h7.477v-2h-7.477v2Zm7.477 0c2.019 0 3.477.52 4.412 1.31.916.773 1.429 1.885 1.429 3.304h2c0-1.945-.726-3.64-2.139-4.833-1.395-1.176-3.358-1.78-5.702-1.78v2Zm5.841 4.614c0 1.542-.617 2.733-1.633 3.559-1.037.841-2.554 1.35-4.39 1.35v2c2.187 0 4.181-.605 5.65-1.798 1.489-1.209 2.373-2.972 2.373-5.111h-2Zm-6.023 4.909h-7.295v2h7.295v-2ZM404.537 67v1h.726l.225-.69-.951-.31Zm3.454-10.614v-1h-.726l-.224.69.95.31Zm16.796 0 .951-.31-.225-.69h-.726v1ZM428.241 67l-.95.31.224.69h.726v-1Zm10.546 0v1h1.402l-.457-1.326-.945.326Zm-16.046-46.546.946-.325-.233-.675h-.713v1Zm-12.681 0v-1h-.713l-.233.674.946.326ZM393.991 67l-.945-.326-.458 1.326h1.403v-1Zm16.5-18.295-.951-.31-.425 1.31h1.376v-1Zm5.728-17.614v-1h-.727l-.224.69.951.31Zm.363 0 .951-.31-.224-.69h-.727v1Zm5.728 17.614v1h1.376l-.425-1.31-.951.31ZM405.488 67.31l3.454-10.614-1.901-.62-3.455 10.614 1.902.62Zm2.503-9.924h16.796v-2h-16.796v2Zm15.845-.69 3.455 10.614 1.901-.62-3.454-10.613-1.902.619ZM428.241 68h10.546v-2h-10.546v2Zm11.491-1.326L423.687 20.13l-1.891.651 16.046 46.546 1.89-.652Zm-16.991-47.22H410.06v2h12.681v-2Zm-13.627.674-16.068 46.546 1.891.652 16.068-46.545-1.891-.653ZM393.991 68h10.546v-2h-10.546v2Zm17.451-18.986L417.17 31.4l-1.902-.618-5.728 17.613 1.902.619Zm4.777-16.923h.363v-2h-.363v2Zm-.588-.69 5.728 17.613 1.902-.619-5.728-17.613-1.902.618Zm6.679 16.304h-11.819v2h11.819v-2ZM448.389 67h-1v1h1v-1Zm29.796 0v1h1v-1h-1Zm0-8.114h1v-1h-1v1Zm-19.955 0h-1v1h1v-1Zm0-38.431h1v-1h-1v1Zm-9.841 0v-1h-1v1h1Zm0 47.545h29.796v-2h-29.796v2Zm30.796-1v-8.114h-2V67h2Zm-1-9.114H458.23v2h19.955v-2Zm-18.955 1V20.455h-2v38.431h2Zm-1-39.431h-9.841v2h9.841v-2Zm-10.841 1V67h2V20.454h-2ZM488.702 67h-1v1h1v-1Zm29.795 0v1h1v-1h-1Zm0-8.114h1v-1h-1v1Zm-19.954 0h-1v1h1v-1Zm0-38.431h1v-1h-1v1Zm-9.841 0v-1h-1v1h1Zm0 47.545h29.795v-2h-29.795v2Zm30.795-1v-8.114h-2V67h2Zm-1-9.114h-19.954v2h19.954v-2Zm-18.954 1V20.455h-2v38.431h2Zm-1-39.431h-9.841v2h9.841v-2Zm-10.841 1V67h2V20.454h-2Z" fill="#042365" fill-opacity=".12"/><mask id="A" maskUnits="userSpaceOnUse" x="0" y="46" width="271" height="321" mask-type="alpha"><path fill-rule="evenodd" d="M107.448 308.173c2.787-2.659 9.646-13.006 3.331-47.67 0 0 1.252-19.403-3.741-12.782 0 0 1.906-3.515 1.3-6.073 0 0-1.508-5.896 4.084-11.1 0 0-.088-4.941-.991-9.371 0 0 2.705-7.079-3.457-7.578 0 0 7.376-10.439-2.387-10.956 0 0 2.552-4.803 1.861-7.997l-.744-4.235.536-3.028s-5.024-2.769-4.531-7.297c0 0-2.827 10.738-10.76 11.672 0 0-3.017 1.254-5.027 5.035 0 0-1.542 2.482-10.647 3.179s-14.55 1.946-15.983 5.269c0 0-1.034-6.376-4.277-6.199l-.205 4.889-4.873 1.536s-5.85-5.681-23.148-4.259c0 0-22.267 1.352-23.702-4.194 0 0-8.793-5.731.878-7.952l6.737.306s.585-1.11-4.148-2.114c0 0-2.895-1.83.547-1.891l10.356 1.594s3.855-1.263 12.208 3.595l3.203 1.401 13.113.043 3.04-2.053 7.02-1.049 20.1-6.713-1.181 3.112s14.033-26.189 24.812-25.843l-2.986-.903s.884-19.158 20.44-17.325l-3.191 2.793s10.714-8.01 13.982-4.036l4.574.459.229-3.224s-8.172-9.833.802-21.245c0 0 2.08-13.838 17.665-11.436 0 0 14.869 2.426 12.562 19.186 0 0-.906 9.065-14.808 13.645 0 0-7.771 3.383-9.814 4.983 0 0 15.239-6.694 18.91-7.061 0 0-3.289 4.241-3.73 7.542 0 0 3.8-11.277 20.297-10.598 0 0-5.614 2.475-7.704 5.635 0 0 5.868-2.597 11.25-6.715 0 0 9.401-6.688 16.876-7.471 0 0 1.6-.355 1.786.743 0 0 .992 1.429-4.509 4.045l-3.035 1.646s4.485-.022 7.737-2.748c0 0 4.565-5.274 7.389-6.32s7.312-5.498 13.293-7.083c0 0 7.428-1.671 8.514-5.275 0 0 .141 4.553 2.696 8.515 0 0 5.198 10.989 3.898 9.732 0 0-2.98-6.566-8.591-2.285 0 0-1.659.657-.218 4.876 0 0-1.783-.437-8.092 3.011 0 0-4.901 1.759-7.792 3.589l-29.414 18.102s-1.771 1.065 4.544 4.629c0 0-7.441-3.772-12.722-1.294l2.497.514s-1.252 7.49-4.531 9.558l1.615 1.162-6.709 9.102 12.28-1.025s-14.584 8.264-12.418 12.229c0 0 1.511 1.401-2.187 3.491 0 0-3.36 6.617 3.417 8.533l-1.839 1.278s2.206 2.76 2.096 7.45c0 0 4.231 2.659 5.256 6.241 0 0-.263 5.214 1.796 6.324 0 0-.269 2.8-3.157 5.59 0 0-3.124 6.807 6.094 3.151l-7.309 6.762s-1.511 4.986 4.785-.242c0 0-.266 4.078-6.281 6.1 0 0-2.775.698-5.516 6.649 0 0-1.9 7.504-6.202 7.924 0 0 2.95 2.107 4.186 4.436 0 0 13.926 1.82 27.192 20.336 0 0 1.114 2.2 7.141-2.631 0 0-.722 2.866-5.425 5.577s2.644 4.375 4.378 2.206l2.225.248.456 6.119s7.174 2.218 8.333 9.007c0 0 4.639 6.366 9.708 1.291 0 0-3.277 5.999 5.183 8.82l8.484 7.257 2.285.233-.3 3.408s2.041 7 2.347 11.748c0 0-11.666 12.954-19.877 15.429 0 0-7.744 1.875-4.486-9.637 0 0-1.557-3.249-.339-5.211 0 0-4.528-3.805-3.353-10.677 0 0-8.041-7.578-7.802-12.504 0 0-12.323-13.529-17.188-13.073l-5.577-1.499s2.285-6.468-14.426-11.996l-13.886-9.53s9.658 9.487 13.886 13.082c0 0-13.58 6.538-26.51 7.263l11.467.545s.422 9.086 1.869 11.681l.551-2.433s9.136-1.79 15.918 4.384c0 0 4.593 5.431 11.862 5.364l2.154 1.245s3.463-4.547 18.032-3.118c0 0 3.21 5.715 6.685 9.191 0 0 1.371 1.836 1.661 6.568 0 0 1.802 5.321 2.365 7.377s.554 7.03.456 9.353c0 0-.673 6.32 8.818 4.405 0 0 4.784-1.78 3.766 3.323 0 0-2.212 14.137-7.921 10.405 0 0-4.969-2.393-6.165-7.637l-12.452-18.54s-8.328-.505-9.518-3.273l-4.011-2.537s-2.588 2.641-4.341.432l-1.808-2.081s-13.294 1.61-29.946-3.934c0 0-8.723-2.273-13.853-2.31 0 0-6.63-.771-6.997-11.296l-.839-14.278-2.013-.538-10.224 7.82c-.643.611-1.068.816-1.068.816l1.068-.816zM248.565 95.336a25.04 25.04 0 0 1-2.852.165c-13.565 0-24.576-11.014-24.576-24.58s11.011-24.579 24.576-24.579 24.58 11.014 24.58 24.58a23.87 23.87 0 0 1-.028 1.168l.028.092c-1.395 26.8-32.972 48.737-32.972 48.737l-.174 4.051c-6.988-5.844-8.025-15.906-8.025-15.906 13.985-3.757 14.419-7.652 14.419-7.652 2.129-4.298 3.534-4.858 3.534-4.858a11.527 11.527 0 0 0 1.49-1.218z" fill="#858e37"/></mask><g mask="url(#A)" fill-rule="evenodd"><path d="m199.444 95.966-59.485 57.162-7.039-115.426 66.524 58.264Z" fill="#f6a980"/><path d="m232.87 178.785-67.014 110.489-25.736-136.185 92.75 25.696Z" fill="#e59e78"/><path d="m246.771 150.385-53.363-4.406 27.909-40.773 25.454 45.179Z" fill="#bb6a41"/><path d="m271.638 95.02-60.95.838 38.772-33.315 22.178 32.476Z" fill="#e59e78"/><path d="m258.166 94.891-9.319-32.326 25.466-26.843c5.281 26.35 2.521 61.143-16.147 59.17Z" fill="#f6a980"/><path d="m217.711 27.98 31.172 34.615-24.647 34.612c-12.947-23.552-16.141-46.672-6.525-69.226Z" fill="#e67c49"/><path d="M273.571 41.297L249.132 62.57 230.13 42.267c20.694-17.148 19.48-6.165 43.441-.97zm-6.977 52.928l-53.026 50.328 33.228-49.23 19.798-1.098z" fill="#c58766"/><path d="m241.883 103.586-11.847 17.035-9.27-15.811 21.117-1.224Z" fill="#e59e78"/><path d="m213.92 115.647-20.85 30.447-6.862-22.285 27.712-8.162Z" fill="#d9865b"/><path d="m207.803 235.705-59.041-33.754 68.498-19.7-9.457 53.454Z" fill="#aa5f3a"/><path d="m244.659 305.211-79.337-15.878 28.544-46.599 53.553 24.084-2.76 38.393Z" fill="#d9865b"/><path d="M148.436 235.204l-71.68 53.987c3.846-35.765 14.676-71.389 29.071-106.94l42.609 52.953zm17.457 54.115H76.756l81.782-41.725 7.355 41.725z" fill="#aa5f3a"/><path d="m125.362 371.461-74.525-82.284h114.635l-40.11 82.284Z" fill="#d9865b"/><path d="m-18.293 227.501 20.006-70.992 52.246 63.117-72.252 7.875Z" fill="#e59e78"/><path d="m47.441 222.393-71.49-77.584 116.599 1.022-45.109 76.562Z" fill="#b56c46"/><path d="m158.538 247.445-81.782 41.724 39.173-94.677 42.609 52.953Z" fill="#e59e78"/><path d="m201.254 170.068-61.134-16.916 38.099-58.567 23.035 75.483Z" fill="#c58766"/><path d="m139.526 153.128-57.728-49.722 50.689-65.704 7.039 115.426Z" fill="#e77d49"/><path d="m136.476 47.948-57.56-2.708 53.855-55.422 3.705 58.13Z" fill="#494fa9"/><path d="m79.238 99.747-44.961-1.04 53.855-55.425-8.894 56.465Z" fill="#ab64e6"/><path d="m86.37 45.262 44.958 1.04-53.853 55.422 8.894-56.462Z" fill="#b17af8"/><path d="m139.757 153.089 18.381 94.46-43.215-53.317 24.834-41.143Z" fill="#f1b886"/><path d="m165.445 289.177 91.584 18.158-159.387 96.376 67.803-114.534Z" fill="#b66c46"/><path d="m207.806 363.702 91.585 18.155-71.757 46.721-19.828-64.876Z" fill="#4119a7"/><path d="m198.447 366.582 67.528 37.136 19.125 54.125-86.653-91.261Z" fill="#6643bb"/><path d="m187.64 296.918 97.648 82.764-84.376-8.144-13.272-74.62Z" fill="#c58766"/><path d="M248.177 310.419c20.367 14.538 28.04 39.561 34.893 67.959l-59.423-51.371 24.53-16.588Z" fill="#aa5f3a"/><path d="M140.093 153.01 73.566 263.499l-47.21-142.992 113.737 32.503Z" fill="#d9865b"/><path d="M139.901 153.044 35.724 124.218l-23.769-39.59L58.53 56.243l81.372 96.801Z" fill="#e59e78"/></g><path fill-rule="evenodd" d="M107.448 308.173c2.787-2.659 9.646-13.006 3.331-47.67 0 0 1.252-19.403-3.741-12.782 0 0 1.906-3.515 1.3-6.073 0 0-1.508-5.896 4.084-11.1 0 0-.088-4.941-.991-9.371 0 0 2.705-7.079-3.457-7.578 0 0 7.376-10.439-2.387-10.956 0 0 2.552-4.803 1.861-7.997l-.744-4.235.536-3.028s-5.024-2.769-4.531-7.297c0 0-2.827 10.738-10.76 11.672 0 0-3.017 1.254-5.027 5.035 0 0-1.542 2.482-10.647 3.179s-14.55 1.946-15.983 5.269c0 0-1.034-6.376-4.277-6.199l-.205 4.889-4.873 1.536s-5.85-5.681-23.148-4.259c0 0-22.267 1.352-23.702-4.194 0 0-8.793-5.731.878-7.952l6.737.306s.585-1.11-4.148-2.114c0 0-2.895-1.83.547-1.891l10.356 1.594s3.855-1.263 12.208 3.595l3.203 1.401 13.113.043 3.04-2.053 7.02-1.049 20.1-6.713-1.181 3.112s14.033-26.189 24.812-25.843l-2.986-.903s.884-19.158 20.44-17.325l-3.191 2.793s10.714-8.01 13.982-4.036l4.574.459.229-3.224s-8.172-9.833.802-21.245c0 0 2.08-13.838 17.665-11.436 0 0 14.869 2.426 12.562 19.186 0 0-.906 9.065-14.808 13.645 0 0-7.771 3.383-9.814 4.983 0 0 15.239-6.694 18.91-7.061 0 0-3.289 4.241-3.73 7.542 0 0 3.8-11.277 20.297-10.598 0 0-5.614 2.475-7.704 5.635 0 0 5.868-2.597 11.25-6.715 0 0 9.401-6.688 16.876-7.471 0 0 1.6-.355 1.786.743 0 0 .992 1.429-4.509 4.045l-3.035 1.646s4.485-.022 7.737-2.748c0 0 4.565-5.274 7.389-6.32s7.312-5.498 13.293-7.083c0 0 7.428-1.671 8.514-5.275 0 0 .141 4.553 2.696 8.515 0 0 5.198 10.989 3.898 9.732 0 0-2.98-6.566-8.591-2.285 0 0-1.659.657-.218 4.876 0 0-1.783-.437-8.092 3.011 0 0-4.901 1.759-7.792 3.589l-29.414 18.102s-1.771 1.065 4.544 4.629c0 0-7.441-3.772-12.722-1.294l2.497.514s-1.252 7.49-4.531 9.558l1.615 1.162-6.709 9.102 12.28-1.025s-14.584 8.264-12.418 12.229c0 0 1.511 1.401-2.187 3.491 0 0-3.36 6.617 3.417 8.533l-1.839 1.278s2.206 2.76 2.096 7.45c0 0 4.231 2.659 5.256 6.241 0 0-.263 5.214 1.796 6.324 0 0-.269 2.8-3.157 5.59 0 0-3.124 6.807 6.094 3.151l-7.309 6.762s-1.511 4.986 4.785-.242c0 0-.266 4.078-6.281 6.1 0 0-2.775.698-5.516 6.649 0 0-1.9 7.504-6.202 7.924 0 0 2.95 2.107 4.186 4.436 0 0 13.926 1.82 27.192 20.336 0 0 1.114 2.2 7.141-2.631 0 0-.722 2.866-5.425 5.577s2.644 4.375 4.378 2.206l2.225.248.456 6.119s7.174 2.218 8.333 9.007c0 0 4.639 6.366 9.708 1.291 0 0-3.277 5.999 5.183 8.82l8.484 7.257 2.285.233-.3 3.408s2.041 7 2.347 11.748c0 0-11.666 12.954-19.877 15.429 0 0-7.744 1.875-4.486-9.637 0 0-1.557-3.249-.339-5.211 0 0-4.528-3.805-3.353-10.677 0 0-8.041-7.578-7.802-12.504 0 0-12.323-13.529-17.188-13.073l-5.577-1.499s2.285-6.468-14.426-11.996l-13.886-9.53s9.658 9.487 13.886 13.082c0 0-13.58 6.538-26.51 7.263l11.467.545s.422 9.086 1.869 11.681l.551-2.433s9.136-1.79 15.918 4.384c0 0 4.593 5.431 11.862 5.364l2.154 1.245s3.463-4.547 18.032-3.118c0 0 3.21 5.715 6.685 9.191 0 0 1.371 1.836 1.661 6.568 0 0 1.802 5.321 2.365 7.377s.554 7.03.456 9.353c0 0-.673 6.32 8.818 4.405 0 0 4.784-1.78 3.766 3.323 0 0-2.212 14.137-7.921 10.405 0 0-4.969-2.393-6.165-7.637l-12.452-18.54s-8.328-.505-9.518-3.273l-4.011-2.537s-2.588 2.641-4.341.432l-1.808-2.081s-13.294 1.61-29.946-3.934c0 0-8.723-2.273-13.853-2.31 0 0-6.63-.771-6.997-11.296l-.839-14.278-2.013-.538-10.224 7.82c-.643.611-1.068.816-1.068.816l1.068-.816zM248.565 95.336a25.04 25.04 0 0 1-2.852.165c-13.565 0-24.576-11.014-24.576-24.58s11.011-24.579 24.576-24.579 24.58 11.014 24.58 24.58a23.87 23.87 0 0 1-.028 1.168l.028.092c-1.395 26.8-32.972 48.737-32.972 48.737l-.174 4.051c-6.988-5.844-8.025-15.906-8.025-15.906 13.985-3.757 14.419-7.652 14.419-7.652 2.129-4.298 3.534-4.858 3.534-4.858a11.527 11.527 0 0 0 1.49-1.218z" fill="#fd0000" fill-opacity=".6" style="mix-blend-mode:multiply"/></svg>