<svg xmlns="http://www.w3.org/2000/svg" width="259" height="401" fill="none" xmlns:v="https://vecta.io/nano"><style><![CDATA[.B{fill-rule:evenodd}.C{fill:#423f70}.D{fill:#446f93}.E{fill:#5ab3d4}]]></style><path d="M206.187 344.514h1v-1.128l-1.119.135.119.993zm17.983 0l.124-.992-1.118-.14-.006 1.128 1 .004zm-.056 12.443l-1-.004-.004.834.82.153.184-.983zm-17.927 0l.146.99.854-.126v-.864h-1zm-.119-13.436c-6.955.839-12.489 3.902-16.277 8.547-3.781 4.635-5.768 10.779-5.768 17.702h2c0-6.543 1.876-12.218 5.318-16.438 3.435-4.213 8.484-7.044 14.966-7.825l-.239-1.986zm-22.045 26.249c0 7.926 2.803 14.974 8.115 20.038s13.046 8.064 22.771 8.064v-2c-9.309 0-16.517-2.865-21.391-7.511s-7.495-11.148-7.495-18.591h-2zm30.886 28.102c9.693 0 17.428-2.949 22.747-7.987s8.139-12.09 8.139-20.115h-2c0 7.543-2.637 14.045-7.514 18.663s-12.087 7.439-21.372 7.439v2zm30.886-28.102c0-15.428-10.298-24.852-21.501-26.248l-.247 1.985c10.218 1.273 19.748 9.861 19.748 24.263h2zm-22.625-25.26l-.056 12.443 2 .009.056-12.443-2-.009zm.76 13.43c2.885.54 5.111 1.93 6.623 3.907 1.517 1.985 2.362 4.624 2.362 7.724h2c0-3.462-.946-6.548-2.773-8.938-1.833-2.398-4.508-4.034-7.844-4.659l-.368 1.966zm8.985 11.631c0 4.15-1.53 7.559-4.468 9.953-2.963 2.413-7.464 3.877-13.538 3.877v2c6.37 0 11.372-1.534 14.801-4.327 3.453-2.812 5.205-6.818 5.205-11.503h-2zm-18.006 13.83c-5.9 0-10.406-1.442-13.415-3.86-2.984-2.399-4.591-5.831-4.591-10.055h-2c0 4.781 1.845 8.806 5.338 11.614 3.469 2.787 8.466 4.301 14.668 4.301v-2zm-18.006-13.915c0-3.173.916-5.837 2.52-7.806 1.601-1.963 3.939-3.298 6.91-3.733l-.291-1.979c-3.421.502-6.225 2.065-8.169 4.448-1.939 2.379-2.97 5.51-2.97 9.07h2zm10.284-12.529v-12.443h-2v12.443h2zM244 327.693v1h1v-1h-1zm0-12.301h1v-1h-1v1zm-20.625 0h-1v1h1v-1zm0-8.977l-.471-.882-.529.282v.6h1zM244 295.392l.471.882.529-.283v-.599h-1zm0-13.58h1v-1.686l-1.48.809.48.877zm-22.614 12.358l-.919.395.434 1.01.965-.527-.48-.878zm-35.568 33.523h-1v1h1v-1zm27.671-12.301v1h1v-1h-1zm-17.614 0h-1v1h1v-1zM245 327.693v-12.301h-2v12.301h2zm-1-13.301h-20.625v2H244v-2zm-19.625 1v-8.977h-2v8.977h2zm-.529-8.095l20.625-11.023-.942-1.764-20.625 11.023.942 1.764zM245 295.392v-13.58h-2v13.58h2zm-1.48-14.457l-22.613 12.358.959 1.755 22.614-12.358-.96-1.755zm-21.215 12.841c-3.013-7.022-9.166-10.89-17.481-10.89v2c7.594 0 12.975 3.462 15.643 9.679l1.838-.789zm-17.481-10.89c-6.009 0-11.045 1.993-14.572 5.792-3.519 3.792-5.434 9.272-5.434 16.061h2c0-6.422 1.807-11.368 4.9-14.7 3.085-3.324 7.553-5.153 13.106-5.153v-2zm-20.006 21.853v22.954h2v-22.954h-2zm1 23.954H244v-2h-58.182v2zm27.671-14.301h-17.614v2h17.614v-2zm-16.614 1v-8.295h-2v8.295h2zm0-8.295c0-3.424.763-5.784 2.057-7.279 1.272-1.469 3.196-2.261 5.892-2.261v-2c-3.1 0-5.65.926-7.404 2.952-1.731 1.999-2.545 4.909-2.545 8.588h2zm7.949-9.54c2.678 0 4.522.789 5.726 2.238 1.233 1.485 1.939 3.834 1.939 7.245h2c0-3.634-.744-6.528-2.401-8.523-1.687-2.031-4.175-2.96-7.264-2.96v2zm7.665 9.483v8.352h2v-8.352h-2zm-26.671-52.148v-1h-1v1h1zm0 12.301h-1v1h1v-1zm58.182 0v1h1v-1h-1zm0-12.301h1v-1h-1v1zm-59.182 0v12.301h2v-12.301h-2zm1 13.301H244v-2h-58.182v2zm59.182-1v-12.301h-2v12.301h2zm-1-13.301h-58.182v2H244v-2zm-37.813-68.456h1v-1.128l-1.119.135.119.993zm17.983 0l.124-.992-1.118-.14-.006 1.128 1 .004zm-.056 12.443l-1-.004-.004.834.82.153.184-.983zm-17.927 0l.146.99.854-.126v-.864h-1zm-.119-13.436c-6.955.838-12.489 3.902-16.277 8.546-3.781 4.636-5.768 10.78-5.768 17.703h2c0-6.543 1.876-12.218 5.318-16.439 3.435-4.212 8.484-7.043 14.966-7.824l-.239-1.986zm-22.045 26.249c0 7.926 2.803 14.974 8.115 20.038s13.046 8.064 22.771 8.064v-2c-9.309 0-16.517-2.865-21.391-7.511s-7.495-11.148-7.495-18.591h-2zm30.886 28.102c9.693 0 17.428-2.949 22.747-7.987s8.139-12.091 8.139-20.115h-2c0 7.543-2.637 14.044-7.514 18.663s-12.087 7.439-21.372 7.439v2zm30.886-28.102c0-15.428-10.298-24.852-21.501-26.248l-.247 1.984c10.218 1.274 19.748 9.862 19.748 24.264h2zm-22.625-25.26l-.056 12.443 2 .009.056-12.443-2-.009zm.76 13.43c2.885.54 5.111 1.93 6.623 3.907 1.517 1.985 2.362 4.624 2.362 7.724h2c0-3.462-.946-6.548-2.773-8.938-1.833-2.398-4.508-4.034-7.844-4.659l-.368 1.966zm8.985 11.631c0 4.15-1.53 7.559-4.468 9.953-2.963 2.413-7.464 3.876-13.538 3.876v2c6.37 0 11.371-1.533 14.801-4.326 3.453-2.813 5.205-6.818 5.205-11.503h-2zm-18.006 13.829c-5.9 0-10.406-1.441-13.415-3.859-2.984-2.399-4.591-5.831-4.591-10.055h-2c0 4.781 1.845 8.806 5.338 11.614 3.469 2.787 8.466 4.3 14.668 4.3v-2zm-18.006-13.914c0-3.173.916-5.838 2.52-7.806s3.939-3.298 6.91-3.733l-.291-1.979c-3.421.502-6.225 2.065-8.169 4.448-1.939 2.379-2.97 5.51-2.97 9.07h2zm10.284-12.529v-12.443h-2v12.443h2zM244 168.615v1h1v-1h-1zm0-12.301h1v-1h-1v1zm-16.534 0l-.634.773.277.227h.357v-1zm-7.386-6.051l-.555-.832-1.125.749 1.046.856.634-.773zM244 134.325l.554.832.446-.296v-.536h-1zm0-14.716h1v-1.889l-1.562 1.062.562.827zm-32.131 21.847l-.638.77.579.48.622-.423-.563-.827zm-26.051-21.591l.638-.77-1.638-1.358v2.128h1zm0 14.744h-1v.475l.368.3.632-.775zm25.654 20.938h1v-.475l-.368-.3-.632.775zm0 .767v1h1v-1h-1zm-25.654 0v-1h-1v1h1zm0 12.301h-1v1h1v-1zm59.182 0v-12.301h-2v12.301h2zm-1-13.301h-16.534v2H244v-2zm-15.9.226l-7.387-6.051-1.267 1.547 7.386 6.051 1.268-1.547zm-7.466-4.445l23.92-15.938-1.108-1.664-23.921 15.938 1.109 1.664zM245 134.325v-14.716h-2v14.716h2zm-1.562-15.543l-32.131 21.847 1.125 1.654 32.13-21.847-1.124-1.654zm-30.931 21.904l-26.051-21.591-1.276 1.54 26.051 21.591 1.276-1.54zm-27.689-20.821v14.744h2v-14.744h-2zm.368 15.519l25.653 20.938 1.265-1.55-25.654-20.937-1.264 1.549zm25.286 20.163v.767h2v-.767h-2zm1-.233h-25.654v2h25.654v-2zm-26.654 1v12.301h2v-12.301h-2zm1 13.301H244v-2h-58.182v2zM244 105.459v1h1v-1h-1zm0-39.318h1v-1h-1v1zm-10.142 0v-1h-1v1h1zm0 27.017v1h1v-1h-1zm-13.892 0h-1v1h1v-1zm0-24.886h1v-1h-1v1zm-10.142 0v-1h-1v1h1zm0 24.886v1h1v-1h-1zm-13.864 0h-1v1h1v-1zm0-26.903h1v-1h-1v1zm-10.142 0v-1h-1v1h1zm0 39.205h-1v1h1v-1zm59.182 0V66.141h-2v39.318h2zm-1-40.318h-10.142v2H244v-2zm-11.142 1v27.017h2V66.141h-2zm1 26.017h-13.892v2h13.892v-2zm-12.892 1V68.271h-2v24.886h2zm-1-25.886h-10.142v2h10.142v-2zm-11.142 1v24.886h2V68.271h-2zm1 23.886H195.96v2h13.864v-2zm-12.864 1V66.254h-2v26.903h2zm-1-27.903h-10.142v2h10.142v-2zm-11.142 1v39.205h2V66.254h-2zm1 40.205H244v-2h-58.182v2zM195.96 50.69v1h1v-1h-1zm0-17.812v-1h-1v1h1zm48.04 0v1h1v-1h-1zm0-12.159h1v-1h-1v1zm-48.04 0h-1v1h1v-1zm0-17.812h1v-1h-1v1zm-10.142 0v-1h-1v1h1zm0 47.784h-1v1h1v-1zm11.142 0V32.878h-2V50.69h2zm-1-16.812H244v-2h-48.04v2zm49.04-1V20.719h-2v12.159h2zm-1-13.159h-48.04v2H244v-2zm-47.04 1V2.906h-2v17.812h2zm-1-18.812h-10.142v2h10.142v-2zm-11.142 1V50.69h2V2.906h-2zm1 48.784h10.142v-2h-10.142v2z" fill="#042365" fill-opacity=".12"/><mask id="A" maskUnits="userSpaceOnUse" x="0" y="34" width="220" height="350" mask-type="alpha"><path d="M8.483 365.878s8.15-3.709 12.776 4.751.728 8.78 7.031 8.719c0 0-.875 4.559-11.507 4.479 0 0-22.903-.058-15.199-9.007 0 0 7.505-6.825 6.899-8.942zm152.192.856s9.775.842 17.91-3.674L184.93 374s3.063 7.175-3.429 8.463l-13.902-.101s-10.595-5.489-6.924-15.628zM61.564 266.375s4.127 13.908 23.79 19.269c0 0 4.803 1.018.526 9.478 0 0-6.079 12.265-11.097 16.876l-8.374 12.855s-5.892 8.028-14.147 17.1c0 0-11.531 12.868-14.413 19.721 0 0-3.852 14.346-8.383 16.346 0 0-4.28 3.332-5.602-5.259 0 0-3.053-12.745-16.27-7.758 0 0-4.231 1.26-.462-5.312 0 0 8.747-11.69 13.015-28.397 0 0 15.872-37.277 25.439-48.184 0 0 10.06-19.498 15.977-16.735zm92.062 67.461s3.359-6.131 10.418 1.631 28.039 4.001 30.738-4.452l1.064-4.213s1.359-1.676 2.124.731c0 0 3.328 6.162-2.702 17.47 0 0-.67 2.68-3.059 4.35 0 0 .024 2.751-6.912 8.674l-6.642 4.219s-7.654 3.084-14.872 2.365c0 0-2.86 1.686-8.597 1.166s-4.007-5.587-4.739-10.378c0 0-13.529-11.699 2.653-15.013l.526-6.55zm31.142-168.178c-4.69 1.515-10.907-3.249-10.907-3.249-1.615 2.044-4.154 2.307-4.154 2.307-2.846 19.302 3.879 62.168 3.879 62.168l9.044 40.648c3.246 13.192 8.597 44.661 8.597 44.661 2.686-.679 2.554-.076 2.554-.076-2.046 1.221-1.753 5.167-1.753 5.167.334 4.02-1.199 5.715-1.199 5.715-3.745 3.516-8.707 13.927-8.707 13.927-4.868 3.521-13.294.425-16.179-1.888s-7.633-5.614-9.56-4.359-2.934 1.982-3.093.403-1.75-7.703-1.75-7.703c-4.535-5.865-4.125-16.454-4.125-16.454-6.819-21.578-16.291-26.755-16.291-26.755-15.404-7.544-38.396 19.272-38.396 19.272-16.506 20.379-19.449 16.325-19.449 16.325 8.499-6.658 14.569-20.229 14.569-20.229 6.045-11.892-3.417-12.082-3.417-12.082-12.507-3.118-18.02-11.684-18.02-11.684l22.857-29.053c1.395-17.013 8.019-19.663 8.019-19.663-12.406-7.541-5.446-18.46-5.446-18.46 8.26-23.117 4.237-30.962 4.237-30.962-2.72-9.958-3.255-27.786-3.255-27.786-1.178-23.845 18.916-21.538 18.916-21.538 1.362-1.46 4.029-1.42 4.029-1.42-2.025-3.849-1.869-13.137-1.869-13.137-2.212-3.197.383-4.898.383-4.898v-8.46c-.741-.45-2.166-3.001-2.166-3.001-.557-1.912 4.549-2.46 4.549-2.46.333-17.399 18.929-16.524 18.929-16.524 21.088 1.811 21.728 24.944 21.728 24.944h.593l-.403.847c-2.433 16.093-9.365 14.998-9.365 14.998l-.863 5.935v3.653c-7.909 1.267-12.535 4.693-12.535 4.693-10.255 1.028-17.172 4.669-17.172 4.669-4.963 2.484-1.068 6.345-1.068 6.345l12.391 9.634c25.824 1.493 43.814-19.797 43.814-19.797.251 2.505 2.882 4.194 2.882 4.194 11.549 1.505 17.68 1.943 17.68 1.943-7.486 8.309-7.618 21.233-7.618 21.233l10.959.648c-9.144.6-11.843 7.297-11.849 7.309zm2.879 163.616l-4.901 8.386s8.97.147 12.036-10.127c0 0-3.424 2.041-7.135 1.741zm-2.876-163.616c.031-.015 5.33-2.398.603-.232a5.93 5.93 0 0 1-.603.232h-.003.003zm9.414-28.217l3.684-.395-.169-9.19s7.585 6.709 11.642-.802l.226-.618s6.024 2.913 6.128 20.924c0 0 .009 6.189-8.811 7.648l-20.358 1.056c2.056-8.099 3.757-15.799 7.658-18.623zm-77.523.141s3.928-5.333 18.051-6.41c0 0 8.41-5.143 19.929-6.936 0 0 22.205-13.235 22.539-14.29s-1.346 9.625 3.54 13.287l-18.899 14.162s-12.504 11.393-30.307 12.226c-8.089-4.253-12.243-8.206-14.853-12.039zm80.604-11.605c3.032-1.829 5.954-3.925 8.389-7.223l3.775 6.838s-3.79 8.649-12.164.385zm9.83-6.012c.392.49 6.113 2.98 9.047-1.211l3.72 5.069s-2.793 4.44-7.492 4.036l-5.275-7.894c-.006-.009-.012-.015-.015-.024l.015.024zm-28.814-10.093s-2.145 13.189 11.761 17.987c0 0 1.851 0 2.065-1.827 0 0 19.534-2.533 17.114-25.069l-1.407-.948s.278-4.599-2.493-3.568c0 0-2.84-3.993-5.113-1.236 0 0-6.911 1.071-9.732 4.501 0 0-.78 8.288-8.15 3.628 0 0-1.151 2.644-1.056 3.959s-1.285 2.038-2.989 2.573zm31.148-12.467l9.861 9.515s.587 10.549-6.321 13.088c0 0-6.134.771-5.889-3.065 0 0 5.32-5.116 2.349-16.197 0 0-1.116-2.038 0-3.341zm-64.318-63.162s4.381 5.394 6.733 9.289c0 0 25.709 32.629 38.996 42.034 0 0 .814 13.67-3.224 17.702 0 0-2.962 3.041-9.454-4.534 0 0-21.168-20.134-24.956-24.638 0 0-22.007-20.559-14.41-34.18 0 0 3.723-7.324 6.315-5.672zm47.782 54.238s-3.169.756-1.631 5.972c0 0 .848 5.033 7.383-.226 0 0 2.405-3.332-.704-5.911-1.906-.673-3.607-.673-5.048.165z" fill="#e39c5e" class="B"/></mask><g mask="url(#A)" class="B"><path d="M84.241 110.061l48.067 46.191 5.691-93.27-53.758 47.079z" class="C"/><path d="M56.881 176.992l54.149 89.278 20.795-110.042-74.944 20.764z" class="D"/><path d="M76.764 222.999l47.706-27.271-55.349-15.919 7.642 43.19z" fill="#5c9eab"/><path d="M46.871 279.079l64.108-12.831-23.065-37.656-43.273 19.465 2.23 31.022z" class="C"/><path d="M125.287 222.599l57.918 43.621c-3.108-28.899-11.858-57.686-23.49-86.411l-34.428 42.79z" fill="#3e7bba"/><path d="M111.602 266.268h72.025l-66.084-33.715-5.941 33.715z" fill="#3e7bba"/><path d="M144.011 332.706l60.219-66.491h-92.628l32.409 66.491z" class="E"/><path d="M183.339 388.307l57.765-62.688-94.215.823 36.45 61.865z" class="E"/><path d="M207.434 332.76l-16.166-57.364-42.217 51.001 58.383 6.363z" fill="#42719e"/><path d="M182.364 384.023l-16.766-25.173-25.91-16.491 23.273 50.637 19.403-8.973z" class="D"/><path d="M117.367 232.57l66.084 33.715-31.194-76.755-34.89 43.04z" class="C"/><path d="M82.805 169.877l49.398-13.666-30.785-47.327-18.613 60.993z" fill="#65a7bd"/><path d="M131.768 156.252l46.647-40.18-40.956-53.09-5.691 93.27z" fill="#456e93"/><path d="M134.648 71.251l46.51-2.19-43.514-44.781-2.996 46.972z" class="D"/><path d="M181.436 113.108l36.331-.842-43.517-44.784 7.186 45.626z" fill="#4ca0c8"/><path d="M175.296 68.562l-36.328.838 43.514 44.785-7.186-45.623z" class="C"/><path d="M132.221 156.228l-14.854 77.395 34.918-44.151-20.064-33.244z" fill="#45849b"/><path d="M37.564 339.839l-78.609 19.657 58.861 36.799 19.749-56.456z" fill="#2c4ea3"/><path d="M111.445 266.215L37.44 280.888l128.79 77.875-54.785-92.548z" fill="#3e79b8"/><path d="M77.6 326.339L3.595 341.012l57.986 37.75L77.6 326.339z" class="E"/><path d="M84.421 328.859l-54.565 30.01L14.402 402.6l70.018-73.741z" fill="#4ea7cc"/><path d="M93.305 272.336l-78.903 66.876 68.18-6.578 10.723-60.298z" fill="#4167a3"/><path d="M45.474 283.676c-16.457 11.742-22.655 31.965-28.193 54.911l47.908-42.101-19.715-12.81z" fill="#42719e"/><path d="M131.768 156.211l53.754 89.278 38.152-115.543-91.906 26.265z" fill="#4ca0c8"/><path d="M131.768 156.143l84.181-23.294 19.204-31.987-37.634-22.939-65.751 78.221z" class="D"/></g><path d="M8.483 365.878s8.15-3.709 12.776 4.751.728 8.78 7.031 8.719c0 0-.875 4.559-11.507 4.479 0 0-22.903-.058-15.199-9.007 0 0 7.505-6.825 6.899-8.942zm152.192.856s9.775.842 17.91-3.674L184.93 374s3.063 7.175-3.429 8.463l-13.902-.101s-10.595-5.489-6.924-15.628zM61.564 266.375s4.127 13.908 23.79 19.269c0 0 4.803 1.018.526 9.478 0 0-6.079 12.265-11.097 16.876l-8.374 12.855s-5.892 8.028-14.147 17.1c0 0-11.531 12.868-14.413 19.721 0 0-3.852 14.346-8.383 16.346 0 0-4.28 3.332-5.602-5.259 0 0-3.053-12.745-16.27-7.758 0 0-4.231 1.26-.462-5.312 0 0 8.747-11.69 13.015-28.397 0 0 15.872-37.277 25.439-48.184 0 0 10.06-19.498 15.977-16.735zm92.062 67.461s3.359-6.131 10.418 1.631 28.039 4.001 30.738-4.452l1.064-4.213s1.359-1.676 2.124.731c0 0 3.328 6.162-2.702 17.47 0 0-.67 2.68-3.059 4.35 0 0 .024 2.751-6.912 8.674l-6.642 4.219s-7.654 3.084-14.872 2.365c0 0-2.86 1.686-8.597 1.166s-4.007-5.587-4.739-10.378c0 0-13.529-11.699 2.653-15.013l.526-6.55zm31.142-168.178c-4.69 1.515-10.907-3.249-10.907-3.249-1.615 2.044-4.154 2.307-4.154 2.307-2.846 19.302 3.879 62.168 3.879 62.168l9.044 40.648c3.246 13.192 8.597 44.661 8.597 44.661 2.686-.679 2.554-.076 2.554-.076-2.046 1.221-1.753 5.167-1.753 5.167.334 4.02-1.199 5.715-1.199 5.715-3.745 3.516-8.707 13.927-8.707 13.927-4.868 3.521-13.294.425-16.179-1.888s-7.633-5.614-9.56-4.359-2.934 1.982-3.093.403-1.75-7.703-1.75-7.703c-4.535-5.865-4.125-16.454-4.125-16.454-6.819-21.578-16.291-26.755-16.291-26.755-15.404-7.544-38.396 19.272-38.396 19.272-16.506 20.379-19.449 16.325-19.449 16.325 8.499-6.658 14.569-20.229 14.569-20.229 6.045-11.892-3.417-12.082-3.417-12.082-12.507-3.118-18.02-11.684-18.02-11.684l22.857-29.053c1.395-17.013 8.019-19.663 8.019-19.663-12.406-7.541-5.446-18.46-5.446-18.46 8.26-23.117 4.237-30.962 4.237-30.962-2.72-9.958-3.255-27.786-3.255-27.786-1.178-23.845 18.916-21.538 18.916-21.538 1.362-1.46 4.029-1.42 4.029-1.42-2.025-3.849-1.869-13.137-1.869-13.137-2.212-3.197.383-4.898.383-4.898v-8.46c-.741-.45-2.166-3.001-2.166-3.001-.557-1.912 4.549-2.46 4.549-2.46.333-17.399 18.929-16.524 18.929-16.524 21.088 1.811 21.728 24.944 21.728 24.944h.593l-.403.847c-2.433 16.093-9.365 14.998-9.365 14.998l-.863 5.935v3.653c-7.909 1.267-12.535 4.693-12.535 4.693-10.255 1.028-17.172 4.669-17.172 4.669-4.963 2.484-1.068 6.345-1.068 6.345l12.391 9.634c25.824 1.493 43.814-19.797 43.814-19.797.251 2.505 2.882 4.194 2.882 4.194 11.549 1.505 17.68 1.943 17.68 1.943-7.486 8.309-7.618 21.233-7.618 21.233l10.959.648c-9.144.6-11.843 7.297-11.849 7.309zm2.879 163.616l-4.901 8.386s8.97.147 12.036-10.127c0 0-3.424 2.041-7.135 1.741zm-2.876-163.616c.031-.015 5.33-2.398.603-.232a5.93 5.93 0 0 1-.603.232h-.003.003zm9.414-28.217l3.684-.395-.169-9.19s7.585 6.709 11.642-.802l.226-.618s6.024 2.913 6.128 20.924c0 0 .009 6.189-8.811 7.648l-20.358 1.056c2.056-8.099 3.757-15.799 7.658-18.623zm-77.523.141s3.928-5.333 18.051-6.41c0 0 8.41-5.143 19.929-6.936 0 0 22.205-13.235 22.539-14.29s-1.346 9.625 3.54 13.287l-18.899 14.162s-12.504 11.393-30.307 12.226c-8.089-4.253-12.243-8.206-14.853-12.039zm80.604-11.605c3.032-1.829 5.954-3.925 8.389-7.223l3.775 6.838s-3.79 8.649-12.164.385zm9.83-6.012c.392.49 6.113 2.98 9.047-1.211l3.72 5.069s-2.793 4.44-7.492 4.036l-5.275-7.894c-.006-.009-.012-.015-.015-.024l.015.024zm-28.814-10.093s-2.145 13.189 11.761 17.987c0 0 1.851 0 2.065-1.827 0 0 19.534-2.533 17.114-25.069l-1.407-.948s.278-4.599-2.493-3.568c0 0-2.84-3.993-5.113-1.236 0 0-6.911 1.071-9.732 4.501 0 0-.78 8.288-8.15 3.628 0 0-1.151 2.644-1.056 3.959s-1.285 2.038-2.989 2.573zm31.148-12.467l9.861 9.515s.587 10.549-6.321 13.088c0 0-6.134.771-5.889-3.065 0 0 5.32-5.116 2.349-16.197 0 0-1.116-2.038 0-3.341zm-64.318-63.162s4.381 5.394 6.733 9.289c0 0 25.709 32.629 38.996 42.034 0 0 .814 13.67-3.224 17.702 0 0-2.962 3.041-9.454-4.534 0 0-21.168-20.134-24.956-24.638 0 0-22.007-20.559-14.41-34.18 0 0 3.723-7.324 6.315-5.672zm47.782 54.238s-3.169.756-1.631 5.972c0 0 .848 5.033 7.383-.226 0 0 2.405-3.332-.704-5.911-1.906-.673-3.607-.673-5.048.165z" fill="#042365" style="mix-blend-mode:overlay" class="B"/></svg>