<svg xmlns="http://www.w3.org/2000/svg" width="261" height="370" fill="none" xmlns:v="https://vecta.io/nano"><path fill="#042365" fill-opacity=".12" d="M95 365.486v1h1v-1h-1zm0-9.841h1v-1h-1v1zm-19.227 0h-1v1h1v-1zm0-18.932h1v-1h-1v1zm-8.114 0v-1h-1v1h1zm0 18.932v1h1v-1h-1zm-11.09 0h-1v1h1v-1zm0-20.977h1v-1h-1v1zm-8.114 0v-1h-1v1h1zm0 30.818h-1v1h1v-1zm47.545 0v-9.841h-2v9.841h2zm-1-10.841H75.773v2H95v-2zm-18.227 1v-18.932h-2v18.932h2zm-1-19.932h-8.114v2h8.114v-2zm-9.114 1v18.932h2v-18.932h-2zm1 17.932H56.57v2h11.09v-2zm-10.09 1v-20.977h-2v20.977h2zm-1-21.977h-8.114v2h8.113v-2zm-9.114 1v30.818h2v-30.818h-2zm1 31.818H95v-2H48.455v2zm23.272-86.21c-7.823 0-14.065 2.432-18.357 6.548s-6.552 9.836-6.552 16.247h2c0-5.93 2.082-11.107 5.937-14.804s9.569-5.991 16.972-5.991v-2zm-24.909 22.795c0 6.444 2.26 12.165 6.553 16.274s10.535 6.521 18.356 6.521v-2c-7.405 0-13.118-2.278-16.973-5.966s-5.936-8.864-5.936-14.829h-2zm24.91 22.795c7.788 0 14.029-2.415 18.329-6.521s6.58-9.828 6.58-16.274h-2c0 5.963-2.098 11.14-5.961 14.828s-9.578 5.967-16.949 5.967v2zm24.908-22.795c0-6.411-2.26-12.131-6.552-16.247s-10.533-6.548-18.357-6.548v2c7.404 0 13.117 2.294 16.973 5.991s5.936 8.874 5.936 14.804h2zm-24.909-10.818c4.787 0 8.34 1.137 10.675 3.012 2.308 1.854 3.53 4.509 3.53 7.806h2c0-3.84-1.45-7.094-4.277-9.365-2.802-2.25-6.851-3.453-11.928-3.453v2zm14.205 10.818c0 3.309-1.222 5.963-3.53 7.814-2.334 1.872-5.886 3.004-10.675 3.004v2c5.076 0 9.125-1.197 11.927-3.444 2.83-2.269 4.278-5.524 4.278-9.374h-2zm-14.205 10.818c-4.788 0-8.34-1.132-10.675-3.004-2.307-1.851-3.53-4.505-3.53-7.814h-2c0 3.85 1.45 7.105 4.279 9.374 2.801 2.247 6.851 3.444 11.926 3.444v-2zm-14.204-10.818c0-3.297 1.221-5.952 3.53-7.806 2.335-1.875 5.887-3.012 10.674-3.012v-2c-5.076 0-9.126 1.203-11.927 3.453-2.828 2.271-4.277 5.525-4.277 9.365h2zm14.204-76.858c-7.823 0-14.065 2.433-18.357 6.548s-6.552 9.837-6.552 16.248h2c0-5.931 2.082-11.108 5.937-14.804s9.569-5.992 16.972-5.992v-2zm-24.909 22.796c0 6.443 2.26 12.165 6.553 16.273s10.535 6.522 18.356 6.522v-2c-7.405 0-13.118-2.279-16.973-5.967s-5.936-8.863-5.936-14.828h-2zm24.91 22.795c7.788 0 14.029-2.415 18.329-6.521s6.58-9.829 6.58-16.274h-2c0 5.963-2.098 11.139-5.961 14.827s-9.578 5.968-16.949 5.968v2zm24.908-22.795c0-6.411-2.26-12.132-6.552-16.248s-10.533-6.548-18.357-6.548v2c7.404 0 13.117 2.295 16.973 5.992s5.936 8.873 5.936 14.804h2zM71.727 238.19c4.787 0 8.34 1.138 10.675 3.013 2.308 1.854 3.53 4.509 3.53 7.806h2c0-3.84-1.45-7.094-4.277-9.365-2.802-2.25-6.851-3.454-11.928-3.454v2zm14.205 10.819c0 3.308-1.222 5.963-3.53 7.813-2.334 1.873-5.886 3.005-10.675 3.005v2c5.076 0 9.125-1.198 11.927-3.445 2.83-2.269 4.278-5.523 4.278-9.373h-2zm-14.205 10.818c-4.788 0-8.34-1.132-10.675-3.005-2.307-1.85-3.53-4.505-3.53-7.813h-2c0 3.85 1.45 7.104 4.279 9.373 2.801 2.247 6.851 3.445 11.926 3.445v-2zm-14.204-10.818c0-3.297 1.221-5.952 3.53-7.806 2.334-1.875 5.887-3.013 10.674-3.013v-2c-5.076 0-9.126 1.204-11.927 3.454-2.828 2.271-4.277 5.525-4.277 9.365h2zm-.955-29.25v1h1v-1h-1zm0-14.25v-1h-1v1h1zm38.432 0v1h1v-1h-1zm0-9.728h1v-1h-1v1zm-38.432 0h-1v1h1v-1zm0-14.25h1v-1h-1v1zm-8.113 0v-1h-1v1h1zm0 38.228h-1v1h1v-1zm9.113 0v-14.25h-2v14.25h2zm-1-13.25H95v-2H56.568v2zm39.432-1v-9.728h-2v9.728h2zm-1-10.728H56.568v2H95v-2zm-37.432 1v-14.25h-2v14.25h2zm-1-15.25h-8.113v2h8.113v-2zm-9.113 1v38.228h2v-38.228h-2zm1 39.228h8.113v-2h-8.113v2zM95 171.236v1h1v-1h-1zm-24.16-25.682v1h.955l.045-.953-1-.047zm-.454 0l-.975.22.176.78h.8v-1zm-21.931 25.682h-1v1h1v-1zm38.5-9.841v1h1v-1h-1zm-12.364 0h-1v1h1v-1zm-6.66 0v1h1v-1h-1zm-11.522 0h-1v1h1v-1zM96 171.236v-19.887h-2v19.887h2zm0-19.887c0-5.393-1.407-9.651-3.89-12.578-2.498-2.943-6.002-4.444-9.974-4.444v2c3.438 0 6.365 1.282 8.448 3.738 2.096 2.47 3.416 6.223 3.416 11.284h2zm-13.864-17.022c-7.445 0-12.02 5.377-12.294 11.18l1.998.094c.226-4.788 3.97-9.274 10.296-9.274v-2zm-11.295 10.227h-.455v2h.455v-2zm.52.78c-.582-2.585-1.802-4.886-3.664-6.546-1.873-1.67-4.34-2.643-7.31-2.643v2c2.507 0 4.493.811 5.979 2.135 1.495 1.334 2.536 3.238 3.045 5.494l1.95-.44zm-10.975-9.189c-3.755 0-7.035 1.405-9.356 4.242-2.302 2.813-3.575 6.928-3.575 12.212h2c0-4.987 1.203-8.6 3.123-10.946 1.9-2.323 4.586-3.508 7.808-3.508v-2zm-12.931 16.454v18.637h2v-18.637h-2zm1 19.637H95v-2H48.455v2zm38.5-11.841H74.59v2h12.364v-2zm-11.364 1v-8.25h-2v8.25h2zm0-8.25c0-2.175.626-3.838 1.595-4.943.96-1.094 2.322-1.716 3.973-1.716v-2c-2.19 0-4.113.843-5.476 2.397-1.354 1.543-2.092 3.709-2.092 6.262h2zm5.568-6.659c1.504 0 2.637.5 3.425 1.499.818 1.039 1.37 2.754 1.37 5.387h2c0-2.867-.594-5.095-1.8-6.624-1.235-1.569-2.999-2.262-4.995-2.262v2zm4.795 6.886v8.023h2v-8.023h-2zm-18.022 7.023H56.409v2h11.523v-2zm-10.523 1v-7.477h-2v7.477h2zm0-7.477c0-2.02.52-3.477 1.31-4.412.773-.917 1.885-1.429 3.304-1.429v-2c-1.945 0-3.64.726-4.833 2.139-1.176 1.394-1.78 3.357-1.78 5.702h2zm4.614-5.841c1.542 0 2.733.616 3.559 1.633.841 1.037 1.35 2.554 1.35 4.389h2c0-2.187-.605-4.181-1.798-5.65-1.209-1.489-2.972-2.372-5.111-2.372v2zm4.909 6.022v7.296h2v-7.296h-2zM95 116.901h1v-.727l-.69-.224-.31.951zm-10.614-3.455h-1v.726l.69.225.31-.951zm0-16.795l-.31-.951-.69.224v.727h1zM95 93.196l.31.95.69-.224v-.726h-1zm0-10.545h1v-1.403l-1.326.457.326.946zM48.455 98.696l-.326-.945-.674.232v.713h1zm0 12.682h-1v.713l.673.232.327-.945zM95 127.446l-.326.945 1.326.458v-1.403h-1zm-18.296-16.5l-.309.951 1.31.426v-1.377h-1zm-17.613-5.727h-1v.726l.69.225.31-.951zm0-.364l-.31-.951-.69.225v.726h1zm17.613-5.727h1V97.75l-1.309.426.31.95zM95.31 115.95l-10.614-3.455-.62 1.902 10.615 3.454.618-1.901zm-9.924-2.504V96.651h-2v16.795h2zm-.69-15.844l10.614-3.455-.62-1.902L84.078 95.7l.619 1.901zM96 93.195V82.651h-2v10.545h2zm-1.326-11.49L48.13 97.75l.651 1.89 46.546-16.045-.652-1.89zm-47.22 16.99v12.682h2V98.696h-2zm.674 13.627l46.546 16.068.652-1.89-46.545-16.068-.653 1.89zM96 127.446v-10.545h-2v10.545h2zm-18.986-17.451L59.4 104.268l-.618 1.902 17.613 5.727.619-1.902zm-16.923-4.776v-.364h-2v.364h2zm-.69.587l17.613-5.727-.619-1.902-17.613 5.727.618 1.902zm16.303-6.678v11.818h2V99.128h-2zM95 73.048v1h1v-1h-1zm0-29.795h1v-1h-1v1zm-8.114 0v-1h-1v1h1zm0 19.954v1h1v-1h-1zm-38.431 0v-1h-1v1h1zm0 9.841h-1v1h1v-1zm47.545 0V43.253h-2v29.795h2zm-1-30.795h-8.114v2H95v-2zm-9.114 1v19.954h2V43.253h-2zm1 18.954H48.455v2h38.431v-2zm-39.431 1v9.841h2v-9.84h-2zm1 10.841H95v-2H48.455v2zM95 32.736v1h1v-1h-1zM95 2.94h1v-1h-1v1zm-8.114 0v-1h-1v1h1zm0 19.955v1h1v-1h-1zm-38.431 0v-1h-1v1h1zm0 9.84h-1v1h1v-1zm47.545 0V2.94h-2v29.796h2zM95 1.94h-8.114v2H95v-2zm-9.114 1v19.955h2V2.94h-2zm1 18.955H48.455v2h38.431v-2zm-39.431 1v9.84h2v-9.84h-2zm1 10.84H95v-2H48.455v2z"/><mask id="A" width="261" height="297" x="0" y="73" maskUnits="userSpaceOnUse" mask-type="alpha"><path fill="#fff" fill-rule="evenodd" d="M203.032 355.492l-.135.156c-.174.171-.541.269-.722.449-.052.052-.324.034-.391.092-.27.242-.517.162-.823.3-.432.196-1.148.707-1.701.707.407 0 .777-.104 1.08-.257.321-.163.875.116 1.22 0 .621-.208 1.674-.285 2.31-.025.517.214 1.2-.046 1.689.178.434.195 1.147 0 1.576.195.143.065.37-.052.52 0 .645.215 1.435-.027 2.004.233.373.174.924-.031 1.309.098.098.03.459-.031.529.04.144.14.677.091.82.235.117.113.456.095.557.196.147.147.45.079.686.196.559.281 1.275.404 1.597.722.235.241.483.685.706.786.129.061.523.282.575.395l.765 1.667c.114.251 0 .814 0 1.092 0 1.135-.422 1.769-1.364 2.234-.199.098-.481.352-.71.352-.563 0-.548.348-.869.67-.107.104-.376.049-.483.156-.306.306-.808.504-1.12.648-.496.224-1.169.169-1.738.45-.116.058-.624.018-.624.135-.63 0-1.774.195-2.126.544-.202.202-1.732 0-2.013 0-1.086 0-2.879-.15-3.91.193-.585.193-1.316-.083-1.906.113-1.194.398-2.628-.232-3.861-.232-1.698 0-3.216-.043-4.837-.043-.398 0-1.677-.15-1.903.076-.132.135-.652-.128-.781 0-.18.181-.737.193-.939.389-.079.079-.404-.08-.483 0-.251.251-1.144.122-1.591.269-1.025.34-2.325-.162-3.2.233-.318.143-.673-.062-.891.156-.275.272-1.067-.01-1.312.232-.456.456-2.145-.199-2.145.425-1.193 0-2.086-.076-3.435-.076-1.249 0-1.943.474-2.812-.395-.465-.465-.471-1.251-.86-1.64-.342-.345.138-1.912-.079-2.389-.82-1.805-.787-4.975.422-6.189.242-.242-.159-1.197 0-1.515.287-.578.477-.887.857-1.266.287-.291.104-.762.269-1.123s.532-1.022.829-1.319c.125-.125-.003-.673.232-.78.416-.19.802.242.949.389.804.807.465 1.306.465 2.407 0 .878-.349 1.132.229 1.711.037.036.413.443.621.232.533-.535 1.102-.584 1.478-.961.428-.431 1.257-.428 1.646-.816.236-.239.661-.701 1.01-.86.973-.444 2.196-1.218 2.863-1.888 1.447-1.453 3.017-2.206 4.29-3.485.104-.104.452.031.56-.076.804-.811 1.196.545 1.428.777.052.049.309.756.582.48.217-.22.59-.201.777-.391.195-.196.033-.75.232-.952.303-.303.621-1.187.621-1.655l-.067-.18c.603.602 1.019 1.456 1.591 2.028.113.116.275-.541.287-.554.101-.104.75-.428.921-.257.297.3.689.475.958.747.6.603.805 1.462 1.508 1.814.667.337.719 1.279 1.423 1.628.165.085.327.373.474.44.872.395 1.775.998 2.579 1.365a3.41 3.41 0 0 0 1.377.294c.07 0 .269.018.41 0 .073-.086.141-.153.141-.08 0 .046-.062.07-.141.08zM40.829 259.945c1.291-.404 2.818-.56 4.593-.226l.153 3.16 2.361.092s1.686-3.271 4.917-2.332c0 0 9.968-8.884 19.247.456l1.12.481.547-.952.603.514 5.66-6.611.673-1.117s.389-.242-3.47-1.108c0 0 5.388-.728 8.49-5.035 0 0 5.34-6.578 10.519-11.158 0 0 5.244-3.892 5.446-6.89l1.793 2.267s.605-3.139-1.16-5.241c0 0 1.42-1.251 7.664-1.94 0 0 .502-.244 1.692-2.817l1.646-2.087.287-2.539s4.972-1.539 5.33-4.73c0 0-.774-1.836-1.276-2.509s3.959-2.977 3.959-2.977 6.954-2.808 1.49-2.631-.177-2.937-.177-2.937 5.234-2.334 1.404-4.549-.704-6.269-.704-6.269 3.586-3.785-.697-5.538-1.711-7.719-1.711-7.719-6.348-5.259-8.578-12.745l-.334-1.037s-7.18 5.384-8.912 10.94c0 0-3.026.533-5.335 3.115 0 0-5.706 6.223-8.64 7.4l1.988-.052s-6.174 9.681-10.182 17.681c0 0-3.934 6.244-6.461 10.674 0 0-.845 1.399-.74 3.883s-.827-.716-.827-.716-.578 2.169-3.386 8.768c0 0-1.39 3.329-1.478 6.982s-1.15.389-1.15.389-.845-1.209-.453 5.158c0 0 1.46 3.478-1.619 9.873 0 0-1.563 2.279-1 5.608 0 0-3.696.116-3.185-2.971 0 0 .71-1.083.294-2.873l-.248-1.885s-3.384 3.693-5.627 5.168c0 0-4.24 3.325-5.27 6.89 0 0-1.497 4.757-3.342 4.928 0 0-1.178-2.212 3.044-10.824l.777-1.937s-1.16.915-2.618 2.934c0 0-.93-1.701 1.22-4.87 0 0-.56-.3-1.324.541 0 0-.248-2.799.688-4.035l-.927.144s.168-3.968 1.126-5.865l6.972-7.817s3.12-4.458 4.482-8.264c0 0 1.704-4.096 1.943-6.611 0 0-.318-.291 3.026-7.07 0 0 5.43-18.596 10.49-25.504l12.395-17.313 9.998-14.212s2.013-1.386-.126-2.083l3.601-5.421-1.985-.67s2.218.593 5.745-6.278c0 0 1.558-4.461 9.114-6.694s2.537-3.406 9.809-6.557l5.571-2.815s2.344.316 3.087-3.784c0 0 4.336-1.19 4.216-5.942 0 0 .734 4.681-3.466 7.518 0 0 2.894 1.193 9.233 6.232 0 0 4.207 3.132 8.548 3.356 0 0-12.929 5.06-18.335 8.404 0 0 9.952-3.374 18.556-7.15 0 0 2.273-.927 5.234-1.156 0 0 2.423-.27 4.449-5.379 0 0 1.45-2.918 3.139-4.577 0 0 .578 1.863-2.071 5.284 0 0 3.711-.233 4.592-7.912 0 0 .104-3.757 4.546-2.655 0 0 4.531.709 5.599 6.642 0 0 .994-.53-.425-4.923 0 0 4.977-2.46 10.316 6.018 0 0 2.178 5.804 3.39 7.168a7.24 7.24 0 0 0 .609 2.876s.183 1.154 3.463 1.594c0 0 1.469.031-1.404 2.126 0 0 1.165.398 2.726-1.165 0 0 5.213 3.601 1.373 8.239 0 0-2.594 2.711-5.647 2.509l1.624 1.93-1.741 1.808s-3.732-3.09-5.926-3.004l-.248-11.1s-2.074 14.172-2.129 26.74l.358 32.329s1.392 8.098.416 16.613 5.541 7.449 2.301 17.396c0 0 2.481 6.727 8.897 6.483l-4.559 1.303s10.564 8.903 15.554 24.996c0 0 .998 5.785 5.229 6.666 0 0-3.625-.024-4.464-1.331 0 0 .676 1.695.245 3.485l-.392 1.267 2.65 4.543s.447 2.545-.994 9.044c0 0-1.558 32.127-7.912 42.095 0 0-4.158 14.324-8.224 20.376l.083.939s-1.805-1.851-2.2 1.774c0 0-2.307-2.585-5.477 2.05 0 0-9.664 10.668-8.59 2.72 0 0 4.274-11.592 4.671-19.804l.719-5.846.361.198s-1.487-19.837 4.403-29.416c0 0 1.872-3.803.939-11.813l-1.337.704-.541-1.744s-8.377 1.655-16.023 1.053c0 0-1.456-.251-1.306-.891 0 0-.465-1-3.69 2.341 0 0 2.732-4.057 1.744-7.413s-1.836-3.522-2.481-4.733c0 0-.517-4.911-.536-8.279s-.633-2.402-.633-2.402.349 8.062-1.621 9.319 2.619-5.121-9.729-16.637c0 0-1.873-1.741-2.628-1.569l-.817-1.775s-5.428 4.277-20.34 5.733c0 0-.428 2.059-7.789 1.396 0 0-1.94 1.343-2.732 4.118l-.777-.946s-1.23 1.209-2.148 2.901c0 0-1.208-1.08-4.249-2.136 0 0-4.085-.493-10.063 7.043 0 0-3.206 5.299-12.522 9.665 0 0-12.363 9.502-32.4-6 0 0-4.112-2.298-5.816-3.616 0 0-1.9-1.04-2.86.055l2.08.532s-.015 3.252-6.085 2.867c0 0-2.074.116-3.598-2.512 0 0-5.507.251-2.787-1.808l.128-7.881s1.343-2.359 4.1-3.687c-.358.012-.786-.03-.991.175-.447.443-1.567.462-1.977.869-.872.865-1.147 2.435-1.936 3.221-.07.067-.077 1.661 0 1.738.477.477.312 2.496.08 3.237-.194.609.057 1.269-.163 1.756-.092.205.01 1.08-.12 1.208-.03.028-.47.028-.501 0-.315-.318-1.12-.183-1.6.037-.14.064-1.178.184-1.004.358.313.312 1.126.064 1.386.321.533.536 1.258 1.001 1.787 1.53.45.453 1.45-.168 1.946.08.422.211.74.483 1 .74.297.3 1.316.015 1.625.321.49.49-.14 1.065-.422 1.343-.141.141-.664.08-.921.08-.75 0-1.873-.315-2.625-.624-.563-.233-1.108-.123-1.747-.325-.107-.033-.59.089-.68 0-.752-.755-2.557-.446-3.637-.807-.431-.144-.655-.282-1.101-.282-.726 0-2.79-.079-3.277.404-.19.19-1.196-.021-1.42.08-1.12.504-3.246-.052-4.145.841-.416.416-1.282.382-1.812.646-.428.211-1.092.128-1.572.305-.545.202-1.224.753-1.796.793-1.034.067-2.209-.123-3.267-.123-2.87.004-5.287.098-7.83-1.245-.523-.278-1.266-.003-1.713-.453-.327-.327-.23-.838-.44-1.22-.716-1.279-1.068-2.231-.404-3.693.199-.437.645-.789.804-1.221.104-.278 0-.593.114-.872.351-.869 1.428-1.438 2.114-1.985.734-.588 1.129-1.6 2.166-1.686.948-1.906 2.594-2.347 4.063-3.821.44-.441 1.248-.288 1.685-.725.924-.93 2.604-1.536 3.803-1.943 1.512-.514 3.222-.392 4.78-.912.642-.214 1.963-.052 2.511.199.275.126.728-.135.997 0 1.197.6 3.68-.037 4.932-.037.79 0 1.968.242 2.693 0 2.692-.902 5.96-.682 8.245-1.725.575-.263 1.487.11 2.096-.083 1.211-.379 2.294-.728 3.75-.728.453 0 1.444-.361 1.805-.361l-.049.07c.01.046.022.19-.006.239-.091.184.003.401-.08.581-.223.487.105 1.496-.161 2.029-.236.468-1.08.092-1.392.401-.471.471-2.127-.355-2.736-.08-.587.266-1.1.572-1.658.872zm6.033-4.042c-.003-.021-.006-.024-.006 0v.01l-.159.232c.07-.073.153-.162.16-.232l.005-.01zM235.64 134.122c.204-.199.48-.45.823-.621.336-.168 1.437.168 1.557.288.186.186 1.523 0 1.759 0 .336 0 1.083.162 1.282.361.153.153 1.575.082 1.774.144.585.183 1.353-.193 1.931 0 .587.195 1.401.501 2.004.501 1.019 0 2.45-.064 3.05.539.471.468.474 1.496.939 1.961.135.134-.073.786-.073.893 0 .661-.208 1.964-.496 2.595-.511 1.116-.229 2.019-1.077 2.869-.131.132-.101.536-.214.649-.193.19.141.967-.073 1.181-.465.471-1.453.309-1.867.722-.309.312-1.603 1.071-2.166.505-.073-.074-.728 0-.816 0-.566 0-1.668.131-2.011-.214-.388-.389-.914-.609-.214-1.307.266-.266 1.668-.15 2.078-.287 1.022-.337 1.805-1.086 2.398-1.674.11-.11-.04-.477.071-.587.214-.211.143-.79.143-1.163 0-.841-.712-1.805-1.217-2.31-.288-.287-.793-.275-1.019-.502-.483-.483-1.322-.22-1.322.505 0 .358.432.419.517.609.239.523.475.988.79 1.306.348.346.85.34 1.077.787.281.566-.49.918-.722 1.15-.735.728-2.118 1.75-3.396 1.111-.67-.337-1.662-.432-2.163-.933-.273-.273-.499-.79-.793-1.083-.089-.086-.431.003-.505-.071-.143-.144.918-.437.618-.737-.223-.22-1.031-.331-1.254-.432-.511-.235-.756-.633-1.184-.826-.688-.315-3.17-.611-3.781-.003-.062.065-.294.716-.178.833.184.183.829.128 1.034.033.291-.131 2.359-.685 2.827-.217.584.584.04 2.255-.59 2.539-.93.422-2.072 1.193-2.953 1.591-.523.239-1.756.239-2.123.603-.514.511-1 .483-1.707 1.11-.722.643-1.19 1.038-2.029 1.417-.755.343-1.872 0-2.741.431-.526.263-1.233.423-1.53.716-.223.221-.348.585-.651.719-.82.37-1.778.049-2.307.575-.217.215-.74.166-.893.319-.56.556-1.68.673-2.408 1.034-.517.257-1.157.144-1.166.856 0 .01-.003.016-.003.022-.027.171-.471-.049-.572.052-.33.333-1.123.134-1.576.367-.945.483-2.316.496-3.246.942s-2.303.107-3.175.572c-1.481.79-3.268.618-4.788 1.383-.667.334-1.983-.067-2.442.395-.073.073-.603 0-.719 0-.606 0-1.444-.263-1.964 0-.783.395-1.527.064-2.108.648-.125.126-.792.199-.976.108a10.102 10.102 0 0 1-2.656-1.937c-.327-.327-.52-.933-.823-1.236-.948-.949-2.297-1.407-2.811-2.438-.181-.361.795-.074.939-.215.575-.572 1.114-.511 1.845-.875 1.686-.838 3.289-1.835 4.485-3.028.535-.533.964-1.362 1.297-2.093.08-.171.606-.395.765-.532.474-.414 1.187-.9 1.417-1.362.165-.318-.468-1.013-.319-1.163.741-.737 1.787-1.428 2.39-1.985.453-.413.333-1.218.713-1.661l-.728.088c.924-.927 2.612-.939 3.821-.468l-1.876.23c.371.043.738.104.961.104h5.492c.422 0 .893-.104 1.373-.233-1.367-.03-2.649-.211-3.971-.211-.477 0-1.187.487-1.664.248a4.33 4.33 0 0 0-.315-.138l30.068-3.68c.578-.236 1.346-.343 2.133-.389zm-50.279 12.354c-.469.465-.352 2.007-.352 2.717 0 .211-.077.756.043.872.091.092.064.529.064.676 0 .074-.119.217-.043.217.083 0 .288-.223.321-.26.178-.177.566-.474.78-.572.404-.183 1.295-.404 1.613-.725.196-.196.599-.083.777-.263.067-.064.284.021.352-.043.269-.272.865-.18 1.101-.416.126-.125-.679-.563-.713-.636-.358-.79-1.707-.624-2.276-1.194-.266-.266-.799-.162-1.031-.394-.181-.181-.756-.098-.756.119l.12-.098zm66.665-10.307a.146.146 0 0 0-.031-.061c-.07-.071.04-.346.147-.236a.318.318 0 0 1 .034.031 1.045 1.045 0 0 0-.15.266c.027.107-.015.294-.046.382-.101.303.037.517-.064.829l.003.092c.021.034.064.058.095.089l.165-1.655-.003-.003.003-.006v.009c.346.33.805.532 1.01.982.027.061.22.073.278.131.086.086.278.242.37.334.147.147.058.499.223.664.377.379.34.86.637 1.456.101.199.033.459.119.652.116.254.499.642.624.915.169.373.294.865.441 1.187.07.156.382.437.425.685.092.52.355 1.187.606 1.689.156.309-.269.676-.477.762-.667.281-1.399.566-2.118 1.122-.492.38-1.113.591-1.483.964-.187.187-.328.493-.435.71-.012.027-.19.135-.235.089-.208-.208-.652-.071-.918-.193-.597-.269-1.389-.352-1.83-.792-.061-.065.211-.239.239-.297.101-.202.593-.523.768-.603.104-.049.199-.211.263-.242.15-.067.41-.024.532-.143.11-.108.318-.132.422-.242.465-.505 1.001-1.199 1.579-1.701.187-.162.511-.328.636-.453.046-.046-.232-.526-.263-.557-.046-.043.043-.22 0-.266-.091-.092-.046-.398-.088-.526-.117-.352-.343-.462-.536-.808-.055-.101-.092-.269-.177-.349-.202-.186-.603-.254-.9-.391-.14-.065-.4-.034-.498-.132-.062-.064.039-.783.119-.863.229-.229.128-.596.269-.899.175-.383.159-.851.138-1.319-.015-.021-.019-.046-.009-.079-.013-.444-.025-.872.116-1.224zm3.212 1.732l.013.003 2.401 7.462v.379c0-.122.205-.251.285-.33s.095-.239.177-.316a15.26 15.26 0 0 0 1.053-1.064c.095-.107.367-.165.394-.22.037-.086.003-.144.065-.215.168-.186.342-.419.572-.572.03-.021.465-.223.385-.306-.092-.091-.287-.073-.373-.162-.171-.171-.318-.281-.49-.45-.397-.397-.685-1.187-1.024-1.499-.071-.064-.071-.22-.126-.269-.624-.575-1.673-1.34-2.469-1.735-.254-.128-.333-.407-.505-.578-.107-.107-.419-.131-.566-.174-.033-.013-.251-.227-.324-.15-.021.021.11.134.116.147.074.162.086.287.205.468l.23-.474c0 .015 0 .033-.006.058l-.019-.006.025-.052c0 .015 0 .033-.006.058l-.046-.01c-.049-.012-.101-.021-.153-.033l-.022-.009h-.006a.168.168 0 0 1-.024-.019l-.068-.052c-.03-.021-.061-.043-.094-.061l-.025-.012-.037-.015-.021-.004h-.025.022l.024.004c.016.003.028.009.043.015l.015.009c.04.021.074.046.111.073l.058.046.021.016.006.003.022.006.186.04zm-3.986 4.277h0a1.433 1.433 0 0 0-.113.14.458.458 0 0 1 .125.071c.199.202.432.498.624.593.031.016.318.276.297.297-.349.352-1.092.734-1.429 1.206-.085.122-.407.122-.465.315-.006.064-.009.11-.009.067 0-.025.003-.046.009-.067a.774.774 0 0 1 .034-.175c.067-.147.009-.345.073-.486.218-.468.263-.906.471-1.365.08-.174.123-.306.239-.422l.031-.034c-.074-.033-.144-.07-.144-.107l.257-.033zm3.586-4.296l.03.086.009.021.074.196.006.009c.018.04.043.08.067.117l.003.009a.773.773 0 0 1-.067-.12l-.012-.021a2.447 2.447 0 0 1-.068-.184l-.003-.006-.049-.122.01.015zm-41.343.321c-.235.016-.474.025-.71.034.077.083.496.012.71-.034zm41.242-.44l.042.046.013.009.027.031.009.015v.003l-.006-.015-.003-.003-.043-.043c-.015-.016-.03-.031-.042-.049l-.007-.006.01.012zm-.007-.074l-.003.004a.023.023 0 0 0-.015.006l-.006.003-.003.003.003.015.021.031c-.006-.006-.012-.016-.018-.025l-.003-.003-.003-.012v-.003l.009-.009.018-.01zm-33.858-.556l-.505.131-.514.126c.367-.034.71-.104 1.019-.257zm2.279-.569a4.888 4.888 0 0 0-1.123.214l-.018.006c.183.055.361.107.474.049a5.11 5.11 0 0 1 .667-.269zm10.772-2.102l-.416.049-.104.046c-.379.174-.798.192-1.175.388.637-.116 1.233-.275 1.683-.477zm1.524-.187l-.878.107c.315-.003.651.003.878-.107zm-93.494-43.496s3.571-24.371 23.494-15.585c0 0 8.799 3.023 9.365 12.489 0 0 .593 5.18-.894 7.783 0 0-.318 8.016-4.974 13.697 0 0 .419 2.451-3.516 5.773 0 0-5.669 7.594-7.844 11.042 0 0-2.94 4.21-9.117-.594 0 0-6.991-6.541-8.554-13.642 0 0-.741 5.048 5.8 12.725 0 0-4.393-1.249-10.151-6.092 0 0 4.045-2.141 3.965-10.521l-.19-5.498s-4.292-15.5 2.616-11.577z"/></mask><g fill-rule="evenodd" mask="url(#A)"><path fill="#da72f8" d="m175.136 104.965-69.293 69.964 94.503 58.747-25.21-128.711Z"/><path fill="#64b" d="m157.854 207.212-69.293 84.462 94.503 70.921-25.21-155.383Z"/><path fill="#4119a7" d="m157.689 207.212 13.045 122.378 56.472-30.221-69.517-92.157Z"/><path fill="#6643bb" d="m172.67 329.873-32.262 46.317 94.161 23.044-36.622-110.477-25.277 41.116Z"/><path fill="#7d52ea" d="m182.026 342.114-32.262 46.317 94.16 23.044-36.621-110.477-25.277 41.116Z"/><path fill="#7152c0" d="m107.283 216.724 20.064 27.819 30.356-37.27-34.024-22.383-16.396 31.834Z"/><path fill="#7152c0" d="m90.178 221.146 29.34-17.769-34.721-33.247-25.036 32.124 30.417 18.892Z"/><path fill="#ac95e8" d="m64.911 235.976 23.338-7.603-20.107-31.062-21.346 20.544 18.115 18.121Z"/><path fill="#7152c0" d="m61.317 257.679 23.334-7.603-18.776-28.823L43.2 239.557l18.118 18.122Z"/><path fill="#8c6be1" d="m80.04 285.441-2.998-46.28 33.712-18.448 16.539 23.839-20.216 24.35-21.276 19.908-5.76-3.369Z"/><path fill="#481fb6" d="m11.712 313.538-17.476-49.196 58.494-24.188 8.361 38.396-22.343 18.048-21.272 20.308-5.764-3.368Z"/><path fill="#6b46cc" d="m66.364 301.276-15.965-40.737 27.523-11.745 3.063 36.059-8.858 19.794-5.763-3.371Z"/><path fill="#8d6be1" d="m211.352 176.43-53.663 31.053 59.647 81.559-5.984-112.612Z"/><path fill="#846bc4" d="m235.299 83.544-53.853 54.932 73.678 46.29 8.355-41.355-28.18-59.867Z"/><path fill="#494fa9" d="m181.446 138.447 1.659 19.195 28.254-.618-29.913-18.577ZM108.723 64.232l60.452 48.397 38.121-78.768-98.573 30.371Z"/><path fill="#494fa9" d="m82.802 172.809 17.225 12.033 72.016-76.817-89.241 64.784Z"/><path fill="#b17af8" d="m175.688 114.76 5.308 23.692 43.23-29.526-48.538 5.834Z"/><path fill="#c26ff0" d="m120.305 75.264-37.503 97.535 85.634-61.587c-15.769-12.385-31.742-24.47-48.131-35.948Z"/><path fill="#ab64e6" d="m146.733 169.361 2.322 34.611 69.104-143.47-71.992 74.37.566 34.489Z"/></g><mask id="B" width="48" height="47" x="116" y="321" maskUnits="userSpaceOnUse" mask-type="alpha"><path fill="#494fa9" fill-rule="evenodd" d="M139.921 321.339c12.844 0 23.274 10.43 23.274 23.273s-10.43 23.273-23.274 23.273-23.273-10.429-23.273-23.273 10.43-23.273 23.273-23.273z"/></mask><g mask="url(#B)"><path fill="#c3001d" fill-rule="evenodd" d="M139.498 320C153.572 320 165 331.201 165 344.998S153.572 370 139.498 370 114 358.796 114 344.998 125.425 320 139.498 320z"/><path fill="#fd0000" d="M133.667 336 114 355.747 117.667 376 138 355.747 133.667 336Z"/><path fill="#7e1919" d="M164.375 318L157 337.747 158.375 358 166 337.747 164.375 318zm-41-4L116 333.747 117.375 354 125 333.747 123.375 314z"/><path fill="#eb2c2c" d="M153.375 335 146 354.747 147.375 375 155 354.747 153.375 335Z"/><path fill="#a80909" d="M149.667 303 130 322.747 133.667 343 154 322.747 149.667 303Z"/><path fill="#d63e3e" d="M154.667 322 135 341.747 138.667 362 159 341.747 154.667 322Z"/><path fill="#a00000" d="M145.667 348 126 367.747 129.667 388 150 367.747 145.667 348Z"/></g><path fill="#fd0000" fill-rule="evenodd" d="M202.675 355.316l-.134.156c-.174.171-.541.268-.721.449-.052.051-.324.033-.391.091-.269.241-.516.162-.821.299-.431.196-1.146.706-1.699.706a2.4 2.4 0 0 0 1.079-.257c.32-.161.873.116 1.218 0 .62-.207 1.671-.284 2.306-.024.516.214 1.197-.046 1.686.177.434.196 1.145 0 1.573.196.143.064.369-.052.519 0 .644.213 1.432-.028 2 .232.373.174.923-.031 1.307.097.098.031.459-.03.529.04.143.141.675.092.818.235.116.113.455.095.556.196.147.146.449.079.684.195.559.281 1.274.403 1.594.721.236.241.483.684.706.785.128.061.522.281.574.394l.764 1.664c.113.251 0 .813 0 1.091 0 1.133-.422 1.765-1.363 2.229-.198.098-.479.351-.708.351-.562 0-.547.348-.867.669-.107.104-.376.049-.483.156-.305.305-.806.504-1.118.647-.494.223-1.166.168-1.734.449-.116.058-.623.019-.623.135-.63 0-1.772.195-2.123.543-.202.202-1.729 0-2.01 0-1.084 0-2.874-.149-3.903.193-.583.192-1.313-.083-1.902.113-1.192.397-2.624-.232-3.855-.232-1.695 0-3.209-.043-4.828-.043-.397 0-1.674-.15-1.9.076-.131.135-.65-.128-.779 0-.18.18-.736.193-.937.388-.08.079-.403-.079-.483 0-.25.251-1.142.122-1.588.269-1.023.339-2.321-.162-3.194.232-.318.143-.672-.061-.889.156-.275.272-1.066-.009-1.31.232-.455.455-2.141-.199-2.141.424-1.191 0-2.083-.076-3.43-.076-1.246 0-1.939.473-2.807-.394-.464-.464-.47-1.249-.858-1.637-.342-.345.138-1.909-.079-2.385-.819-1.802-.785-4.966.421-6.179.242-.241-.159-1.194 0-1.511.287-.578.477-.886.855-1.265.287-.29.104-.76.269-1.121s.532-1.02.828-1.316c.125-.125-.003-.672.232-.779.415-.189.8.242.947.388.803.806.464 1.304.464 2.404 0 .876-.348 1.13.229 1.707.037.037.412.443.62.232.531-.534 1.099-.583 1.475-.959.428-.431 1.255-.427 1.643-.815.235-.239.66-.7 1.008-.859.971-.442 2.193-1.215 2.859-1.884 1.444-1.451 3.011-2.202 4.281-3.478.104-.104.452.03.559-.077.803-.809 1.194.544 1.427.776.051.049.308.754.58.479.217-.22.589-.201.776-.391.195-.195.033-.748.232-.949.302-.303.62-1.185.62-1.653l-.068-.18c.602.602 1.017 1.454 1.589 2.025.113.116.274-.541.287-.553.1-.104.748-.427.919-.256.296.299.687.473.956.745.598.602.803 1.46 1.505 1.811.666.336.718 1.277 1.421 1.625.165.085.326.372.473.44.87.394 1.771.995 2.575 1.362a3.39 3.39 0 0 0 1.374.293c.07 0 .269.018.409 0 .073-.086.141-.153.141-.08 0 .046-.061.071-.141.08zM40.757 259.937c1.29-.403 2.813-.559 4.585-.226l.152 3.155 2.358.092s1.683-3.265 4.908-2.328c0 0 9.95-8.869 19.213.456l1.118.479.547-.95.601.513 5.65-6.6.672-1.114s.388-.242-3.463-1.106c0 0 5.378-.727 8.475-5.027 0 0 5.33-6.566 10.5-11.138 0 0 5.235-3.885 5.436-6.878l1.79 2.263s.604-3.133-1.158-5.231c0 0 1.417-1.25 7.651-1.937 0 0 .501-.244 1.689-2.812l1.643-2.083.287-2.535s4.963-1.536 5.32-4.722c0 0-.773-1.832-1.274-2.504s3.952-2.972 3.952-2.972 6.942-2.803 1.488-2.626-.177-2.932-.177-2.932 5.225-2.33 1.401-4.542-.702-6.257-.702-6.257 3.579-3.778-.696-5.528-1.708-7.706-1.708-7.706-6.337-5.25-8.563-12.723l-.333-1.035s-7.168 5.375-8.897 10.921c0 0-3.02.531-5.326 3.109 0 0-5.696 6.212-8.625 7.388l1.986-.052s-6.163 9.663-10.164 17.649c0 0-3.928 6.234-6.45 10.656 0 0-.844 1.396-.74 3.876s-.824-.715-.824-.715-.578 2.165-3.381 8.753c0 0-1.387 3.323-1.475 6.969s-1.149.388-1.149.388-.843-1.206-.452 5.149c0 0 1.457 3.473-1.615 9.856 0 0-1.56 2.275-.999 5.598 0 0-3.69.116-3.18-2.965 0 0 .71-1.082.294-2.868l-.247-1.881s-3.378 3.686-5.617 5.158c0 0-4.233 3.32-5.262 6.878 0 0-1.493 4.749-3.335 4.92 0 0-1.176-2.208 3.039-10.806l.776-1.933s-1.158.913-2.615 2.929c0 0-.928-1.698 1.219-4.862 0 0-.559-.299-1.323.541 0 0-.247-2.795.688-4.029l-.926.144s.168-3.961 1.124-5.855l6.96-7.803s3.115-4.45 4.475-8.249c0 0 1.7-4.09 1.939-6.6 0 0-.318-.29 3.02-7.058 0 0 5.421-18.563 10.473-25.459l12.372-17.283 9.98-14.186s2.01-1.383-.125-2.08l3.595-5.411-1.982-.669s2.214.592 5.735-6.267c0 0 1.555-4.453 9.098-6.683s2.532-3.399 9.792-6.544l5.561-2.81s2.34.314 3.082-3.778c0 0 4.327-1.188 4.208-5.931 0 0 .733 4.673-3.46 7.504 0 0 2.889 1.191 9.217 6.221 0 0 4.2 3.127 8.533 3.35 0 0-12.906 5.052-18.303 8.39 0 0 9.935-3.369 18.523-7.138 0 0 2.269-.925 5.226-1.154 0 0 2.419-.269 4.44-5.369 0 0 1.448-2.914 3.134-4.569 0 0 .577 1.86-2.068 5.274 0 0 3.705-.232 4.584-7.897 0 0 .104-3.751 4.539-2.651 0 0 4.523.708 5.589 6.63 0 0 .992-.528-.425-4.914 0 0 4.969-2.455 10.299 6.007 0 0 2.174 5.794 3.383 7.156a7.22 7.22 0 0 0 .608 2.871s.183 1.151 3.457 1.591c0 0 1.466.031-1.401 2.123 0 0 1.163.397 2.721-1.164 0 0 5.204 3.595 1.371 8.225 0 0-2.59 2.706-5.638 2.504l1.622 1.927-1.738 1.805s-3.726-3.085-5.916-2.999l-.247-11.08s-2.071 14.146-2.126 26.692l.358 32.273s1.389 8.084.415 16.583 5.531 7.437 2.297 17.366c0 0 2.477 6.716 8.881 6.471l-4.551 1.301s10.546 8.888 15.527 24.952c0 0 .996 5.775 5.22 6.655 0 0-3.619-.024-4.456-1.328 0 0 .675 1.691.244 3.478l-.391 1.264 2.645 4.536s.446 2.541-.993 9.028c0 0-1.554 32.07-7.897 42.021 0 0-4.151 14.299-8.21 20.34l.083.937s-1.802-1.847-2.196 1.772c0 0-2.303-2.581-5.467 2.046 0 0-9.648 10.649-8.576 2.715 0 0 4.267-11.572 4.664-19.769l.718-5.836.36.198s-1.484-19.802 4.395-29.365c0 0 1.869-3.796.937-11.792l-1.334.703-.541-1.741s-8.362 1.652-15.994 1.051c0 0-1.454-.251-1.304-.889 0 0-.464-.999-3.683 2.336 0 0 2.727-4.049 1.741-7.4s-1.833-3.515-2.477-4.724c0 0-.516-4.902-.535-8.265s-.632-2.397-.632-2.397.348 8.047-1.619 9.303 2.615-5.113-9.712-16.608c0 0-1.869-1.738-2.623-1.567l-.815-1.772s-5.418 4.27-20.304 5.724c0 0-.428 2.055-7.776 1.392 0 0-1.936 1.341-2.727 4.111l-.776-.943s-1.227 1.206-2.144 2.895c0 0-1.206-1.078-4.242-2.132 0 0-4.077-.492-10.044 7.031 0 0-3.201 5.289-12.5 9.647 0 0-12.342 9.486-32.343-5.989 0 0-4.105-2.293-5.806-3.61 0 0-1.897-1.038-2.856.055l2.077.532s-.015 3.246-6.075 2.861c0 0-2.07.116-3.591-2.507 0 0-5.498.25-2.782-1.805l.128-7.867s1.34-2.355 4.092-3.68c-.357.012-.785-.031-.99.174-.445.443-1.563.461-1.972.867-.87.864-1.145 2.431-1.933 3.216-.07.067-.077 1.658 0 1.735.476.476.311 2.492.079 3.231-.192.608.058 1.267-.162 1.753-.091.205.01 1.078-.119 1.206a1.5 1.5 0 0 1-.5 0c-.315-.317-1.119-.183-1.598.037-.14.064-1.176.183-1.002.357.312.312 1.124.064 1.384.321.531.534 1.255.999 1.783 1.527.45.452 1.448-.168 1.943.079.421.211.739.483.998.739.297.3 1.314.016 1.622.321.489.489-.14 1.063-.421 1.341-.14.14-.663.079-.92.079-.748 0-1.869-.314-2.62-.623-.562-.232-1.106-.122-1.744-.323-.107-.034-.59.088-.678 0-.751-.755-2.553-.446-3.631-.807-.43-.143-.654-.281-1.1-.281-.723 0-2.785-.079-3.27.403-.19.19-1.195-.021-1.418.08-1.117.504-3.24-.052-4.138.84-.415.415-1.28.381-1.808.644-.428.211-1.09.128-1.57.306-.543.201-1.221.751-1.793.791-1.032.067-2.205-.123-3.261-.123-2.865.003-5.278.098-7.816-1.243-.522-.278-1.264-.003-1.71-.452-.327-.326-.229-.836-.44-1.218-.714-1.277-1.066-2.227-.403-3.687.199-.436.645-.787.803-1.218.104-.278 0-.593.113-.87.352-.868 1.427-1.436 2.11-1.983.734-.586 1.128-1.597 2.163-1.682.947-1.903 2.59-2.343 4.056-3.815.44-.44 1.246-.287 1.683-.724.922-.928 2.599-1.533 3.796-1.939 1.508-.513 3.216-.391 4.77-.91.642-.214 1.961-.052 2.508.198.274.126.727-.134.995 0 1.194.599 3.674-.036 4.924-.036.787 0 1.963.241 2.687 0 2.688-.901 5.95-.681 8.23-1.723.575-.262 1.485.11 2.093-.082 1.21-.379 2.29-.727 3.744-.727.452 0 1.442-.36 1.802-.36l-.049.07a.52.52 0 0 1-.006.238c-.092.183.003.4-.08.58-.222.486.104 1.494-.161 2.025-.235.467-1.078.092-1.39.4-.47.471-2.122-.354-2.73-.079-.587.265-1.1.571-1.655.87zm6.023-4.034c-.003-.022-.006-.025-.006 0v.009l-.159.232c.07-.073.153-.162.159-.232l.006-.009zm188.445-121.568c.205-.198.48-.449.822-.62.336-.168 1.435.168 1.555.288.186.186 1.52 0 1.756 0 .336 0 1.081.161 1.279.36.153.153 1.573.082 1.772.143.583.184 1.35-.192 1.927 0 .586.196 1.398.501 2 .501 1.017 0 2.446-.064 3.045.538.47.467.473 1.493.938 1.957.134.135-.074.785-.074.892 0 .66-.207 1.961-.494 2.59-.51 1.115-.229 2.016-1.075 2.865-.132.131-.101.534-.214.647-.193.19.14.965-.074 1.179-.464.471-1.45.309-1.863.721-.308.311-1.6 1.069-2.162.504-.073-.073-.727 0-.815 0-.565 0-1.665.131-2.007-.214-.388-.388-.913-.608-.214-1.304.266-.266 1.665-.15 2.074-.287 1.02-.336 1.802-1.084 2.395-1.671.11-.11-.04-.476.07-.586.214-.211.143-.788.143-1.161 0-.839-.711-1.801-1.215-2.305-.287-.287-.791-.275-1.017-.501-.483-.483-1.32-.22-1.32.504 0 .357.431.418.517.607.238.523.473.987.788 1.304.348.346.849.34 1.075.785.281.565-.489.917-.721 1.149-.733.727-2.114 1.747-3.39 1.108-.669-.336-1.659-.43-2.159-.931-.272-.272-.498-.788-.791-1.081-.089-.086-.431.003-.504-.071-.144-.143.916-.436.617-.736-.223-.219-1.03-.329-1.253-.43-.51-.235-.754-.632-1.182-.825-.687-.314-3.164-.611-3.774-.003-.061.064-.294.715-.177.831.183.183.827.128 1.032.033.29-.131 2.354-.684 2.822-.216.583.583.039 2.25-.59 2.535-.928.421-2.067 1.191-2.947 1.588-.522.238-1.753.238-2.119.601-.513.51-.999.483-1.705 1.109-.72.641-1.188 1.035-2.024 1.414-.755.342-1.869 0-2.737.431-.525.262-1.231.421-1.527.714-.223.22-.348.584-.65.718-.819.369-1.775.049-2.303.574-.217.214-.739.165-.892.318-.559.556-1.677.672-2.404 1.032-.516.257-1.154.144-1.163.855 0 .009-.003.015-.003.022-.028.171-.47-.049-.571.051-.33.333-1.121.135-1.573.367-.944.482-2.312.495-3.24.941s-2.3.106-3.171.571c-1.478.788-3.261.617-4.779 1.38-.666.333-1.979-.067-2.437.394-.074.073-.602 0-.718 0-.605 0-1.442-.263-1.961 0-.782.394-1.524.064-2.104.648-.125.125-.791.198-.974.106a10.041 10.041 0 0 1-2.651-1.933c-.327-.327-.519-.931-.822-1.234-.947-.946-2.293-1.404-2.806-2.434-.181-.36.794-.073.937-.214.574-.571 1.112-.51 1.842-.873 1.683-.837 3.283-1.832 4.477-3.023.534-.532.962-1.36 1.295-2.089.079-.172.605-.394.763-.532.474-.412 1.185-.898 1.414-1.359.165-.318-.467-1.011-.317-1.16.739-.737 1.783-1.427 2.385-1.983.452-.412.333-1.215.712-1.658l-.727.089c.922-.926 2.608-.938 3.814-.468l-1.872.229c.37.043.736.104.959.104h5.482c.422 0 .892-.104 1.372-.232-1.366-.03-2.645-.211-3.965-.211-.476 0-1.185.486-1.661.248a4.33 4.33 0 0 0-.315-.138l30.016-3.674c.577-.235 1.344-.342 2.128-.388zm-50.19 12.333c-.467.464-.351 2.003-.351 2.712 0 .211-.077.754.042.87.092.092.065.529.065.675 0 .073-.12.217-.043.217s.287-.223.32-.26c.178-.177.565-.473.779-.571.403-.183 1.292-.403 1.61-.724.195-.195.598-.082.775-.262.068-.064.284.021.352-.043.268-.272.864-.18 1.099-.415.125-.126-.678-.562-.711-.636-.358-.787-1.705-.623-2.273-1.191-.265-.265-.797-.161-1.029-.394-.18-.18-.754-.097-.754.12l.119-.098zm66.548-10.289a.146.146 0 0 0-.031-.061c-.07-.071.04-.346.147-.236l.034.031a1.045 1.045 0 0 0-.15.266c.028.106-.015.293-.046.381-.101.303.037.516-.064.828l.003.092c.022.033.064.058.095.088l.165-1.652-.003-.003.003-.006v.009c.345.33.803.531 1.008.98.027.061.219.074.278.132.085.085.277.241.369.333.147.146.058.497.223.662.376.379.339.858.635 1.454.101.199.034.458.119.651.116.253.498.641.623.913.168.372.294.864.44 1.185.07.155.382.436.425.684.091.519.354 1.185.604 1.686.156.308-.268.675-.476.76-.666.281-1.396.565-2.113 1.121-.492.379-1.112.589-1.482.962-.186.186-.326.492-.433.709-.013.027-.19.134-.236.088-.207-.208-.65-.07-.916-.192-.595-.269-1.386-.352-1.826-.791-.061-.064.211-.239.238-.297.101-.201.593-.522.767-.601.104-.049.198-.211.262-.241.15-.068.41-.025.532-.144.11-.107.317-.131.421-.241.464-.504.999-1.198 1.576-1.698.186-.162.51-.327.635-.452.046-.046-.232-.526-.262-.556-.046-.043.042-.22 0-.266-.092-.092-.046-.397-.089-.525-.116-.351-.342-.461-.534-.806-.055-.101-.092-.269-.177-.349-.202-.186-.602-.253-.898-.391-.141-.064-.4-.033-.498-.131-.061-.064.04-.782.119-.861.229-.229.128-.596.269-.898.174-.382.159-.849.137-1.316-.015-.022-.018-.046-.009-.08-.012-.443-.024-.87.116-1.221zm3.207 1.728l.012.003 2.397 7.449v.379c0-.122.205-.251.284-.33s.095-.238.178-.315c.253-.235.72-.681 1.05-1.062.095-.107.367-.165.394-.22.037-.086.003-.144.064-.214.168-.186.342-.418.571-.571.031-.022.465-.223.385-.306-.091-.091-.287-.073-.372-.161-.171-.171-.318-.281-.489-.449-.397-.397-.684-1.185-1.023-1.497-.07-.064-.07-.22-.125-.269-.623-.574-1.671-1.337-2.465-1.731-.253-.129-.333-.406-.504-.578-.107-.106-.418-.131-.565-.174-.033-.012-.25-.226-.324-.149-.021.021.11.134.116.146.074.162.086.287.205.468l.229-.474c0 .016 0 .034-.006.058l-.018-.006.024-.052c0 .016 0 .034-.006.058l-.046-.009c-.049-.012-.101-.021-.152-.033l-.022-.01h-.006c-.009-.006-.018-.012-.024-.018l-.068-.052c-.03-.021-.061-.043-.094-.061l-.025-.012-.036-.015-.022-.004h-.024.021l.025.004c.015.003.027.009.042.015l.016.009c.039.021.073.046.11.073l.058.046.021.015.006.003.022.007.186.039zm-3.98 4.27h0a1.602 1.602 0 0 0-.113.14.482.482 0 0 1 .126.071c.198.201.43.497.623.592.03.015.317.275.296.296-.348.351-1.09.733-1.426 1.204-.086.122-.407.122-.465.314-.006.064-.009.11-.009.067 0-.024.003-.045.009-.067a.776.776 0 0 1 .034-.174c.067-.147.009-.345.073-.486.217-.467.263-.904.471-1.362.079-.174.122-.305.238-.421.003-.003.015-.015.03-.034-.073-.033-.143-.07-.143-.107l.256-.033zm3.58-4.288l.03.085.009.022.074.195.006.009c.018.04.043.08.067.116l.003.01a.81.81 0 0 1-.067-.119l-.012-.022a2.592 2.592 0 0 1-.068-.183l-.003-.006-.048-.122.009.015zm-41.27.321c-.235.015-.473.024-.708.033.076.083.494.012.708-.033zm41.169-.44l.043.046.012.009.027.03.01.016v.003l-.007-.016-.003-.003-.042-.042a.328.328 0 0 1-.043-.049l-.006-.006.009.012zm-.006-.074l-.003.004a.023.023 0 0 0-.015.006l-.007.003-.003.003.003.015.022.031-.019-.025-.003-.003-.003-.012v-.003l.01-.009.018-.01zm-33.8-.555l-.503.131a34.82 34.82 0 0 1-.514.125c.367-.033.709-.104 1.017-.256zm2.276-.568c-.406.036-.788.1-1.121.213l-.018.006c.183.055.36.107.473.049a5.17 5.17 0 0 1 .666-.268zm10.753-2.099l-.415.049-.104.046c-.379.174-.797.193-1.173.388.635-.116 1.231-.275 1.68-.476zm1.521-.186l-.876.107c.314-.003.65.003.876-.107zm-93.329-43.42s3.564-24.328 23.452-15.557c0 0 8.783 3.017 9.348 12.467 0 0 .593 5.17-.891 7.77 0 0-.318 8.001-4.966 13.672 0 0 .418 2.447-3.509 5.763 0 0-5.66 7.581-7.831 11.022 0 0-2.935 4.203-9.101-.592 0 0-6.979-6.53-8.539-13.618 0 0-.739 5.039 5.79 12.702 0 0-4.385-1.246-10.133-6.081 0 0 4.037-2.138 3.958-10.503l-.19-5.488s-4.284-15.472 2.612-11.557z" style="mix-blend-mode:multiply"/></svg>