<svg xmlns="http://www.w3.org/2000/svg" width="318" height="349" fill="none" xmlns:v="https://vecta.io/nano"><style><![CDATA[.B{fill-rule:evenodd}.C{fill:#423f70}.D{fill:#446f93}.E{fill:#5ab3d4}.F{fill:#4ca0c8}.G{fill:#42719e}.H{fill:#3e7bba}]]></style><path d="M4.42 328h-1v1h1v-1zm9.841 0v1h1v-1h-1zm0-13.227l-.774-.634-.226.276v.358h1zm4.841-5.909l.832-.555-.749-1.124-.856 1.045.774.634zM31.852 328l-.832.554.297.446h.535v-1zm11.773 0v1h1.889l-1.062-1.562-.827.562zm-17.477-25.705l-.77-.638-.48.579.423.622.827-.563zm17.273-20.84l.77.638 1.358-1.638h-2.128v1zm-11.795 0v-1h-.475l-.3.367.775.633zm-16.75 20.522v1h.475l.3-.367-.775-.633zm-.614 0h-1v1h1v-1zm0-20.522h1v-1h-1v1zm-9.841 0v-1h-1v1h1zm0 47.545h9.841v-2H4.42v2zm10.841-1v-13.227h-2V328h2zm-.226-12.594l4.841-5.909-1.547-1.267-4.841 5.909 1.547 1.267zm3.235-5.988l12.75 19.136 1.664-1.108-12.75-19.137-1.664 1.109zM31.852 329h11.773v-2H31.852v2zm12.6-1.562l-17.477-25.705-1.654 1.125 17.477 25.704 1.654-1.124zm-17.534-24.504l17.273-20.841-1.54-1.277-17.273 20.841 1.54 1.277zm16.503-22.479H31.625v2h11.795v-2zm-12.57.367L14.1 301.345l1.549 1.265 16.75-20.523-1.549-1.265zm-15.975 20.155h-.614v2h.614v-2zm.386 1v-20.522h-2v20.522h2zm-1-21.522H4.42v2h9.841v-2zm-10.841 1V328h2v-46.545h-2zM60.568 328v1h.726l.225-.69-.951-.31zm3.455-10.614v-1h-.726l-.225.691.951.309zm16.796 0l.951-.309-.225-.691h-.726v1zM84.273 328l-.951.31.225.69h.726v-1zm10.546 0v1h1.402l-.457-1.326-.945.326zm-16.046-46.545l.945-.326-.232-.674h-.713v1zm-12.682 0v-1h-.713l-.233.673.945.327zM50.023 328l-.945-.326L48.62 329h1.403v-1zm16.5-18.295l-.951-.31-.426 1.31h1.377v-1zm5.727-17.614v-1h-.726l-.225.691.951.309zm.364 0l.951-.309-.225-.691h-.726v1zm5.727 17.614v1h1.377l-.426-1.31-.951.31zM61.519 328.31l3.455-10.614-1.902-.619-3.455 10.613 1.902.62zm2.504-9.924h16.796v-2H64.023v2zm15.845-.69l3.454 10.614 1.902-.62-3.455-10.613-1.902.619zM84.273 329h10.546v-2H84.273v2zm11.491-1.326l-16.045-46.545-1.891.651 16.046 46.546 1.891-.652zm-16.991-47.219H66.091v2h12.682v-2zm-13.627.673l-16.068 46.546 1.891.652 16.068-46.545-1.89-.653zM50.023 329h10.545v-2H50.023v2zm17.451-18.986l5.727-17.614-1.902-.618-5.727 17.613 1.902.619zm4.776-16.923h.364v-2h-.364v2zm-.587-.691l5.727 17.614 1.902-.619-5.727-17.613-1.902.618zm6.678 16.305H66.523v2h11.818v-2zM104.42 328h-1v1h1v-1zm25.682-24.159h-1v.954l.953.045.047-.999zm0-.455l-.22-.975-.78.176v.799h1zm-25.682-21.931v-1h-1v1h1zm9.841 38.5h-1v1h1v-1zm0-12.364v-1h-1v1h1zm0-6.659h-1v1h1v-1zm0-11.523v-1h-1v1h1zM104.42 329h19.887v-2H104.42v2zm19.887 0c5.393 0 9.652-1.408 12.579-3.891 2.942-2.496 4.444-6.001 4.444-9.973h-2c0 3.438-1.283 6.365-3.738 8.448-2.471 2.096-6.224 3.416-11.285 3.416v2zm17.023-13.864c0-7.445-5.378-12.02-11.181-12.294l-.094 1.998c4.788.226 9.275 3.969 9.275 10.296h2zm-10.228-11.295v-.455h-2v.455h2zm-.78.521c2.585-.583 4.886-1.803 6.547-3.665 1.669-1.873 2.642-4.341 2.642-7.311h-2c0 2.508-.811 4.494-2.135 5.98-1.334 1.495-3.237 2.536-5.494 3.045l.44 1.951zm9.189-10.976c0-3.755-1.405-7.035-4.241-9.356-2.813-2.302-6.928-3.575-12.213-3.575v2c4.988 0 8.6 1.203 10.946 3.123 2.323 1.901 3.508 4.586 3.508 7.808h2zm-16.454-12.931H104.42v2h18.637v-2zm-19.637 1V328h2v-46.545h-2zm11.841 38.5v-12.364h-2v12.364h2zm-1-11.364h8.25v-2h-8.25v2zm8.25 0c2.175 0 3.838.626 4.943 1.595 1.094.961 1.716 2.322 1.716 3.973h2c0-2.19-.843-4.112-2.397-5.476-1.543-1.354-3.709-2.092-6.262-2.092v2zm6.659 5.568c0 1.504-.499 2.637-1.499 3.425-1.039.818-2.754 1.371-5.387 1.371v2c2.867 0 5.095-.595 6.625-1.8 1.568-1.236 2.261-3 2.261-4.996h-2zm-6.886 4.796h-8.023v2h8.023v-2zm-7.023-18.023v-11.523h-2v11.523h2zm-1-10.523h7.478v-2h-7.478v2zm7.478 0c2.019 0 3.476.521 4.412 1.31.916.773 1.429 1.885 1.429 3.304h2c0-1.945-.727-3.64-2.14-4.833-1.394-1.176-3.357-1.781-5.701-1.781v2zm5.841 4.614c0 1.543-.617 2.733-1.634 3.559-1.036.841-2.553 1.35-4.389 1.35v2c2.187 0 4.181-.605 5.65-1.798 1.489-1.209 2.373-2.972 2.373-5.111h-2zm-6.023 4.909h-7.296v2h7.296v-2zM158.756 328v1h.726l.225-.69-.951-.31zm3.454-10.614v-1h-.726l-.225.691.951.309zm16.796 0l.951-.309-.225-.691h-.726v1zM182.46 328l-.951.31.225.69h.726v-1zm10.546 0v1h1.402l-.457-1.326-.945.326zm-16.046-46.545l.946-.326-.233-.674h-.713v1zm-12.682 0v-1h-.712l-.233.673.945.327zM148.21 328l-.945-.326-.458 1.326h1.403v-1zm16.5-18.295l-.951-.31-.425 1.31h1.376v-1zm5.728-17.614v-1h-.727l-.224.691.951.309zm.363 0l.951-.309-.224-.691h-.727v1zm5.727 17.614v1h1.377l-.426-1.31-.951.31zm-16.821 18.605l3.454-10.614-1.902-.619-3.454 10.613 1.902.62zm2.503-9.924h16.796v-2H162.21v2zm15.845-.69l3.454 10.614 1.902-.62-3.454-10.613-1.902.619zM182.46 329h10.546v-2H182.46v2zm11.491-1.326l-16.045-46.545-1.891.651 16.045 46.546 1.891-.652zm-16.991-47.219h-12.682v2h12.682v-2zm-13.627.673l-16.068 46.546 1.89.652 16.069-46.545-1.891-.653zM148.21 329h10.546v-2H148.21v2zm17.451-18.986l5.727-17.614-1.901-.618-5.728 17.613 1.902.619zm4.777-16.923h.363v-2h-.363v2zm-.588-.691l5.727 17.614 1.902-.619-5.727-17.613-1.902.618zm6.678 16.305H164.71v2h11.818v-2zm26.08-27.25v-1h-1v1h1zm0 46.545h-1v1h1v-1zm9.841-8.432h-1v1h1v-1zm0-29.682v-1h-1v1h1zM219.108 329c7.3 0 13.273-2.263 17.42-6.506s6.353-10.344 6.353-17.812h-2c0 7.077-2.087 12.632-5.784 16.414S225.99 327 219.108 327v2zm23.773-24.318c0-7.447-2.21-13.528-6.336-17.75s-10.068-6.477-17.301-6.477v2c6.813 0 12.193 2.111 15.87 5.875s5.767 9.299 5.767 16.352h2zm-23.637-24.227h-16.636v2h16.636v-2zm-17.636 1V328h2v-46.545h-2zm1 47.545h16.5v-2h-16.5v2zm10.841-9.432v-29.682h-2v29.682h2zm-1-28.682h6.273v-2h-6.273v2zm6.273 0c4.203 0 7.224 1.071 9.211 3.202 2.002 2.146 3.129 5.55 3.129 10.594h2c0-5.297-1.179-9.291-3.666-11.958-2.501-2.681-6.151-3.838-10.674-3.838v2zm12.34 13.796c0 5.067-1.128 8.495-3.133 10.658-1.992 2.147-5.017 3.228-9.23 3.228v2c4.537 0 8.193-1.169 10.696-3.868 2.489-2.684 3.667-6.699 3.667-12.018h-2zm-12.363 13.886h-6.25v2h6.25v-2zm34.471-37.113v-1h-1v1h1zm0 46.545h-1v1h1v-1zm9.841-8.432h-1v1h1v-1zm0-29.682v-1h-1v1h1zM269.67 329c7.3 0 13.273-2.263 17.42-6.506s6.353-10.344 6.353-17.812h-2c0 7.077-2.086 12.632-5.783 16.414S276.552 327 269.67 327v2zm23.773-24.318c0-7.447-2.209-13.528-6.336-17.75s-10.067-6.477-17.3-6.477v2c6.812 0 12.192 2.111 15.87 5.875s5.766 9.299 5.766 16.352h2zm-23.636-24.227H253.17v2h16.637v-2zm-17.637 1V328h2v-46.545h-2zm1 47.545h16.5v-2h-16.5v2zm10.841-9.432v-29.682h-2v29.682h2zm-1-28.682h6.273v-2h-6.273v2zm6.273 0c4.204 0 7.224 1.071 9.212 3.202 2.001 2.146 3.129 5.55 3.129 10.594h2c0-5.297-1.179-9.291-3.666-11.958-2.501-2.681-6.151-3.838-10.675-3.838v2zm12.341 13.796c0 5.067-1.128 8.495-3.134 10.658-1.991 2.147-5.017 3.228-9.23 3.228v2c4.537 0 8.194-1.169 10.697-3.868 2.488-2.684 3.667-6.699 3.667-12.018h-2zm-12.364 13.886h-6.25v2h6.25v-2zm44.313-37.113h1v-1h-1v1zm-9.841 0v-1h-1v1h1zm0 46.545h-1v1h1v-1zm9.841 0v1h1v-1h-1zm0-47.545h-9.841v2h9.841v-2zm-10.841 1V328h2v-46.545h-2zm1 47.545h9.841v-2h-9.841v2zm10.841-1v-46.545h-2V328h2z" fill="#042365" fill-opacity=".12"/><path d="M109.068 23.296c-1.136 2.592-2.539 3.353-2.539 3.353-4.809 2.405-5.277 5.15-5.277 5.15-.066 2.037-1.269 4.208-1.269 4.208-2.204 2.191-3.807 7.373-3.807 7.373-5.544 14.948-1.736 25.208-1.736 25.208 7.948 1.069 12.089 0 12.089 0l.936-1.129c-.869 2.411 3.607 1.129 3.607 1.129 24.846-5.965 32.193-2.217 32.193-2.217 4.542-2.104 9.752-2.304 9.752-2.304 2.137-2.044 4.475-2.492 4.475-2.492.802-6.372-1.269-11.989-1.269-11.989-3.54-.267-4.81-8.482-4.81-8.482-.935-3.366 1.604-3.5 1.604-3.5-.802-17.012 14.092-16.311 14.092-16.311 16.565-.18 14.228 17.88 14.228 17.88 5.61-1.322 0 9.892 0 9.892.133 1.977-1.937 5.791-1.937 5.791l-.401 1.055c-1.135 4.328.401 9.277.401 9.277l1.937 1.183c6.679.795 21.908 12.477 21.908 12.477 7.948 6.405 14.56 30.384 14.56 30.384h-1.002c7.949 15.923 4.742 24.125 4.742 24.125l-8.349 23.531c-1.202 3.473 0 6.953 0 6.953l6.613 6.439-.868.481c19.504 13.445 19.437 24.726 19.437 24.726-.201 6.479-2.138 12.757-2.138 12.757-.134 13.225-9.484 27.319-9.484 27.319-8.817 14.16-8.416 18.835-8.416 18.835h.601c1.002 2.739-1.136 6.546-1.136 6.546-1.803 9.284 5.478 15.362 5.478 15.362 16.498 12.023 11.621 13.693 11.621 13.693-13.158 3.005-20.238-1.804-20.238-1.804-3.206-1.87-.2-5.944-11.421-7.748s-4.142-12.556-4.142-12.556c1.269-2.205 2.739-5.344 2.739-5.344.868-2.939-.601-4.275.735-6.011 1.403-1.737 2.004-2.672 2.004-2.672 1.269-2.872 1.736-3.741 1.736-3.741h.868c-.401-1.402 0-3.94 0-3.94 2.471-4.675 1.937-16.364 1.937-16.364-.067-14.227 7.681-24.914 7.681-24.914-2.805.2-7.681-5.41-7.681-5.41-3.139-2.137-12.69-1.202-12.69-1.202l.601 1.202c-11.154.467-12.891-13.913-12.891-13.913v19.323l-5.877 3.339c-2.138 2.872-1.537 13.96-1.537 13.96 1.67 3.607 0 21.708 0 21.708-1.87 4.007-.735 9.484-.735 9.484 5.544 7.548 2.272 21.24 2.272 21.24-1.136 4.876 1.135 15.363 1.135 15.363h.802c2.672 9.551 5.476 21.039 5.476 21.039.468 10.153-6.278 15.897-6.278 15.897-6.145 6.545-15.095 4.875-15.095 4.875-10.353-1.937.601-12.423.601-12.423 8.149-9.551 6.879-13.692 6.879-13.692-3.073-7.748-3.34-10.286-3.34-10.286l.469-.801-6.48-17.3c-2.071-4.208-5.877-17.566-4.408-22.576 1.469-5.076-.534-10.82-.534-10.82-.734-2.939-1.269-13.492-1.269-13.492-1.135-5.477-2.605-14.895-2.605-14.895l-4.275 2.605c.668-1.002 1.068-2.605 1.068-2.605.334-4.675-4.273-17.232-4.273-17.232 0-5.01-.869-10.06-.869-10.06l-1.269.829c2.137-11.923 0-18.301 0-18.301-1.336-2.725-.735-5.825-.735-5.825 1.002-3.633.735-9.31.735-9.31-7.08 1.035-8.883-25.762-8.883-25.762l-3.006-30.718c-3.206-7.427-11.622-8.335-11.622-8.335-7.748-1.062-13.024 0-13.024 0 .868-1.449 0-1.697 0-1.697-9.819-4.341-18.034-5.444-18.034-5.444-14.36-2.665-19.103-8.636-15.028-20.184 1.202-4.883 12.49-29.168 12.49-29.168 1.47-2.919 2.07-8.51 2.07-8.51l.468-8.57c-.267-4.749 2.537-5.156 2.537-5.156.334-1.877 3.34-2.218 3.34-2.218.868-3.012 4.676-1.837 4.676-1.837 5.343-4.041 7.415 2.364 7.482 2.284.601-.468.534-1.042.601-1.917.067-1.636.467-7.093.467-7.093.067-1.282 1.336-1.289 1.336-1.289 1.069-.114 1.203.648 1.203.648.066 1.322-.736 16.578-.736 16.578l-.2 1.864a1.69 1.69 0 0 1 .133 1.282l-.601 2.051c-.067.367-.333.668-.6.862zm88.098 84.565l4.075 5.137h1.336s5.209 11.247 5.944 14.393c0 0-1.736 12.611-.868 16.238l-4.275 5.029s-2.537-5.817-2.137-10.259c0 0-1.336-7.988-2.405-9.485s-1.67-6.518-1.67-6.518-3.006-9.232 0-14.535z" fill="#fff" class="B"/><mask id="A" maskUnits="userSpaceOnUse" x="73" y="0" width="166" height="332" mask-type="alpha"><path d="M109.068 23.296c-1.136 2.592-2.539 3.353-2.539 3.353-4.809 2.405-5.277 5.15-5.277 5.15-.066 2.037-1.269 4.208-1.269 4.208-2.204 2.191-3.807 7.373-3.807 7.373-5.544 14.948-1.736 25.208-1.736 25.208 7.948 1.069 12.089 0 12.089 0l.936-1.129c-.869 2.411 3.607 1.129 3.607 1.129 24.846-5.965 32.193-2.217 32.193-2.217 4.542-2.104 9.752-2.304 9.752-2.304 2.137-2.044 4.475-2.492 4.475-2.492.802-6.372-1.269-11.989-1.269-11.989-3.54-.267-4.81-8.482-4.81-8.482-.935-3.366 1.604-3.5 1.604-3.5-.802-17.012 14.092-16.311 14.092-16.311 16.565-.18 14.228 17.88 14.228 17.88 5.61-1.322 0 9.892 0 9.892.133 1.977-1.937 5.791-1.937 5.791l-.401 1.055c-1.135 4.328.401 9.277.401 9.277l1.937 1.183c6.679.795 21.908 12.477 21.908 12.477 7.948 6.405 14.56 30.384 14.56 30.384h-1.002c7.949 15.923 4.742 24.125 4.742 24.125l-8.349 23.531c-1.202 3.473 0 6.953 0 6.953l6.613 6.439-.868.481c19.504 13.445 19.437 24.726 19.437 24.726-.201 6.479-2.138 12.757-2.138 12.757-.134 13.225-9.484 27.319-9.484 27.319-8.817 14.16-8.416 18.835-8.416 18.835h.601c1.002 2.739-1.136 6.546-1.136 6.546-1.803 9.284 5.478 15.362 5.478 15.362 16.498 12.023 11.621 13.693 11.621 13.693-13.158 3.005-20.238-1.804-20.238-1.804-3.206-1.87-.2-5.944-11.421-7.748s-4.142-12.556-4.142-12.556c1.269-2.205 2.739-5.344 2.739-5.344.868-2.939-.601-4.275.735-6.011 1.403-1.737 2.004-2.672 2.004-2.672 1.269-2.872 1.736-3.741 1.736-3.741h.868c-.401-1.402 0-3.94 0-3.94 2.471-4.675 1.937-16.364 1.937-16.364-.067-14.227 7.681-24.914 7.681-24.914-2.805.2-7.681-5.41-7.681-5.41-3.139-2.137-12.69-1.202-12.69-1.202l.601 1.202c-11.154.467-12.891-13.913-12.891-13.913v19.323l-5.877 3.339c-2.138 2.872-1.537 13.96-1.537 13.96 1.67 3.607 0 21.708 0 21.708-1.87 4.007-.735 9.484-.735 9.484 5.544 7.548 2.272 21.24 2.272 21.24-1.136 4.876 1.135 15.363 1.135 15.363h.802c2.672 9.551 5.476 21.039 5.476 21.039.468 10.153-6.278 15.897-6.278 15.897-6.145 6.545-15.095 4.875-15.095 4.875-10.353-1.937.601-12.423.601-12.423 8.149-9.551 6.879-13.692 6.879-13.692-3.073-7.748-3.34-10.286-3.34-10.286l.469-.801-6.48-17.3c-2.071-4.208-5.877-17.566-4.408-22.576 1.469-5.076-.534-10.82-.534-10.82-.734-2.939-1.269-13.492-1.269-13.492-1.135-5.477-2.605-14.895-2.605-14.895l-4.275 2.605c.668-1.002 1.068-2.605 1.068-2.605.334-4.675-4.273-17.232-4.273-17.232 0-5.01-.869-10.06-.869-10.06l-1.269.829c2.137-11.923 0-18.301 0-18.301-1.336-2.725-.735-5.825-.735-5.825 1.002-3.633.735-9.31.735-9.31-7.08 1.035-8.883-25.762-8.883-25.762l-3.006-30.718c-3.206-7.427-11.622-8.335-11.622-8.335-7.748-1.062-13.024 0-13.024 0 .868-1.449 0-1.697 0-1.697-9.819-4.341-18.034-5.444-18.034-5.444-14.36-2.665-19.103-8.636-15.028-20.184 1.202-4.883 12.49-29.168 12.49-29.168 1.47-2.919 2.07-8.51 2.07-8.51l.468-8.57c-.267-4.749 2.537-5.156 2.537-5.156.334-1.877 3.34-2.218 3.34-2.218.868-3.012 4.676-1.837 4.676-1.837 5.343-4.041 7.415 2.364 7.482 2.284.601-.468.534-1.042.601-1.917.067-1.636.467-7.093.467-7.093.067-1.282 1.336-1.289 1.336-1.289 1.069-.114 1.203.648 1.203.648.066 1.322-.736 16.578-.736 16.578l-.2 1.864a1.69 1.69 0 0 1 .133 1.282l-.601 2.051c-.067.367-.333.668-.6.862zm88.098 84.565l4.075 5.137h1.336s5.209 11.247 5.944 14.393c0 0-1.736 12.611-.868 16.238l-4.275 5.029s-2.537-5.817-2.137-10.259c0 0-1.336-7.988-2.405-9.485s-1.67-6.518-1.67-6.518-3.006-9.232 0-14.535z" fill="#fff" class="B"/></mask><g mask="url(#A)" class="B"><path d="M108.768 74.211l53.754 89.278 38.152-115.543-91.906 26.265z" class="F"/><path d="M168 75.942L220.754 122 227 29l-59 46.942z" class="C"/><path d="M145.881 142.992l54.149 89.278 20.795-110.042-74.944 20.764z" class="D"/><path d="M192.643 185.19l47.706-27.272L185 142l7.643 43.19zm-35-90l47.706-27.272L131 57l26.643 38.19z" fill="#5c9eab"/><path d="M135.871 245.079l64.108-12.831-23.065-37.656-43.273 19.465 2.23 31.022z" class="C"/><path d="M214.287 188.599l57.918 43.621c-3.108-28.899-11.858-57.686-23.49-86.411l-34.428 42.79z" class="H"/><path d="M200.602 232.268h72.025l-66.084-33.715-5.941 33.715zm-16.479-115.593l39.727-60.079-64.573 36.527 24.846 23.552z" class="H"/><path d="M233.011 298.706l60.219-66.491h-92.628l32.409 66.491z" class="E"/><path d="M272.339 354.307l57.766-62.688-94.216.823 36.45 61.865z" class="E"/><path d="M296.434 298.76l-16.166-57.364-42.217 51.001 58.383 6.363z" class="G"/><path d="M271.364 350.023l-16.766-25.173-25.91-16.491 23.273 50.637 19.403-8.973z" class="D"/><path d="M206.367 198.57l66.084 33.715-31.194-76.755-34.89 43.04z" class="C"/><path d="M171.805 135.877l49.398-13.666-30.785-47.327-18.613 60.993z" fill="#65a7bd"/><path d="M220.768 122.252l46.647-40.18-40.956-53.091-5.691 93.27z" fill="#456e93"/><path d="M151.5 141.5l51.01-3.719L158.995 93l-7.495 48.5z" class="D"/><path d="M157.187 185.626l36.331-.842L150 140l7.187 45.626z" class="F"/><path d="M130.461 58.593l-31.042 18.89 60.077 17.027-29.035-35.917z" class="C"/><path d="M154.556 39.471L131.638 67.67l62.309-4.087-39.391-24.112z" class="C"/><path d="M221.221 122.228l-14.854 77.395 34.918-44.151-20.064-33.244z" fill="#45849b"/><path d="M126.564 305.839l-78.61 19.657 58.861 36.799 19.749-56.456z" fill="#2c4ea3"/><path d="M200.445 232.215l-74.005 14.673 128.79 77.875-54.785-92.548z" fill="#3e79b8"/><path d="M198.6 292.339l-74.005 14.673 57.986 37.75 16.019-52.423z" class="E"/><path d="M173.421 294.859l-54.566 30.01-15.453 43.731 70.019-73.741z" fill="#4ea7cc"/><path d="M182.305 238.336l-78.903 66.876 68.18-6.578 10.723-60.298z" fill="#4167a3"/><path d="M134.473 249.676c-16.456 11.742-22.655 31.965-28.192 54.911l47.908-42.101-19.716-12.81z" class="G"/><path d="M204.768 138.211l53.754 89.278 38.152-115.543-91.906 26.265z" class="F"/><path d="M220.768 122.143l84.181-23.294 19.204-31.986-37.634-22.94-65.751 78.221z" class="D"/><path d="M61.241 28.061l48.067 46.192 5.691-93.27-53.758 47.079z" class="C"/><path d="M33.881 94.992L88.03 184.27l20.795-110.042-74.944 20.765z" class="D"/><path d="M53.764 140.999l47.706-27.271-55.349-15.919 7.643 43.19z" fill="#5c9eab"/><path d="M23.871 197.079l64.108-12.831-23.065-37.656-43.273 19.465 2.23 31.022z" class="C"/><path d="M77.669 119.895l74.131 21.398c-12.329-26.36-30.507-50.663-51.673-73.912l-22.458 52.514zm10.933 64.373h72.025l-66.084-33.715-5.942 33.715z" class="H"/><path d="M121.011 250.706l60.219-66.491H88.602l32.409 66.491z" class="E"/><path d="M160.339 306.307l57.765-62.688-94.215.823 36.45 61.865z" class="E"/><path d="M184.434 250.76l-16.166-57.364-42.217 51.001 58.383 6.363z" class="G"/><path d="M191.364 302.023l-16.766-25.173-25.91-16.491 23.273 50.637 19.403-8.973z" class="D"/><path d="M94 150.617L172 184l-36.819-76L94 150.617z" class="C"/><path d="M59.805 87.878l49.398-13.667-30.785-47.327-18.614 60.993z" fill="#65a7bd"/><path d="M108.768 74.252l46.647-40.18-40.956-53.091-5.691 93.27z" fill="#456e93"/><path d="M158.436 31.108l36.331-.841-43.517-44.784 7.186 45.626z" class="F"/><path d="M152.296-13.438l-36.328.838 43.514 44.784-7.186-45.622z" class="C"/><path d="M108.854 74L94 151.395l34.918-44.151L108.854 74z" fill="#45849b"/><path d="M102.564 217.839l-78.61 19.657 58.861 36.799 19.749-56.456z" fill="#2c4ea3"/><path d="M156.005 158L82 172.673l128.791 77.875L156.005 158z" fill="#3e79b8"/><path d="M142.6 204.339l-74.005 14.673 57.986 37.75 16.019-52.423z" class="E"/><path d="M149.421 206.859l-54.566 30.01L79.402 280.6l70.019-73.741z" fill="#4ea7cc"/><path d="M152 140L73 247l68.263-10.524L152 140z" fill="#4167a3"/><path d="M110.473 161.676c-16.456 11.742-22.655 31.965-28.192 54.911l47.908-42.101-19.716-12.81z" class="G"/><path d="M108.768 74.143l84.181-23.295 19.204-31.986-37.634-22.94-65.751 78.221z" class="D"/></g><path d="M109.068 23.296c-1.136 2.592-2.539 3.353-2.539 3.353-4.809 2.405-5.277 5.15-5.277 5.15-.066 2.037-1.269 4.208-1.269 4.208-2.204 2.191-3.807 7.373-3.807 7.373-5.544 14.948-1.736 25.208-1.736 25.208 7.948 1.069 12.089 0 12.089 0l.936-1.129c-.869 2.411 3.607 1.129 3.607 1.129 24.846-5.965 32.193-2.217 32.193-2.217 4.542-2.104 9.752-2.304 9.752-2.304 2.137-2.044 4.475-2.492 4.475-2.492.802-6.372-1.269-11.989-1.269-11.989-3.54-.267-4.81-8.482-4.81-8.482-.935-3.366 1.604-3.5 1.604-3.5-.802-17.012 14.092-16.311 14.092-16.311 16.565-.18 14.228 17.88 14.228 17.88 5.61-1.322 0 9.892 0 9.892.133 1.977-1.937 5.791-1.937 5.791l-.401 1.055c-1.135 4.328.401 9.277.401 9.277l1.937 1.183c6.679.795 21.908 12.477 21.908 12.477 7.948 6.405 14.56 30.384 14.56 30.384h-1.002c7.949 15.923 4.742 24.125 4.742 24.125l-8.349 23.531c-1.202 3.473 0 6.953 0 6.953l6.613 6.439-.868.481c19.504 13.445 19.437 24.726 19.437 24.726-.201 6.479-2.138 12.757-2.138 12.757-.134 13.225-9.484 27.319-9.484 27.319-8.817 14.16-8.416 18.835-8.416 18.835h.601c1.002 2.739-1.136 6.546-1.136 6.546-1.803 9.284 5.478 15.362 5.478 15.362 16.498 12.023 11.621 13.693 11.621 13.693-13.158 3.005-20.238-1.804-20.238-1.804-3.206-1.87-.2-5.944-11.421-7.748s-4.142-12.556-4.142-12.556c1.269-2.205 2.739-5.344 2.739-5.344.868-2.939-.601-4.275.735-6.011 1.403-1.737 2.004-2.672 2.004-2.672 1.269-2.872 1.736-3.741 1.736-3.741h.868c-.401-1.402 0-3.94 0-3.94 2.471-4.675 1.937-16.364 1.937-16.364-.067-14.227 7.681-24.914 7.681-24.914-2.805.2-7.681-5.41-7.681-5.41-3.139-2.137-12.69-1.202-12.69-1.202l.601 1.202c-11.154.467-12.891-13.913-12.891-13.913v19.323l-5.877 3.339c-2.138 2.872-1.537 13.96-1.537 13.96 1.67 3.607 0 21.708 0 21.708-1.87 4.007-.735 9.484-.735 9.484 5.544 7.548 2.272 21.24 2.272 21.24-1.136 4.876 1.135 15.363 1.135 15.363h.802c2.672 9.551 5.476 21.039 5.476 21.039.468 10.153-6.278 15.897-6.278 15.897-6.145 6.545-15.095 4.875-15.095 4.875-10.353-1.937.601-12.423.601-12.423 8.149-9.551 6.879-13.692 6.879-13.692-3.073-7.748-3.34-10.286-3.34-10.286l.469-.801-6.48-17.3c-2.071-4.208-5.877-17.566-4.408-22.576 1.469-5.076-.534-10.82-.534-10.82-.734-2.939-1.269-13.492-1.269-13.492-1.135-5.477-2.605-14.895-2.605-14.895l-4.275 2.605c.668-1.002 1.068-2.605 1.068-2.605.334-4.675-4.273-17.232-4.273-17.232 0-5.01-.869-10.06-.869-10.06l-1.269.829c2.137-11.923 0-18.301 0-18.301-1.336-2.725-.735-5.825-.735-5.825 1.002-3.633.735-9.31.735-9.31-7.08 1.035-8.883-25.762-8.883-25.762l-3.006-30.718c-3.206-7.427-11.622-8.335-11.622-8.335-7.748-1.062-13.024 0-13.024 0 .868-1.449 0-1.697 0-1.697-9.819-4.341-18.034-5.444-18.034-5.444-14.36-2.665-19.103-8.636-15.028-20.184 1.202-4.883 12.49-29.168 12.49-29.168 1.469-2.919 2.07-8.51 2.07-8.51l.468-8.57c-.267-4.749 2.537-5.156 2.537-5.156.334-1.877 3.34-2.218 3.34-2.218.868-3.012 4.676-1.837 4.676-1.837 5.343-4.041 7.415 2.364 7.482 2.284.601-.468.534-1.042.601-1.917.067-1.636.467-7.093.467-7.093.067-1.282 1.336-1.289 1.336-1.289 1.069-.114 1.203.648 1.203.648.066 1.322-.736 16.578-.736 16.578l-.2 1.864a1.69 1.69 0 0 1 .133 1.282l-.601 2.051c-.067.367-.333.668-.6.862zm88.098 84.565l4.075 5.137h1.336s5.209 11.247 5.944 14.393c0 0-1.736 12.611-.868 16.238l-4.275 5.029s-2.537-5.817-2.137-10.259c0 0-1.336-7.988-2.405-9.485s-1.67-6.518-1.67-6.518-3.006-9.232 0-14.535z" fill="#042365" style="mix-blend-mode:overlay" class="B"/></svg>