<svg width="212" height="311" viewBox="0 0 212 311" fill="none" xmlns="http://www.w3.org/2000/svg">
<g opacity="0.1">
<path d="M213.394 1.54102H76.2129V309.139H213.394V1.54102Z" stroke="black" stroke-width="2" stroke-miterlimit="10"/>
<path d="M213.401 69.7891H137.096V240.891H213.401V69.7891Z" stroke="black" stroke-width="2" stroke-miterlimit="10"/>
<path d="M76.2163 226.347C66.3843 226.467 56.6253 224.719 47.5053 221.205C38.3854 217.691 30.0861 212.48 23.089 205.875C16.0919 199.269 10.5363 191.402 6.74442 182.727C2.95258 174.053 1 164.746 1 155.344C1 145.943 2.95258 136.635 6.74442 127.961C10.5363 119.287 16.0919 111.419 23.089 104.814C30.0861 98.2089 38.3854 92.998 47.5053 89.4837C56.6253 85.9694 66.3843 84.2216 76.2163 84.3417" stroke="black" stroke-width="2" stroke-miterlimit="10"/>
</g>
</svg>
