<svg width="250" height="521" viewBox="0 0 250 521" fill="none" xmlns="http://www.w3.org/2000/svg">
<path d="M359.99 1H128.529V520H359.99V1Z" stroke="white" stroke-opacity="0.25" stroke-width="2" stroke-miterlimit="10"/>
<path d="M318 116.152H189.254V404.847H318V116.152Z" stroke="white" stroke-opacity="0.25" stroke-width="2" stroke-miterlimit="10"/>
<path d="M128.535 380.307C111.946 380.51 95.4796 377.561 80.0918 371.631C64.7041 365.702 50.701 356.91 38.895 345.765C27.0891 334.62 17.7152 321.345 11.3174 306.71C4.91952 292.074 1.625 276.37 1.625 260.507C1.625 244.645 4.91952 228.94 11.3174 214.304C17.7152 199.669 27.0891 186.394 38.895 175.249C50.701 164.105 64.7041 155.312 80.0918 149.383C95.4796 143.453 111.946 140.504 128.535 140.707" stroke="white" stroke-opacity="0.25" stroke-width="2" stroke-miterlimit="10"/>
</svg>
