<svg width="250" height="521" viewBox="0 0 250 521" fill="none" xmlns="http://www.w3.org/2000/svg">
<path d="M-110 1H121.461V520H-110V1Z" stroke="white" stroke-opacity="0.25" stroke-width="2" stroke-miterlimit="10"/>
<path d="M-68.0101 116.152H60.7363V404.847H-68.0101V116.152Z" stroke="white" stroke-opacity="0.25" stroke-width="2" stroke-miterlimit="10"/>
<path d="M121.455 380.307C138.045 380.51 154.511 377.561 169.898 371.631C185.286 365.702 199.289 356.91 211.095 345.765C222.901 334.62 232.275 321.345 238.673 306.71C245.071 292.074 248.365 276.37 248.365 260.507C248.365 244.645 245.071 228.94 238.673 214.304C232.275 199.669 222.901 186.394 211.095 175.249C199.289 164.105 185.286 155.312 169.898 149.383C154.511 143.453 138.045 140.504 121.455 140.707" stroke="white" stroke-opacity="0.25" stroke-width="2" stroke-miterlimit="10"/>
</svg>
